<svg width="972" height="148" viewBox="0 0 972 148" fill="none" xmlns="http://www.w3.org/2000/svg">
<rect x="0.5" y="0.5" width="311" height="145" rx="23.5" fill="white"/>
<rect x="0.5" y="0.5" width="311" height="145" rx="23.5" stroke="#EDEDF0"/>
<path d="M25.1186 42V31.8182H28.7479C29.54 31.8182 30.1963 31.9624 30.7166 32.2507C31.237 32.5391 31.6264 32.9335 31.8849 33.4339C32.1435 33.9311 32.2727 34.4912 32.2727 35.1143C32.2727 35.7408 32.1418 36.3042 31.88 36.8047C31.6214 37.3018 31.2304 37.6963 30.7067 37.9879C30.1863 38.2763 29.5317 38.4205 28.7429 38.4205H26.2472V37.1179H28.6037C29.1042 37.1179 29.5102 37.0317 29.8217 36.8594C30.1333 36.6837 30.362 36.4451 30.5078 36.1435C30.6536 35.8419 30.7266 35.4988 30.7266 35.1143C30.7266 34.7299 30.6536 34.3885 30.5078 34.0902C30.362 33.7919 30.1316 33.5582 29.8168 33.3892C29.5052 33.2202 29.0942 33.1357 28.5838 33.1357H26.6548V42H25.1186ZM35.5809 31.8182V42H34.0944V31.8182H35.5809ZM39.943 42.169C39.4591 42.169 39.0216 42.0795 38.6305 41.9006C38.2394 41.7183 37.9295 41.4548 37.7008 41.1101C37.4754 40.7654 37.3627 40.3428 37.3627 39.8423C37.3627 39.4115 37.4456 39.0568 37.6113 38.7784C37.777 38.5 38.0008 38.2796 38.2825 38.1172C38.5642 37.9548 38.8791 37.8321 39.2271 37.7493C39.5751 37.6664 39.9297 37.6035 40.291 37.5604C40.7484 37.5073 41.1196 37.4643 41.4046 37.4311C41.6897 37.3946 41.8968 37.3366 42.0261 37.2571C42.1554 37.1776 42.22 37.0483 42.22 36.8693V36.8345C42.22 36.4003 42.0974 36.0639 41.8521 35.8253C41.6101 35.5866 41.2489 35.4673 40.7683 35.4673C40.2678 35.4673 39.8734 35.5784 39.585 35.8004C39.3 36.0192 39.1028 36.2628 38.9934 36.5312L37.5964 36.2131C37.7621 35.7491 38.0041 35.3745 38.3223 35.0895C38.6438 34.8011 39.0133 34.5923 39.4309 34.4631C39.8485 34.3305 40.2877 34.2642 40.7484 34.2642C41.0533 34.2642 41.3765 34.3007 41.7179 34.3736C42.0626 34.4432 42.384 34.5724 42.6823 34.7614C42.984 34.9503 43.2309 35.2204 43.4231 35.5717C43.6153 35.9197 43.7115 36.3722 43.7115 36.929V42H42.2598V40.956H42.2001C42.104 41.1482 41.9598 41.3371 41.7676 41.5227C41.5753 41.7083 41.3284 41.8625 41.0268 41.9851C40.7252 42.1077 40.3639 42.169 39.943 42.169ZM40.2662 40.9759C40.6771 40.9759 41.0285 40.8946 41.3201 40.7322C41.6151 40.5698 41.8388 40.3577 41.9913 40.0959C42.1471 39.8307 42.225 39.5473 42.225 39.2457V38.2614C42.1719 38.3144 42.0692 38.3641 41.9167 38.4105C41.7676 38.4536 41.5969 38.4917 41.4046 38.5249C41.2124 38.5547 41.0251 38.5829 40.8429 38.6094C40.6606 38.6326 40.5081 38.6525 40.3855 38.669C40.0971 38.7055 39.8336 38.7668 39.595 38.853C39.3597 38.9392 39.1707 39.0634 39.0282 39.2259C38.889 39.3849 38.8194 39.5971 38.8194 39.8622C38.8194 40.2301 38.9553 40.5085 39.2271 40.6974C39.4989 40.883 39.8452 40.9759 40.2662 40.9759ZM47.3179 37.4659V42H45.8314V34.3636H47.2582V35.6065H47.3527C47.5284 35.2022 47.8035 34.8774 48.178 34.6321C48.5558 34.3868 49.0314 34.2642 49.6048 34.2642C50.1252 34.2642 50.5809 34.3736 50.972 34.5923C51.3631 34.8078 51.6664 35.1293 51.8818 35.5568C52.0973 35.9844 52.205 36.513 52.205 37.1428V42H50.7185V37.3217C50.7185 36.7682 50.5743 36.3357 50.2859 36.0241C49.9976 35.7093 49.6015 35.5518 49.0977 35.5518C48.753 35.5518 48.4465 35.6264 48.178 35.7756C47.9128 35.9247 47.7024 36.1435 47.5466 36.4318C47.3941 36.7169 47.3179 37.0616 47.3179 37.4659Z" fill="#AEAEB2"/>
<path d="M28.5256 72H24.571L30.5966 54.5455H35.3523L41.3693 72H37.4148L33.0426 58.5341H32.9062L28.5256 72ZM28.2784 65.1392H37.6193V68.0199H28.2784V65.1392ZM47.6165 72.2131C46.6222 72.2131 45.7216 71.9574 44.9148 71.446C44.1136 70.929 43.4773 70.1705 43.0057 69.1705C42.5398 68.1648 42.3068 66.9318 42.3068 65.4716C42.3068 63.9716 42.5483 62.7244 43.0312 61.7301C43.5142 60.7301 44.1563 59.983 44.9574 59.4886C45.7642 58.9886 46.6477 58.7386 47.608 58.7386C48.3409 58.7386 48.9517 58.8636 49.4403 59.1136C49.9347 59.358 50.3324 59.6648 50.6335 60.0341C50.9403 60.3977 51.1733 60.7557 51.3324 61.108H51.4432V54.5455H55.0653V72H51.4858V69.9034H51.3324C51.1619 70.267 50.9205 70.6278 50.608 70.9858C50.3011 71.3381 49.9006 71.6307 49.4062 71.8636C48.9176 72.0966 48.321 72.2131 47.6165 72.2131ZM48.767 69.3239C49.3523 69.3239 49.8466 69.1648 50.25 68.8466C50.6591 68.5227 50.9716 68.071 51.1875 67.4915C51.4091 66.9119 51.5199 66.233 51.5199 65.4545C51.5199 64.6761 51.4119 64 51.196 63.4261C50.9801 62.8523 50.6676 62.4091 50.2585 62.0966C49.8494 61.7841 49.3523 61.6278 48.767 61.6278C48.1705 61.6278 47.6676 61.7898 47.2585 62.1136C46.8494 62.4375 46.5398 62.8864 46.3295 63.4602C46.1193 64.0341 46.0142 64.6989 46.0142 65.4545C46.0142 66.2159 46.1193 66.8892 46.3295 67.4744C46.5455 68.054 46.8551 68.5085 47.2585 68.8381C47.6676 69.1619 48.1705 69.3239 48.767 69.3239ZM70.255 58.9091L65.6783 72H61.5874L57.0107 58.9091H60.8459L63.5646 68.2756H63.701L66.4112 58.9091H70.255ZM75.4943 72.2472C74.6591 72.2472 73.9148 72.1023 73.2614 71.8125C72.608 71.517 72.0909 71.0824 71.7102 70.5085C71.3352 69.929 71.1477 69.2074 71.1477 68.3438C71.1477 67.6165 71.2813 67.0057 71.5483 66.5114C71.8153 66.017 72.179 65.6193 72.6392 65.3182C73.0994 65.017 73.6222 64.7898 74.2074 64.6364C74.7983 64.483 75.4176 64.375 76.0653 64.3125C76.8267 64.233 77.4403 64.1591 77.9062 64.0909C78.3722 64.017 78.7102 63.9091 78.9205 63.767C79.1307 63.625 79.2358 63.4148 79.2358 63.1364V63.0852C79.2358 62.5455 79.0653 62.1278 78.7244 61.8324C78.3892 61.5369 77.9119 61.3892 77.2926 61.3892C76.6392 61.3892 76.1193 61.5341 75.733 61.8239C75.3466 62.108 75.0909 62.4659 74.9659 62.8977L71.608 62.625C71.7784 61.8295 72.1136 61.142 72.6136 60.5625C73.1136 59.9773 73.7585 59.5284 74.5483 59.2159C75.3438 58.8977 76.2642 58.7386 77.3097 58.7386C78.0369 58.7386 78.733 58.8239 79.3977 58.9943C80.0682 59.1648 80.6619 59.429 81.179 59.7869C81.7017 60.1449 82.1136 60.6051 82.4148 61.1676C82.7159 61.7244 82.8665 62.392 82.8665 63.1705V72H79.4233V70.1847H79.321C79.1108 70.5938 78.8295 70.9545 78.4773 71.267C78.125 71.5739 77.7017 71.8153 77.2074 71.9915C76.7131 72.1619 76.142 72.2472 75.4943 72.2472ZM76.5341 69.7415C77.0682 69.7415 77.5398 69.6364 77.9489 69.4261C78.358 69.2102 78.679 68.9205 78.9119 68.5568C79.1449 68.1932 79.2614 67.7812 79.2614 67.321V65.9318C79.1477 66.0057 78.9915 66.0739 78.7926 66.1364C78.5994 66.1932 78.3807 66.2472 78.1364 66.2983C77.892 66.3437 77.6477 66.3864 77.4034 66.4261C77.1591 66.4602 76.9375 66.4915 76.7386 66.5199C76.3125 66.5824 75.9403 66.6818 75.6222 66.8182C75.304 66.9545 75.0568 67.1392 74.8807 67.3722C74.7045 67.5994 74.6165 67.8835 74.6165 68.2244C74.6165 68.7188 74.7955 69.0966 75.1534 69.358C75.517 69.6136 75.9773 69.7415 76.5341 69.7415ZM89.3139 64.4318V72H85.6832V58.9091H89.1435V61.2188H89.2969C89.5866 60.4574 90.0724 59.8551 90.7543 59.4119C91.4361 58.9631 92.2628 58.7386 93.2344 58.7386C94.1435 58.7386 94.9361 58.9375 95.6122 59.3352C96.2884 59.733 96.8139 60.3011 97.1889 61.0398C97.5639 61.7727 97.7514 62.6477 97.7514 63.6648V72H94.1207V64.3125C94.1264 63.5114 93.9219 62.8864 93.5071 62.4375C93.0923 61.983 92.5213 61.7557 91.794 61.7557C91.3054 61.7557 90.8736 61.8608 90.4986 62.071C90.1293 62.2812 89.8395 62.5881 89.6293 62.9915C89.4247 63.3892 89.3196 63.8693 89.3139 64.4318ZM106.528 72.2557C105.187 72.2557 104.033 71.9716 103.067 71.4034C102.107 70.8295 101.369 70.0341 100.852 69.017C100.34 68 100.085 66.8295 100.085 65.5057C100.085 64.1648 100.343 62.9886 100.86 61.9773C101.383 60.9602 102.124 60.1676 103.085 59.5994C104.045 59.0256 105.187 58.7386 106.511 58.7386C107.653 58.7386 108.653 58.946 109.511 59.3608C110.369 59.7756 111.048 60.358 111.548 61.108C112.048 61.858 112.323 62.7386 112.374 63.75H108.948C108.852 63.0966 108.596 62.571 108.181 62.1733C107.772 61.7699 107.235 61.5682 106.57 61.5682C106.008 61.5682 105.516 61.7216 105.096 62.0284C104.681 62.3295 104.357 62.7699 104.124 63.3494C103.891 63.929 103.775 64.6307 103.775 65.4545C103.775 66.2898 103.888 67 104.116 67.5852C104.349 68.1705 104.675 68.6165 105.096 68.9233C105.516 69.2301 106.008 69.3835 106.57 69.3835C106.985 69.3835 107.357 69.2983 107.687 69.1278C108.022 68.9574 108.298 68.7102 108.513 68.3864C108.735 68.0568 108.88 67.6619 108.948 67.2017H112.374C112.317 68.2017 112.045 69.0824 111.556 69.8438C111.073 70.5994 110.406 71.1903 109.553 71.6165C108.701 72.0426 107.692 72.2557 106.528 72.2557ZM120.665 72.2557C119.318 72.2557 118.159 71.983 117.188 71.4375C116.222 70.8864 115.477 70.108 114.955 69.1023C114.432 68.0909 114.17 66.8949 114.17 65.5142C114.17 64.1676 114.432 62.9858 114.955 61.9688C115.477 60.9517 116.213 60.1591 117.162 59.5909C118.116 59.0227 119.236 58.7386 120.52 58.7386C121.384 58.7386 122.188 58.8778 122.932 59.1562C123.682 59.429 124.335 59.8409 124.892 60.392C125.455 60.9432 125.892 61.6364 126.205 62.4716C126.517 63.3011 126.673 64.2727 126.673 65.3864V66.3835H115.619V64.1335H123.256C123.256 63.6108 123.142 63.1477 122.915 62.7443C122.688 62.3409 122.372 62.0256 121.969 61.7983C121.571 61.5653 121.108 61.4489 120.58 61.4489C120.028 61.4489 119.54 61.5767 119.114 61.8324C118.693 62.0824 118.364 62.4205 118.125 62.8466C117.886 63.267 117.764 63.7358 117.759 64.2528V66.392C117.759 67.0398 117.878 67.5994 118.116 68.071C118.361 68.5426 118.705 68.9062 119.148 69.1619C119.591 69.4176 120.116 69.5455 120.724 69.5455C121.128 69.5455 121.497 69.4886 121.832 69.375C122.168 69.2614 122.455 69.0909 122.693 68.8636C122.932 68.6364 123.114 68.358 123.239 68.0284L126.597 68.25C126.426 69.0568 126.077 69.7614 125.548 70.3636C125.026 70.9602 124.349 71.4261 123.52 71.7614C122.696 72.0909 121.744 72.2557 120.665 72.2557ZM133.866 72.2131C132.872 72.2131 131.972 71.9574 131.165 71.446C130.364 70.929 129.727 70.1705 129.256 69.1705C128.79 68.1648 128.557 66.9318 128.557 65.4716C128.557 63.9716 128.798 62.7244 129.281 61.7301C129.764 60.7301 130.406 59.983 131.207 59.4886C132.014 58.9886 132.898 58.7386 133.858 58.7386C134.591 58.7386 135.202 58.8636 135.69 59.1136C136.185 59.358 136.582 59.6648 136.884 60.0341C137.19 60.3977 137.423 60.7557 137.582 61.108H137.693V54.5455H141.315V72H137.736V69.9034H137.582C137.412 70.267 137.17 70.6278 136.858 70.9858C136.551 71.3381 136.151 71.6307 135.656 71.8636C135.168 72.0966 134.571 72.2131 133.866 72.2131ZM135.017 69.3239C135.602 69.3239 136.097 69.1648 136.5 68.8466C136.909 68.5227 137.222 68.071 137.438 67.4915C137.659 66.9119 137.77 66.233 137.77 65.4545C137.77 64.6761 137.662 64 137.446 63.4261C137.23 62.8523 136.918 62.4091 136.509 62.0966C136.099 61.7841 135.602 61.6278 135.017 61.6278C134.42 61.6278 133.918 61.7898 133.509 62.1136C133.099 62.4375 132.79 62.8864 132.58 63.4602C132.369 64.0341 132.264 64.6989 132.264 65.4545C132.264 66.2159 132.369 66.8892 132.58 67.4744C132.795 68.054 133.105 68.5085 133.509 68.8381C133.918 69.1619 134.42 69.3239 135.017 69.3239Z" fill="#1E1E1F"/>
<rect x="24" y="95" width="69" height="24" rx="12" fill="#EDEEF0"/>
<path d="M35.564 111.144C35.028 111.144 34.536 111.048 34.088 110.856C33.648 110.656 33.296 110.36 33.032 109.968C32.776 109.568 32.64 109.068 32.624 108.468H33.824C33.832 108.772 33.904 109.048 34.04 109.296C34.176 109.544 34.372 109.744 34.628 109.896C34.892 110.04 35.204 110.112 35.564 110.112C35.924 110.112 36.224 110.044 36.464 109.908C36.712 109.772 36.896 109.588 37.016 109.356C37.144 109.124 37.208 108.864 37.208 108.576C37.208 108.224 37.12 107.936 36.944 107.712C36.776 107.488 36.544 107.32 36.248 107.208C35.96 107.096 35.636 107.04 35.276 107.04H34.652V106.044H35.276C35.788 106.044 36.196 105.928 36.5 105.696C36.804 105.456 36.956 105.124 36.956 104.7C36.956 104.348 36.836 104.06 36.596 103.836C36.364 103.604 36.02 103.488 35.564 103.488C35.108 103.488 34.748 103.616 34.484 103.872C34.22 104.128 34.072 104.452 34.04 104.844H32.84C32.864 104.372 32.992 103.956 33.224 103.596C33.456 103.228 33.772 102.948 34.172 102.756C34.572 102.556 35.036 102.456 35.564 102.456C36.132 102.456 36.604 102.556 36.98 102.756C37.364 102.948 37.656 103.208 37.856 103.536C38.056 103.864 38.156 104.224 38.156 104.616C38.156 104.912 38.096 105.192 37.976 105.456C37.864 105.712 37.704 105.932 37.496 106.116C37.288 106.3 37.032 106.432 36.728 106.512C37.048 106.568 37.332 106.692 37.58 106.884C37.836 107.068 38.036 107.304 38.18 107.592C38.332 107.88 38.408 108.212 38.408 108.588C38.408 109.044 38.3 109.468 38.084 109.86C37.868 110.244 37.548 110.556 37.124 110.796C36.708 111.028 36.188 111.144 35.564 111.144ZM42.9759 111.144C42.4319 111.144 41.9399 111.044 41.4999 110.844C41.0599 110.636 40.7079 110.348 40.4439 109.98C40.1879 109.612 40.0599 109.184 40.0599 108.696C40.0599 108.352 40.1239 108.036 40.2519 107.748C40.3799 107.452 40.5559 107.196 40.7799 106.98C41.0119 106.764 41.2839 106.608 41.5959 106.512C41.1799 106.344 40.8559 106.096 40.6239 105.768C40.3919 105.44 40.2759 105.08 40.2759 104.688C40.2759 104.28 40.3799 103.908 40.5879 103.572C40.8039 103.236 41.1119 102.968 41.5119 102.768C41.9199 102.56 42.4079 102.456 42.9759 102.456C43.5519 102.456 44.0399 102.56 44.4399 102.768C44.8479 102.968 45.1559 103.236 45.3639 103.572C45.5799 103.908 45.6879 104.28 45.6879 104.688C45.6879 105.08 45.5679 105.444 45.3279 105.78C45.0959 106.108 44.7759 106.352 44.3679 106.512C44.6799 106.608 44.9479 106.764 45.1719 106.98C45.4039 107.196 45.5839 107.452 45.7119 107.748C45.8399 108.036 45.9039 108.352 45.9039 108.696C45.9039 109.184 45.7719 109.612 45.5079 109.98C45.2519 110.348 44.9039 110.636 44.4639 110.844C44.0239 111.044 43.5279 111.144 42.9759 111.144ZM42.9759 110.112C43.5519 110.112 43.9839 109.976 44.2719 109.704C44.5599 109.424 44.7039 109.06 44.7039 108.612C44.7039 108.108 44.5479 107.724 44.2359 107.46C43.9239 107.196 43.5039 107.064 42.9759 107.064C42.4559 107.064 42.0359 107.196 41.7159 107.46C41.4039 107.724 41.2479 108.108 41.2479 108.612C41.2479 109.06 41.3919 109.424 41.6799 109.704C41.9759 109.976 42.4079 110.112 42.9759 110.112ZM42.9759 106.116C43.4399 106.116 43.8079 105.992 44.0799 105.744C44.3519 105.496 44.4879 105.18 44.4879 104.796C44.4879 104.356 44.3519 104.024 44.0799 103.8C43.8159 103.576 43.4479 103.464 42.9759 103.464C42.5119 103.464 42.1439 103.576 41.8719 103.8C41.6079 104.024 41.4759 104.356 41.4759 104.796C41.4759 105.18 41.6119 105.496 41.8839 105.744C42.1559 105.992 42.5199 106.116 42.9759 106.116ZM50.5507 111.144C49.9667 111.144 49.4627 111.04 49.0387 110.832C48.6147 110.624 48.2827 110.344 48.0427 109.992C47.8027 109.632 47.6547 109.224 47.5987 108.768H48.7747C48.8547 109.16 49.0467 109.484 49.3507 109.74C49.6627 109.996 50.0667 110.124 50.5627 110.124C50.9227 110.124 51.2307 110.04 51.4867 109.872C51.7507 109.696 51.9507 109.46 52.0867 109.164C52.2307 108.868 52.3027 108.54 52.3027 108.18C52.3027 107.804 52.2307 107.476 52.0867 107.196C51.9507 106.908 51.7547 106.688 51.4987 106.536C51.2427 106.376 50.9427 106.296 50.5987 106.296C50.1827 106.296 49.8267 106.384 49.5307 106.56C49.2427 106.736 49.0267 106.956 48.8827 107.22H47.7187L48.3907 102.6H52.9387V103.644H49.3027L48.8827 106.02C49.0747 105.804 49.3307 105.632 49.6507 105.504C49.9787 105.368 50.3507 105.3 50.7667 105.3C51.1907 105.3 51.5667 105.376 51.8947 105.528C52.2307 105.672 52.5147 105.876 52.7467 106.14C52.9787 106.404 53.1547 106.708 53.2747 107.052C53.4027 107.396 53.4667 107.764 53.4667 108.156C53.4667 108.572 53.3987 108.964 53.2627 109.332C53.1267 109.692 52.9307 110.008 52.6747 110.28C52.4267 110.552 52.1227 110.764 51.7627 110.916C51.4027 111.068 50.9987 111.144 50.5507 111.144ZM55.1621 111V102.6H56.5781L59.3741 108.288L62.1581 102.6H63.5741V111H62.3741V104.712L59.8301 109.848H58.9061L56.3621 104.736V111H55.1621ZM72.3391 111.144C71.5231 111.144 70.8191 110.964 70.2271 110.604C69.6351 110.236 69.1791 109.728 68.8591 109.08C68.5391 108.424 68.3791 107.664 68.3791 106.8C68.3791 105.944 68.5391 105.188 68.8591 104.532C69.1791 103.876 69.6351 103.368 70.2271 103.008C70.8191 102.64 71.5231 102.456 72.3391 102.456C73.3151 102.456 74.1071 102.692 74.7151 103.164C75.3231 103.636 75.7111 104.3 75.8791 105.156H74.5711C74.4431 104.66 74.1951 104.264 73.8271 103.968C73.4591 103.672 72.9591 103.524 72.3271 103.524C71.7751 103.524 71.2911 103.656 70.8751 103.92C70.4671 104.184 70.1511 104.56 69.9271 105.048C69.7111 105.536 69.6031 106.12 69.6031 106.8C69.6031 107.48 69.7111 108.068 69.9271 108.564C70.1511 109.052 70.4671 109.428 70.8751 109.692C71.2911 109.948 71.7751 110.076 72.3271 110.076C72.9591 110.076 73.4591 109.936 73.8271 109.656C74.1951 109.368 74.4431 108.98 74.5711 108.492H75.8791C75.7111 109.324 75.3231 109.976 74.7151 110.448C74.1071 110.912 73.3151 111.144 72.3391 111.144ZM80.5436 111.144C79.9516 111.144 79.4156 111.028 78.9356 110.796C78.4556 110.556 78.0716 110.196 77.7836 109.716C77.5036 109.228 77.3636 108.608 77.3636 107.856V102.6H78.5636V107.868C78.5636 108.372 78.6476 108.788 78.8156 109.116C78.9836 109.436 79.2156 109.676 79.5116 109.836C79.8156 109.988 80.1676 110.064 80.5676 110.064C80.9756 110.064 81.3236 109.988 81.6116 109.836C81.9076 109.676 82.1356 109.436 82.2956 109.116C82.4636 108.788 82.5476 108.372 82.5476 107.868V102.6H83.7476V107.856C83.7476 108.608 83.6036 109.228 83.3156 109.716C83.0276 110.196 82.6396 110.556 82.1516 110.796C81.6716 111.028 81.1356 111.144 80.5436 111.144Z" fill="#1E1E1F"/>
<rect x="100" y="95" width="65" height="24" rx="12" fill="#EDEEF0"/>
<path d="M112.716 111V109.284H108.492V108.348L112.524 102.6H113.904V108.24H115.104V109.284H113.904V111H112.716ZM109.8 108.24H112.776V103.92L109.8 108.24ZM119.364 111.144C118.78 111.144 118.276 111.04 117.852 110.832C117.428 110.624 117.096 110.344 116.856 109.992C116.616 109.632 116.468 109.224 116.412 108.768H117.588C117.668 109.16 117.86 109.484 118.164 109.74C118.476 109.996 118.88 110.124 119.376 110.124C119.736 110.124 120.044 110.04 120.3 109.872C120.564 109.696 120.764 109.46 120.9 109.164C121.044 108.868 121.116 108.54 121.116 108.18C121.116 107.804 121.044 107.476 120.9 107.196C120.764 106.908 120.568 106.688 120.312 106.536C120.056 106.376 119.756 106.296 119.412 106.296C118.996 106.296 118.64 106.384 118.344 106.56C118.056 106.736 117.84 106.956 117.696 107.22H116.532L117.204 102.6H121.752V103.644H118.116L117.696 106.02C117.888 105.804 118.144 105.632 118.464 105.504C118.792 105.368 119.164 105.3 119.58 105.3C120.004 105.3 120.38 105.376 120.708 105.528C121.044 105.672 121.328 105.876 121.56 106.14C121.792 106.404 121.968 106.708 122.088 107.052C122.216 107.396 122.28 107.764 122.28 108.156C122.28 108.572 122.212 108.964 122.076 109.332C121.94 109.692 121.744 110.008 121.488 110.28C121.24 110.552 120.936 110.764 120.576 110.916C120.216 111.068 119.812 111.144 119.364 111.144ZM127.168 111.144C126.44 111.144 125.812 110.964 125.284 110.604C124.764 110.236 124.364 109.728 124.084 109.08C123.804 108.424 123.664 107.664 123.664 106.8C123.664 105.936 123.804 105.18 124.084 104.532C124.364 103.876 124.764 103.368 125.284 103.008C125.812 102.64 126.44 102.456 127.168 102.456C127.904 102.456 128.528 102.64 129.04 103.008C129.56 103.368 129.96 103.876 130.24 104.532C130.528 105.18 130.672 105.936 130.672 106.8C130.672 107.664 130.528 108.424 130.24 109.08C129.96 109.728 129.56 110.236 129.04 110.604C128.528 110.964 127.904 111.144 127.168 111.144ZM127.168 110.076C127.608 110.076 127.996 109.944 128.332 109.68C128.676 109.416 128.944 109.04 129.136 108.552C129.336 108.064 129.436 107.48 129.436 106.8C129.436 106.112 129.336 105.528 129.136 105.048C128.944 104.56 128.676 104.188 128.332 103.932C127.996 103.668 127.608 103.536 127.168 103.536C126.728 103.536 126.336 103.668 125.992 103.932C125.648 104.188 125.376 104.56 125.176 105.048C124.984 105.528 124.888 106.112 124.888 106.8C124.888 107.48 124.984 108.064 125.176 108.552C125.376 109.04 125.648 109.416 125.992 109.68C126.336 109.944 126.728 110.076 127.168 110.076ZM135.454 111V102.6H138.298C138.962 102.6 139.506 102.712 139.93 102.936C140.354 103.16 140.666 103.46 140.866 103.836C141.074 104.204 141.178 104.624 141.178 105.096C141.178 105.544 141.074 105.96 140.866 106.344C140.666 106.72 140.35 107.024 139.918 107.256C139.486 107.48 138.934 107.592 138.262 107.592H136.654V111H135.454ZM139.87 111L138.058 107.268H139.378L141.262 111H139.87ZM136.654 106.68H138.226C138.818 106.68 139.25 106.536 139.522 106.248C139.802 105.952 139.942 105.576 139.942 105.12C139.942 104.656 139.806 104.288 139.534 104.016C139.262 103.744 138.822 103.608 138.214 103.608H136.654V106.68ZM142.875 111V102.6H145.731C146.403 102.6 146.955 102.712 147.387 102.936C147.827 103.16 148.151 103.464 148.359 103.848C148.567 104.224 148.671 104.656 148.671 105.144C148.671 105.608 148.567 106.032 148.359 106.416C148.151 106.8 147.831 107.108 147.399 107.34C146.967 107.564 146.411 107.676 145.731 107.676H144.075V111H142.875ZM144.075 106.68H145.683C146.323 106.68 146.775 106.54 147.039 106.26C147.311 105.98 147.447 105.608 147.447 105.144C147.447 104.656 147.311 104.276 147.039 104.004C146.775 103.732 146.323 103.596 145.683 103.596H144.075V106.68ZM152.856 111.144C152.248 111.144 151.712 111.036 151.248 110.82C150.784 110.596 150.424 110.284 150.168 109.884C149.912 109.484 149.78 109.016 149.772 108.48H151.044C151.044 108.784 151.112 109.064 151.248 109.32C151.392 109.568 151.596 109.768 151.86 109.92C152.132 110.064 152.464 110.136 152.856 110.136C153.192 110.136 153.48 110.08 153.72 109.968C153.968 109.856 154.156 109.704 154.284 109.512C154.412 109.312 154.476 109.084 154.476 108.828C154.476 108.54 154.412 108.304 154.284 108.12C154.156 107.928 153.976 107.768 153.744 107.64C153.52 107.512 153.26 107.4 152.964 107.304C152.676 107.208 152.364 107.104 152.028 106.992C151.348 106.768 150.844 106.484 150.516 106.14C150.196 105.796 150.036 105.348 150.036 104.796C150.036 104.324 150.144 103.916 150.36 103.572C150.584 103.22 150.9 102.948 151.308 102.756C151.716 102.556 152.192 102.456 152.736 102.456C153.288 102.456 153.764 102.556 154.164 102.756C154.572 102.956 154.892 103.232 155.124 103.584C155.356 103.936 155.476 104.348 155.484 104.82H154.212C154.212 104.604 154.152 104.392 154.032 104.184C153.92 103.976 153.752 103.808 153.528 103.68C153.312 103.544 153.04 103.476 152.712 103.476C152.432 103.468 152.184 103.512 151.968 103.608C151.752 103.704 151.584 103.844 151.464 104.028C151.344 104.212 151.284 104.432 151.284 104.688C151.284 104.944 151.34 105.152 151.452 105.312C151.564 105.464 151.72 105.596 151.92 105.708C152.128 105.82 152.372 105.924 152.652 106.02C152.932 106.108 153.24 106.208 153.576 106.32C153.984 106.456 154.352 106.624 154.68 106.824C155.008 107.016 155.264 107.268 155.448 107.58C155.64 107.884 155.736 108.276 155.736 108.756C155.736 109.172 155.628 109.56 155.412 109.92C155.196 110.28 154.876 110.576 154.452 110.808C154.028 111.032 153.496 111.144 152.856 111.144Z" fill="#1E1E1F"/>
<path d="M212.423 101.818H214.267V108.47C214.267 109.199 214.095 109.841 213.75 110.394C213.409 110.948 212.928 111.38 212.308 111.692C211.688 112 210.964 112.154 210.136 112.154C209.304 112.154 208.578 112 207.958 111.692C207.338 111.38 206.858 110.948 206.516 110.394C206.175 109.841 206.004 109.199 206.004 108.47V101.818H207.849V108.316C207.849 108.74 207.942 109.118 208.127 109.45C208.316 109.781 208.581 110.041 208.923 110.23C209.264 110.416 209.668 110.509 210.136 110.509C210.603 110.509 211.007 110.416 211.349 110.23C211.693 110.041 211.959 109.781 212.144 109.45C212.33 109.118 212.423 108.74 212.423 108.316V101.818ZM218.132 107.526V112H216.332V104.364H218.052V105.661H218.142C218.318 105.234 218.598 104.894 218.982 104.642C219.37 104.39 219.849 104.264 220.419 104.264C220.946 104.264 221.405 104.377 221.796 104.602C222.19 104.828 222.495 105.154 222.711 105.582C222.93 106.009 223.037 106.528 223.034 107.138V112H221.234V107.416C221.234 106.906 221.102 106.506 220.837 106.218C220.575 105.93 220.212 105.786 219.748 105.786C219.433 105.786 219.153 105.855 218.908 105.994C218.666 106.13 218.475 106.327 218.336 106.586C218.2 106.844 218.132 107.158 218.132 107.526ZM228.817 104.364V105.756H224.427V104.364H228.817ZM225.511 102.534H227.31V109.703C227.31 109.945 227.347 110.131 227.42 110.26C227.496 110.386 227.595 110.472 227.718 110.518C227.841 110.565 227.977 110.588 228.126 110.588C228.238 110.588 228.341 110.58 228.434 110.563C228.53 110.547 228.603 110.532 228.653 110.518L228.956 111.925C228.86 111.959 228.722 111.995 228.543 112.035C228.368 112.075 228.152 112.098 227.897 112.104C227.446 112.118 227.04 112.05 226.679 111.901C226.318 111.748 226.031 111.513 225.819 111.195C225.61 110.876 225.507 110.479 225.511 110.001V102.534ZM230.462 112V104.364H232.262V112H230.462ZM231.367 103.28C231.082 103.28 230.836 103.185 230.631 102.996C230.425 102.804 230.323 102.574 230.323 102.305C230.323 102.034 230.425 101.803 230.631 101.614C230.836 101.422 231.082 101.326 231.367 101.326C231.655 101.326 231.9 101.422 232.103 101.614C232.308 101.803 232.411 102.034 232.411 102.305C232.411 102.574 232.308 102.804 232.103 102.996C231.9 103.185 231.655 103.28 231.367 103.28ZM236.052 101.818V112H234.252V101.818H236.052ZM250.102 101.818V112H248.461L243.664 105.065H243.579V112H241.735V101.818H243.385L248.178 108.759H248.268V101.818H250.102ZM255.503 112.149C254.758 112.149 254.111 111.985 253.564 111.657C253.017 111.329 252.593 110.87 252.292 110.28C251.993 109.69 251.844 109 251.844 108.212C251.844 107.423 251.993 106.732 252.292 106.138C252.593 105.545 253.017 105.085 253.564 104.756C254.111 104.428 254.758 104.264 255.503 104.264C256.249 104.264 256.895 104.428 257.442 104.756C257.989 105.085 258.412 105.545 258.71 106.138C259.012 106.732 259.162 107.423 259.162 108.212C259.162 109 259.012 109.69 258.71 110.28C258.412 110.87 257.989 111.329 257.442 111.657C256.895 111.985 256.249 112.149 255.503 112.149ZM255.513 110.707C255.918 110.707 256.256 110.596 256.527 110.374C256.799 110.149 257.001 109.847 257.134 109.469C257.27 109.092 257.338 108.671 257.338 108.207C257.338 107.739 257.27 107.317 257.134 106.939C257.001 106.558 256.799 106.254 256.527 106.029C256.256 105.804 255.918 105.691 255.513 105.691C255.099 105.691 254.754 105.804 254.479 106.029C254.207 106.254 254.003 106.558 253.868 106.939C253.735 107.317 253.669 107.739 253.669 108.207C253.669 108.671 253.735 109.092 253.868 109.469C254.003 109.847 254.207 110.149 254.479 110.374C254.754 110.596 255.099 110.707 255.513 110.707ZM267.391 104.364L264.672 112H262.683L259.964 104.364H261.883L263.638 110.036H263.717L265.477 104.364H267.391ZM276.511 101.818V112H274.666V103.613H274.607L272.225 105.134V103.444L274.756 101.818H276.511ZM282.999 112.194C282.181 112.194 281.478 111.987 280.891 111.572C280.308 111.155 279.859 110.553 279.544 109.768C279.233 108.979 279.077 108.029 279.077 106.919C279.08 105.809 279.238 104.864 279.549 104.085C279.864 103.303 280.313 102.706 280.896 102.295C281.483 101.884 282.184 101.679 282.999 101.679C283.815 101.679 284.516 101.884 285.102 102.295C285.689 102.706 286.138 103.303 286.45 104.085C286.764 104.867 286.922 105.812 286.922 106.919C286.922 108.033 286.764 108.984 286.45 109.773C286.138 110.558 285.689 111.158 285.102 111.572C284.519 111.987 283.818 112.194 282.999 112.194ZM282.999 110.638C283.636 110.638 284.138 110.325 284.506 109.698C284.877 109.068 285.063 108.142 285.063 106.919C285.063 106.11 284.978 105.431 284.809 104.881C284.64 104.33 284.401 103.916 284.093 103.638C283.785 103.356 283.42 103.215 282.999 103.215C282.366 103.215 281.866 103.53 281.498 104.16C281.13 104.786 280.944 105.706 280.941 106.919C280.938 107.731 281.019 108.414 281.185 108.967C281.354 109.521 281.592 109.938 281.901 110.22C282.209 110.499 282.575 110.638 282.999 110.638Z" fill="#0B57D0"/>
<rect x="328.5" y="0.5" width="315" height="145" rx="23.5" fill="white"/>
<rect x="328.5" y="0.5" width="315" height="145" rx="23.5" stroke="#EDEDF0"/>
<path d="M361.575 32.1293H360.024C359.964 31.7978 359.853 31.5062 359.691 31.2543C359.529 31.0024 359.33 30.7886 359.094 30.6129C358.859 30.4373 358.596 30.3047 358.304 30.2152C358.016 30.1257 357.709 30.081 357.384 30.081C356.798 30.081 356.272 30.2285 355.808 30.5234C355.348 30.8184 354.983 31.2509 354.714 31.821C354.449 32.3911 354.317 33.0871 354.317 33.9091C354.317 34.7377 354.449 35.437 354.714 36.0071C354.983 36.5772 355.349 37.008 355.813 37.2997C356.277 37.5914 356.799 37.7372 357.379 37.7372C357.701 37.7372 358.006 37.6941 358.294 37.608C358.586 37.5185 358.849 37.3875 359.085 37.2152C359.32 37.0429 359.519 36.8324 359.681 36.5838C359.847 36.3319 359.961 36.0436 360.024 35.7188L361.575 35.7237C361.492 36.2242 361.332 36.6849 361.093 37.1058C360.858 37.5234 360.554 37.8847 360.183 38.1896C359.815 38.4912 359.394 38.7249 358.92 38.8906C358.446 39.0563 357.929 39.1392 357.369 39.1392C356.488 39.1392 355.702 38.9304 355.013 38.5128C354.323 38.0919 353.78 37.4903 353.382 36.7081C352.988 35.9259 352.79 34.9929 352.79 33.9091C352.79 32.822 352.989 31.889 353.387 31.1101C353.785 30.3279 354.328 29.728 355.018 29.3104C355.707 28.8894 356.491 28.679 357.369 28.679C357.91 28.679 358.413 28.7569 358.881 28.9126C359.351 29.0651 359.774 29.2905 360.148 29.5888C360.523 29.8838 360.833 30.245 361.078 30.6726C361.323 31.0968 361.489 31.5824 361.575 32.1293ZM370.101 28.8182H371.642V35.5149C371.642 36.2275 371.475 36.8589 371.14 37.4091C370.805 37.956 370.335 38.3868 369.728 38.7017C369.122 39.0133 368.411 39.169 367.595 39.169C366.783 39.169 366.074 39.0133 365.468 38.7017C364.861 38.3868 364.39 37.956 364.056 37.4091C363.721 36.8589 363.554 36.2275 363.554 35.5149V28.8182H365.09V35.3906C365.09 35.8513 365.191 36.2607 365.393 36.6186C365.599 36.9766 365.889 37.2583 366.263 37.4638C366.638 37.666 367.082 37.767 367.595 37.767C368.112 37.767 368.558 37.666 368.933 37.4638C369.311 37.2583 369.599 36.9766 369.798 36.6186C370 36.2607 370.101 35.8513 370.101 35.3906V28.8182ZM377.861 39V28.8182H379.347V32.6016H379.437C379.523 32.4425 379.647 32.2585 379.81 32.0497C379.972 31.8409 380.198 31.6586 380.486 31.5028C380.774 31.3438 381.155 31.2642 381.629 31.2642C382.246 31.2642 382.796 31.42 383.28 31.7315C383.764 32.0431 384.143 32.4922 384.418 33.0788C384.697 33.6655 384.836 34.3714 384.836 35.1967C384.836 36.022 384.698 36.7296 384.423 37.3196C384.148 37.9062 383.77 38.3587 383.29 38.6768C382.809 38.9917 382.261 39.1491 381.644 39.1491C381.18 39.1491 380.801 39.0713 380.506 38.9155C380.214 38.7597 379.985 38.5774 379.82 38.3686C379.654 38.1598 379.526 37.9742 379.437 37.8118H379.313V39H377.861ZM379.318 35.1818C379.318 35.7187 379.395 36.1894 379.551 36.5938C379.707 36.9981 379.932 37.3146 380.227 37.5433C380.522 37.7687 380.884 37.8814 381.311 37.8814C381.755 37.8814 382.126 37.7637 382.425 37.5284C382.723 37.2898 382.948 36.9666 383.101 36.5589C383.257 36.1513 383.335 35.6922 383.335 35.1818C383.335 34.678 383.258 34.2256 383.106 33.8246C382.957 33.4235 382.731 33.107 382.43 32.875C382.131 32.643 381.759 32.527 381.311 32.527C380.88 32.527 380.516 32.638 380.217 32.8601C379.922 33.0821 379.699 33.392 379.546 33.7898C379.394 34.1875 379.318 34.6515 379.318 35.1818ZM388.868 39.169C388.384 39.169 387.946 39.0795 387.555 38.9006C387.164 38.7183 386.854 38.4548 386.625 38.1101C386.4 37.7654 386.287 37.3428 386.287 36.8423C386.287 36.4115 386.37 36.0568 386.536 35.7784C386.702 35.5 386.925 35.2796 387.207 35.1172C387.489 34.9548 387.804 34.8321 388.152 34.7493C388.5 34.6664 388.854 34.6035 389.216 34.5604C389.673 34.5073 390.044 34.4643 390.329 34.4311C390.614 34.3946 390.821 34.3366 390.951 34.2571C391.08 34.1776 391.145 34.0483 391.145 33.8693V33.8345C391.145 33.4003 391.022 33.0639 390.777 32.8253C390.535 32.5866 390.173 32.4673 389.693 32.4673C389.192 32.4673 388.798 32.5784 388.51 32.8004C388.225 33.0192 388.027 33.2628 387.918 33.5312L386.521 33.2131C386.687 32.7491 386.929 32.3745 387.247 32.0895C387.568 31.8011 387.938 31.5923 388.355 31.4631C388.773 31.3305 389.212 31.2642 389.673 31.2642C389.978 31.2642 390.301 31.3007 390.642 31.3736C390.987 31.4432 391.309 31.5724 391.607 31.7614C391.908 31.9503 392.155 32.2204 392.348 32.5717C392.54 32.9197 392.636 33.3722 392.636 33.929V39H391.184V37.956H391.125C391.029 38.1482 390.884 38.3371 390.692 38.5227C390.5 38.7083 390.253 38.8625 389.951 38.9851C389.65 39.1077 389.288 39.169 388.868 39.169ZM389.191 37.9759C389.602 37.9759 389.953 37.8946 390.245 37.7322C390.54 37.5698 390.763 37.3577 390.916 37.0959C391.072 36.8307 391.149 36.5473 391.149 36.2457V35.2614C391.096 35.3144 390.994 35.3641 390.841 35.4105C390.692 35.4536 390.521 35.4917 390.329 35.5249C390.137 35.5547 389.95 35.5829 389.767 35.6094C389.585 35.6326 389.433 35.6525 389.31 35.669C389.022 35.7055 388.758 35.7668 388.52 35.853C388.284 35.9392 388.095 36.0634 387.953 36.2259C387.814 36.3849 387.744 36.5971 387.744 36.8622C387.744 37.2301 387.88 37.5085 388.152 37.6974C388.423 37.883 388.77 37.9759 389.191 37.9759ZM396.242 28.8182V39H394.756V28.8182H396.242ZM400.605 39.169C400.121 39.169 399.683 39.0795 399.292 38.9006C398.901 38.7183 398.591 38.4548 398.362 38.1101C398.137 37.7654 398.024 37.3428 398.024 36.8423C398.024 36.4115 398.107 36.0568 398.273 35.7784C398.439 35.5 398.662 35.2796 398.944 35.1172C399.226 34.9548 399.541 34.8321 399.889 34.7493C400.237 34.6664 400.591 34.6035 400.953 34.5604C401.41 34.5073 401.781 34.4643 402.066 34.4311C402.351 34.3946 402.558 34.3366 402.688 34.2571C402.817 34.1776 402.882 34.0483 402.882 33.8693V33.8345C402.882 33.4003 402.759 33.0639 402.514 32.8253C402.272 32.5866 401.91 32.4673 401.43 32.4673C400.929 32.4673 400.535 32.5784 400.247 32.8004C399.962 33.0192 399.764 33.2628 399.655 33.5312L398.258 33.2131C398.424 32.7491 398.666 32.3745 398.984 32.0895C399.305 31.8011 399.675 31.5923 400.092 31.4631C400.51 31.3305 400.949 31.2642 401.41 31.2642C401.715 31.2642 402.038 31.3007 402.379 31.3736C402.724 31.4432 403.046 31.5724 403.344 31.7614C403.646 31.9503 403.892 32.2204 404.085 32.5717C404.277 32.9197 404.373 33.3722 404.373 33.929V39H402.921V37.956H402.862C402.766 38.1482 402.621 38.3371 402.429 38.5227C402.237 38.7083 401.99 38.8625 401.688 38.9851C401.387 39.1077 401.025 39.169 400.605 39.169ZM400.928 37.9759C401.339 37.9759 401.69 37.8946 401.982 37.7322C402.277 37.5698 402.5 37.3577 402.653 37.0959C402.809 36.8307 402.887 36.5473 402.887 36.2457V35.2614C402.833 35.3144 402.731 35.3641 402.578 35.4105C402.429 35.4536 402.258 35.4917 402.066 35.5249C401.874 35.5547 401.687 35.5829 401.504 35.6094C401.322 35.6326 401.17 35.6525 401.047 35.669C400.759 35.7055 400.495 35.7668 400.257 35.853C400.021 35.9392 399.832 36.0634 399.69 36.2259C399.551 36.3849 399.481 36.5971 399.481 36.8622C399.481 37.2301 399.617 37.5085 399.889 37.6974C400.16 37.883 400.507 37.9759 400.928 37.9759ZM407.979 34.4659V39H406.493V31.3636H407.92V32.6065H408.014C408.19 32.2022 408.465 31.8774 408.84 31.6321C409.217 31.3868 409.693 31.2642 410.266 31.2642C410.787 31.2642 411.242 31.3736 411.634 31.5923C412.025 31.8078 412.328 32.1293 412.543 32.5568C412.759 32.9844 412.867 33.513 412.867 34.1428V39H411.38V34.3217C411.38 33.7682 411.236 33.3357 410.948 33.0241C410.659 32.7093 410.263 32.5518 409.759 32.5518C409.415 32.5518 409.108 32.6264 408.84 32.7756C408.574 32.9247 408.364 33.1435 408.208 33.4318C408.056 33.7169 407.979 34.0616 407.979 34.4659ZM418.217 39.1541C417.478 39.1541 416.841 38.9867 416.308 38.652C415.777 38.3139 415.37 37.8482 415.085 37.255C414.8 36.6617 414.657 35.9822 414.657 35.2166C414.657 34.4411 414.803 33.7566 415.095 33.1634C415.386 32.5668 415.797 32.1011 416.328 31.7663C416.858 31.4316 417.483 31.2642 418.202 31.2642C418.782 31.2642 419.299 31.3719 419.753 31.5874C420.207 31.7995 420.573 32.0978 420.852 32.4822C421.133 32.8667 421.301 33.3158 421.354 33.8295H419.907C419.828 33.4716 419.645 33.1634 419.36 32.9048C419.079 32.6463 418.701 32.517 418.227 32.517C417.812 32.517 417.449 32.6264 417.138 32.8452C416.83 33.0606 416.589 33.3688 416.417 33.7699C416.245 34.1676 416.159 34.6383 416.159 35.1818C416.159 35.7386 416.243 36.2192 416.412 36.6236C416.581 37.0279 416.82 37.3411 417.128 37.5632C417.44 37.7853 417.806 37.8963 418.227 37.8963C418.508 37.8963 418.764 37.8449 418.992 37.7422C419.224 37.6361 419.418 37.4853 419.574 37.2898C419.733 37.0942 419.844 36.8589 419.907 36.5838H421.354C421.301 37.0777 421.14 37.5185 420.872 37.9062C420.603 38.294 420.244 38.599 419.793 38.821C419.345 39.0431 418.82 39.1541 418.217 39.1541ZM426.375 39.1541C425.622 39.1541 424.974 38.9934 424.431 38.6719C423.891 38.3471 423.473 37.8913 423.178 37.3047C422.886 36.7147 422.74 36.0237 422.74 35.2315C422.74 34.4493 422.886 33.7599 423.178 33.1634C423.473 32.5668 423.884 32.1011 424.411 31.7663C424.941 31.4316 425.561 31.2642 426.27 31.2642C426.701 31.2642 427.119 31.3355 427.523 31.478C427.927 31.6205 428.29 31.8442 428.612 32.1491C428.933 32.4541 429.187 32.8501 429.373 33.3374C429.558 33.8213 429.651 34.4096 429.651 35.1023V35.6293H423.581V34.5156H428.194C428.194 34.1245 428.115 33.7782 427.956 33.4766C427.797 33.1716 427.573 32.9313 427.285 32.7557C426.999 32.58 426.665 32.4922 426.28 32.4922C425.863 32.4922 425.498 32.5949 425.186 32.8004C424.878 33.0026 424.64 33.2678 424.471 33.5959C424.305 33.9207 424.222 34.2737 424.222 34.6548V35.5249C424.222 36.0353 424.311 36.4695 424.49 36.8274C424.673 37.1854 424.926 37.4588 425.251 37.6477C425.576 37.8333 425.955 37.9261 426.39 37.9261C426.671 37.9261 426.928 37.8864 427.16 37.8068C427.392 37.724 427.593 37.6013 427.762 37.4389C427.931 37.2765 428.06 37.076 428.15 36.8374L429.557 37.0909C429.444 37.5052 429.242 37.8681 428.95 38.1797C428.662 38.4879 428.299 38.7282 427.861 38.9006C427.427 39.0696 426.932 39.1541 426.375 39.1541Z" fill="#AEAEB2"/>
<path d="M359.815 69.2386C358.588 69.2386 357.497 69.0284 356.543 68.608C355.594 68.1875 354.844 67.6023 354.293 66.8523C353.741 66.1023 353.449 65.2358 353.415 64.2528H356.619C356.648 64.7244 356.804 65.1364 357.088 65.4886C357.372 65.8352 357.75 66.1051 358.222 66.2983C358.693 66.4915 359.222 66.5881 359.807 66.5881C360.432 66.5881 360.986 66.4801 361.469 66.2642C361.952 66.0426 362.33 65.7358 362.602 65.3438C362.875 64.9517 363.009 64.5 363.003 63.9886C363.009 63.4602 362.872 62.9943 362.594 62.5909C362.315 62.1875 361.912 61.8722 361.384 61.6449C360.861 61.4176 360.23 61.304 359.491 61.304H357.949V58.8665H359.491C360.099 58.8665 360.631 58.7614 361.085 58.5511C361.545 58.3409 361.906 58.0455 362.168 57.6648C362.429 57.2784 362.557 56.8324 362.551 56.3267C362.557 55.8324 362.446 55.4034 362.219 55.0398C361.997 54.6705 361.682 54.3835 361.273 54.179C360.869 53.9744 360.395 53.8722 359.849 53.8722C359.315 53.8722 358.821 53.9687 358.366 54.1619C357.912 54.3551 357.545 54.6307 357.267 54.9886C356.989 55.3409 356.841 55.7614 356.824 56.25H353.781C353.804 55.2727 354.085 54.4148 354.625 53.6761C355.17 52.9318 355.898 52.3523 356.807 51.9375C357.716 51.517 358.736 51.3068 359.866 51.3068C361.031 51.3068 362.043 51.5256 362.901 51.9631C363.764 52.3949 364.432 52.9773 364.903 53.7102C365.375 54.4432 365.611 55.2528 365.611 56.1392C365.616 57.1222 365.327 57.946 364.741 58.6108C364.162 59.2756 363.401 59.7102 362.457 59.9148V60.0511C363.685 60.2216 364.625 60.6761 365.278 61.4148C365.938 62.1477 366.264 63.0597 366.259 64.1506C366.259 65.1278 365.98 66.0028 365.423 66.7756C364.872 67.5426 364.111 68.1449 363.139 68.5824C362.173 69.0199 361.065 69.2386 359.815 69.2386ZM375.636 69.3324C374.232 69.3324 373.028 68.9773 372.022 68.267C371.022 67.5511 370.252 66.5199 369.712 65.1733C369.178 63.821 368.911 62.1932 368.911 60.2898C368.917 58.3864 369.187 56.767 369.721 55.4318C370.261 54.0909 371.031 53.0682 372.031 52.3636C373.036 51.6591 374.238 51.3068 375.636 51.3068C377.033 51.3068 378.235 51.6591 379.241 52.3636C380.246 53.0682 381.016 54.0909 381.55 55.4318C382.09 56.7727 382.36 58.392 382.36 60.2898C382.36 62.1989 382.09 63.8295 381.55 65.1818C381.016 66.5284 380.246 67.5568 379.241 68.267C378.241 68.9773 377.039 69.3324 375.636 69.3324ZM375.636 66.6648C376.727 66.6648 377.587 66.1278 378.218 65.054C378.854 63.9744 379.173 62.3864 379.173 60.2898C379.173 58.9034 379.028 57.7386 378.738 56.7955C378.448 55.8523 378.039 55.142 377.511 54.6648C376.982 54.1818 376.357 53.9403 375.636 53.9403C374.55 53.9403 373.692 54.4801 373.062 55.5597C372.431 56.6335 372.113 58.2102 372.107 60.2898C372.102 61.6818 372.241 62.8523 372.525 63.8011C372.815 64.75 373.224 65.4659 373.752 65.9489C374.281 66.4261 374.908 66.6648 375.636 66.6648ZM391.26 69.2386C390.124 69.2386 389.107 69.0256 388.209 68.5994C387.311 68.1676 386.598 67.5767 386.07 66.8267C385.547 66.0767 385.268 65.2187 385.234 64.2528H388.303C388.359 64.9687 388.669 65.554 389.232 66.0085C389.794 66.4574 390.47 66.6818 391.26 66.6818C391.879 66.6818 392.43 66.5398 392.913 66.2557C393.396 65.9716 393.777 65.5767 394.055 65.071C394.334 64.5653 394.47 63.9886 394.464 63.3409C394.47 62.6818 394.331 62.0966 394.047 61.5852C393.763 61.0739 393.374 60.6733 392.879 60.3835C392.385 60.0881 391.817 59.9403 391.175 59.9403C390.652 59.9347 390.138 60.0312 389.632 60.2301C389.126 60.429 388.726 60.6903 388.43 61.0142L385.575 60.5455L386.487 51.5455H396.612V54.1875H389.104L388.601 58.8153H388.703C389.027 58.4347 389.484 58.1193 390.075 57.8693C390.666 57.6136 391.314 57.4858 392.018 57.4858C393.075 57.4858 394.018 57.7358 394.848 58.2358C395.678 58.7301 396.331 59.4119 396.808 60.2812C397.286 61.1506 397.524 62.1449 397.524 63.2642C397.524 64.4176 397.257 65.446 396.723 66.3494C396.195 67.2472 395.459 67.9545 394.516 68.4716C393.578 68.983 392.493 69.2386 391.26 69.2386ZM406.017 65.7614V63.2472L413.423 51.5455H415.52V55.125H414.241L409.256 63.0256V63.1619H419.594V65.7614H406.017ZM414.344 69V64.9943L414.378 63.8693V51.5455H417.361V69H414.344ZM428.385 69.2386C427.249 69.2386 426.232 69.0256 425.334 68.5994C424.436 68.1676 423.723 67.5767 423.195 66.8267C422.672 66.0767 422.393 65.2187 422.359 64.2528H425.428C425.484 64.9687 425.794 65.554 426.357 66.0085C426.919 66.4574 427.595 66.6818 428.385 66.6818C429.004 66.6818 429.555 66.5398 430.038 66.2557C430.521 65.9716 430.902 65.5767 431.18 65.071C431.459 64.5653 431.595 63.9886 431.589 63.3409C431.595 62.6818 431.456 62.0966 431.172 61.5852C430.888 61.0739 430.499 60.6733 430.004 60.3835C429.51 60.0881 428.942 59.9403 428.3 59.9403C427.777 59.9347 427.263 60.0312 426.757 60.2301C426.251 60.429 425.851 60.6903 425.555 61.0142L422.7 60.5455L423.612 51.5455H433.737V54.1875H426.229L425.726 58.8153H425.828C426.152 58.4347 426.609 58.1193 427.2 57.8693C427.791 57.6136 428.439 57.4858 429.143 57.4858C430.2 57.4858 431.143 57.7358 431.973 58.2358C432.803 58.7301 433.456 59.4119 433.933 60.2812C434.411 61.1506 434.649 62.1449 434.649 63.2642C434.649 64.4176 434.382 65.446 433.848 66.3494C433.32 67.2472 432.584 67.9545 431.641 68.4716C430.703 68.983 429.618 69.2386 428.385 69.2386ZM438.143 69L445.567 54.3068V54.1875H436.95V51.5455H448.839V54.2472L441.425 69H438.143ZM457.543 69V66.7159L463.603 60.7756C464.183 60.1903 464.665 59.6705 465.052 59.2159C465.438 58.7614 465.728 58.321 465.921 57.8949C466.114 57.4687 466.211 57.0142 466.211 56.5312C466.211 55.9801 466.086 55.5085 465.836 55.1165C465.586 54.7188 465.242 54.4119 464.805 54.196C464.367 53.9801 463.87 53.8722 463.313 53.8722C462.739 53.8722 462.237 53.9915 461.805 54.2301C461.373 54.4631 461.038 54.7955 460.799 55.2273C460.566 55.6591 460.45 56.1733 460.45 56.7699H457.441C457.441 55.6619 457.694 54.6989 458.2 53.8807C458.705 53.0625 459.401 52.429 460.288 51.9801C461.18 51.5312 462.202 51.3068 463.356 51.3068C464.526 51.3068 465.555 51.5256 466.441 51.9631C467.327 52.4006 468.015 53 468.504 53.7614C468.998 54.5227 469.245 55.392 469.245 56.3693C469.245 57.0227 469.12 57.6648 468.87 58.2955C468.62 58.9261 468.18 59.625 467.549 60.392C466.924 61.1591 466.046 62.0881 464.915 63.179L461.907 66.2386V66.358H469.509V69H457.543ZM478.654 69.2386C477.387 69.2386 476.262 69.0256 475.279 68.5994C474.302 68.1733 473.535 67.5909 472.978 66.8523C472.427 66.108 472.154 65.2642 472.16 64.321C472.154 63.5881 472.313 62.9148 472.637 62.3011C472.961 61.6875 473.398 61.1761 473.95 60.767C474.506 60.3523 475.126 60.0881 475.808 59.9744V59.8551C474.91 59.6562 474.183 59.1989 473.626 58.483C473.075 57.7614 472.802 56.929 472.808 55.9858C472.802 55.0881 473.052 54.2869 473.558 53.5824C474.063 52.8778 474.756 52.3239 475.637 51.9205C476.518 51.5114 477.523 51.3068 478.654 51.3068C479.773 51.3068 480.771 51.5114 481.646 51.9205C482.526 52.3239 483.219 52.8778 483.725 53.5824C484.237 54.2869 484.492 55.0881 484.492 55.9858C484.492 56.929 484.211 57.7614 483.648 58.483C483.092 59.1989 482.373 59.6562 481.492 59.8551V59.9744C482.174 60.0881 482.788 60.3523 483.333 60.767C483.884 61.1761 484.322 61.6875 484.646 62.3011C484.975 62.9148 485.14 63.5881 485.14 64.321C485.14 65.2642 484.862 66.108 484.305 66.8523C483.748 67.5909 482.981 68.1733 482.004 68.5994C481.032 69.0256 479.915 69.2386 478.654 69.2386ZM478.654 66.8011C479.308 66.8011 479.876 66.6903 480.359 66.4688C480.842 66.2415 481.217 65.9233 481.484 65.5142C481.751 65.1051 481.887 64.6335 481.893 64.0994C481.887 63.5426 481.742 63.0511 481.458 62.625C481.18 62.1932 480.796 61.8551 480.308 61.6108C479.825 61.3665 479.273 61.2443 478.654 61.2443C478.029 61.2443 477.472 61.3665 476.984 61.6108C476.495 61.8551 476.109 62.1932 475.825 62.625C475.546 63.0511 475.41 63.5426 475.415 64.0994C475.41 64.6335 475.54 65.1051 475.808 65.5142C476.075 65.9176 476.45 66.233 476.933 66.4602C477.421 66.6875 477.995 66.8011 478.654 66.8011ZM478.654 58.8494C479.188 58.8494 479.66 58.7415 480.069 58.5256C480.484 58.3097 480.81 58.0085 481.049 57.6222C481.288 57.2358 481.41 56.7898 481.415 56.2841C481.41 55.7841 481.29 55.3466 481.058 54.9716C480.825 54.5909 480.501 54.2983 480.086 54.0938C479.671 53.8835 479.194 53.7784 478.654 53.7784C478.103 53.7784 477.617 53.8835 477.197 54.0938C476.782 54.2983 476.458 54.5909 476.225 54.9716C475.998 55.3466 475.887 55.7841 475.893 56.2841C475.887 56.7898 476.001 57.2358 476.234 57.6222C476.472 58.0028 476.799 58.304 477.214 58.5256C477.634 58.7415 478.114 58.8494 478.654 58.8494ZM494.001 51.3068C494.837 51.3125 495.649 51.4602 496.439 51.75C497.234 52.0341 497.95 52.5 498.587 53.1477C499.223 53.7898 499.729 54.6506 500.104 55.7301C500.479 56.8097 500.666 58.1449 500.666 59.7358C500.672 61.2358 500.513 62.5767 500.189 63.7585C499.871 64.9347 499.413 65.929 498.817 66.7415C498.22 67.554 497.501 68.1733 496.661 68.5994C495.82 69.0256 494.874 69.2386 493.822 69.2386C492.72 69.2386 491.743 69.0227 490.891 68.5909C490.044 68.1591 489.359 67.5682 488.837 66.8182C488.314 66.0682 487.993 65.2102 487.874 64.2443H490.984C491.143 64.9375 491.467 65.4886 491.956 65.8977C492.45 66.3011 493.072 66.5028 493.822 66.5028C495.033 66.5028 495.964 65.9773 496.618 64.9261C497.271 63.875 497.598 62.4148 497.598 60.5455H497.479C497.2 61.0455 496.839 61.4773 496.396 61.8409C495.953 62.1989 495.45 62.4744 494.888 62.6676C494.331 62.8608 493.74 62.9574 493.115 62.9574C492.092 62.9574 491.172 62.7131 490.354 62.2244C489.541 61.7358 488.896 61.0653 488.419 60.2131C487.947 59.3608 487.709 58.3864 487.703 57.2898C487.703 56.1534 487.964 55.1335 488.487 54.2301C489.016 53.321 489.751 52.6051 490.695 52.0824C491.638 51.554 492.74 51.2955 494.001 51.3068ZM494.01 53.8636C493.396 53.8636 492.842 54.0142 492.348 54.3153C491.859 54.6108 491.473 55.0142 491.189 55.5256C490.911 56.0312 490.771 56.5966 490.771 57.2216C490.777 57.8409 490.916 58.4034 491.189 58.9091C491.467 59.4148 491.845 59.8153 492.322 60.1108C492.805 60.4062 493.357 60.554 493.976 60.554C494.436 60.554 494.865 60.4659 495.263 60.2898C495.661 60.1136 496.007 59.8693 496.303 59.5568C496.604 59.2386 496.837 58.8778 497.001 58.4744C497.172 58.071 497.254 57.6449 497.249 57.196C497.249 56.5994 497.107 56.0483 496.822 55.5426C496.544 55.0369 496.161 54.6307 495.672 54.3239C495.189 54.017 494.635 53.8636 494.01 53.8636Z" fill="#1E1E1F"/>
<rect x="550" y="24" width="70" height="36" rx="12" fill="#EBF3FF"/>
<path d="M565.304 47V38.348H562.406V37.2H569.616V38.348H566.704V47H565.304ZM572.926 47.168C572.263 47.168 571.666 47.014 571.134 46.706C570.611 46.398 570.196 45.9687 569.888 45.418C569.589 44.858 569.44 44.214 569.44 43.486C569.44 42.7393 569.594 42.0907 569.902 41.54C570.21 40.98 570.63 40.546 571.162 40.238C571.694 39.93 572.291 39.776 572.954 39.776C573.626 39.776 574.223 39.93 574.746 40.238C575.269 40.546 575.679 40.9753 575.978 41.526C576.286 42.0767 576.44 42.7253 576.44 43.472C576.44 44.2187 576.286 44.8673 575.978 45.418C575.679 45.9687 575.264 46.398 574.732 46.706C574.2 47.014 573.598 47.168 572.926 47.168ZM572.926 45.964C573.309 45.964 573.654 45.8707 573.962 45.684C574.279 45.4973 574.531 45.222 574.718 44.858C574.914 44.4847 575.012 44.0227 575.012 43.472C575.012 42.9213 574.919 42.464 574.732 42.1C574.545 41.7267 574.293 41.4467 573.976 41.26C573.668 41.0733 573.327 40.98 572.954 40.98C572.581 40.98 572.235 41.0733 571.918 41.26C571.601 41.4467 571.344 41.7267 571.148 42.1C570.961 42.464 570.868 42.9213 570.868 43.472C570.868 44.0227 570.961 44.4847 571.148 44.858C571.344 45.222 571.596 45.4973 571.904 45.684C572.221 45.8707 572.562 45.964 572.926 45.964ZM578.087 50.08V39.944H579.347L579.487 41.036C579.636 40.8213 579.823 40.6207 580.047 40.434C580.271 40.238 580.537 40.0793 580.845 39.958C581.162 39.8367 581.531 39.776 581.951 39.776C582.623 39.776 583.211 39.9393 583.715 40.266C584.228 40.5927 584.625 41.036 584.905 41.596C585.194 42.1467 585.339 42.7767 585.339 43.486C585.339 44.1953 585.194 44.83 584.905 45.39C584.615 45.9407 584.214 46.3747 583.701 46.692C583.197 47.0093 582.609 47.168 581.937 47.168C581.386 47.168 580.901 47.0607 580.481 46.846C580.061 46.622 579.729 46.314 579.487 45.922V50.08H578.087ZM581.713 45.95C582.142 45.95 582.52 45.8473 582.847 45.642C583.183 45.4367 583.444 45.1473 583.631 44.774C583.827 44.4007 583.925 43.9667 583.925 43.472C583.925 42.9773 583.827 42.548 583.631 42.184C583.444 41.8107 583.183 41.5213 582.847 41.316C582.52 41.1013 582.142 40.994 581.713 40.994C581.274 40.994 580.887 41.1013 580.551 41.316C580.224 41.5213 579.967 41.8107 579.781 42.184C579.594 42.548 579.501 42.9773 579.501 43.472C579.501 43.9667 579.594 44.4007 579.781 44.774C579.967 45.1473 580.224 45.4367 580.551 45.642C580.887 45.8473 581.274 45.95 581.713 45.95ZM594.238 47.168C593.547 47.168 592.922 47.0327 592.362 46.762C591.802 46.482 591.354 46.062 591.018 45.502C590.691 44.9327 590.528 44.2093 590.528 43.332V37.2H591.928V43.346C591.928 43.934 592.026 44.4193 592.222 44.802C592.418 45.1753 592.688 45.4553 593.034 45.642C593.388 45.8193 593.799 45.908 594.266 45.908C594.742 45.908 595.152 45.8193 595.498 45.642C595.843 45.4553 596.109 45.1753 596.296 44.802C596.492 44.4193 596.59 43.934 596.59 43.346V37.2H597.99V43.332C597.99 44.2093 597.822 44.9327 597.486 45.502C597.15 46.062 596.697 46.482 596.128 46.762C595.558 47.0327 594.928 47.168 594.238 47.168ZM599.866 50.08V39.944H601.126L601.266 41.036C601.415 40.8213 601.602 40.6207 601.826 40.434C602.05 40.238 602.316 40.0793 602.624 39.958C602.941 39.8367 603.31 39.776 603.73 39.776C604.402 39.776 604.99 39.9393 605.494 40.266C606.007 40.5927 606.404 41.036 606.684 41.596C606.973 42.1467 607.118 42.7767 607.118 43.486C607.118 44.1953 606.973 44.83 606.684 45.39C606.395 45.9407 605.993 46.3747 605.48 46.692C604.976 47.0093 604.388 47.168 603.716 47.168C603.165 47.168 602.68 47.0607 602.26 46.846C601.84 46.622 601.509 46.314 601.266 45.922V50.08H599.866ZM603.492 45.95C603.921 45.95 604.299 45.8473 604.626 45.642C604.962 45.4367 605.223 45.1473 605.41 44.774C605.606 44.4007 605.704 43.9667 605.704 43.472C605.704 42.9773 605.606 42.548 605.41 42.184C605.223 41.8107 604.962 41.5213 604.626 41.316C604.299 41.1013 603.921 40.994 603.492 40.994C603.053 40.994 602.666 41.1013 602.33 41.316C602.003 41.5213 601.747 41.8107 601.56 42.184C601.373 42.548 601.28 42.9773 601.28 43.472C601.28 43.9667 601.373 44.4007 601.56 44.774C601.747 45.1473 602.003 45.4367 602.33 45.642C602.666 45.8473 603.053 45.95 603.492 45.95Z" fill="#0B57D0"/>
<path d="M355.878 105.145C355.205 105.142 354.629 104.964 354.152 104.612C353.675 104.26 353.31 103.747 353.057 103.074C352.804 102.401 352.678 101.589 352.678 100.641C352.678 99.6946 352.804 98.8864 353.057 98.2159C353.313 97.5455 353.679 97.0341 354.156 96.6818C354.636 96.3295 355.21 96.1534 355.878 96.1534C356.545 96.1534 357.118 96.331 357.595 96.6861C358.072 97.0384 358.438 97.5497 358.69 98.2202C358.946 98.8878 359.074 99.6946 359.074 100.641C359.074 101.592 358.947 102.405 358.695 103.078C358.442 103.749 358.077 104.261 357.599 104.616C357.122 104.969 356.548 105.145 355.878 105.145ZM355.878 104.007C356.469 104.007 356.93 103.719 357.263 103.142C357.598 102.565 357.766 101.732 357.766 100.641C357.766 99.9162 357.689 99.304 357.536 98.804C357.385 98.3011 357.168 97.9205 356.884 97.6619C356.602 97.4006 356.267 97.2699 355.878 97.2699C355.29 97.2699 354.828 97.5597 354.493 98.1392C354.158 98.7187 353.989 99.5526 353.986 100.641C353.986 101.368 354.061 101.983 354.212 102.486C354.365 102.986 354.582 103.365 354.864 103.624C355.145 103.879 355.483 104.007 355.878 104.007Z" fill="#2772F5"/>
<path d="M502.878 105.119C502.293 105.119 501.77 105.018 501.31 104.817C500.852 104.615 500.49 104.335 500.223 103.977C499.959 103.616 499.817 103.199 499.797 102.724H501.135C501.152 102.983 501.239 103.207 501.395 103.398C501.554 103.585 501.761 103.73 502.017 103.832C502.273 103.935 502.557 103.986 502.869 103.986C503.213 103.986 503.517 103.926 503.781 103.807C504.048 103.687 504.257 103.521 504.408 103.308C504.558 103.092 504.634 102.844 504.634 102.562C504.634 102.27 504.558 102.013 504.408 101.791C504.26 101.567 504.043 101.391 503.756 101.263C503.472 101.135 503.128 101.071 502.724 101.071H501.987V99.9972H502.724C503.048 99.9972 503.332 99.9389 503.577 99.8224C503.824 99.706 504.017 99.544 504.156 99.3366C504.295 99.1264 504.365 98.8807 504.365 98.5994C504.365 98.3295 504.304 98.0952 504.182 97.8963C504.063 97.6946 503.892 97.5369 503.67 97.4233C503.452 97.3097 503.193 97.2528 502.895 97.2528C502.611 97.2528 502.345 97.3054 502.098 97.4105C501.854 97.5128 501.655 97.6605 501.501 97.8537C501.348 98.044 501.266 98.2727 501.254 98.5398H499.98C499.994 98.0682 500.134 97.6534 500.398 97.2955C500.665 96.9375 501.017 96.6577 501.455 96.456C501.892 96.2543 502.378 96.1534 502.912 96.1534C503.472 96.1534 503.955 96.2628 504.361 96.4815C504.77 96.6974 505.085 96.9858 505.307 97.3466C505.531 97.7074 505.642 98.1023 505.639 98.5312C505.642 99.0199 505.506 99.4347 505.23 99.7756C504.957 100.116 504.594 100.345 504.139 100.462V100.53C504.719 100.618 505.168 100.848 505.486 101.22C505.807 101.592 505.966 102.054 505.963 102.605C505.966 103.085 505.832 103.516 505.562 103.896C505.295 104.277 504.93 104.577 504.467 104.795C504.004 105.011 503.474 105.119 502.878 105.119ZM510.643 105.119C510.032 105.119 509.492 105.014 509.023 104.804C508.557 104.594 508.192 104.304 507.928 103.935C507.664 103.565 507.533 103.145 507.536 102.673C507.533 102.304 507.609 101.964 507.762 101.655C507.918 101.342 508.13 101.082 508.397 100.875C508.664 100.665 508.962 100.531 509.292 100.474V100.423C508.857 100.318 508.509 100.085 508.248 99.7244C507.986 99.3636 507.857 98.9489 507.86 98.4801C507.857 98.0341 507.975 97.6364 508.214 97.2869C508.455 96.9347 508.786 96.6577 509.207 96.456C509.627 96.2543 510.106 96.1534 510.643 96.1534C511.174 96.1534 511.648 96.2557 512.066 96.4602C512.486 96.6619 512.817 96.9389 513.059 97.2912C513.3 97.6406 513.423 98.0369 513.425 98.4801C513.423 98.9489 513.289 99.3636 513.025 99.7244C512.761 100.085 512.417 100.318 511.994 100.423V100.474C512.32 100.531 512.614 100.665 512.876 100.875C513.14 101.082 513.35 101.342 513.506 101.655C513.665 101.964 513.746 102.304 513.749 102.673C513.746 103.145 513.613 103.565 513.349 103.935C513.084 104.304 512.718 104.594 512.249 104.804C511.783 105.014 511.248 105.119 510.643 105.119ZM510.643 104.041C511.004 104.041 511.316 103.982 511.58 103.862C511.844 103.74 512.049 103.571 512.194 103.355C512.339 103.136 512.413 102.881 512.415 102.588C512.413 102.284 512.333 102.016 512.177 101.783C512.023 101.55 511.815 101.366 511.55 101.233C511.286 101.099 510.984 101.033 510.643 101.033C510.299 101.033 509.994 101.099 509.727 101.233C509.459 101.366 509.249 101.55 509.096 101.783C508.942 102.016 508.867 102.284 508.87 102.588C508.867 102.881 508.937 103.136 509.079 103.355C509.224 103.571 509.43 103.74 509.697 103.862C509.964 103.982 510.279 104.041 510.643 104.041ZM510.643 99.9801C510.933 99.9801 511.19 99.9219 511.414 99.8054C511.638 99.6889 511.815 99.527 511.942 99.3196C512.073 99.1122 512.14 98.8693 512.143 98.5909C512.14 98.3182 512.075 98.0795 511.947 97.875C511.822 97.6705 511.647 97.5128 511.423 97.402C511.198 97.2884 510.938 97.2315 510.643 97.2315C510.342 97.2315 510.077 97.2884 509.85 97.402C509.626 97.5128 509.451 97.6705 509.326 97.875C509.201 98.0795 509.14 98.3182 509.143 98.5909C509.14 98.8693 509.202 99.1122 509.33 99.3196C509.458 99.527 509.634 99.6889 509.859 99.8054C510.086 99.9219 510.347 99.9801 510.643 99.9801ZM518.277 105.119C517.742 105.119 517.262 105.017 516.836 104.812C516.413 104.605 516.075 104.321 515.822 103.96C515.569 103.599 515.434 103.188 515.417 102.724H516.696C516.727 103.099 516.893 103.408 517.194 103.649C517.495 103.891 517.856 104.011 518.277 104.011C518.612 104.011 518.909 103.935 519.167 103.781C519.429 103.625 519.633 103.411 519.781 103.138C519.931 102.865 520.007 102.554 520.007 102.205C520.007 101.849 519.93 101.533 519.777 101.254C519.623 100.976 519.412 100.757 519.142 100.598C518.875 100.439 518.568 100.358 518.221 100.355C517.957 100.355 517.691 100.401 517.424 100.491C517.157 100.582 516.941 100.702 516.777 100.849L515.571 100.67L516.061 96.2727H520.859V97.402H517.156L516.879 99.8438H516.93C517.1 99.679 517.326 99.5412 517.608 99.4304C517.892 99.3196 518.196 99.2642 518.519 99.2642C519.051 99.2642 519.524 99.3906 519.939 99.6435C520.356 99.8963 520.684 100.241 520.923 100.679C521.164 101.114 521.284 101.614 521.281 102.179C521.284 102.744 521.156 103.249 520.897 103.692C520.642 104.135 520.287 104.484 519.832 104.74C519.38 104.993 518.862 105.119 518.277 105.119ZM523.077 96.2727H524.675L527.453 103.057H527.555L530.334 96.2727H531.932V105H530.679V98.6847H530.598L528.024 104.987H526.984L524.41 98.6804H524.329V105H523.077V96.2727Z" fill="#85B4FF"/>
<rect x="352" y="114" width="181" height="8" rx="4" fill="#D6E6FF"/>
<rect x="352" y="114" width="114.531" height="8" rx="4" fill="#2772F5"/>
<path d="M566.044 112.744C565.813 114.919 564.581 116.957 562.541 118.134C559.154 120.09 554.821 118.929 552.865 115.541L552.657 115.18M551.955 111.256C552.187 109.081 553.419 107.043 555.458 105.865C558.846 103.909 563.178 105.07 565.134 108.458L565.343 108.819M551.911 117.055L552.521 114.778L554.798 115.388M563.202 108.611L565.479 109.221L566.089 106.945M559 108.25V112L561.083 113.25" stroke="#2772F5" stroke-width="1.6" stroke-linecap="round" stroke-linejoin="round"/>
<path d="M582.371 106.818V117H580.731L575.933 110.065H575.849V117H574.004V106.818H575.655L580.447 113.759H580.537V106.818H582.371ZM587.773 117.149C587.027 117.149 586.381 116.985 585.834 116.657C585.287 116.329 584.863 115.87 584.561 115.28C584.263 114.69 584.114 114 584.114 113.212C584.114 112.423 584.263 111.732 584.561 111.138C584.863 110.545 585.287 110.085 585.834 109.756C586.381 109.428 587.027 109.264 587.773 109.264C588.518 109.264 589.165 109.428 589.712 109.756C590.258 110.085 590.681 110.545 590.979 111.138C591.281 111.732 591.432 112.423 591.432 113.212C591.432 114 591.281 114.69 590.979 115.28C590.681 115.87 590.258 116.329 589.712 116.657C589.165 116.985 588.518 117.149 587.773 117.149ZM587.783 115.707C588.187 115.707 588.525 115.596 588.797 115.374C589.069 115.149 589.271 114.847 589.403 114.469C589.539 114.092 589.607 113.671 589.607 113.207C589.607 112.739 589.539 112.317 589.403 111.939C589.271 111.558 589.069 111.254 588.797 111.029C588.525 110.804 588.187 110.691 587.783 110.691C587.368 110.691 587.024 110.804 586.748 111.029C586.477 111.254 586.273 111.558 586.137 111.939C586.004 112.317 585.938 112.739 585.938 113.207C585.938 113.671 586.004 114.092 586.137 114.469C586.273 114.847 586.477 115.149 586.748 115.374C587.024 115.596 587.368 115.707 587.783 115.707ZM599.661 109.364L596.941 117H594.952L592.233 109.364H594.152L595.907 115.036H595.986L597.746 109.364H599.661ZM608.78 106.818V117H606.936V108.613H606.876L604.494 110.134V108.444L607.025 106.818H608.78ZM615.269 117.194C614.45 117.194 613.747 116.987 613.161 116.572C612.577 116.155 612.128 115.553 611.813 114.768C611.502 113.979 611.346 113.029 611.346 111.919C611.349 110.809 611.507 109.864 611.818 109.085C612.133 108.303 612.582 107.706 613.166 107.295C613.752 106.884 614.453 106.679 615.269 106.679C616.084 106.679 616.785 106.884 617.372 107.295C617.958 107.706 618.407 108.303 618.719 109.085C619.034 109.867 619.191 110.812 619.191 111.919C619.191 113.033 619.034 113.984 618.719 114.773C618.407 115.558 617.958 116.158 617.372 116.572C616.788 116.987 616.087 117.194 615.269 117.194ZM615.269 115.638C615.905 115.638 616.407 115.325 616.775 114.698C617.146 114.068 617.332 113.142 617.332 111.919C617.332 111.11 617.247 110.431 617.078 109.881C616.909 109.33 616.671 108.916 616.362 108.638C616.054 108.356 615.69 108.215 615.269 108.215C614.636 108.215 614.135 108.53 613.767 109.16C613.399 109.786 613.214 110.706 613.21 111.919C613.207 112.731 613.288 113.414 613.454 113.967C613.623 114.521 613.862 114.938 614.17 115.22C614.478 115.499 614.844 115.638 615.269 115.638Z" fill="#0B57D0"/>
<rect x="660.5" y="0.5" width="311" height="147" rx="23.5" fill="white"/>
<rect x="660.5" y="0.5" width="311" height="147" rx="23.5" stroke="#EDEDF0"/>
<path d="M685.119 39V28.8182H688.748C689.537 28.8182 690.191 28.9541 690.712 29.2259C691.235 29.4976 691.626 29.8738 691.885 30.3544C692.143 30.8317 692.273 31.3835 692.273 32.0099C692.273 32.633 692.142 33.1816 691.88 33.6555C691.621 34.1262 691.23 34.4924 690.707 34.7543C690.186 35.0161 689.532 35.147 688.743 35.147H685.994V33.8246H688.604C689.101 33.8246 689.505 33.7533 689.817 33.6108C690.132 33.4683 690.362 33.2611 690.508 32.9893C690.654 32.7176 690.727 32.3911 690.727 32.0099C690.727 31.6255 690.652 31.2924 690.503 31.0107C690.357 30.7289 690.127 30.5135 689.812 30.3643C689.5 30.2119 689.091 30.1357 688.584 30.1357H686.655V39H685.119ZM690.145 34.4062L692.661 39H690.911L688.445 34.4062H690.145ZM696.385 39.169C695.901 39.169 695.464 39.0795 695.073 38.9006C694.681 38.7183 694.372 38.4548 694.143 38.1101C693.917 37.7654 693.805 37.3428 693.805 36.8423C693.805 36.4115 693.888 36.0568 694.053 35.7784C694.219 35.5 694.443 35.2796 694.725 35.1172C695.006 34.9548 695.321 34.8321 695.669 34.7493C696.017 34.6664 696.372 34.6035 696.733 34.5604C697.19 34.5073 697.562 34.4643 697.847 34.4311C698.132 34.3946 698.339 34.3366 698.468 34.2571C698.597 34.1776 698.662 34.0483 698.662 33.8693V33.8345C698.662 33.4003 698.539 33.0639 698.294 32.8253C698.052 32.5866 697.691 32.4673 697.21 32.4673C696.71 32.4673 696.315 32.5784 696.027 32.8004C695.742 33.0192 695.545 33.2628 695.435 33.5312L694.038 33.2131C694.204 32.7491 694.446 32.3745 694.764 32.0895C695.086 31.8011 695.455 31.5923 695.873 31.4631C696.291 31.3305 696.73 31.2642 697.19 31.2642C697.495 31.2642 697.819 31.3007 698.16 31.3736C698.505 31.4432 698.826 31.5724 699.124 31.7614C699.426 31.9503 699.673 32.2204 699.865 32.5717C700.057 32.9197 700.153 33.3722 700.153 33.929V39H698.702V37.956H698.642C698.546 38.1482 698.402 38.3371 698.21 38.5227C698.017 38.7083 697.77 38.8625 697.469 38.9851C697.167 39.1077 696.806 39.169 696.385 39.169ZM696.708 37.9759C697.119 37.9759 697.47 37.8946 697.762 37.7322C698.057 37.5698 698.281 37.3577 698.433 37.0959C698.589 36.8307 698.667 36.5473 698.667 36.2457V35.2614C698.614 35.3144 698.511 35.3641 698.359 35.4105C698.21 35.4536 698.039 35.4917 697.847 35.5249C697.654 35.5547 697.467 35.5829 697.285 35.6094C697.103 35.6326 696.95 35.6525 696.828 35.669C696.539 35.7055 696.276 35.7668 696.037 35.853C695.802 35.9392 695.613 36.0634 695.47 36.2259C695.331 36.3849 695.261 36.5971 695.261 36.8622C695.261 37.2301 695.397 37.5085 695.669 37.6974C695.941 37.883 696.287 37.9759 696.708 37.9759ZM705.838 31.3636V32.5568H701.667V31.3636H705.838ZM702.786 29.5341H704.272V36.7578C704.272 37.0462 704.315 37.2633 704.401 37.4091C704.487 37.5516 704.598 37.6494 704.734 37.7024C704.874 37.7521 705.024 37.777 705.187 37.777C705.306 37.777 705.411 37.7687 705.5 37.7521C705.589 37.7356 705.659 37.7223 705.709 37.7124L705.977 38.9403C705.891 38.9735 705.768 39.0066 705.609 39.0398C705.45 39.0762 705.251 39.0961 705.013 39.0994C704.622 39.1061 704.257 39.0365 703.919 38.8906C703.581 38.7448 703.308 38.5194 703.099 38.2145C702.89 37.9096 702.786 37.5268 702.786 37.0661V29.5341ZM710.832 39.1541C710.079 39.1541 709.431 38.9934 708.888 38.6719C708.347 38.3471 707.93 37.8913 707.635 37.3047C707.343 36.7147 707.197 36.0237 707.197 35.2315C707.197 34.4493 707.343 33.7599 707.635 33.1634C707.93 32.5668 708.341 32.1011 708.868 31.7663C709.398 31.4316 710.018 31.2642 710.727 31.2642C711.158 31.2642 711.576 31.3355 711.98 31.478C712.384 31.6205 712.747 31.8442 713.069 32.1491C713.39 32.4541 713.644 32.8501 713.829 33.3374C714.015 33.8213 714.108 34.4096 714.108 35.1023V35.6293H708.038V34.5156H712.651C712.651 34.1245 712.572 33.7782 712.413 33.4766C712.253 33.1716 712.03 32.9313 711.741 32.7557C711.456 32.58 711.122 32.4922 710.737 32.4922C710.32 32.4922 709.955 32.5949 709.643 32.8004C709.335 33.0026 709.096 33.2678 708.927 33.5959C708.762 33.9207 708.679 34.2737 708.679 34.6548V35.5249C708.679 36.0353 708.768 36.4695 708.947 36.8274C709.13 37.1854 709.383 37.4588 709.708 37.6477C710.033 37.8333 710.412 37.9261 710.846 37.9261C711.128 37.9261 711.385 37.8864 711.617 37.8068C711.849 37.724 712.05 37.6013 712.219 37.4389C712.388 37.2765 712.517 37.076 712.606 36.8374L714.013 37.0909C713.901 37.5052 713.699 37.8681 713.407 38.1797C713.119 38.4879 712.756 38.7282 712.318 38.9006C711.884 39.0696 711.388 39.1541 710.832 39.1541ZM721.229 28.8182V39H719.742V28.8182H721.229ZM723.369 39V31.3636H724.855V39H723.369ZM724.119 30.1854C723.861 30.1854 723.639 30.0992 723.453 29.9268C723.271 29.7512 723.18 29.5424 723.18 29.3004C723.18 29.0552 723.271 28.8464 723.453 28.674C723.639 28.4983 723.861 28.4105 724.119 28.4105C724.378 28.4105 724.598 28.4983 724.781 28.674C724.966 28.8464 725.059 29.0552 725.059 29.3004C725.059 29.5424 724.966 29.7512 724.781 29.9268C724.598 30.0992 724.378 30.1854 724.119 30.1854ZM726.995 39V31.3636H728.422V32.6065H728.516C728.675 32.1856 728.935 31.8575 729.297 31.6222C729.658 31.3835 730.091 31.2642 730.594 31.2642C731.105 31.2642 731.532 31.3835 731.877 31.6222C732.225 31.8608 732.482 32.1889 732.648 32.6065H732.727C732.909 32.1989 733.199 31.8741 733.597 31.6321C733.995 31.3868 734.469 31.2642 735.019 31.2642C735.712 31.2642 736.277 31.4813 736.714 31.9155C737.155 32.3497 737.376 33.0043 737.376 33.8793V39H735.889V34.0185C735.889 33.5014 735.748 33.1269 735.467 32.8949C735.185 32.6629 734.848 32.5469 734.457 32.5469C733.973 32.5469 733.597 32.696 733.329 32.9943C733.06 33.2893 732.926 33.6688 732.926 34.1328V39H731.444V33.924C731.444 33.5097 731.315 33.1766 731.057 32.9247C730.798 32.6728 730.462 32.5469 730.047 32.5469C729.766 32.5469 729.506 32.6214 729.267 32.7706C729.032 32.9164 728.841 33.1203 728.695 33.3821C728.553 33.6439 728.481 33.9472 728.481 34.2919V39H726.995ZM739.508 39V31.3636H740.994V39H739.508ZM740.259 30.1854C740 30.1854 739.778 30.0992 739.592 29.9268C739.41 29.7512 739.319 29.5424 739.319 29.3004C739.319 29.0552 739.41 28.8464 739.592 28.674C739.778 28.4983 740 28.4105 740.259 28.4105C740.517 28.4105 740.738 28.4983 740.92 28.674C741.105 28.8464 741.198 29.0552 741.198 29.3004C741.198 29.5424 741.105 29.7512 740.92 29.9268C740.738 30.0992 740.517 30.1854 740.259 30.1854ZM746.699 31.3636V32.5568H742.528V31.3636H746.699ZM743.646 29.5341H745.133V36.7578C745.133 37.0462 745.176 37.2633 745.262 37.4091C745.348 37.5516 745.459 37.6494 745.595 37.7024C745.734 37.7521 745.885 37.777 746.048 37.777C746.167 37.777 746.271 37.7687 746.361 37.7521C746.45 37.7356 746.52 37.7223 746.57 37.7124L746.838 38.9403C746.752 38.9735 746.629 39.0066 746.47 39.0398C746.311 39.0762 746.112 39.0961 745.874 39.0994C745.483 39.1061 745.118 39.0365 744.78 38.8906C744.442 38.7448 744.168 38.5194 743.96 38.2145C743.751 37.9096 743.646 37.5268 743.646 37.0661V29.5341Z" fill="#AEAEB2"/>
<path d="M685.236 65.7614V63.2472L692.642 51.5455H694.739V55.125H693.46L688.474 63.0256V63.1619H698.812V65.7614H685.236ZM693.562 69V64.9943L693.597 63.8693V51.5455H696.58V69H693.562ZM707.604 69.2386C706.467 69.2386 705.45 69.0256 704.553 68.5994C703.655 68.1676 702.942 67.5767 702.413 66.8267C701.891 66.0767 701.612 65.2187 701.578 64.2528H704.646C704.703 64.9687 705.013 65.554 705.575 66.0085C706.138 66.4574 706.814 66.6818 707.604 66.6818C708.223 66.6818 708.774 66.5398 709.257 66.2557C709.74 65.9716 710.121 65.5767 710.399 65.071C710.678 64.5653 710.814 63.9886 710.808 63.3409C710.814 62.6818 710.675 62.0966 710.391 61.5852C710.107 61.0739 709.717 60.6733 709.223 60.3835C708.729 60.0881 708.161 59.9403 707.518 59.9403C706.996 59.9347 706.482 60.0312 705.976 60.2301C705.47 60.429 705.07 60.6903 704.774 61.0142L701.919 60.5455L702.831 51.5455H712.956V54.1875H705.447L704.945 58.8153H705.047C705.371 58.4347 705.828 58.1193 706.419 57.8693C707.01 57.6136 707.658 57.4858 708.362 57.4858C709.419 57.4858 710.362 57.7358 711.192 58.2358C712.021 58.7301 712.675 59.4119 713.152 60.2812C713.629 61.1506 713.868 62.1449 713.868 63.2642C713.868 64.4176 713.601 65.446 713.067 66.3494C712.538 67.2472 711.803 67.9545 710.859 68.4716C709.922 68.983 708.837 69.2386 707.604 69.2386ZM723.175 69.3324C721.771 69.3324 720.567 68.9773 719.561 68.267C718.561 67.5511 717.791 66.5199 717.251 65.1733C716.717 63.821 716.45 62.1932 716.45 60.2898C716.456 58.3864 716.726 56.767 717.26 55.4318C717.8 54.0909 718.57 53.0682 719.57 52.3636C720.575 51.6591 721.777 51.3068 723.175 51.3068C724.572 51.3068 725.774 51.6591 726.78 52.3636C727.786 53.0682 728.555 54.0909 729.089 55.4318C729.629 56.7727 729.899 58.392 729.899 60.2898C729.899 62.1989 729.629 63.8295 729.089 65.1818C728.555 66.5284 727.786 67.5568 726.78 68.267C725.78 68.9773 724.578 69.3324 723.175 69.3324ZM723.175 66.6648C724.266 66.6648 725.126 66.1278 725.757 65.054C726.393 63.9744 726.712 62.3864 726.712 60.2898C726.712 58.9034 726.567 57.7386 726.277 56.7955C725.987 55.8523 725.578 55.142 725.05 54.6648C724.521 54.1818 723.896 53.9403 723.175 53.9403C722.089 53.9403 721.232 54.4801 720.601 55.5597C719.97 56.6335 719.652 58.2102 719.646 60.2898C719.641 61.6818 719.78 62.8523 720.064 63.8011C720.354 64.75 720.763 65.4659 721.291 65.9489C721.82 66.4261 722.447 66.6648 723.175 66.6648ZM738.281 69V57.3636H742.644C743.538 57.3636 744.288 57.5189 744.894 57.8295C745.504 58.1402 745.964 58.5758 746.275 59.1364C746.589 59.6932 746.746 60.3428 746.746 61.0852C746.746 61.8314 746.587 62.4792 746.269 63.0284C745.955 63.5739 745.491 63.9962 744.877 64.2955C744.263 64.5909 743.51 64.7386 742.616 64.7386H739.508V62.9886H742.332C742.854 62.9886 743.282 62.9167 743.616 62.7727C743.949 62.625 744.195 62.411 744.354 62.1307C744.517 61.8466 744.599 61.4981 744.599 61.0852C744.599 60.6723 744.517 60.3201 744.354 60.0284C744.192 59.733 743.943 59.5095 743.61 59.358C743.277 59.2027 742.847 59.125 742.32 59.125H740.388V69H738.281ZM744.292 63.7273L747.173 69H744.82L741.991 63.7273H744.292ZM748.687 69V57.3636H753.05C753.944 57.3636 754.694 57.5303 755.3 57.8636C755.91 58.197 756.371 58.6553 756.681 59.2386C756.996 59.8182 757.153 60.4773 757.153 61.2159C757.153 61.9621 756.996 62.625 756.681 63.2045C756.367 63.7841 755.903 64.2405 755.289 64.5739C754.675 64.9034 753.92 65.0682 753.022 65.0682H750.13V63.3352H752.738C753.261 63.3352 753.689 63.2443 754.022 63.0625C754.355 62.8807 754.602 62.6307 754.761 62.3125C754.924 61.9943 755.005 61.6288 755.005 61.2159C755.005 60.803 754.924 60.4394 754.761 60.125C754.602 59.8106 754.353 59.5663 754.016 59.392C753.683 59.214 753.253 59.125 752.727 59.125H750.795V69H748.687ZM765.308 60.5625C765.254 60.0663 765.031 59.6799 764.637 59.4034C764.247 59.1269 763.739 58.9886 763.114 58.9886C762.675 58.9886 762.298 59.0549 761.984 59.1875C761.669 59.3201 761.429 59.5 761.262 59.7273C761.095 59.9545 761.01 60.214 761.006 60.5057C761.006 60.7481 761.061 60.9583 761.171 61.1364C761.285 61.3144 761.438 61.4659 761.631 61.5909C761.825 61.7121 762.039 61.8144 762.273 61.8977C762.508 61.9811 762.745 62.0511 762.984 62.108L764.075 62.3807C764.514 62.483 764.936 62.6212 765.342 62.7955C765.751 62.9697 766.116 63.1894 766.438 63.4545C766.764 63.7197 767.022 64.0398 767.211 64.4148C767.4 64.7898 767.495 65.2292 767.495 65.733C767.495 66.4148 767.321 67.0152 766.972 67.5341C766.624 68.0492 766.12 68.4527 765.461 68.7443C764.806 69.0322 764.012 69.1761 763.08 69.1761C762.175 69.1761 761.389 69.036 760.722 68.7557C760.059 68.4754 759.54 68.0663 759.165 67.5284C758.794 66.9905 758.594 66.3352 758.563 65.5625H760.637C760.667 65.9678 760.792 66.3049 761.012 66.5739C761.232 66.8428 761.518 67.0436 761.87 67.1761C762.226 67.3087 762.624 67.375 763.063 67.375C763.522 67.375 763.923 67.3068 764.268 67.1705C764.616 67.0303 764.889 66.8371 765.086 66.5909C765.283 66.3409 765.383 66.0492 765.387 65.7159C765.383 65.4129 765.294 65.1629 765.12 64.9659C764.946 64.7652 764.701 64.5985 764.387 64.4659C764.076 64.3295 763.713 64.2083 763.296 64.1023L761.972 63.7614C761.014 63.5152 760.256 63.142 759.7 62.642C759.147 62.1383 758.87 61.4697 758.87 60.6364C758.87 59.9508 759.056 59.3504 759.427 58.8352C759.802 58.3201 760.311 57.9205 760.955 57.6364C761.599 57.3485 762.328 57.2045 763.143 57.2045C763.969 57.2045 764.692 57.3485 765.313 57.6364C765.938 57.9205 766.429 58.3163 766.785 58.8239C767.141 59.3277 767.325 59.9072 767.336 60.5625H765.308Z" fill="#1E1E1F"/>
<rect x="684" y="92" width="8" height="32" rx="4" fill="#2772F5"/>
<g clip-path="url(#clip0_541_3357)">
<rect x="696" y="92" width="8" height="32" rx="4" fill="#C2DAFF"/>
<rect x="696" y="92" width="8" height="32" rx="4" fill="#2772F5"/>
</g>
<rect x="708" y="92" width="8" height="32" rx="4" fill="#2772F5"/>
<rect x="720" y="92" width="8" height="32" rx="4" fill="#2772F5"/>
<rect x="732" y="92" width="8" height="32" rx="4" fill="#2772F5"/>
<rect x="744" y="92" width="8" height="32" rx="4" fill="#2772F5"/>
<rect x="756" y="92" width="8" height="32" rx="4" fill="#2772F5"/>
<rect x="768" y="92" width="8" height="32" rx="4" fill="#2772F5"/>
<rect x="780" y="92" width="8" height="32" rx="4" fill="#2772F5"/>
<rect x="792" y="92" width="8" height="32" rx="4" fill="#2772F5"/>
<rect x="804" y="92" width="8" height="32" rx="4" fill="#2772F5"/>
<rect x="816" y="92" width="8" height="32" rx="4" fill="#2772F5"/>
<rect x="828" y="92" width="8" height="32" rx="4" fill="#2772F5"/>
<rect x="840" y="92" width="8" height="32" rx="4" fill="#2772F5"/>
<rect x="852" y="92" width="8" height="32" rx="4" fill="#2772F5"/>
<rect x="864" y="92" width="8" height="32" rx="4" fill="#2772F5"/>
<rect x="876" y="92" width="8" height="32" rx="4" fill="#2772F5"/>
<rect x="888" y="92" width="8" height="32" rx="4" fill="#2772F5"/>
<rect x="900" y="92" width="8" height="32" rx="4" fill="#2772F5"/>
<rect x="912" y="92" width="8" height="32" rx="4" fill="#2772F5"/>
<rect x="924" y="92" width="8" height="32" rx="4" fill="#2772F5"/>
<rect x="936" y="92" width="8" height="32" rx="4" fill="#2772F5"/>
<defs>
<clipPath id="clip0_541_3357">
<rect x="696" y="92" width="8" height="32" rx="4" fill="white"/>
</clipPath>
</defs>
</svg>
