<svg width="180" height="180" viewBox="0 0 180 180" fill="none" xmlns="http://www.w3.org/2000/svg">
<rect width="180" height="180" rx="90" fill="#FFC513"/>
<rect x="1" y="1" width="178" height="178" rx="89" stroke="#1E1E1F" stroke-opacity="0.08" stroke-width="2"/>
<path d="M64.6244 56.8345L90 42.1875L115.376 56.8345L106.046 62.2454L90 53.0095L73.9537 62.2454L64.6244 56.8345ZM115.376 75.3064L106.046 69.8954L90 79.1314L73.9537 69.8954L64.6244 75.3064V86.1284L80.6708 95.3642V113.836L90 119.247L99.3295 113.836V95.3642L115.376 86.1284V75.3064ZM115.376 104.6V93.7784L106.046 99.1892V110.011L115.376 104.6ZM121.999 108.425L105.953 117.661V128.483L131.329 113.836V84.5422L121.999 89.9534V108.425ZM112.67 66.0704L121.999 71.4814V82.3034L131.329 76.8924V66.0704L121.999 60.6595L112.67 66.0704ZM80.6708 121.58V132.402L90 137.812L99.3295 132.402V121.58L90 126.991L80.6708 121.58ZM64.6244 104.6L73.9537 110.011V99.1892L64.6244 93.7784V104.6ZM80.6708 66.0704L90 71.4814L99.3295 66.0704L90 60.6595L80.6708 66.0704ZM58.0006 71.4814L67.3299 66.0704L58.0006 60.6595L48.6713 66.0704V76.8924L58.0006 82.3034V71.4814ZM58.0006 89.9534L48.6713 84.5422V113.836L74.0469 128.483V117.661L58.0006 108.425V89.9534Z" fill="white"/>
</svg>
