<svg width="972" height="148" viewBox="0 0 972 148" fill="none" xmlns="http://www.w3.org/2000/svg">
<rect x="0.5" y="0.5" width="311" height="145" rx="23.5" fill="white"/>
<rect x="0.5" y="0.5" width="311" height="145" rx="23.5" stroke="#EDEDF0"/>
<path d="M25.1186 42V31.8182H28.7479C29.54 31.8182 30.1963 31.9624 30.7166 32.2507C31.237 32.5391 31.6264 32.9335 31.8849 33.4339C32.1435 33.9311 32.2727 34.4912 32.2727 35.1143C32.2727 35.7408 32.1418 36.3042 31.88 36.8047C31.6214 37.3018 31.2304 37.6963 30.7067 37.9879C30.1863 38.2763 29.5317 38.4205 28.7429 38.4205H26.2472V37.1179H28.6037C29.1042 37.1179 29.5102 37.0317 29.8217 36.8594C30.1333 36.6837 30.362 36.4451 30.5078 36.1435C30.6536 35.8419 30.7266 35.4988 30.7266 35.1143C30.7266 34.7299 30.6536 34.3885 30.5078 34.0902C30.362 33.7919 30.1316 33.5582 29.8168 33.3892C29.5052 33.2202 29.0942 33.1357 28.5838 33.1357H26.6548V42H25.1186ZM35.5809 31.8182V42H34.0944V31.8182H35.5809ZM39.943 42.169C39.4591 42.169 39.0216 42.0795 38.6305 41.9006C38.2394 41.7183 37.9295 41.4548 37.7008 41.1101C37.4754 40.7654 37.3627 40.3428 37.3627 39.8423C37.3627 39.4115 37.4456 39.0568 37.6113 38.7784C37.777 38.5 38.0008 38.2796 38.2825 38.1172C38.5642 37.9548 38.8791 37.8321 39.2271 37.7493C39.5751 37.6664 39.9297 37.6035 40.291 37.5604C40.7484 37.5073 41.1196 37.4643 41.4046 37.4311C41.6897 37.3946 41.8968 37.3366 42.0261 37.2571C42.1554 37.1776 42.22 37.0483 42.22 36.8693V36.8345C42.22 36.4003 42.0974 36.0639 41.8521 35.8253C41.6101 35.5866 41.2489 35.4673 40.7683 35.4673C40.2678 35.4673 39.8734 35.5784 39.585 35.8004C39.3 36.0192 39.1028 36.2628 38.9934 36.5312L37.5964 36.2131C37.7621 35.7491 38.0041 35.3745 38.3223 35.0895C38.6438 34.8011 39.0133 34.5923 39.4309 34.4631C39.8485 34.3305 40.2877 34.2642 40.7484 34.2642C41.0533 34.2642 41.3765 34.3007 41.7179 34.3736C42.0626 34.4432 42.384 34.5724 42.6823 34.7614C42.984 34.9503 43.2309 35.2204 43.4231 35.5717C43.6153 35.9197 43.7115 36.3722 43.7115 36.929V42H42.2598V40.956H42.2001C42.104 41.1482 41.9598 41.3371 41.7676 41.5227C41.5753 41.7083 41.3284 41.8625 41.0268 41.9851C40.7252 42.1077 40.3639 42.169 39.943 42.169ZM40.2662 40.9759C40.6771 40.9759 41.0285 40.8946 41.3201 40.7322C41.6151 40.5698 41.8388 40.3577 41.9913 40.0959C42.1471 39.8307 42.225 39.5473 42.225 39.2457V38.2614C42.1719 38.3144 42.0692 38.3641 41.9167 38.4105C41.7676 38.4536 41.5969 38.4917 41.4046 38.5249C41.2124 38.5547 41.0251 38.5829 40.8429 38.6094C40.6606 38.6326 40.5081 38.6525 40.3855 38.669C40.0971 38.7055 39.8336 38.7668 39.595 38.853C39.3597 38.9392 39.1707 39.0634 39.0282 39.2259C38.889 39.3849 38.8194 39.5971 38.8194 39.8622C38.8194 40.2301 38.9553 40.5085 39.2271 40.6974C39.4989 40.883 39.8452 40.9759 40.2662 40.9759ZM47.3179 37.4659V42H45.8314V34.3636H47.2582V35.6065H47.3527C47.5284 35.2022 47.8035 34.8774 48.178 34.6321C48.5558 34.3868 49.0314 34.2642 49.6048 34.2642C50.1252 34.2642 50.5809 34.3736 50.972 34.5923C51.3631 34.8078 51.6664 35.1293 51.8818 35.5568C52.0973 35.9844 52.205 36.513 52.205 37.1428V42H50.7185V37.3217C50.7185 36.7682 50.5743 36.3357 50.2859 36.0241C49.9976 35.7093 49.6015 35.5518 49.0977 35.5518C48.753 35.5518 48.4465 35.6264 48.178 35.7756C47.9128 35.9247 47.7024 36.1435 47.5466 36.4318C47.3941 36.7169 47.3179 37.0616 47.3179 37.4659Z" fill="#AEAEB2"/>
<path d="M37.0909 60.1875C36.9716 59.7727 36.804 59.4062 36.5881 59.0881C36.3722 58.7642 36.108 58.4915 35.7955 58.2699C35.4886 58.0426 35.1364 57.8693 34.7386 57.75C34.3466 57.6307 33.9119 57.571 33.4347 57.571C32.5426 57.571 31.7585 57.7926 31.0824 58.2358C30.4119 58.679 29.8892 59.3239 29.5142 60.1705C29.1392 61.0114 28.9517 62.0398 28.9517 63.2557C28.9517 64.4716 29.1364 65.5057 29.5057 66.358C29.875 67.2102 30.3977 67.8608 31.0739 68.3097C31.75 68.7528 32.5483 68.9744 33.4688 68.9744C34.304 68.9744 35.017 68.8267 35.608 68.5312C36.2045 68.2301 36.6591 67.8068 36.9716 67.2614C37.2898 66.7159 37.4489 66.071 37.4489 65.3267L38.1989 65.4375H33.6989V62.6591H41.0028V64.858C41.0028 66.392 40.679 67.7102 40.0312 68.8125C39.3835 69.9091 38.4915 70.7557 37.3551 71.3523C36.2188 71.9432 34.9176 72.2386 33.4517 72.2386C31.8153 72.2386 30.3778 71.8778 29.1392 71.1562C27.9006 70.429 26.9347 69.3977 26.2415 68.0625C25.554 66.7216 25.2102 65.1307 25.2102 63.2898C25.2102 61.875 25.4148 60.6136 25.8239 59.5057C26.2386 58.392 26.8182 57.4489 27.5625 56.6761C28.3068 55.9034 29.1733 55.3153 30.1619 54.9119C31.1506 54.5085 32.2216 54.3068 33.375 54.3068C34.3636 54.3068 35.2841 54.4517 36.1364 54.7415C36.9886 55.0256 37.7443 55.429 38.4034 55.9517C39.0682 56.4744 39.6108 57.0966 40.0312 57.8182C40.4517 58.5341 40.7216 59.3239 40.8409 60.1875H37.0909ZM43.7067 72V58.9091H47.2266V61.1932H47.3629C47.6016 60.3807 48.0021 59.767 48.5646 59.3523C49.1271 58.9318 49.7749 58.7216 50.5078 58.7216C50.6896 58.7216 50.8857 58.733 51.0959 58.7557C51.3061 58.7784 51.4908 58.8097 51.6499 58.8494V62.071C51.4794 62.0199 51.2436 61.9744 50.9425 61.9347C50.6413 61.8949 50.3658 61.875 50.1158 61.875C49.5817 61.875 49.1044 61.9915 48.6839 62.2244C48.2692 62.4517 47.9396 62.7699 47.6953 63.179C47.4567 63.5881 47.3374 64.0597 47.3374 64.5938V72H43.7067ZM58.8324 72.2557C57.5085 72.2557 56.3636 71.9744 55.3977 71.4119C54.4375 70.8437 53.696 70.054 53.1733 69.0426C52.6506 68.0256 52.3892 66.8466 52.3892 65.5057C52.3892 64.1534 52.6506 62.9716 53.1733 61.9602C53.696 60.9432 54.4375 60.1534 55.3977 59.5909C56.3636 59.0227 57.5085 58.7386 58.8324 58.7386C60.1562 58.7386 61.2983 59.0227 62.2585 59.5909C63.2244 60.1534 63.9688 60.9432 64.4915 61.9602C65.0142 62.9716 65.2756 64.1534 65.2756 65.5057C65.2756 66.8466 65.0142 68.0256 64.4915 69.0426C63.9688 70.054 63.2244 70.8437 62.2585 71.4119C61.2983 71.9744 60.1562 72.2557 58.8324 72.2557ZM58.8494 69.4432C59.4517 69.4432 59.9545 69.2727 60.358 68.9318C60.7614 68.5852 61.0653 68.1136 61.2699 67.517C61.4801 66.9205 61.5852 66.2415 61.5852 65.4801C61.5852 64.7188 61.4801 64.0398 61.2699 63.4432C61.0653 62.8466 60.7614 62.375 60.358 62.0284C59.9545 61.6818 59.4517 61.5085 58.8494 61.5085C58.2415 61.5085 57.7301 61.6818 57.3153 62.0284C56.9063 62.375 56.5966 62.8466 56.3864 63.4432C56.1818 64.0398 56.0795 64.7188 56.0795 65.4801C56.0795 66.2415 56.1818 66.9205 56.3864 67.517C56.5966 68.1136 56.9063 68.5852 57.3153 68.9318C57.7301 69.2727 58.2415 69.4432 58.8494 69.4432ZM69.8906 72L66.3281 58.9091H70.0014L72.0298 67.7045H72.1491L74.2628 58.9091H77.8679L80.0156 67.6534H80.1264L82.1207 58.9091H85.7855L82.2315 72H78.3878L76.1378 63.767H75.9759L73.7259 72H69.8906ZM94.6854 58.9091V61.6364H86.8018V58.9091H94.6854ZM88.5916 55.7727H92.2223V67.9773C92.2223 68.3125 92.2734 68.5739 92.3757 68.7614C92.478 68.9432 92.62 69.071 92.8018 69.1449C92.9893 69.2187 93.2053 69.2557 93.4496 69.2557C93.62 69.2557 93.7905 69.2415 93.9609 69.2131C94.1314 69.179 94.2621 69.1534 94.353 69.1364L94.924 71.8381C94.7422 71.8949 94.4865 71.9602 94.157 72.0341C93.8274 72.1136 93.4268 72.1619 92.9553 72.179C92.0803 72.2131 91.3132 72.0966 90.6541 71.8295C90.0007 71.5625 89.4922 71.1477 89.1286 70.5852C88.7649 70.0227 88.5859 69.3125 88.5916 68.4545V55.7727ZM100.962 64.4318V72H97.3317V54.5455H100.86V61.2188H101.013C101.309 60.446 101.786 59.8409 102.445 59.4034C103.104 58.9602 103.931 58.7386 104.925 58.7386C105.835 58.7386 106.627 58.9375 107.303 59.3352C107.985 59.7273 108.513 60.2926 108.888 61.0312C109.269 61.7642 109.457 62.642 109.451 63.6648V72H105.82V64.3125C105.826 63.5057 105.621 62.8778 105.207 62.429C104.798 61.9801 104.224 61.7557 103.485 61.7557C102.991 61.7557 102.553 61.8608 102.173 62.071C101.798 62.2812 101.502 62.5881 101.286 62.9915C101.076 63.3892 100.968 63.8693 100.962 64.4318Z" fill="#1E1E1F"/>
<rect x="24" y="95" width="66" height="24" rx="12" fill="#EDEEF0"/>
<path d="M33.98 111V103.956L32.408 104.412V103.476L34.424 102.6H35.204V111H33.98ZM39.8938 111.144C39.3498 111.144 38.8578 111.044 38.4178 110.844C37.9778 110.636 37.6258 110.348 37.3618 109.98C37.1058 109.612 36.9778 109.184 36.9778 108.696C36.9778 108.352 37.0418 108.036 37.1698 107.748C37.2978 107.452 37.4738 107.196 37.6978 106.98C37.9298 106.764 38.2018 106.608 38.5138 106.512C38.0978 106.344 37.7738 106.096 37.5418 105.768C37.3098 105.44 37.1938 105.08 37.1938 104.688C37.1938 104.28 37.2978 103.908 37.5058 103.572C37.7218 103.236 38.0298 102.968 38.4298 102.768C38.8378 102.56 39.3258 102.456 39.8938 102.456C40.4698 102.456 40.9578 102.56 41.3578 102.768C41.7658 102.968 42.0738 103.236 42.2818 103.572C42.4978 103.908 42.6058 104.28 42.6058 104.688C42.6058 105.08 42.4858 105.444 42.2458 105.78C42.0138 106.108 41.6938 106.352 41.2858 106.512C41.5978 106.608 41.8658 106.764 42.0898 106.98C42.3218 107.196 42.5018 107.452 42.6298 107.748C42.7578 108.036 42.8218 108.352 42.8218 108.696C42.8218 109.184 42.6898 109.612 42.4258 109.98C42.1698 110.348 41.8218 110.636 41.3818 110.844C40.9418 111.044 40.4458 111.144 39.8938 111.144ZM39.8938 110.112C40.4698 110.112 40.9018 109.976 41.1898 109.704C41.4778 109.424 41.6218 109.06 41.6218 108.612C41.6218 108.108 41.4658 107.724 41.1538 107.46C40.8418 107.196 40.4218 107.064 39.8938 107.064C39.3738 107.064 38.9538 107.196 38.6338 107.46C38.3218 107.724 38.1658 108.108 38.1658 108.612C38.1658 109.06 38.3098 109.424 38.5978 109.704C38.8938 109.976 39.3258 110.112 39.8938 110.112ZM39.8938 106.116C40.3578 106.116 40.7258 105.992 40.9978 105.744C41.2698 105.496 41.4058 105.18 41.4058 104.796C41.4058 104.356 41.2698 104.024 40.9978 103.8C40.7338 103.576 40.3658 103.464 39.8938 103.464C39.4298 103.464 39.0618 103.576 38.7898 103.8C38.5258 104.024 38.3938 104.356 38.3938 104.796C38.3938 105.18 38.5298 105.496 38.8018 105.744C39.0738 105.992 39.4378 106.116 39.8938 106.116ZM47.4687 111.144C46.8847 111.144 46.3807 111.04 45.9567 110.832C45.5327 110.624 45.2007 110.344 44.9607 109.992C44.7207 109.632 44.5727 109.224 44.5167 108.768H45.6927C45.7727 109.16 45.9647 109.484 46.2687 109.74C46.5807 109.996 46.9847 110.124 47.4807 110.124C47.8407 110.124 48.1487 110.04 48.4047 109.872C48.6687 109.696 48.8687 109.46 49.0047 109.164C49.1487 108.868 49.2207 108.54 49.2207 108.18C49.2207 107.804 49.1487 107.476 49.0047 107.196C48.8687 106.908 48.6727 106.688 48.4167 106.536C48.1607 106.376 47.8607 106.296 47.5167 106.296C47.1007 106.296 46.7447 106.384 46.4487 106.56C46.1607 106.736 45.9447 106.956 45.8007 107.22H44.6367L45.3087 102.6H49.8567V103.644H46.2207L45.8007 106.02C45.9927 105.804 46.2487 105.632 46.5687 105.504C46.8967 105.368 47.2687 105.3 47.6847 105.3C48.1087 105.3 48.4847 105.376 48.8127 105.528C49.1487 105.672 49.4327 105.876 49.6647 106.14C49.8967 106.404 50.0727 106.708 50.1927 107.052C50.3207 107.396 50.3847 107.764 50.3847 108.156C50.3847 108.572 50.3167 108.964 50.1807 109.332C50.0447 109.692 49.8487 110.008 49.5927 110.28C49.3447 110.552 49.0407 110.764 48.6807 110.916C48.3207 111.068 47.9167 111.144 47.4687 111.144ZM52.08 111V102.6H53.496L56.292 108.288L59.076 102.6H60.492V111H59.292V104.712L56.748 109.848H55.824L53.28 104.736V111H52.08ZM69.2571 111.144C68.4411 111.144 67.7371 110.964 67.1451 110.604C66.5531 110.236 66.0971 109.728 65.7771 109.08C65.4571 108.424 65.2971 107.664 65.2971 106.8C65.2971 105.944 65.4571 105.188 65.7771 104.532C66.0971 103.876 66.5531 103.368 67.1451 103.008C67.7371 102.64 68.4411 102.456 69.2571 102.456C70.2331 102.456 71.0251 102.692 71.6331 103.164C72.2411 103.636 72.6291 104.3 72.7971 105.156H71.4891C71.3611 104.66 71.1131 104.264 70.7451 103.968C70.3771 103.672 69.8771 103.524 69.2451 103.524C68.6931 103.524 68.2091 103.656 67.7931 103.92C67.3851 104.184 67.0691 104.56 66.8451 105.048C66.6291 105.536 66.5211 106.12 66.5211 106.8C66.5211 107.48 66.6291 108.068 66.8451 108.564C67.0691 109.052 67.3851 109.428 67.7931 109.692C68.2091 109.948 68.6931 110.076 69.2451 110.076C69.8771 110.076 70.3771 109.936 70.7451 109.656C71.1131 109.368 71.3611 108.98 71.4891 108.492H72.7971C72.6291 109.324 72.2411 109.976 71.6331 110.448C71.0251 110.912 70.2331 111.144 69.2571 111.144ZM77.4615 111.144C76.8695 111.144 76.3335 111.028 75.8535 110.796C75.3735 110.556 74.9895 110.196 74.7015 109.716C74.4215 109.228 74.2815 108.608 74.2815 107.856V102.6H75.4815V107.868C75.4815 108.372 75.5655 108.788 75.7335 109.116C75.9015 109.436 76.1335 109.676 76.4295 109.836C76.7335 109.988 77.0855 110.064 77.4855 110.064C77.8935 110.064 78.2415 109.988 78.5295 109.836C78.8255 109.676 79.0535 109.436 79.2135 109.116C79.3815 108.788 79.4655 108.372 79.4655 107.868V102.6H80.6655V107.856C80.6655 108.608 80.5215 109.228 80.2335 109.716C79.9455 110.196 79.5575 110.556 79.0695 110.796C78.5895 111.028 78.0535 111.144 77.4615 111.144Z" fill="#1E1E1F"/>
<rect x="97" y="95" width="61" height="24" rx="12" fill="#EDEEF0"/>
<path d="M106.98 111V103.956L105.408 104.412V103.476L107.424 102.6H108.204V111H106.98ZM112.966 111.144C112.382 111.144 111.878 111.04 111.454 110.832C111.03 110.624 110.698 110.344 110.458 109.992C110.218 109.632 110.07 109.224 110.014 108.768H111.19C111.27 109.16 111.462 109.484 111.766 109.74C112.078 109.996 112.482 110.124 112.978 110.124C113.338 110.124 113.646 110.04 113.902 109.872C114.166 109.696 114.366 109.46 114.502 109.164C114.646 108.868 114.718 108.54 114.718 108.18C114.718 107.804 114.646 107.476 114.502 107.196C114.366 106.908 114.17 106.688 113.914 106.536C113.658 106.376 113.358 106.296 113.014 106.296C112.598 106.296 112.242 106.384 111.946 106.56C111.658 106.736 111.442 106.956 111.298 107.22H110.134L110.806 102.6H115.354V103.644H111.718L111.298 106.02C111.49 105.804 111.746 105.632 112.066 105.504C112.394 105.368 112.766 105.3 113.182 105.3C113.606 105.3 113.982 105.376 114.31 105.528C114.646 105.672 114.93 105.876 115.162 106.14C115.394 106.404 115.57 106.708 115.69 107.052C115.818 107.396 115.882 107.764 115.882 108.156C115.882 108.572 115.814 108.964 115.678 109.332C115.542 109.692 115.346 110.008 115.09 110.28C114.842 110.552 114.538 110.764 114.178 110.916C113.818 111.068 113.414 111.144 112.966 111.144ZM120.769 111.144C120.041 111.144 119.413 110.964 118.885 110.604C118.365 110.236 117.965 109.728 117.685 109.08C117.405 108.424 117.265 107.664 117.265 106.8C117.265 105.936 117.405 105.18 117.685 104.532C117.965 103.876 118.365 103.368 118.885 103.008C119.413 102.64 120.041 102.456 120.769 102.456C121.505 102.456 122.129 102.64 122.641 103.008C123.161 103.368 123.561 103.876 123.841 104.532C124.129 105.18 124.273 105.936 124.273 106.8C124.273 107.664 124.129 108.424 123.841 109.08C123.561 109.728 123.161 110.236 122.641 110.604C122.129 110.964 121.505 111.144 120.769 111.144ZM120.769 110.076C121.209 110.076 121.597 109.944 121.933 109.68C122.277 109.416 122.545 109.04 122.737 108.552C122.937 108.064 123.037 107.48 123.037 106.8C123.037 106.112 122.937 105.528 122.737 105.048C122.545 104.56 122.277 104.188 121.933 103.932C121.597 103.668 121.209 103.536 120.769 103.536C120.329 103.536 119.937 103.668 119.593 103.932C119.249 104.188 118.977 104.56 118.777 105.048C118.585 105.528 118.489 106.112 118.489 106.8C118.489 107.48 118.585 108.064 118.777 108.552C118.977 109.04 119.249 109.416 119.593 109.68C119.937 109.944 120.329 110.076 120.769 110.076ZM129.055 111V102.6H131.899C132.563 102.6 133.107 102.712 133.531 102.936C133.955 103.16 134.267 103.46 134.467 103.836C134.675 104.204 134.779 104.624 134.779 105.096C134.779 105.544 134.675 105.96 134.467 106.344C134.267 106.72 133.951 107.024 133.519 107.256C133.087 107.48 132.535 107.592 131.863 107.592H130.255V111H129.055ZM133.471 111L131.659 107.268H132.979L134.863 111H133.471ZM130.255 106.68H131.827C132.419 106.68 132.851 106.536 133.123 106.248C133.403 105.952 133.543 105.576 133.543 105.12C133.543 104.656 133.407 104.288 133.135 104.016C132.863 103.744 132.423 103.608 131.815 103.608H130.255V106.68ZM136.476 111V102.6H139.332C140.004 102.6 140.556 102.712 140.988 102.936C141.428 103.16 141.752 103.464 141.96 103.848C142.168 104.224 142.272 104.656 142.272 105.144C142.272 105.608 142.168 106.032 141.96 106.416C141.752 106.8 141.432 107.108 141 107.34C140.568 107.564 140.012 107.676 139.332 107.676H137.676V111H136.476ZM137.676 106.68H139.284C139.924 106.68 140.376 106.54 140.64 106.26C140.912 105.98 141.048 105.608 141.048 105.144C141.048 104.656 140.912 104.276 140.64 104.004C140.376 103.732 139.924 103.596 139.284 103.596H137.676V106.68ZM146.458 111.144C145.85 111.144 145.314 111.036 144.85 110.82C144.386 110.596 144.026 110.284 143.77 109.884C143.514 109.484 143.382 109.016 143.374 108.48H144.646C144.646 108.784 144.714 109.064 144.85 109.32C144.994 109.568 145.198 109.768 145.462 109.92C145.734 110.064 146.066 110.136 146.458 110.136C146.794 110.136 147.082 110.08 147.322 109.968C147.57 109.856 147.758 109.704 147.886 109.512C148.014 109.312 148.078 109.084 148.078 108.828C148.078 108.54 148.014 108.304 147.886 108.12C147.758 107.928 147.578 107.768 147.346 107.64C147.122 107.512 146.862 107.4 146.566 107.304C146.278 107.208 145.966 107.104 145.63 106.992C144.95 106.768 144.446 106.484 144.118 106.14C143.798 105.796 143.638 105.348 143.638 104.796C143.638 104.324 143.746 103.916 143.962 103.572C144.186 103.22 144.502 102.948 144.91 102.756C145.318 102.556 145.794 102.456 146.338 102.456C146.89 102.456 147.366 102.556 147.766 102.756C148.174 102.956 148.494 103.232 148.726 103.584C148.958 103.936 149.078 104.348 149.086 104.82H147.814C147.814 104.604 147.754 104.392 147.634 104.184C147.522 103.976 147.354 103.808 147.13 103.68C146.914 103.544 146.642 103.476 146.314 103.476C146.034 103.468 145.786 103.512 145.57 103.608C145.354 103.704 145.186 103.844 145.066 104.028C144.946 104.212 144.886 104.432 144.886 104.688C144.886 104.944 144.942 105.152 145.054 105.312C145.166 105.464 145.322 105.596 145.522 105.708C145.73 105.82 145.974 105.924 146.254 106.02C146.534 106.108 146.842 106.208 147.178 106.32C147.586 106.456 147.954 106.624 148.282 106.824C148.61 107.016 148.866 107.268 149.05 107.58C149.242 107.884 149.338 108.276 149.338 108.756C149.338 109.172 149.23 109.56 149.014 109.92C148.798 110.28 148.478 110.576 148.054 110.808C147.63 111.032 147.098 111.144 146.458 111.144Z" fill="#1E1E1F"/>
<path d="M212.423 101.818H214.267V108.47C214.267 109.199 214.095 109.841 213.75 110.394C213.409 110.948 212.928 111.38 212.308 111.692C211.688 112 210.964 112.154 210.136 112.154C209.304 112.154 208.578 112 207.958 111.692C207.338 111.38 206.858 110.948 206.516 110.394C206.175 109.841 206.004 109.199 206.004 108.47V101.818H207.849V108.316C207.849 108.74 207.942 109.118 208.127 109.45C208.316 109.781 208.581 110.041 208.923 110.23C209.264 110.416 209.668 110.509 210.136 110.509C210.603 110.509 211.007 110.416 211.349 110.23C211.693 110.041 211.959 109.781 212.144 109.45C212.33 109.118 212.423 108.74 212.423 108.316V101.818ZM218.132 107.526V112H216.332V104.364H218.052V105.661H218.142C218.318 105.234 218.598 104.894 218.982 104.642C219.37 104.39 219.849 104.264 220.419 104.264C220.946 104.264 221.405 104.377 221.796 104.602C222.19 104.828 222.495 105.154 222.711 105.582C222.93 106.009 223.037 106.528 223.034 107.138V112H221.234V107.416C221.234 106.906 221.102 106.506 220.837 106.218C220.575 105.93 220.212 105.786 219.748 105.786C219.433 105.786 219.153 105.855 218.908 105.994C218.666 106.13 218.475 106.327 218.336 106.586C218.2 106.844 218.132 107.158 218.132 107.526ZM228.817 104.364V105.756H224.427V104.364H228.817ZM225.511 102.534H227.31V109.703C227.31 109.945 227.347 110.131 227.42 110.26C227.496 110.386 227.595 110.472 227.718 110.518C227.841 110.565 227.977 110.588 228.126 110.588C228.238 110.588 228.341 110.58 228.434 110.563C228.53 110.547 228.603 110.532 228.653 110.518L228.956 111.925C228.86 111.959 228.722 111.995 228.543 112.035C228.368 112.075 228.152 112.098 227.897 112.104C227.446 112.118 227.04 112.05 226.679 111.901C226.318 111.748 226.031 111.513 225.819 111.195C225.61 110.876 225.507 110.479 225.511 110.001V102.534ZM230.462 112V104.364H232.262V112H230.462ZM231.367 103.28C231.082 103.28 230.836 103.185 230.631 102.996C230.425 102.804 230.323 102.574 230.323 102.305C230.323 102.034 230.425 101.803 230.631 101.614C230.836 101.422 231.082 101.326 231.367 101.326C231.655 101.326 231.9 101.422 232.103 101.614C232.308 101.803 232.411 102.034 232.411 102.305C232.411 102.574 232.308 102.804 232.103 102.996C231.9 103.185 231.655 103.28 231.367 103.28ZM236.052 101.818V112H234.252V101.818H236.052ZM250.102 101.818V112H248.461L243.664 105.065H243.579V112H241.735V101.818H243.385L248.178 108.759H248.268V101.818H250.102ZM255.503 112.149C254.758 112.149 254.111 111.985 253.564 111.657C253.017 111.329 252.593 110.87 252.292 110.28C251.993 109.69 251.844 109 251.844 108.212C251.844 107.423 251.993 106.732 252.292 106.138C252.593 105.545 253.017 105.085 253.564 104.756C254.111 104.428 254.758 104.264 255.503 104.264C256.249 104.264 256.895 104.428 257.442 104.756C257.989 105.085 258.412 105.545 258.71 106.138C259.012 106.732 259.162 107.423 259.162 108.212C259.162 109 259.012 109.69 258.71 110.28C258.412 110.87 257.989 111.329 257.442 111.657C256.895 111.985 256.249 112.149 255.503 112.149ZM255.513 110.707C255.918 110.707 256.256 110.596 256.527 110.374C256.799 110.149 257.001 109.847 257.134 109.469C257.27 109.092 257.338 108.671 257.338 108.207C257.338 107.739 257.27 107.317 257.134 106.939C257.001 106.558 256.799 106.254 256.527 106.029C256.256 105.804 255.918 105.691 255.513 105.691C255.099 105.691 254.754 105.804 254.479 106.029C254.207 106.254 254.003 106.558 253.868 106.939C253.735 107.317 253.669 107.739 253.669 108.207C253.669 108.671 253.735 109.092 253.868 109.469C254.003 109.847 254.207 110.149 254.479 110.374C254.754 110.596 255.099 110.707 255.513 110.707ZM267.391 104.364L264.672 112H262.683L259.964 104.364H261.883L263.638 110.036H263.717L265.477 104.364H267.391ZM276.511 101.818V112H274.666V103.613H274.607L272.225 105.134V103.444L274.756 101.818H276.511ZM282.999 112.194C282.181 112.194 281.478 111.987 280.891 111.572C280.308 111.155 279.859 110.553 279.544 109.768C279.233 108.979 279.077 108.029 279.077 106.919C279.08 105.809 279.238 104.864 279.549 104.085C279.864 103.303 280.313 102.706 280.896 102.295C281.483 101.884 282.184 101.679 282.999 101.679C283.815 101.679 284.516 101.884 285.102 102.295C285.689 102.706 286.138 103.303 286.45 104.085C286.764 104.867 286.922 105.812 286.922 106.919C286.922 108.033 286.764 108.984 286.45 109.773C286.138 110.558 285.689 111.158 285.102 111.572C284.519 111.987 283.818 112.194 282.999 112.194ZM282.999 110.638C283.636 110.638 284.138 110.325 284.506 109.698C284.877 109.068 285.063 108.142 285.063 106.919C285.063 106.11 284.978 105.431 284.809 104.881C284.64 104.33 284.401 103.916 284.093 103.638C283.785 103.356 283.42 103.215 282.999 103.215C282.366 103.215 281.866 103.53 281.498 104.16C281.13 104.786 280.944 105.706 280.941 106.919C280.938 107.731 281.019 108.414 281.185 108.967C281.354 109.521 281.592 109.938 281.901 110.22C282.209 110.499 282.575 110.638 282.999 110.638Z" fill="#0B57D0"/>
<rect x="328.5" y="0.5" width="315" height="145" rx="23.5" fill="white"/>
<rect x="328.5" y="0.5" width="315" height="145" rx="23.5" stroke="#EDEDF0"/>
<path d="M361.575 32.1293H360.024C359.964 31.7978 359.853 31.5062 359.691 31.2543C359.529 31.0024 359.33 30.7886 359.094 30.6129C358.859 30.4373 358.596 30.3047 358.304 30.2152C358.016 30.1257 357.709 30.081 357.384 30.081C356.798 30.081 356.272 30.2285 355.808 30.5234C355.348 30.8184 354.983 31.2509 354.714 31.821C354.449 32.3911 354.317 33.0871 354.317 33.9091C354.317 34.7377 354.449 35.437 354.714 36.0071C354.983 36.5772 355.349 37.008 355.813 37.2997C356.277 37.5914 356.799 37.7372 357.379 37.7372C357.701 37.7372 358.006 37.6941 358.294 37.608C358.586 37.5185 358.849 37.3875 359.085 37.2152C359.32 37.0429 359.519 36.8324 359.681 36.5838C359.847 36.3319 359.961 36.0436 360.024 35.7188L361.575 35.7237C361.492 36.2242 361.332 36.6849 361.093 37.1058C360.858 37.5234 360.554 37.8847 360.183 38.1896C359.815 38.4912 359.394 38.7249 358.92 38.8906C358.446 39.0563 357.929 39.1392 357.369 39.1392C356.488 39.1392 355.702 38.9304 355.013 38.5128C354.323 38.0919 353.78 37.4903 353.382 36.7081C352.988 35.9259 352.79 34.9929 352.79 33.9091C352.79 32.822 352.989 31.889 353.387 31.1101C353.785 30.3279 354.328 29.728 355.018 29.3104C355.707 28.8894 356.491 28.679 357.369 28.679C357.91 28.679 358.413 28.7569 358.881 28.9126C359.351 29.0651 359.774 29.2905 360.148 29.5888C360.523 29.8838 360.833 30.245 361.078 30.6726C361.323 31.0968 361.489 31.5824 361.575 32.1293ZM370.101 28.8182H371.642V35.5149C371.642 36.2275 371.475 36.8589 371.14 37.4091C370.805 37.956 370.335 38.3868 369.728 38.7017C369.122 39.0133 368.411 39.169 367.595 39.169C366.783 39.169 366.074 39.0133 365.468 38.7017C364.861 38.3868 364.39 37.956 364.056 37.4091C363.721 36.8589 363.554 36.2275 363.554 35.5149V28.8182H365.09V35.3906C365.09 35.8513 365.191 36.2607 365.393 36.6186C365.599 36.9766 365.889 37.2583 366.263 37.4638C366.638 37.666 367.082 37.767 367.595 37.767C368.112 37.767 368.558 37.666 368.933 37.4638C369.311 37.2583 369.599 36.9766 369.798 36.6186C370 36.2607 370.101 35.8513 370.101 35.3906V28.8182ZM377.861 39V28.8182H379.347V32.6016H379.437C379.523 32.4425 379.647 32.2585 379.81 32.0497C379.972 31.8409 380.198 31.6586 380.486 31.5028C380.774 31.3438 381.155 31.2642 381.629 31.2642C382.246 31.2642 382.796 31.42 383.28 31.7315C383.764 32.0431 384.143 32.4922 384.418 33.0788C384.697 33.6655 384.836 34.3714 384.836 35.1967C384.836 36.022 384.698 36.7296 384.423 37.3196C384.148 37.9062 383.77 38.3587 383.29 38.6768C382.809 38.9917 382.261 39.1491 381.644 39.1491C381.18 39.1491 380.801 39.0713 380.506 38.9155C380.214 38.7597 379.985 38.5774 379.82 38.3686C379.654 38.1598 379.526 37.9742 379.437 37.8118H379.313V39H377.861ZM379.318 35.1818C379.318 35.7187 379.395 36.1894 379.551 36.5938C379.707 36.9981 379.932 37.3146 380.227 37.5433C380.522 37.7687 380.884 37.8814 381.311 37.8814C381.755 37.8814 382.126 37.7637 382.425 37.5284C382.723 37.2898 382.948 36.9666 383.101 36.5589C383.257 36.1513 383.335 35.6922 383.335 35.1818C383.335 34.678 383.258 34.2256 383.106 33.8246C382.957 33.4235 382.731 33.107 382.43 32.875C382.131 32.643 381.759 32.527 381.311 32.527C380.88 32.527 380.516 32.638 380.217 32.8601C379.922 33.0821 379.699 33.392 379.546 33.7898C379.394 34.1875 379.318 34.6515 379.318 35.1818ZM388.868 39.169C388.384 39.169 387.946 39.0795 387.555 38.9006C387.164 38.7183 386.854 38.4548 386.625 38.1101C386.4 37.7654 386.287 37.3428 386.287 36.8423C386.287 36.4115 386.37 36.0568 386.536 35.7784C386.702 35.5 386.925 35.2796 387.207 35.1172C387.489 34.9548 387.804 34.8321 388.152 34.7493C388.5 34.6664 388.854 34.6035 389.216 34.5604C389.673 34.5073 390.044 34.4643 390.329 34.4311C390.614 34.3946 390.821 34.3366 390.951 34.2571C391.08 34.1776 391.145 34.0483 391.145 33.8693V33.8345C391.145 33.4003 391.022 33.0639 390.777 32.8253C390.535 32.5866 390.173 32.4673 389.693 32.4673C389.192 32.4673 388.798 32.5784 388.51 32.8004C388.225 33.0192 388.027 33.2628 387.918 33.5312L386.521 33.2131C386.687 32.7491 386.929 32.3745 387.247 32.0895C387.568 31.8011 387.938 31.5923 388.355 31.4631C388.773 31.3305 389.212 31.2642 389.673 31.2642C389.978 31.2642 390.301 31.3007 390.642 31.3736C390.987 31.4432 391.309 31.5724 391.607 31.7614C391.908 31.9503 392.155 32.2204 392.348 32.5717C392.54 32.9197 392.636 33.3722 392.636 33.929V39H391.184V37.956H391.125C391.029 38.1482 390.884 38.3371 390.692 38.5227C390.5 38.7083 390.253 38.8625 389.951 38.9851C389.65 39.1077 389.288 39.169 388.868 39.169ZM389.191 37.9759C389.602 37.9759 389.953 37.8946 390.245 37.7322C390.54 37.5698 390.763 37.3577 390.916 37.0959C391.072 36.8307 391.149 36.5473 391.149 36.2457V35.2614C391.096 35.3144 390.994 35.3641 390.841 35.4105C390.692 35.4536 390.521 35.4917 390.329 35.5249C390.137 35.5547 389.95 35.5829 389.767 35.6094C389.585 35.6326 389.433 35.6525 389.31 35.669C389.022 35.7055 388.758 35.7668 388.52 35.853C388.284 35.9392 388.095 36.0634 387.953 36.2259C387.814 36.3849 387.744 36.5971 387.744 36.8622C387.744 37.2301 387.88 37.5085 388.152 37.6974C388.423 37.883 388.77 37.9759 389.191 37.9759ZM396.242 28.8182V39H394.756V28.8182H396.242ZM400.605 39.169C400.121 39.169 399.683 39.0795 399.292 38.9006C398.901 38.7183 398.591 38.4548 398.362 38.1101C398.137 37.7654 398.024 37.3428 398.024 36.8423C398.024 36.4115 398.107 36.0568 398.273 35.7784C398.439 35.5 398.662 35.2796 398.944 35.1172C399.226 34.9548 399.541 34.8321 399.889 34.7493C400.237 34.6664 400.591 34.6035 400.953 34.5604C401.41 34.5073 401.781 34.4643 402.066 34.4311C402.351 34.3946 402.558 34.3366 402.688 34.2571C402.817 34.1776 402.882 34.0483 402.882 33.8693V33.8345C402.882 33.4003 402.759 33.0639 402.514 32.8253C402.272 32.5866 401.91 32.4673 401.43 32.4673C400.929 32.4673 400.535 32.5784 400.247 32.8004C399.962 33.0192 399.764 33.2628 399.655 33.5312L398.258 33.2131C398.424 32.7491 398.666 32.3745 398.984 32.0895C399.305 31.8011 399.675 31.5923 400.092 31.4631C400.51 31.3305 400.949 31.2642 401.41 31.2642C401.715 31.2642 402.038 31.3007 402.379 31.3736C402.724 31.4432 403.046 31.5724 403.344 31.7614C403.646 31.9503 403.892 32.2204 404.085 32.5717C404.277 32.9197 404.373 33.3722 404.373 33.929V39H402.921V37.956H402.862C402.766 38.1482 402.621 38.3371 402.429 38.5227C402.237 38.7083 401.99 38.8625 401.688 38.9851C401.387 39.1077 401.025 39.169 400.605 39.169ZM400.928 37.9759C401.339 37.9759 401.69 37.8946 401.982 37.7322C402.277 37.5698 402.5 37.3577 402.653 37.0959C402.809 36.8307 402.887 36.5473 402.887 36.2457V35.2614C402.833 35.3144 402.731 35.3641 402.578 35.4105C402.429 35.4536 402.258 35.4917 402.066 35.5249C401.874 35.5547 401.687 35.5829 401.504 35.6094C401.322 35.6326 401.17 35.6525 401.047 35.669C400.759 35.7055 400.495 35.7668 400.257 35.853C400.021 35.9392 399.832 36.0634 399.69 36.2259C399.551 36.3849 399.481 36.5971 399.481 36.8622C399.481 37.2301 399.617 37.5085 399.889 37.6974C400.16 37.883 400.507 37.9759 400.928 37.9759ZM407.979 34.4659V39H406.493V31.3636H407.92V32.6065H408.014C408.19 32.2022 408.465 31.8774 408.84 31.6321C409.217 31.3868 409.693 31.2642 410.266 31.2642C410.787 31.2642 411.242 31.3736 411.634 31.5923C412.025 31.8078 412.328 32.1293 412.543 32.5568C412.759 32.9844 412.867 33.513 412.867 34.1428V39H411.38V34.3217C411.38 33.7682 411.236 33.3357 410.948 33.0241C410.659 32.7093 410.263 32.5518 409.759 32.5518C409.415 32.5518 409.108 32.6264 408.84 32.7756C408.574 32.9247 408.364 33.1435 408.208 33.4318C408.056 33.7169 407.979 34.0616 407.979 34.4659ZM418.217 39.1541C417.478 39.1541 416.841 38.9867 416.308 38.652C415.777 38.3139 415.37 37.8482 415.085 37.255C414.8 36.6617 414.657 35.9822 414.657 35.2166C414.657 34.4411 414.803 33.7566 415.095 33.1634C415.386 32.5668 415.797 32.1011 416.328 31.7663C416.858 31.4316 417.483 31.2642 418.202 31.2642C418.782 31.2642 419.299 31.3719 419.753 31.5874C420.207 31.7995 420.573 32.0978 420.852 32.4822C421.133 32.8667 421.301 33.3158 421.354 33.8295H419.907C419.828 33.4716 419.645 33.1634 419.36 32.9048C419.079 32.6463 418.701 32.517 418.227 32.517C417.812 32.517 417.449 32.6264 417.138 32.8452C416.83 33.0606 416.589 33.3688 416.417 33.7699C416.245 34.1676 416.159 34.6383 416.159 35.1818C416.159 35.7386 416.243 36.2192 416.412 36.6236C416.581 37.0279 416.82 37.3411 417.128 37.5632C417.44 37.7853 417.806 37.8963 418.227 37.8963C418.508 37.8963 418.764 37.8449 418.992 37.7422C419.224 37.6361 419.418 37.4853 419.574 37.2898C419.733 37.0942 419.844 36.8589 419.907 36.5838H421.354C421.301 37.0777 421.14 37.5185 420.872 37.9062C420.603 38.294 420.244 38.599 419.793 38.821C419.345 39.0431 418.82 39.1541 418.217 39.1541ZM426.375 39.1541C425.622 39.1541 424.974 38.9934 424.431 38.6719C423.891 38.3471 423.473 37.8913 423.178 37.3047C422.886 36.7147 422.74 36.0237 422.74 35.2315C422.74 34.4493 422.886 33.7599 423.178 33.1634C423.473 32.5668 423.884 32.1011 424.411 31.7663C424.941 31.4316 425.561 31.2642 426.27 31.2642C426.701 31.2642 427.119 31.3355 427.523 31.478C427.927 31.6205 428.29 31.8442 428.612 32.1491C428.933 32.4541 429.187 32.8501 429.373 33.3374C429.558 33.8213 429.651 34.4096 429.651 35.1023V35.6293H423.581V34.5156H428.194C428.194 34.1245 428.115 33.7782 427.956 33.4766C427.797 33.1716 427.573 32.9313 427.285 32.7557C426.999 32.58 426.665 32.4922 426.28 32.4922C425.863 32.4922 425.498 32.5949 425.186 32.8004C424.878 33.0026 424.64 33.2678 424.471 33.5959C424.305 33.9207 424.222 34.2737 424.222 34.6548V35.5249C424.222 36.0353 424.311 36.4695 424.49 36.8274C424.673 37.1854 424.926 37.4588 425.251 37.6477C425.576 37.8333 425.955 37.9261 426.39 37.9261C426.671 37.9261 426.928 37.8864 427.16 37.8068C427.392 37.724 427.593 37.6013 427.762 37.4389C427.931 37.2765 428.06 37.076 428.15 36.8374L429.557 37.0909C429.444 37.5052 429.242 37.8681 428.95 38.1797C428.662 38.4879 428.299 38.7282 427.861 38.9006C427.427 39.0696 426.932 39.1541 426.375 39.1541Z" fill="#AEAEB2"/>
<path d="M360.651 51.5455V69H357.489V54.6222H357.386L353.304 57.2301V54.3324L357.642 51.5455H360.651ZM365.722 69L373.145 54.3068V54.1875H364.528V51.5455H376.418V54.2472L369.003 69H365.722ZM385.245 69.3324C383.842 69.3324 382.637 68.9773 381.631 68.267C380.631 67.5511 379.862 66.5199 379.322 65.1733C378.788 63.821 378.521 62.1932 378.521 60.2898C378.526 58.3864 378.796 56.767 379.33 55.4318C379.87 54.0909 380.64 53.0682 381.64 52.3636C382.646 51.6591 383.847 51.3068 385.245 51.3068C386.643 51.3068 387.844 51.6591 388.85 52.3636C389.856 53.0682 390.626 54.0909 391.16 55.4318C391.7 56.7727 391.969 58.392 391.969 60.2898C391.969 62.1989 391.7 63.8295 391.16 65.1818C390.626 66.5284 389.856 67.5568 388.85 68.267C387.85 68.9773 386.648 69.3324 385.245 69.3324ZM385.245 66.6648C386.336 66.6648 387.197 66.1278 387.827 65.054C388.464 63.9744 388.782 62.3864 388.782 60.2898C388.782 58.9034 388.637 57.7386 388.347 56.7955C388.058 55.8523 387.648 55.142 387.12 54.6648C386.592 54.1818 385.967 53.9403 385.245 53.9403C384.16 53.9403 383.302 54.4801 382.671 55.5597C382.04 56.6335 381.722 58.2102 381.717 60.2898C381.711 61.6818 381.85 62.8523 382.134 63.8011C382.424 64.75 382.833 65.4659 383.362 65.9489C383.89 66.4261 384.518 66.6648 385.245 66.6648ZM400.754 69V66.7159L406.814 60.7756C407.393 60.1903 407.876 59.6705 408.263 59.2159C408.649 58.7614 408.939 58.321 409.132 57.8949C409.325 57.4687 409.422 57.0142 409.422 56.5312C409.422 55.9801 409.297 55.5085 409.047 55.1165C408.797 54.7188 408.453 54.4119 408.016 54.196C407.578 53.9801 407.081 53.8722 406.524 53.8722C405.95 53.8722 405.447 53.9915 405.016 54.2301C404.584 54.4631 404.249 54.7955 404.01 55.2273C403.777 55.6591 403.661 56.1733 403.661 56.7699H400.652C400.652 55.6619 400.905 54.6989 401.411 53.8807C401.916 53.0625 402.612 52.429 403.499 51.9801C404.391 51.5312 405.413 51.3068 406.567 51.3068C407.737 51.3068 408.766 51.5256 409.652 51.9631C410.538 52.4006 411.226 53 411.714 53.7614C412.209 54.5227 412.456 55.392 412.456 56.3693C412.456 57.0227 412.331 57.6648 412.081 58.2955C411.831 58.9261 411.391 59.625 410.76 60.392C410.135 61.1591 409.257 62.0881 408.126 63.179L405.118 66.2386V66.358H412.72V69H400.754ZM415.661 69V66.7159L421.72 60.7756C422.3 60.1903 422.783 59.6705 423.169 59.2159C423.555 58.7614 423.845 58.321 424.038 57.8949C424.232 57.4687 424.328 57.0142 424.328 56.5312C424.328 55.9801 424.203 55.5085 423.953 55.1165C423.703 54.7188 423.359 54.4119 422.922 54.196C422.484 53.9801 421.987 53.8722 421.43 53.8722C420.857 53.8722 420.354 53.9915 419.922 54.2301C419.49 54.4631 419.155 54.7955 418.916 55.2273C418.683 55.6591 418.567 56.1733 418.567 56.7699H415.558C415.558 55.6619 415.811 54.6989 416.317 53.8807C416.822 53.0625 417.518 52.429 418.405 51.9801C419.297 51.5312 420.32 51.3068 421.473 51.3068C422.643 51.3068 423.672 51.5256 424.558 51.9631C425.445 52.4006 426.132 53 426.621 53.7614C427.115 54.5227 427.362 55.392 427.362 56.3693C427.362 57.0227 427.237 57.6648 426.987 58.2955C426.737 58.9261 426.297 59.625 425.666 60.392C425.041 61.1591 424.163 62.0881 423.033 63.179L420.024 66.2386V66.358H427.626V69H415.661ZM437.018 69.3324C435.615 69.3324 434.411 68.9773 433.405 68.267C432.405 67.5511 431.635 66.5199 431.095 65.1733C430.561 63.821 430.294 62.1932 430.294 60.2898C430.3 58.3864 430.57 56.767 431.104 55.4318C431.643 54.0909 432.413 53.0682 433.413 52.3636C434.419 51.6591 435.621 51.3068 437.018 51.3068C438.416 51.3068 439.618 51.6591 440.624 52.3636C441.629 53.0682 442.399 54.0909 442.933 55.4318C443.473 56.7727 443.743 58.392 443.743 60.2898C443.743 62.1989 443.473 63.8295 442.933 65.1818C442.399 66.5284 441.629 67.5568 440.624 68.267C439.624 68.9773 438.422 69.3324 437.018 69.3324ZM437.018 66.6648C438.109 66.6648 438.97 66.1278 439.601 65.054C440.237 63.9744 440.555 62.3864 440.555 60.2898C440.555 58.9034 440.411 57.7386 440.121 56.7955C439.831 55.8523 439.422 55.142 438.893 54.6648C438.365 54.1818 437.74 53.9403 437.018 53.9403C435.933 53.9403 435.075 54.4801 434.445 55.5597C433.814 56.6335 433.496 58.2102 433.49 60.2898C433.484 61.6818 433.624 62.8523 433.908 63.8011C434.197 64.75 434.607 65.4659 435.135 65.9489C435.663 66.4261 436.291 66.6648 437.018 66.6648ZM458.732 69.2386C457.465 69.2386 456.34 69.0256 455.357 68.5994C454.38 68.1733 453.613 67.5909 453.056 66.8523C452.505 66.108 452.232 65.2642 452.238 64.321C452.232 63.5881 452.391 62.9148 452.715 62.3011C453.039 61.6875 453.477 61.1761 454.028 60.767C454.585 60.3523 455.204 60.0881 455.886 59.9744V59.8551C454.988 59.6562 454.261 59.1989 453.704 58.483C453.153 57.7614 452.88 56.929 452.886 55.9858C452.88 55.0881 453.13 54.2869 453.636 53.5824C454.141 52.8778 454.835 52.3239 455.715 51.9205C456.596 51.5114 457.602 51.3068 458.732 51.3068C459.852 51.3068 460.849 51.5114 461.724 51.9205C462.604 52.3239 463.298 52.8778 463.803 53.5824C464.315 54.2869 464.57 55.0881 464.57 55.9858C464.57 56.929 464.289 57.7614 463.727 58.483C463.17 59.1989 462.451 59.6562 461.57 59.8551V59.9744C462.252 60.0881 462.866 60.3523 463.411 60.767C463.962 61.1761 464.4 61.6875 464.724 62.3011C465.053 62.9148 465.218 63.5881 465.218 64.321C465.218 65.2642 464.94 66.108 464.383 66.8523C463.826 67.5909 463.059 68.1733 462.082 68.5994C461.11 69.0256 459.994 69.2386 458.732 69.2386ZM458.732 66.8011C459.386 66.8011 459.954 66.6903 460.437 66.4688C460.92 66.2415 461.295 65.9233 461.562 65.5142C461.829 65.1051 461.965 64.6335 461.971 64.0994C461.965 63.5426 461.82 63.0511 461.536 62.625C461.258 62.1932 460.874 61.8551 460.386 61.6108C459.903 61.3665 459.352 61.2443 458.732 61.2443C458.107 61.2443 457.55 61.3665 457.062 61.6108C456.573 61.8551 456.187 62.1932 455.903 62.625C455.624 63.0511 455.488 63.5426 455.494 64.0994C455.488 64.6335 455.619 65.1051 455.886 65.5142C456.153 65.9176 456.528 66.233 457.011 66.4602C457.499 66.6875 458.073 66.8011 458.732 66.8011ZM458.732 58.8494C459.266 58.8494 459.738 58.7415 460.147 58.5256C460.562 58.3097 460.888 58.0085 461.127 57.6222C461.366 57.2358 461.488 56.7898 461.494 56.2841C461.488 55.7841 461.369 55.3466 461.136 54.9716C460.903 54.5909 460.579 54.2983 460.164 54.0938C459.749 53.8835 459.272 53.7784 458.732 53.7784C458.181 53.7784 457.695 53.8835 457.275 54.0938C456.86 54.2983 456.536 54.5909 456.303 54.9716C456.076 55.3466 455.965 55.7841 455.971 56.2841C455.965 56.7898 456.079 57.2358 456.312 57.6222C456.55 58.0028 456.877 58.304 457.292 58.5256C457.712 58.7415 458.192 58.8494 458.732 58.8494ZM467.705 65.7614V63.2472L475.111 51.5455H477.207V55.125H475.929L470.943 63.0256V63.1619H481.281V65.7614H467.705ZM476.031 69V64.9943L476.065 63.8693V51.5455H479.048V69H476.031ZM490.072 69.2386C488.936 69.2386 487.919 69.0256 487.021 68.5994C486.124 68.1676 485.411 67.5767 484.882 66.8267C484.359 66.0767 484.081 65.2187 484.047 64.2528H487.115C487.172 64.9687 487.482 65.554 488.044 66.0085C488.607 66.4574 489.283 66.6818 490.072 66.6818C490.692 66.6818 491.243 66.5398 491.726 66.2557C492.209 65.9716 492.589 65.5767 492.868 65.071C493.146 64.5653 493.283 63.9886 493.277 63.3409C493.283 62.6818 493.143 62.0966 492.859 61.5852C492.575 61.0739 492.186 60.6733 491.692 60.3835C491.197 60.0881 490.629 59.9403 489.987 59.9403C489.464 59.9347 488.95 60.0312 488.445 60.2301C487.939 60.429 487.538 60.6903 487.243 61.0142L484.388 60.5455L485.3 51.5455H495.425V54.1875H487.916L487.413 58.8153H487.516C487.839 58.4347 488.297 58.1193 488.888 57.8693C489.479 57.6136 490.126 57.4858 490.831 57.4858C491.888 57.4858 492.831 57.7358 493.661 58.2358C494.49 58.7301 495.143 59.4119 495.621 60.2812C496.098 61.1506 496.337 62.1449 496.337 63.2642C496.337 64.4176 496.07 65.446 495.536 66.3494C495.007 67.2472 494.271 67.9545 493.328 68.4716C492.391 68.983 491.305 69.2386 490.072 69.2386Z" fill="#1E1E1F"/>
<rect x="550" y="24" width="70" height="36" rx="12" fill="#EBF3FF"/>
<path d="M565.304 47V38.348H562.406V37.2H569.616V38.348H566.704V47H565.304ZM572.926 47.168C572.263 47.168 571.666 47.014 571.134 46.706C570.611 46.398 570.196 45.9687 569.888 45.418C569.589 44.858 569.44 44.214 569.44 43.486C569.44 42.7393 569.594 42.0907 569.902 41.54C570.21 40.98 570.63 40.546 571.162 40.238C571.694 39.93 572.291 39.776 572.954 39.776C573.626 39.776 574.223 39.93 574.746 40.238C575.269 40.546 575.679 40.9753 575.978 41.526C576.286 42.0767 576.44 42.7253 576.44 43.472C576.44 44.2187 576.286 44.8673 575.978 45.418C575.679 45.9687 575.264 46.398 574.732 46.706C574.2 47.014 573.598 47.168 572.926 47.168ZM572.926 45.964C573.309 45.964 573.654 45.8707 573.962 45.684C574.279 45.4973 574.531 45.222 574.718 44.858C574.914 44.4847 575.012 44.0227 575.012 43.472C575.012 42.9213 574.919 42.464 574.732 42.1C574.545 41.7267 574.293 41.4467 573.976 41.26C573.668 41.0733 573.327 40.98 572.954 40.98C572.581 40.98 572.235 41.0733 571.918 41.26C571.601 41.4467 571.344 41.7267 571.148 42.1C570.961 42.464 570.868 42.9213 570.868 43.472C570.868 44.0227 570.961 44.4847 571.148 44.858C571.344 45.222 571.596 45.4973 571.904 45.684C572.221 45.8707 572.562 45.964 572.926 45.964ZM578.087 50.08V39.944H579.347L579.487 41.036C579.636 40.8213 579.823 40.6207 580.047 40.434C580.271 40.238 580.537 40.0793 580.845 39.958C581.162 39.8367 581.531 39.776 581.951 39.776C582.623 39.776 583.211 39.9393 583.715 40.266C584.228 40.5927 584.625 41.036 584.905 41.596C585.194 42.1467 585.339 42.7767 585.339 43.486C585.339 44.1953 585.194 44.83 584.905 45.39C584.615 45.9407 584.214 46.3747 583.701 46.692C583.197 47.0093 582.609 47.168 581.937 47.168C581.386 47.168 580.901 47.0607 580.481 46.846C580.061 46.622 579.729 46.314 579.487 45.922V50.08H578.087ZM581.713 45.95C582.142 45.95 582.52 45.8473 582.847 45.642C583.183 45.4367 583.444 45.1473 583.631 44.774C583.827 44.4007 583.925 43.9667 583.925 43.472C583.925 42.9773 583.827 42.548 583.631 42.184C583.444 41.8107 583.183 41.5213 582.847 41.316C582.52 41.1013 582.142 40.994 581.713 40.994C581.274 40.994 580.887 41.1013 580.551 41.316C580.224 41.5213 579.967 41.8107 579.781 42.184C579.594 42.548 579.501 42.9773 579.501 43.472C579.501 43.9667 579.594 44.4007 579.781 44.774C579.967 45.1473 580.224 45.4367 580.551 45.642C580.887 45.8473 581.274 45.95 581.713 45.95ZM594.238 47.168C593.547 47.168 592.922 47.0327 592.362 46.762C591.802 46.482 591.354 46.062 591.018 45.502C590.691 44.9327 590.528 44.2093 590.528 43.332V37.2H591.928V43.346C591.928 43.934 592.026 44.4193 592.222 44.802C592.418 45.1753 592.688 45.4553 593.034 45.642C593.388 45.8193 593.799 45.908 594.266 45.908C594.742 45.908 595.152 45.8193 595.498 45.642C595.843 45.4553 596.109 45.1753 596.296 44.802C596.492 44.4193 596.59 43.934 596.59 43.346V37.2H597.99V43.332C597.99 44.2093 597.822 44.9327 597.486 45.502C597.15 46.062 596.697 46.482 596.128 46.762C595.558 47.0327 594.928 47.168 594.238 47.168ZM599.866 50.08V39.944H601.126L601.266 41.036C601.415 40.8213 601.602 40.6207 601.826 40.434C602.05 40.238 602.316 40.0793 602.624 39.958C602.941 39.8367 603.31 39.776 603.73 39.776C604.402 39.776 604.99 39.9393 605.494 40.266C606.007 40.5927 606.404 41.036 606.684 41.596C606.973 42.1467 607.118 42.7767 607.118 43.486C607.118 44.1953 606.973 44.83 606.684 45.39C606.395 45.9407 605.993 46.3747 605.48 46.692C604.976 47.0093 604.388 47.168 603.716 47.168C603.165 47.168 602.68 47.0607 602.26 46.846C601.84 46.622 601.509 46.314 601.266 45.922V50.08H599.866ZM603.492 45.95C603.921 45.95 604.299 45.8473 604.626 45.642C604.962 45.4367 605.223 45.1473 605.41 44.774C605.606 44.4007 605.704 43.9667 605.704 43.472C605.704 42.9773 605.606 42.548 605.41 42.184C605.223 41.8107 604.962 41.5213 604.626 41.316C604.299 41.1013 603.921 40.994 603.492 40.994C603.053 40.994 602.666 41.1013 602.33 41.316C602.003 41.5213 601.747 41.8107 601.56 42.184C601.373 42.548 601.28 42.9773 601.28 43.472C601.28 43.9667 601.373 44.4007 601.56 44.774C601.747 45.1473 602.003 45.4367 602.33 45.642C602.666 45.8473 603.053 45.95 603.492 45.95Z" fill="#0B57D0"/>
<path d="M356.151 96.2727V105H354.83V97.5938H354.778L352.69 98.9574V97.696L354.868 96.2727H356.151ZM358.925 105L362.735 97.4659V97.402H358.329V96.2727H364.099V97.4403L360.302 105H358.925ZM368.551 105.145C367.878 105.142 367.303 104.964 366.826 104.612C366.348 104.26 365.983 103.747 365.73 103.074C365.478 102.401 365.351 101.589 365.351 100.641C365.351 99.6946 365.478 98.8864 365.73 98.2159C365.986 97.5455 366.353 97.0341 366.83 96.6818C367.31 96.3295 367.884 96.1534 368.551 96.1534C369.219 96.1534 369.791 96.331 370.269 96.6861C370.746 97.0384 371.111 97.5497 371.364 98.2202C371.62 98.8878 371.747 99.6946 371.747 100.641C371.747 101.592 371.621 102.405 371.368 103.078C371.115 103.749 370.75 104.261 370.273 104.616C369.796 104.969 369.222 105.145 368.551 105.145ZM368.551 104.007C369.142 104.007 369.604 103.719 369.936 103.142C370.272 102.565 370.439 101.732 370.439 100.641C370.439 99.9162 370.363 99.304 370.209 98.804C370.059 98.3011 369.841 97.9205 369.557 97.6619C369.276 97.4006 368.941 97.2699 368.551 97.2699C367.963 97.2699 367.502 97.5597 367.166 98.1392C366.831 98.7187 366.662 99.5526 366.659 100.641C366.659 101.368 366.735 101.983 366.885 102.486C367.039 102.986 367.256 103.365 367.537 103.624C367.818 103.879 368.157 104.007 368.551 104.007ZM373.498 96.2727H375.097L377.875 103.057H377.977L380.756 96.2727H382.354V105H381.101V98.6847H381.02L378.446 104.987H377.406L374.832 98.6804H374.751V105H373.498V96.2727ZM387.61 95.8636L384.797 106.312H383.659L386.472 95.8636H387.61ZM392.106 96.2727V105H390.785V97.5938H390.734L388.646 98.9574V97.696L390.823 96.2727H392.106ZM397.536 105.119C396.925 105.119 396.385 105.014 395.916 104.804C395.45 104.594 395.085 104.304 394.821 103.935C394.557 103.565 394.426 103.145 394.429 102.673C394.426 102.304 394.502 101.964 394.655 101.655C394.811 101.342 395.023 101.082 395.29 100.875C395.557 100.665 395.855 100.531 396.185 100.474V100.423C395.75 100.318 395.402 100.085 395.141 99.7244C394.879 99.3636 394.75 98.9489 394.753 98.4801C394.75 98.0341 394.868 97.6364 395.107 97.2869C395.348 96.9347 395.679 96.6577 396.1 96.456C396.52 96.2543 396.999 96.1534 397.536 96.1534C398.067 96.1534 398.541 96.2557 398.959 96.4602C399.379 96.6619 399.71 96.9389 399.952 97.2912C400.193 97.6406 400.316 98.0369 400.318 98.4801C400.316 98.9489 400.182 99.3636 399.918 99.7244C399.654 100.085 399.31 100.318 398.887 100.423V100.474C399.213 100.531 399.507 100.665 399.769 100.875C400.033 101.082 400.243 101.342 400.399 101.655C400.558 101.964 400.639 102.304 400.642 102.673C400.639 103.145 400.506 103.565 400.242 103.935C399.977 104.304 399.611 104.594 399.142 104.804C398.676 105.014 398.141 105.119 397.536 105.119ZM397.536 104.041C397.896 104.041 398.209 103.982 398.473 103.862C398.737 103.74 398.942 103.571 399.087 103.355C399.232 103.136 399.306 102.881 399.308 102.588C399.306 102.284 399.226 102.016 399.07 101.783C398.916 101.55 398.708 101.366 398.443 101.233C398.179 101.099 397.877 101.033 397.536 101.033C397.192 101.033 396.887 101.099 396.62 101.233C396.352 101.366 396.142 101.55 395.989 101.783C395.835 102.016 395.76 102.284 395.763 102.588C395.76 102.881 395.83 103.136 395.972 103.355C396.117 103.571 396.323 103.74 396.59 103.862C396.857 103.982 397.172 104.041 397.536 104.041ZM397.536 99.9801C397.825 99.9801 398.083 99.9219 398.307 99.8054C398.531 99.6889 398.708 99.527 398.835 99.3196C398.966 99.1122 399.033 98.8693 399.036 98.5909C399.033 98.3182 398.968 98.0795 398.84 97.875C398.715 97.6705 398.54 97.5128 398.316 97.402C398.091 97.2884 397.831 97.2315 397.536 97.2315C397.235 97.2315 396.97 97.2884 396.743 97.402C396.519 97.5128 396.344 97.6705 396.219 97.875C396.094 98.0795 396.033 98.3182 396.036 98.5909C396.033 98.8693 396.095 99.1122 396.223 99.3196C396.351 99.527 396.527 99.6889 396.752 99.8054C396.979 99.9219 397.24 99.9801 397.536 99.9801ZM405.17 105.119C404.635 105.119 404.155 105.017 403.729 104.812C403.306 104.605 402.968 104.321 402.715 103.96C402.462 103.599 402.327 103.188 402.31 102.724H403.589C403.62 103.099 403.786 103.408 404.087 103.649C404.388 103.891 404.749 104.011 405.17 104.011C405.505 104.011 405.802 103.935 406.06 103.781C406.322 103.625 406.526 103.411 406.674 103.138C406.824 102.865 406.9 102.554 406.9 102.205C406.9 101.849 406.823 101.533 406.67 101.254C406.516 100.976 406.304 100.757 406.035 100.598C405.768 100.439 405.461 100.358 405.114 100.355C404.85 100.355 404.584 100.401 404.317 100.491C404.05 100.582 403.834 100.702 403.67 100.849L402.464 100.67L402.954 96.2727H407.752V97.402H404.049L403.772 99.8438H403.823C403.993 99.679 404.219 99.5412 404.501 99.4304C404.785 99.3196 405.089 99.2642 405.412 99.2642C405.944 99.2642 406.417 99.3906 406.831 99.6435C407.249 99.8963 407.577 100.241 407.816 100.679C408.057 101.114 408.177 101.614 408.174 102.179C408.177 102.744 408.049 103.249 407.79 103.692C407.535 104.135 407.179 104.484 406.725 104.74C406.273 104.993 405.755 105.119 405.17 105.119ZM409.97 96.2727H411.568L414.346 103.057H414.448L417.227 96.2727H418.825V105H417.572V98.6847H417.491L414.917 104.987H413.877L411.303 98.6804H411.222V105H409.97V96.2727Z" fill="#85B4FF"/>
<path d="M505.151 96.2727V105H503.83V97.5938H503.778L501.69 98.9574V97.696L503.868 96.2727H505.151ZM510.67 105.145C509.996 105.142 509.421 104.964 508.944 104.612C508.467 104.26 508.102 103.747 507.849 103.074C507.596 102.401 507.469 101.589 507.469 100.641C507.469 99.6946 507.596 98.8864 507.849 98.2159C508.104 97.5455 508.471 97.0341 508.948 96.6818C509.428 96.3295 510.002 96.1534 510.67 96.1534C511.337 96.1534 511.91 96.331 512.387 96.6861C512.864 97.0384 513.229 97.5497 513.482 98.2202C513.738 98.8878 513.866 99.6946 513.866 100.641C513.866 101.592 513.739 102.405 513.486 103.078C513.234 103.749 512.869 104.261 512.391 104.616C511.914 104.969 511.34 105.145 510.67 105.145ZM510.67 104.007C511.261 104.007 511.722 103.719 512.055 103.142C512.39 102.565 512.557 101.732 512.557 100.641C512.557 99.9162 512.481 99.304 512.327 98.804C512.177 98.3011 511.959 97.9205 511.675 97.6619C511.394 97.4006 511.059 97.2699 510.67 97.2699C510.082 97.2699 509.62 97.5597 509.285 98.1392C508.95 98.7187 508.781 99.5526 508.778 100.641C508.778 101.368 508.853 101.983 509.004 102.486C509.157 102.986 509.374 103.365 509.656 103.624C509.937 103.879 510.275 104.007 510.67 104.007ZM518.378 105.119C517.844 105.119 517.364 105.017 516.938 104.812C516.515 104.605 516.176 104.321 515.924 103.96C515.671 103.599 515.536 103.188 515.519 102.724H516.797C516.828 103.099 516.995 103.408 517.296 103.649C517.597 103.891 517.958 104.011 518.378 104.011C518.713 104.011 519.01 103.935 519.269 103.781C519.53 103.625 519.735 103.411 519.882 103.138C520.033 102.865 520.108 102.554 520.108 102.205C520.108 101.849 520.032 101.533 519.878 101.254C519.725 100.976 519.513 100.757 519.243 100.598C518.976 100.439 518.669 100.358 518.323 100.355C518.059 100.355 517.793 100.401 517.526 100.491C517.259 100.582 517.043 100.702 516.878 100.849L515.672 100.67L516.162 96.2727H520.961V97.402H517.257L516.98 99.8438H517.032C517.202 99.679 517.428 99.5412 517.709 99.4304C517.993 99.3196 518.297 99.2642 518.621 99.2642C519.152 99.2642 519.625 99.3906 520.04 99.6435C520.458 99.8963 520.786 100.241 521.024 100.679C521.266 101.114 521.385 101.614 521.382 102.179C521.385 102.744 521.257 103.249 520.999 103.692C520.743 104.135 520.388 104.484 519.934 104.74C519.482 104.993 518.963 105.119 518.378 105.119ZM523.178 96.2727H524.776L527.555 103.057H527.657L530.435 96.2727H532.033V105H530.78V98.6847H530.699L528.126 104.987H527.086L524.512 98.6804H524.431V105H523.178V96.2727Z" fill="white"/>
<rect x="352" y="114" width="181" height="8" rx="4" fill="#D6E6FF"/>
<rect x="352" y="114" width="161" height="8" rx="4" fill="#2772F5"/>
<path d="M566.044 112.744C565.813 114.919 564.58 116.957 562.541 118.134C559.153 120.09 554.821 118.929 552.865 115.541L552.657 115.18M551.955 111.256C552.187 109.081 553.419 107.043 555.458 105.865C558.846 103.909 563.178 105.07 565.134 108.458L565.342 108.819M551.911 117.055L552.521 114.778L554.798 115.388M563.202 108.611L565.478 109.221L566.089 106.945M559 108.25V112L561.083 113.25" stroke="#2772F5" stroke-width="1.6" stroke-linecap="round" stroke-linejoin="round"/>
<path d="M582.371 106.818V117H580.731L575.933 110.065H575.849V117H574.004V106.818H575.655L580.447 113.759H580.537V106.818H582.371ZM587.773 117.149C587.027 117.149 586.381 116.985 585.834 116.657C585.287 116.329 584.863 115.87 584.561 115.28C584.263 114.69 584.114 114 584.114 113.212C584.114 112.423 584.263 111.732 584.561 111.138C584.863 110.545 585.287 110.085 585.834 109.756C586.381 109.428 587.027 109.264 587.773 109.264C588.518 109.264 589.165 109.428 589.712 109.756C590.258 110.085 590.681 110.545 590.979 111.138C591.281 111.732 591.432 112.423 591.432 113.212C591.432 114 591.281 114.69 590.979 115.28C590.681 115.87 590.258 116.329 589.712 116.657C589.165 116.985 588.518 117.149 587.773 117.149ZM587.783 115.707C588.187 115.707 588.525 115.596 588.797 115.374C589.069 115.149 589.271 114.847 589.403 114.469C589.539 114.092 589.607 113.671 589.607 113.207C589.607 112.739 589.539 112.317 589.403 111.939C589.271 111.558 589.069 111.254 588.797 111.029C588.525 110.804 588.187 110.691 587.783 110.691C587.368 110.691 587.024 110.804 586.748 111.029C586.477 111.254 586.273 111.558 586.137 111.939C586.004 112.317 585.938 112.739 585.938 113.207C585.938 113.671 586.004 114.092 586.137 114.469C586.273 114.847 586.477 115.149 586.748 115.374C587.024 115.596 587.368 115.707 587.783 115.707ZM599.661 109.364L596.941 117H594.952L592.233 109.364H594.152L595.907 115.036H595.986L597.746 109.364H599.661ZM608.78 106.818V117H606.936V108.613H606.876L604.494 110.134V108.444L607.025 106.818H608.78ZM615.269 117.194C614.45 117.194 613.747 116.987 613.161 116.572C612.577 116.155 612.128 115.553 611.813 114.768C611.502 113.979 611.346 113.029 611.346 111.919C611.349 110.809 611.507 109.864 611.818 109.085C612.133 108.303 612.582 107.706 613.166 107.295C613.752 106.884 614.453 106.679 615.269 106.679C616.084 106.679 616.785 106.884 617.372 107.295C617.958 107.706 618.407 108.303 618.719 109.085C619.034 109.867 619.191 110.812 619.191 111.919C619.191 113.033 619.034 113.984 618.719 114.773C618.407 115.558 617.958 116.158 617.372 116.572C616.788 116.987 616.087 117.194 615.269 117.194ZM615.269 115.638C615.905 115.638 616.407 115.325 616.775 114.698C617.146 114.068 617.332 113.142 617.332 111.919C617.332 111.11 617.247 110.431 617.078 109.881C616.909 109.33 616.671 108.916 616.362 108.638C616.054 108.356 615.69 108.215 615.269 108.215C614.636 108.215 614.135 108.53 613.767 109.16C613.399 109.786 613.214 110.706 613.21 111.919C613.207 112.731 613.288 113.414 613.454 113.967C613.623 114.521 613.862 114.938 614.17 115.22C614.478 115.499 614.844 115.638 615.269 115.638Z" fill="#0B57D0"/>
<rect x="660.5" y="0.5" width="311" height="147" rx="23.5" fill="white"/>
<rect x="660.5" y="0.5" width="311" height="147" rx="23.5" stroke="#EDEDF0"/>
<path d="M685.119 39V28.8182H688.748C689.537 28.8182 690.191 28.9541 690.712 29.2259C691.235 29.4976 691.626 29.8738 691.885 30.3544C692.143 30.8317 692.273 31.3835 692.273 32.0099C692.273 32.633 692.142 33.1816 691.88 33.6555C691.621 34.1262 691.23 34.4924 690.707 34.7543C690.186 35.0161 689.532 35.147 688.743 35.147H685.994V33.8246H688.604C689.101 33.8246 689.505 33.7533 689.817 33.6108C690.132 33.4683 690.362 33.2611 690.508 32.9893C690.654 32.7176 690.727 32.3911 690.727 32.0099C690.727 31.6255 690.652 31.2924 690.503 31.0107C690.357 30.7289 690.127 30.5135 689.812 30.3643C689.5 30.2119 689.091 30.1357 688.584 30.1357H686.655V39H685.119ZM690.145 34.4062L692.661 39H690.911L688.445 34.4062H690.145ZM696.385 39.169C695.901 39.169 695.464 39.0795 695.073 38.9006C694.681 38.7183 694.372 38.4548 694.143 38.1101C693.917 37.7654 693.805 37.3428 693.805 36.8423C693.805 36.4115 693.888 36.0568 694.053 35.7784C694.219 35.5 694.443 35.2796 694.725 35.1172C695.006 34.9548 695.321 34.8321 695.669 34.7493C696.017 34.6664 696.372 34.6035 696.733 34.5604C697.19 34.5073 697.562 34.4643 697.847 34.4311C698.132 34.3946 698.339 34.3366 698.468 34.2571C698.597 34.1776 698.662 34.0483 698.662 33.8693V33.8345C698.662 33.4003 698.539 33.0639 698.294 32.8253C698.052 32.5866 697.691 32.4673 697.21 32.4673C696.71 32.4673 696.315 32.5784 696.027 32.8004C695.742 33.0192 695.545 33.2628 695.435 33.5312L694.038 33.2131C694.204 32.7491 694.446 32.3745 694.764 32.0895C695.086 31.8011 695.455 31.5923 695.873 31.4631C696.291 31.3305 696.73 31.2642 697.19 31.2642C697.495 31.2642 697.819 31.3007 698.16 31.3736C698.505 31.4432 698.826 31.5724 699.124 31.7614C699.426 31.9503 699.673 32.2204 699.865 32.5717C700.057 32.9197 700.153 33.3722 700.153 33.929V39H698.702V37.956H698.642C698.546 38.1482 698.402 38.3371 698.21 38.5227C698.017 38.7083 697.77 38.8625 697.469 38.9851C697.167 39.1077 696.806 39.169 696.385 39.169ZM696.708 37.9759C697.119 37.9759 697.47 37.8946 697.762 37.7322C698.057 37.5698 698.281 37.3577 698.433 37.0959C698.589 36.8307 698.667 36.5473 698.667 36.2457V35.2614C698.614 35.3144 698.511 35.3641 698.359 35.4105C698.21 35.4536 698.039 35.4917 697.847 35.5249C697.654 35.5547 697.467 35.5829 697.285 35.6094C697.103 35.6326 696.95 35.6525 696.828 35.669C696.539 35.7055 696.276 35.7668 696.037 35.853C695.802 35.9392 695.613 36.0634 695.47 36.2259C695.331 36.3849 695.261 36.5971 695.261 36.8622C695.261 37.2301 695.397 37.5085 695.669 37.6974C695.941 37.883 696.287 37.9759 696.708 37.9759ZM705.838 31.3636V32.5568H701.667V31.3636H705.838ZM702.786 29.5341H704.272V36.7578C704.272 37.0462 704.315 37.2633 704.401 37.4091C704.487 37.5516 704.598 37.6494 704.734 37.7024C704.874 37.7521 705.024 37.777 705.187 37.777C705.306 37.777 705.411 37.7687 705.5 37.7521C705.589 37.7356 705.659 37.7223 705.709 37.7124L705.977 38.9403C705.891 38.9735 705.768 39.0066 705.609 39.0398C705.45 39.0762 705.251 39.0961 705.013 39.0994C704.622 39.1061 704.257 39.0365 703.919 38.8906C703.581 38.7448 703.308 38.5194 703.099 38.2145C702.89 37.9096 702.786 37.5268 702.786 37.0661V29.5341ZM710.832 39.1541C710.079 39.1541 709.431 38.9934 708.888 38.6719C708.347 38.3471 707.93 37.8913 707.635 37.3047C707.343 36.7147 707.197 36.0237 707.197 35.2315C707.197 34.4493 707.343 33.7599 707.635 33.1634C707.93 32.5668 708.341 32.1011 708.868 31.7663C709.398 31.4316 710.018 31.2642 710.727 31.2642C711.158 31.2642 711.576 31.3355 711.98 31.478C712.384 31.6205 712.747 31.8442 713.069 32.1491C713.39 32.4541 713.644 32.8501 713.829 33.3374C714.015 33.8213 714.108 34.4096 714.108 35.1023V35.6293H708.038V34.5156H712.651C712.651 34.1245 712.572 33.7782 712.413 33.4766C712.253 33.1716 712.03 32.9313 711.741 32.7557C711.456 32.58 711.122 32.4922 710.737 32.4922C710.32 32.4922 709.955 32.5949 709.643 32.8004C709.335 33.0026 709.096 33.2678 708.927 33.5959C708.762 33.9207 708.679 34.2737 708.679 34.6548V35.5249C708.679 36.0353 708.768 36.4695 708.947 36.8274C709.13 37.1854 709.383 37.4588 709.708 37.6477C710.033 37.8333 710.412 37.9261 710.846 37.9261C711.128 37.9261 711.385 37.8864 711.617 37.8068C711.849 37.724 712.05 37.6013 712.219 37.4389C712.388 37.2765 712.517 37.076 712.606 36.8374L714.013 37.0909C713.901 37.5052 713.699 37.8681 713.407 38.1797C713.119 38.4879 712.756 38.7282 712.318 38.9006C711.884 39.0696 711.388 39.1541 710.832 39.1541ZM721.229 28.8182V39H719.742V28.8182H721.229ZM723.369 39V31.3636H724.855V39H723.369ZM724.119 30.1854C723.861 30.1854 723.639 30.0992 723.453 29.9268C723.271 29.7512 723.18 29.5424 723.18 29.3004C723.18 29.0552 723.271 28.8464 723.453 28.674C723.639 28.4983 723.861 28.4105 724.119 28.4105C724.378 28.4105 724.598 28.4983 724.781 28.674C724.966 28.8464 725.059 29.0552 725.059 29.3004C725.059 29.5424 724.966 29.7512 724.781 29.9268C724.598 30.0992 724.378 30.1854 724.119 30.1854ZM726.995 39V31.3636H728.422V32.6065H728.516C728.675 32.1856 728.935 31.8575 729.297 31.6222C729.658 31.3835 730.091 31.2642 730.594 31.2642C731.105 31.2642 731.532 31.3835 731.877 31.6222C732.225 31.8608 732.482 32.1889 732.648 32.6065H732.727C732.909 32.1989 733.199 31.8741 733.597 31.6321C733.995 31.3868 734.469 31.2642 735.019 31.2642C735.712 31.2642 736.277 31.4813 736.714 31.9155C737.155 32.3497 737.376 33.0043 737.376 33.8793V39H735.889V34.0185C735.889 33.5014 735.748 33.1269 735.467 32.8949C735.185 32.6629 734.848 32.5469 734.457 32.5469C733.973 32.5469 733.597 32.696 733.329 32.9943C733.06 33.2893 732.926 33.6688 732.926 34.1328V39H731.444V33.924C731.444 33.5097 731.315 33.1766 731.057 32.9247C730.798 32.6728 730.462 32.5469 730.047 32.5469C729.766 32.5469 729.506 32.6214 729.267 32.7706C729.032 32.9164 728.841 33.1203 728.695 33.3821C728.553 33.6439 728.481 33.9472 728.481 34.2919V39H726.995ZM739.508 39V31.3636H740.994V39H739.508ZM740.259 30.1854C740 30.1854 739.778 30.0992 739.592 29.9268C739.41 29.7512 739.319 29.5424 739.319 29.3004C739.319 29.0552 739.41 28.8464 739.592 28.674C739.778 28.4983 740 28.4105 740.259 28.4105C740.517 28.4105 740.738 28.4983 740.92 28.674C741.105 28.8464 741.198 29.0552 741.198 29.3004C741.198 29.5424 741.105 29.7512 740.92 29.9268C740.738 30.0992 740.517 30.1854 740.259 30.1854ZM746.699 31.3636V32.5568H742.528V31.3636H746.699ZM743.646 29.5341H745.133V36.7578C745.133 37.0462 745.176 37.2633 745.262 37.4091C745.348 37.5516 745.459 37.6494 745.595 37.7024C745.734 37.7521 745.885 37.777 746.048 37.777C746.167 37.777 746.271 37.7687 746.361 37.7521C746.45 37.7356 746.52 37.7223 746.57 37.7124L746.838 38.9403C746.752 38.9735 746.629 39.0066 746.47 39.0398C746.311 39.0762 746.112 39.0961 745.874 39.0994C745.483 39.1061 745.118 39.0365 744.78 38.8906C744.442 38.7448 744.168 38.5194 743.96 38.2145C743.751 37.9096 743.646 37.5268 743.646 37.0661V29.5341Z" fill="#AEAEB2"/>
<path d="M692.651 51.5455V69H689.489V54.6222H689.386L685.304 57.2301V54.3324L689.642 51.5455H692.651ZM703.151 69.2386C702.014 69.2386 700.997 69.0256 700.099 68.5994C699.202 68.1676 698.489 67.5767 697.96 66.8267C697.438 66.0767 697.159 65.2187 697.125 64.2528H700.193C700.25 64.9687 700.56 65.554 701.122 66.0085C701.685 66.4574 702.361 66.6818 703.151 66.6818C703.77 66.6818 704.321 66.5398 704.804 66.2557C705.287 65.9716 705.668 65.5767 705.946 65.071C706.224 64.5653 706.361 63.9886 706.355 63.3409C706.361 62.6818 706.222 62.0966 705.938 61.5852C705.653 61.0739 705.264 60.6733 704.77 60.3835C704.276 60.0881 703.707 59.9403 703.065 59.9403C702.543 59.9347 702.028 60.0312 701.523 60.2301C701.017 60.429 700.616 60.6903 700.321 61.0142L697.466 60.5455L698.378 51.5455H708.503V54.1875H700.994L700.491 58.8153H700.594C700.918 58.4347 701.375 58.1193 701.966 57.8693C702.557 57.6136 703.205 57.4858 703.909 57.4858C704.966 57.4858 705.909 57.7358 706.739 58.2358C707.568 58.7301 708.222 59.4119 708.699 60.2812C709.176 61.1506 709.415 62.1449 709.415 63.2642C709.415 64.4176 709.148 65.446 708.614 66.3494C708.085 67.2472 707.349 67.9545 706.406 68.4716C705.469 68.983 704.384 69.2386 703.151 69.2386ZM718.722 69.3324C717.318 69.3324 716.114 68.9773 715.108 68.267C714.108 67.5511 713.338 66.5199 712.798 65.1733C712.264 63.821 711.997 62.1932 711.997 60.2898C712.003 58.3864 712.273 56.767 712.807 55.4318C713.347 54.0909 714.116 53.0682 715.116 52.3636C716.122 51.6591 717.324 51.3068 718.722 51.3068C720.119 51.3068 721.321 51.6591 722.327 52.3636C723.332 53.0682 724.102 54.0909 724.636 55.4318C725.176 56.7727 725.446 58.392 725.446 60.2898C725.446 62.1989 725.176 63.8295 724.636 65.1818C724.102 66.5284 723.332 67.5568 722.327 68.267C721.327 68.9773 720.125 69.3324 718.722 69.3324ZM718.722 66.6648C719.813 66.6648 720.673 66.1278 721.304 65.054C721.94 63.9744 722.259 62.3864 722.259 60.2898C722.259 58.9034 722.114 57.7386 721.824 56.7955C721.534 55.8523 721.125 55.142 720.597 54.6648C720.068 54.1818 719.443 53.9403 718.722 53.9403C717.636 53.9403 716.778 54.4801 716.148 55.5597C715.517 56.6335 715.199 58.2102 715.193 60.2898C715.188 61.6818 715.327 62.8523 715.611 63.8011C715.901 64.75 716.31 65.4659 716.838 65.9489C717.366 66.4261 717.994 66.6648 718.722 66.6648ZM733.827 69V57.3636H738.191C739.085 57.3636 739.835 57.5189 740.441 57.8295C741.051 58.1402 741.511 58.5758 741.822 59.1364C742.136 59.6932 742.293 60.3428 742.293 61.0852C742.293 61.8314 742.134 62.4792 741.816 63.0284C741.502 63.5739 741.038 63.9962 740.424 64.2955C739.81 64.5909 739.057 64.7386 738.163 64.7386H735.055V62.9886H737.879C738.401 62.9886 738.829 62.9167 739.163 62.7727C739.496 62.625 739.742 62.411 739.901 62.1307C740.064 61.8466 740.146 61.4981 740.146 61.0852C740.146 60.6723 740.064 60.3201 739.901 60.0284C739.738 59.733 739.49 59.5095 739.157 59.358C738.824 59.2027 738.394 59.125 737.867 59.125H735.935V69H733.827ZM739.839 63.7273L742.719 69H740.367L737.538 63.7273H739.839ZM744.234 69V57.3636H748.597C749.491 57.3636 750.241 57.5303 750.847 57.8636C751.457 58.197 751.917 58.6553 752.228 59.2386C752.542 59.8182 752.7 60.4773 752.7 61.2159C752.7 61.9621 752.542 62.625 752.228 63.2045C751.914 63.7841 751.45 64.2405 750.836 64.5739C750.222 64.9034 749.467 65.0682 748.569 65.0682H745.677V63.3352H748.285C748.808 63.3352 749.236 63.2443 749.569 63.0625C749.902 62.8807 750.148 62.6307 750.308 62.3125C750.47 61.9943 750.552 61.6288 750.552 61.2159C750.552 60.803 750.47 60.4394 750.308 60.125C750.148 59.8106 749.9 59.5663 749.563 59.392C749.23 59.214 748.8 59.125 748.273 59.125H746.342V69H744.234ZM760.854 60.5625C760.801 60.0663 760.578 59.6799 760.184 59.4034C759.794 59.1269 759.286 58.9886 758.661 58.9886C758.222 58.9886 757.845 59.0549 757.531 59.1875C757.216 59.3201 756.976 59.5 756.809 59.7273C756.642 59.9545 756.557 60.214 756.553 60.5057C756.553 60.7481 756.608 60.9583 756.718 61.1364C756.832 61.3144 756.985 61.4659 757.178 61.5909C757.371 61.7121 757.585 61.8144 757.82 61.8977C758.055 61.9811 758.292 62.0511 758.531 62.108L759.621 62.3807C760.061 62.483 760.483 62.6212 760.888 62.7955C761.298 62.9697 761.663 63.1894 761.985 63.4545C762.311 63.7197 762.568 64.0398 762.758 64.4148C762.947 64.7898 763.042 65.2292 763.042 65.733C763.042 66.4148 762.868 67.0152 762.519 67.5341C762.171 68.0492 761.667 68.4527 761.008 68.7443C760.353 69.0322 759.559 69.1761 758.627 69.1761C757.722 69.1761 756.936 69.036 756.269 68.7557C755.606 68.4754 755.087 68.0663 754.712 67.5284C754.341 66.9905 754.14 66.3352 754.11 65.5625H756.184C756.214 65.9678 756.339 66.3049 756.559 66.5739C756.779 66.8428 757.065 67.0436 757.417 67.1761C757.773 67.3087 758.171 67.375 758.61 67.375C759.068 67.375 759.47 67.3068 759.815 67.1705C760.163 67.0303 760.436 66.8371 760.633 66.5909C760.83 66.3409 760.93 66.0492 760.934 65.7159C760.93 65.4129 760.841 65.1629 760.667 64.9659C760.493 64.7652 760.248 64.5985 759.934 64.4659C759.623 64.3295 759.26 64.2083 758.843 64.1023L757.519 63.7614C756.561 63.5152 755.803 63.142 755.246 62.642C754.693 62.1383 754.417 61.4697 754.417 60.6364C754.417 59.9508 754.603 59.3504 754.974 58.8352C755.349 58.3201 755.858 57.9205 756.502 57.6364C757.146 57.3485 757.875 57.2045 758.69 57.2045C759.515 57.2045 760.239 57.3485 760.86 57.6364C761.485 57.9205 761.976 58.3163 762.332 58.8239C762.688 59.3277 762.871 59.9072 762.883 60.5625H760.854Z" fill="#1E1E1F"/>
<rect x="684" y="92" width="8" height="32" rx="4" fill="#2772F5"/>
<g clip-path="url(#clip0_980_12044)">
<rect x="696" y="92" width="8" height="32" rx="4" fill="#C2DAFF"/>
<rect x="696" y="92" width="8" height="32" rx="4" fill="#2772F5"/>
</g>
<rect x="708" y="92" width="8" height="32" rx="4" fill="#2772F5"/>
<rect x="720" y="92" width="8" height="32" rx="4" fill="#2772F5"/>
<rect x="732" y="92" width="8" height="32" rx="4" fill="#2772F5"/>
<rect x="744" y="92" width="8" height="32" rx="4" fill="#2772F5"/>
<rect x="756" y="92" width="8" height="32" rx="4" fill="#2772F5"/>
<rect x="768" y="92" width="8" height="32" rx="4" fill="#2772F5"/>
<rect x="780" y="92" width="8" height="32" rx="4" fill="#2772F5"/>
<rect x="792" y="92" width="8" height="32" rx="4" fill="#2772F5"/>
<rect x="804" y="92" width="8" height="32" rx="4" fill="#2772F5"/>
<rect x="816" y="92" width="8" height="32" rx="4" fill="#2772F5"/>
<rect x="828" y="92" width="8" height="32" rx="4" fill="#2772F5"/>
<rect x="840" y="92" width="8" height="32" rx="4" fill="#2772F5"/>
<rect x="852" y="92" width="8" height="32" rx="4" fill="#2772F5"/>
<rect x="864" y="92" width="8" height="32" rx="4" fill="#2772F5"/>
<rect x="876" y="92" width="8" height="32" rx="4" fill="#2772F5"/>
<rect x="888" y="92" width="8" height="32" rx="4" fill="#2772F5"/>
<rect x="900" y="92" width="8" height="32" rx="4" fill="#2772F5"/>
<rect x="912" y="92" width="8" height="32" rx="4" fill="#2772F5"/>
<rect x="924" y="92" width="8" height="32" rx="4" fill="#2772F5"/>
<rect x="936" y="92" width="8" height="32" rx="4" fill="#2772F5"/>
<defs>
<clipPath id="clip0_980_12044">
<rect x="696" y="92" width="8" height="32" rx="4" fill="white"/>
</clipPath>
</defs>
</svg>
