<svg width="972" height="148" viewBox="0 0 972 148" fill="none" xmlns="http://www.w3.org/2000/svg">
<rect x="0.5" y="0.5" width="311" height="145" rx="23.5" fill="white"/>
<rect x="0.5" y="0.5" width="311" height="145" rx="23.5" stroke="#EDEDF0"/>
<path d="M25.1186 42V31.8182H28.7479C29.54 31.8182 30.1963 31.9624 30.7166 32.2507C31.237 32.5391 31.6264 32.9335 31.8849 33.4339C32.1435 33.9311 32.2727 34.4912 32.2727 35.1143C32.2727 35.7408 32.1418 36.3042 31.88 36.8047C31.6214 37.3018 31.2304 37.6963 30.7067 37.9879C30.1863 38.2763 29.5317 38.4205 28.7429 38.4205H26.2472V37.1179H28.6037C29.1042 37.1179 29.5102 37.0317 29.8217 36.8594C30.1333 36.6837 30.362 36.4451 30.5078 36.1435C30.6536 35.8419 30.7266 35.4988 30.7266 35.1143C30.7266 34.7299 30.6536 34.3885 30.5078 34.0902C30.362 33.7919 30.1316 33.5582 29.8168 33.3892C29.5052 33.2202 29.0942 33.1357 28.5838 33.1357H26.6548V42H25.1186ZM35.5809 31.8182V42H34.0944V31.8182H35.5809ZM39.943 42.169C39.4591 42.169 39.0216 42.0795 38.6305 41.9006C38.2394 41.7183 37.9295 41.4548 37.7008 41.1101C37.4754 40.7654 37.3627 40.3428 37.3627 39.8423C37.3627 39.4115 37.4456 39.0568 37.6113 38.7784C37.777 38.5 38.0008 38.2796 38.2825 38.1172C38.5642 37.9548 38.8791 37.8321 39.2271 37.7493C39.5751 37.6664 39.9297 37.6035 40.291 37.5604C40.7484 37.5073 41.1196 37.4643 41.4046 37.4311C41.6897 37.3946 41.8968 37.3366 42.0261 37.2571C42.1554 37.1776 42.22 37.0483 42.22 36.8693V36.8345C42.22 36.4003 42.0974 36.0639 41.8521 35.8253C41.6101 35.5866 41.2489 35.4673 40.7683 35.4673C40.2678 35.4673 39.8734 35.5784 39.585 35.8004C39.3 36.0192 39.1028 36.2628 38.9934 36.5312L37.5964 36.2131C37.7621 35.7491 38.0041 35.3745 38.3223 35.0895C38.6438 34.8011 39.0133 34.5923 39.4309 34.4631C39.8485 34.3305 40.2877 34.2642 40.7484 34.2642C41.0533 34.2642 41.3765 34.3007 41.7179 34.3736C42.0626 34.4432 42.384 34.5724 42.6823 34.7614C42.984 34.9503 43.2309 35.2204 43.4231 35.5717C43.6153 35.9197 43.7115 36.3722 43.7115 36.929V42H42.2598V40.956H42.2001C42.104 41.1482 41.9598 41.3371 41.7676 41.5227C41.5753 41.7083 41.3284 41.8625 41.0268 41.9851C40.7252 42.1077 40.3639 42.169 39.943 42.169ZM40.2662 40.9759C40.6771 40.9759 41.0285 40.8946 41.3201 40.7322C41.6151 40.5698 41.8388 40.3577 41.9913 40.0959C42.1471 39.8307 42.225 39.5473 42.225 39.2457V38.2614C42.1719 38.3144 42.0692 38.3641 41.9167 38.4105C41.7676 38.4536 41.5969 38.4917 41.4046 38.5249C41.2124 38.5547 41.0251 38.5829 40.8429 38.6094C40.6606 38.6326 40.5081 38.6525 40.3855 38.669C40.0971 38.7055 39.8336 38.7668 39.595 38.853C39.3597 38.9392 39.1707 39.0634 39.0282 39.2259C38.889 39.3849 38.8194 39.5971 38.8194 39.8622C38.8194 40.2301 38.9553 40.5085 39.2271 40.6974C39.4989 40.883 39.8452 40.9759 40.2662 40.9759ZM47.3179 37.4659V42H45.8314V34.3636H47.2582V35.6065H47.3527C47.5284 35.2022 47.8035 34.8774 48.178 34.6321C48.5558 34.3868 49.0314 34.2642 49.6048 34.2642C50.1252 34.2642 50.5809 34.3736 50.972 34.5923C51.3631 34.8078 51.6664 35.1293 51.8818 35.5568C52.0973 35.9844 52.205 36.513 52.205 37.1428V42H50.7185V37.3217C50.7185 36.7682 50.5743 36.3357 50.2859 36.0241C49.9976 35.7093 49.6015 35.5518 49.0977 35.5518C48.753 35.5518 48.4465 35.6264 48.178 35.7756C47.9128 35.9247 47.7024 36.1435 47.5466 36.4318C47.3941 36.7169 47.3179 37.0616 47.3179 37.4659Z" fill="#AEAEB2"/>
<path d="M25.517 72V54.5455H32.4034C33.7273 54.5455 34.8551 54.7983 35.7869 55.304C36.7188 55.804 37.429 56.5 37.9176 57.392C38.4119 58.2784 38.6591 59.3011 38.6591 60.4602C38.6591 61.6193 38.4091 62.642 37.9091 63.5284C37.4091 64.4148 36.6847 65.1051 35.7358 65.5994C34.7926 66.0937 33.6506 66.3409 32.3097 66.3409H27.9205V63.3835H31.7131C32.4233 63.3835 33.0085 63.2614 33.4688 63.017C33.9347 62.767 34.2813 62.4233 34.5085 61.9858C34.7415 61.5426 34.858 61.0341 34.858 60.4602C34.858 59.8807 34.7415 59.375 34.5085 58.9432C34.2813 58.5057 33.9347 58.1676 33.4688 57.929C33.0028 57.6847 32.4119 57.5625 31.696 57.5625H29.2074V72H25.517ZM40.9879 72V58.9091H44.5078V61.1932H44.6442C44.8828 60.3807 45.2834 59.767 45.8459 59.3523C46.4084 58.9318 47.0561 58.7216 47.7891 58.7216C47.9709 58.7216 48.1669 58.733 48.3771 58.7557C48.5874 58.7784 48.772 58.8097 48.9311 58.8494V62.071C48.7607 62.0199 48.5249 61.9744 48.2237 61.9347C47.9226 61.8949 47.647 61.875 47.397 61.875C46.8629 61.875 46.3857 61.9915 45.9652 62.2244C45.5504 62.4517 45.2209 62.7699 44.9766 63.179C44.7379 63.5881 44.6186 64.0597 44.6186 64.5938V72H40.9879ZM56.1648 72.2557C54.8182 72.2557 53.6591 71.983 52.6875 71.4375C51.7216 70.8864 50.9773 70.108 50.4545 69.1023C49.9318 68.0909 49.6705 66.8949 49.6705 65.5142C49.6705 64.1676 49.9318 62.9858 50.4545 61.9688C50.9773 60.9517 51.7131 60.1591 52.6619 59.5909C53.6165 59.0227 54.7358 58.7386 56.0199 58.7386C56.8835 58.7386 57.6875 58.8778 58.4318 59.1562C59.1818 59.429 59.8352 59.8409 60.392 60.392C60.9545 60.9432 61.392 61.6364 61.7045 62.4716C62.017 63.3011 62.1733 64.2727 62.1733 65.3864V66.3835H51.1193V64.1335H58.7557C58.7557 63.6108 58.642 63.1477 58.4148 62.7443C58.1875 62.3409 57.8722 62.0256 57.4688 61.7983C57.071 61.5653 56.608 61.4489 56.0795 61.4489C55.5284 61.4489 55.0398 61.5767 54.6136 61.8324C54.1932 62.0824 53.8636 62.4205 53.625 62.8466C53.3864 63.267 53.2642 63.7358 53.2585 64.2528V66.392C53.2585 67.0398 53.3778 67.5994 53.6165 68.071C53.8608 68.5426 54.2045 68.9062 54.6477 69.1619C55.0909 69.4176 55.6165 69.5455 56.2244 69.5455C56.6278 69.5455 56.9972 69.4886 57.3324 69.375C57.6676 69.2614 57.9545 69.0909 58.1932 68.8636C58.4318 68.6364 58.6136 68.358 58.7386 68.0284L62.0966 68.25C61.9261 69.0568 61.5767 69.7614 61.0483 70.3636C60.5256 70.9602 59.8494 71.4261 59.0199 71.7614C58.196 72.0909 57.2443 72.2557 56.1648 72.2557ZM64.5426 72V58.9091H68.0028V61.2188H68.1562C68.429 60.4517 68.8835 59.8466 69.5199 59.4034C70.1562 58.9602 70.9176 58.7386 71.804 58.7386C72.7017 58.7386 73.4659 58.9631 74.0966 59.4119C74.7273 59.8551 75.1477 60.4574 75.358 61.2188H75.4943C75.7614 60.4688 76.2443 59.8693 76.9432 59.4205C77.6477 58.9659 78.4801 58.7386 79.4403 58.7386C80.6619 58.7386 81.6534 59.1278 82.4148 59.9062C83.1818 60.679 83.5653 61.7756 83.5653 63.196V72H79.9432V63.9119C79.9432 63.1847 79.75 62.6392 79.3636 62.2756C78.9773 61.9119 78.4943 61.7301 77.9148 61.7301C77.2557 61.7301 76.7415 61.9403 76.3722 62.3608C76.0028 62.7756 75.8182 63.3239 75.8182 64.0057V72H72.2983V63.8352C72.2983 63.1932 72.1136 62.6818 71.7443 62.3011C71.3807 61.9205 70.9006 61.7301 70.304 61.7301C69.9006 61.7301 69.5369 61.8324 69.2131 62.0369C68.8949 62.2358 68.642 62.517 68.4545 62.8807C68.267 63.2386 68.1733 63.6591 68.1733 64.142V72H64.5426ZM86.4332 72V58.9091H90.0639V72H86.4332ZM88.2571 57.2216C87.7173 57.2216 87.2543 57.0426 86.8679 56.6847C86.4872 56.321 86.2969 55.8864 86.2969 55.3807C86.2969 54.8807 86.4872 54.4517 86.8679 54.0938C87.2543 53.7301 87.7173 53.5483 88.2571 53.5483C88.7969 53.5483 89.2571 53.7301 89.6378 54.0938C90.0241 54.4517 90.2173 54.8807 90.2173 55.3807C90.2173 55.8864 90.0241 56.321 89.6378 56.6847C89.2571 57.0426 88.7969 57.2216 88.2571 57.2216ZM101.367 66.4261V58.9091H104.998V72H101.512V69.6222H101.376C101.08 70.3892 100.589 71.0057 99.9013 71.4716C99.2195 71.9375 98.3871 72.1705 97.4041 72.1705C96.5291 72.1705 95.7592 71.9716 95.0945 71.5739C94.4297 71.1761 93.9098 70.6108 93.5348 69.8778C93.1655 69.1449 92.978 68.267 92.9723 67.2443V58.9091H96.603V66.5966C96.6087 67.3693 96.8161 67.9801 97.2251 68.429C97.6342 68.8778 98.1825 69.1023 98.87 69.1023C99.3075 69.1023 99.7166 69.0028 100.097 68.804C100.478 68.5994 100.785 68.2983 101.018 67.9006C101.256 67.5028 101.373 67.0114 101.367 66.4261ZM107.902 72V58.9091H111.362V61.2188H111.516C111.788 60.4517 112.243 59.8466 112.879 59.4034C113.516 58.9602 114.277 58.7386 115.163 58.7386C116.061 58.7386 116.825 58.9631 117.456 59.4119C118.087 59.8551 118.507 60.4574 118.717 61.2188H118.854C119.121 60.4688 119.604 59.8693 120.303 59.4205C121.007 58.9659 121.839 58.7386 122.8 58.7386C124.021 58.7386 125.013 59.1278 125.774 59.9062C126.541 60.679 126.925 61.7756 126.925 63.196V72H123.303V63.9119C123.303 63.1847 123.109 62.6392 122.723 62.2756C122.337 61.9119 121.854 61.7301 121.274 61.7301C120.615 61.7301 120.101 61.9403 119.732 62.3608C119.362 62.7756 119.178 63.3239 119.178 64.0057V72H115.658V63.8352C115.658 63.1932 115.473 62.6818 115.104 62.3011C114.74 61.9205 114.26 61.7301 113.663 61.7301C113.26 61.7301 112.896 61.8324 112.572 62.0369C112.254 62.2358 112.001 62.517 111.814 62.8807C111.626 63.2386 111.533 63.6591 111.533 64.142V72H107.902Z" fill="#1E1E1F"/>
<rect x="24" y="95" width="58" height="24" rx="12" fill="#EDEEF0"/>
<path d="M33.98 111V103.956L32.408 104.412V103.476L34.424 102.6H35.204V111H33.98ZM37.5298 111.06C37.3058 111.06 37.1178 110.988 36.9658 110.844C36.8218 110.692 36.7498 110.512 36.7498 110.304C36.7498 110.088 36.8218 109.908 36.9658 109.764C37.1178 109.612 37.3058 109.536 37.5298 109.536C37.7618 109.536 37.9498 109.612 38.0938 109.764C38.2378 109.908 38.3098 110.088 38.3098 110.304C38.3098 110.512 38.2378 110.692 38.0938 110.844C37.9498 110.988 37.7618 111.06 37.5298 111.06ZM42.5393 111.144C41.9233 111.144 41.4033 111.032 40.9793 110.808C40.5633 110.576 40.2313 110.268 39.9833 109.884C39.7353 109.5 39.5513 109.068 39.4313 108.588C39.3193 108.108 39.2633 107.616 39.2633 107.112C39.2633 106.184 39.3913 105.372 39.6473 104.676C39.9033 103.98 40.2753 103.436 40.7633 103.044C41.2513 102.652 41.8393 102.456 42.5273 102.456C43.0713 102.456 43.5353 102.564 43.9193 102.78C44.3113 102.988 44.6193 103.264 44.8433 103.608C45.0673 103.952 45.2033 104.332 45.2513 104.748H44.1353C44.0553 104.34 43.8753 104.028 43.5953 103.812C43.3153 103.588 42.9553 103.476 42.5153 103.476C42.1153 103.476 41.7593 103.6 41.4473 103.848C41.1433 104.088 40.8993 104.456 40.7153 104.952C40.5393 105.448 40.4393 106.076 40.4153 106.836C40.4153 106.852 40.4153 106.868 40.4153 106.884C40.4153 106.9 40.4153 106.916 40.4153 106.932C40.5353 106.692 40.7033 106.472 40.9193 106.272C41.1433 106.072 41.4073 105.912 41.7113 105.792C42.0233 105.672 42.3593 105.612 42.7193 105.612C43.1913 105.612 43.6273 105.724 44.0273 105.948C44.4353 106.164 44.7633 106.476 45.0113 106.884C45.2673 107.292 45.3953 107.768 45.3953 108.312C45.3953 108.8 45.2793 109.26 45.0473 109.692C44.8153 110.124 44.4833 110.476 44.0513 110.748C43.6273 111.012 43.1233 111.144 42.5393 111.144ZM42.4553 110.1C42.7913 110.1 43.0913 110.028 43.3553 109.884C43.6193 109.732 43.8273 109.524 43.9793 109.26C44.1313 108.996 44.2073 108.696 44.2073 108.36C44.2073 108.016 44.1313 107.716 43.9793 107.46C43.8273 107.196 43.6193 106.992 43.3553 106.848C43.0913 106.704 42.7913 106.632 42.4553 106.632C42.1193 106.632 41.8153 106.708 41.5433 106.86C41.2713 107.012 41.0553 107.22 40.8953 107.484C40.7433 107.748 40.6673 108.044 40.6673 108.372C40.6673 108.708 40.7433 109.008 40.8953 109.272C41.0553 109.528 41.2713 109.732 41.5433 109.884C41.8153 110.028 42.1193 110.1 42.4553 110.1ZM47.1582 111V102.6H50.2662C50.8582 102.6 51.3502 102.696 51.7422 102.888C52.1342 103.072 52.4262 103.328 52.6182 103.656C52.8182 103.976 52.9182 104.34 52.9182 104.748C52.9182 105.172 52.8222 105.528 52.6302 105.816C52.4462 106.104 52.2022 106.328 51.8982 106.488C51.6022 106.64 51.2822 106.728 50.9382 106.752L51.1182 106.632C51.4862 106.64 51.8182 106.74 52.1142 106.932C52.4182 107.116 52.6582 107.364 52.8342 107.676C53.0182 107.988 53.1102 108.332 53.1102 108.708C53.1102 109.14 53.0022 109.532 52.7862 109.884C52.5782 110.228 52.2702 110.5 51.8622 110.7C51.4622 110.9 50.9662 111 50.3742 111H47.1582ZM48.3582 110.004H50.2182C50.7462 110.004 51.1542 109.884 51.4422 109.644C51.7382 109.396 51.8862 109.048 51.8862 108.6C51.8862 108.16 51.7342 107.808 51.4302 107.544C51.1342 107.28 50.7222 107.148 50.1942 107.148H48.3582V110.004ZM48.3582 106.224H50.1342C50.6382 106.224 51.0222 106.108 51.2862 105.876C51.5502 105.636 51.6822 105.308 51.6822 104.892C51.6822 104.492 51.5502 104.176 51.2862 103.944C51.0222 103.704 50.6302 103.584 50.1102 103.584H48.3582V106.224ZM61.5344 111.144C60.7184 111.144 60.0144 110.964 59.4224 110.604C58.8304 110.236 58.3744 109.728 58.0544 109.08C57.7344 108.424 57.5744 107.664 57.5744 106.8C57.5744 105.944 57.7344 105.188 58.0544 104.532C58.3744 103.876 58.8304 103.368 59.4224 103.008C60.0144 102.64 60.7184 102.456 61.5344 102.456C62.5104 102.456 63.3024 102.692 63.9104 103.164C64.5184 103.636 64.9064 104.3 65.0744 105.156H63.7664C63.6384 104.66 63.3904 104.264 63.0224 103.968C62.6544 103.672 62.1544 103.524 61.5224 103.524C60.9704 103.524 60.4864 103.656 60.0704 103.92C59.6624 104.184 59.3464 104.56 59.1224 105.048C58.9064 105.536 58.7984 106.12 58.7984 106.8C58.7984 107.48 58.9064 108.068 59.1224 108.564C59.3464 109.052 59.6624 109.428 60.0704 109.692C60.4864 109.948 60.9704 110.076 61.5224 110.076C62.1544 110.076 62.6544 109.936 63.0224 109.656C63.3904 109.368 63.6384 108.98 63.7664 108.492H65.0744C64.9064 109.324 64.5184 109.976 63.9104 110.448C63.3024 110.912 62.5104 111.144 61.5344 111.144ZM69.7389 111.144C69.1469 111.144 68.6109 111.028 68.1309 110.796C67.6509 110.556 67.2669 110.196 66.9789 109.716C66.6989 109.228 66.5589 108.608 66.5589 107.856V102.6H67.7589V107.868C67.7589 108.372 67.8429 108.788 68.0109 109.116C68.1789 109.436 68.4109 109.676 68.7069 109.836C69.0109 109.988 69.3629 110.064 69.7629 110.064C70.1709 110.064 70.5189 109.988 70.8069 109.836C71.1029 109.676 71.3309 109.436 71.4909 109.116C71.6589 108.788 71.7429 108.372 71.7429 107.868V102.6H72.9429V107.856C72.9429 108.608 72.7989 109.228 72.5109 109.716C72.2229 110.196 71.8349 110.556 71.3469 110.796C70.8669 111.028 70.3309 111.144 69.7389 111.144Z" fill="#1E1E1F"/>
<rect x="89" y="95" width="65" height="24" rx="12" fill="#EDEEF0"/>
<path d="M100.684 111.144C100.14 111.144 99.648 111.044 99.208 110.844C98.768 110.636 98.416 110.348 98.152 109.98C97.896 109.612 97.768 109.184 97.768 108.696C97.768 108.352 97.832 108.036 97.96 107.748C98.088 107.452 98.264 107.196 98.488 106.98C98.72 106.764 98.992 106.608 99.304 106.512C98.888 106.344 98.564 106.096 98.332 105.768C98.1 105.44 97.984 105.08 97.984 104.688C97.984 104.28 98.088 103.908 98.296 103.572C98.512 103.236 98.82 102.968 99.22 102.768C99.628 102.56 100.116 102.456 100.684 102.456C101.26 102.456 101.748 102.56 102.148 102.768C102.556 102.968 102.864 103.236 103.072 103.572C103.288 103.908 103.396 104.28 103.396 104.688C103.396 105.08 103.276 105.444 103.036 105.78C102.804 106.108 102.484 106.352 102.076 106.512C102.388 106.608 102.656 106.764 102.88 106.98C103.112 107.196 103.292 107.452 103.42 107.748C103.548 108.036 103.612 108.352 103.612 108.696C103.612 109.184 103.48 109.612 103.216 109.98C102.96 110.348 102.612 110.636 102.172 110.844C101.732 111.044 101.236 111.144 100.684 111.144ZM100.684 110.112C101.26 110.112 101.692 109.976 101.98 109.704C102.268 109.424 102.412 109.06 102.412 108.612C102.412 108.108 102.256 107.724 101.944 107.46C101.632 107.196 101.212 107.064 100.684 107.064C100.164 107.064 99.744 107.196 99.424 107.46C99.112 107.724 98.956 108.108 98.956 108.612C98.956 109.06 99.1 109.424 99.388 109.704C99.684 109.976 100.116 110.112 100.684 110.112ZM100.684 106.116C101.148 106.116 101.516 105.992 101.788 105.744C102.06 105.496 102.196 105.18 102.196 104.796C102.196 104.356 102.06 104.024 101.788 103.8C101.524 103.576 101.156 103.464 100.684 103.464C100.22 103.464 99.852 103.576 99.58 103.8C99.316 104.024 99.184 104.356 99.184 104.796C99.184 105.18 99.32 105.496 99.592 105.744C99.864 105.992 100.228 106.116 100.684 106.116ZM108.583 111.144C107.855 111.144 107.227 110.964 106.699 110.604C106.179 110.236 105.779 109.728 105.499 109.08C105.219 108.424 105.079 107.664 105.079 106.8C105.079 105.936 105.219 105.18 105.499 104.532C105.779 103.876 106.179 103.368 106.699 103.008C107.227 102.64 107.855 102.456 108.583 102.456C109.319 102.456 109.943 102.64 110.455 103.008C110.975 103.368 111.375 103.876 111.655 104.532C111.943 105.18 112.087 105.936 112.087 106.8C112.087 107.664 111.943 108.424 111.655 109.08C111.375 109.728 110.975 110.236 110.455 110.604C109.943 110.964 109.319 111.144 108.583 111.144ZM108.583 110.076C109.023 110.076 109.411 109.944 109.747 109.68C110.091 109.416 110.359 109.04 110.551 108.552C110.751 108.064 110.851 107.48 110.851 106.8C110.851 106.112 110.751 105.528 110.551 105.048C110.359 104.56 110.091 104.188 109.747 103.932C109.411 103.668 109.023 103.536 108.583 103.536C108.143 103.536 107.751 103.668 107.407 103.932C107.063 104.188 106.791 104.56 106.591 105.048C106.399 105.528 106.303 106.112 106.303 106.8C106.303 107.48 106.399 108.064 106.591 108.552C106.791 109.04 107.063 109.416 107.407 109.68C107.751 109.944 108.143 110.076 108.583 110.076ZM116.847 111.144C116.119 111.144 115.491 110.964 114.963 110.604C114.443 110.236 114.043 109.728 113.763 109.08C113.483 108.424 113.343 107.664 113.343 106.8C113.343 105.936 113.483 105.18 113.763 104.532C114.043 103.876 114.443 103.368 114.963 103.008C115.491 102.64 116.119 102.456 116.847 102.456C117.583 102.456 118.207 102.64 118.719 103.008C119.239 103.368 119.639 103.876 119.919 104.532C120.207 105.18 120.351 105.936 120.351 106.8C120.351 107.664 120.207 108.424 119.919 109.08C119.639 109.728 119.239 110.236 118.719 110.604C118.207 110.964 117.583 111.144 116.847 111.144ZM116.847 110.076C117.287 110.076 117.675 109.944 118.011 109.68C118.355 109.416 118.623 109.04 118.815 108.552C119.015 108.064 119.115 107.48 119.115 106.8C119.115 106.112 119.015 105.528 118.815 105.048C118.623 104.56 118.355 104.188 118.011 103.932C117.675 103.668 117.287 103.536 116.847 103.536C116.407 103.536 116.015 103.668 115.671 103.932C115.327 104.188 115.055 104.56 114.855 105.048C114.663 105.528 114.567 106.112 114.567 106.8C114.567 107.48 114.663 108.064 114.855 108.552C115.055 109.04 115.327 109.416 115.671 109.68C116.015 109.944 116.407 110.076 116.847 110.076ZM125.134 111V102.6H127.978C128.642 102.6 129.186 102.712 129.61 102.936C130.034 103.16 130.346 103.46 130.546 103.836C130.754 104.204 130.858 104.624 130.858 105.096C130.858 105.544 130.754 105.96 130.546 106.344C130.346 106.72 130.03 107.024 129.598 107.256C129.166 107.48 128.614 107.592 127.942 107.592H126.334V111H125.134ZM129.55 111L127.738 107.268H129.058L130.942 111H129.55ZM126.334 106.68H127.906C128.498 106.68 128.93 106.536 129.202 106.248C129.482 105.952 129.622 105.576 129.622 105.12C129.622 104.656 129.486 104.288 129.214 104.016C128.942 103.744 128.502 103.608 127.894 103.608H126.334V106.68ZM132.554 111V102.6H135.41C136.082 102.6 136.634 102.712 137.066 102.936C137.506 103.16 137.83 103.464 138.038 103.848C138.246 104.224 138.35 104.656 138.35 105.144C138.35 105.608 138.246 106.032 138.038 106.416C137.83 106.8 137.51 107.108 137.078 107.34C136.646 107.564 136.09 107.676 135.41 107.676H133.754V111H132.554ZM133.754 106.68H135.362C136.002 106.68 136.454 106.54 136.718 106.26C136.99 105.98 137.126 105.608 137.126 105.144C137.126 104.656 136.99 104.276 136.718 104.004C136.454 103.732 136.002 103.596 135.362 103.596H133.754V106.68ZM142.536 111.144C141.928 111.144 141.392 111.036 140.928 110.82C140.464 110.596 140.104 110.284 139.848 109.884C139.592 109.484 139.46 109.016 139.452 108.48H140.724C140.724 108.784 140.792 109.064 140.928 109.32C141.072 109.568 141.276 109.768 141.54 109.92C141.812 110.064 142.144 110.136 142.536 110.136C142.872 110.136 143.16 110.08 143.4 109.968C143.648 109.856 143.836 109.704 143.964 109.512C144.092 109.312 144.156 109.084 144.156 108.828C144.156 108.54 144.092 108.304 143.964 108.12C143.836 107.928 143.656 107.768 143.424 107.64C143.2 107.512 142.94 107.4 142.644 107.304C142.356 107.208 142.044 107.104 141.708 106.992C141.028 106.768 140.524 106.484 140.196 106.14C139.876 105.796 139.716 105.348 139.716 104.796C139.716 104.324 139.824 103.916 140.04 103.572C140.264 103.22 140.58 102.948 140.988 102.756C141.396 102.556 141.872 102.456 142.416 102.456C142.968 102.456 143.444 102.556 143.844 102.756C144.252 102.956 144.572 103.232 144.804 103.584C145.036 103.936 145.156 104.348 145.164 104.82H143.892C143.892 104.604 143.832 104.392 143.712 104.184C143.6 103.976 143.432 103.808 143.208 103.68C142.992 103.544 142.72 103.476 142.392 103.476C142.112 103.468 141.864 103.512 141.648 103.608C141.432 103.704 141.264 103.844 141.144 104.028C141.024 104.212 140.964 104.432 140.964 104.688C140.964 104.944 141.02 105.152 141.132 105.312C141.244 105.464 141.4 105.596 141.6 105.708C141.808 105.82 142.052 105.924 142.332 106.02C142.612 106.108 142.92 106.208 143.256 106.32C143.664 106.456 144.032 106.624 144.36 106.824C144.688 107.016 144.944 107.268 145.128 107.58C145.32 107.884 145.416 108.276 145.416 108.756C145.416 109.172 145.308 109.56 145.092 109.92C144.876 110.28 144.556 110.576 144.132 110.808C143.708 111.032 143.176 111.144 142.536 111.144Z" fill="#1E1E1F"/>
<path d="M212.423 101.818H214.267V108.47C214.267 109.199 214.095 109.841 213.75 110.394C213.409 110.948 212.928 111.38 212.308 111.692C211.688 112 210.964 112.154 210.136 112.154C209.304 112.154 208.578 112 207.958 111.692C207.338 111.38 206.858 110.948 206.516 110.394C206.175 109.841 206.004 109.199 206.004 108.47V101.818H207.849V108.316C207.849 108.74 207.942 109.118 208.127 109.45C208.316 109.781 208.581 110.041 208.923 110.23C209.264 110.416 209.668 110.509 210.136 110.509C210.603 110.509 211.007 110.416 211.349 110.23C211.693 110.041 211.959 109.781 212.144 109.45C212.33 109.118 212.423 108.74 212.423 108.316V101.818ZM218.132 107.526V112H216.332V104.364H218.052V105.661H218.142C218.318 105.234 218.598 104.894 218.982 104.642C219.37 104.39 219.849 104.264 220.419 104.264C220.946 104.264 221.405 104.377 221.796 104.602C222.19 104.828 222.495 105.154 222.711 105.582C222.93 106.009 223.037 106.528 223.034 107.138V112H221.234V107.416C221.234 106.906 221.102 106.506 220.837 106.218C220.575 105.93 220.212 105.786 219.748 105.786C219.433 105.786 219.153 105.855 218.908 105.994C218.666 106.13 218.475 106.327 218.336 106.586C218.2 106.844 218.132 107.158 218.132 107.526ZM228.817 104.364V105.756H224.427V104.364H228.817ZM225.511 102.534H227.31V109.703C227.31 109.945 227.347 110.131 227.42 110.26C227.496 110.386 227.595 110.472 227.718 110.518C227.841 110.565 227.977 110.588 228.126 110.588C228.238 110.588 228.341 110.58 228.434 110.563C228.53 110.547 228.603 110.532 228.653 110.518L228.956 111.925C228.86 111.959 228.722 111.995 228.543 112.035C228.368 112.075 228.152 112.098 227.897 112.104C227.446 112.118 227.04 112.05 226.679 111.901C226.318 111.748 226.031 111.513 225.819 111.195C225.61 110.876 225.507 110.479 225.511 110.001V102.534ZM230.462 112V104.364H232.262V112H230.462ZM231.367 103.28C231.082 103.28 230.836 103.185 230.631 102.996C230.425 102.804 230.323 102.574 230.323 102.305C230.323 102.034 230.425 101.803 230.631 101.614C230.836 101.422 231.082 101.326 231.367 101.326C231.655 101.326 231.9 101.422 232.103 101.614C232.308 101.803 232.411 102.034 232.411 102.305C232.411 102.574 232.308 102.804 232.103 102.996C231.9 103.185 231.655 103.28 231.367 103.28ZM236.052 101.818V112H234.252V101.818H236.052ZM250.102 101.818V112H248.461L243.664 105.065H243.579V112H241.735V101.818H243.385L248.178 108.759H248.268V101.818H250.102ZM255.503 112.149C254.758 112.149 254.111 111.985 253.564 111.657C253.017 111.329 252.593 110.87 252.292 110.28C251.993 109.69 251.844 109 251.844 108.212C251.844 107.423 251.993 106.732 252.292 106.138C252.593 105.545 253.017 105.085 253.564 104.756C254.111 104.428 254.758 104.264 255.503 104.264C256.249 104.264 256.895 104.428 257.442 104.756C257.989 105.085 258.412 105.545 258.71 106.138C259.012 106.732 259.162 107.423 259.162 108.212C259.162 109 259.012 109.69 258.71 110.28C258.412 110.87 257.989 111.329 257.442 111.657C256.895 111.985 256.249 112.149 255.503 112.149ZM255.513 110.707C255.918 110.707 256.256 110.596 256.527 110.374C256.799 110.149 257.001 109.847 257.134 109.469C257.27 109.092 257.338 108.671 257.338 108.207C257.338 107.739 257.27 107.317 257.134 106.939C257.001 106.558 256.799 106.254 256.527 106.029C256.256 105.804 255.918 105.691 255.513 105.691C255.099 105.691 254.754 105.804 254.479 106.029C254.207 106.254 254.003 106.558 253.868 106.939C253.735 107.317 253.669 107.739 253.669 108.207C253.669 108.671 253.735 109.092 253.868 109.469C254.003 109.847 254.207 110.149 254.479 110.374C254.754 110.596 255.099 110.707 255.513 110.707ZM267.391 104.364L264.672 112H262.683L259.964 104.364H261.883L263.638 110.036H263.717L265.477 104.364H267.391ZM276.511 101.818V112H274.666V103.613H274.607L272.225 105.134V103.444L274.756 101.818H276.511ZM282.999 112.194C282.181 112.194 281.478 111.987 280.891 111.572C280.308 111.155 279.859 110.553 279.544 109.768C279.233 108.979 279.077 108.029 279.077 106.919C279.08 105.809 279.238 104.864 279.549 104.085C279.864 103.303 280.313 102.706 280.896 102.295C281.483 101.884 282.184 101.679 282.999 101.679C283.815 101.679 284.516 101.884 285.102 102.295C285.689 102.706 286.138 103.303 286.45 104.085C286.764 104.867 286.922 105.812 286.922 106.919C286.922 108.033 286.764 108.984 286.45 109.773C286.138 110.558 285.689 111.158 285.102 111.572C284.519 111.987 283.818 112.194 282.999 112.194ZM282.999 110.638C283.636 110.638 284.138 110.325 284.506 109.698C284.877 109.068 285.063 108.142 285.063 106.919C285.063 106.11 284.978 105.431 284.809 104.881C284.64 104.33 284.401 103.916 284.093 103.638C283.785 103.356 283.42 103.215 282.999 103.215C282.366 103.215 281.866 103.53 281.498 104.16C281.13 104.786 280.944 105.706 280.941 106.919C280.938 107.731 281.019 108.414 281.185 108.967C281.354 109.521 281.592 109.938 281.901 110.22C282.209 110.499 282.575 110.638 282.999 110.638Z" fill="#0B57D0"/>
<rect x="328.5" y="0.5" width="315" height="145" rx="23.5" fill="white"/>
<rect x="328.5" y="0.5" width="315" height="145" rx="23.5" stroke="#EDEDF0"/>
<path d="M361.575 32.1293H360.024C359.964 31.7978 359.853 31.5062 359.691 31.2543C359.529 31.0024 359.33 30.7886 359.094 30.6129C358.859 30.4373 358.596 30.3047 358.304 30.2152C358.016 30.1257 357.709 30.081 357.384 30.081C356.798 30.081 356.272 30.2285 355.808 30.5234C355.348 30.8184 354.983 31.2509 354.714 31.821C354.449 32.3911 354.317 33.0871 354.317 33.9091C354.317 34.7377 354.449 35.437 354.714 36.0071C354.983 36.5772 355.349 37.008 355.813 37.2997C356.277 37.5914 356.799 37.7372 357.379 37.7372C357.701 37.7372 358.006 37.6941 358.294 37.608C358.586 37.5185 358.849 37.3875 359.085 37.2152C359.32 37.0429 359.519 36.8324 359.681 36.5838C359.847 36.3319 359.961 36.0436 360.024 35.7188L361.575 35.7237C361.492 36.2242 361.332 36.6849 361.093 37.1058C360.858 37.5234 360.554 37.8847 360.183 38.1896C359.815 38.4912 359.394 38.7249 358.92 38.8906C358.446 39.0563 357.929 39.1392 357.369 39.1392C356.488 39.1392 355.702 38.9304 355.013 38.5128C354.323 38.0919 353.78 37.4903 353.382 36.7081C352.988 35.9259 352.79 34.9929 352.79 33.9091C352.79 32.822 352.989 31.889 353.387 31.1101C353.785 30.3279 354.328 29.728 355.018 29.3104C355.707 28.8894 356.491 28.679 357.369 28.679C357.91 28.679 358.413 28.7569 358.881 28.9126C359.351 29.0651 359.774 29.2905 360.148 29.5888C360.523 29.8838 360.833 30.245 361.078 30.6726C361.323 31.0968 361.489 31.5824 361.575 32.1293ZM370.101 28.8182H371.642V35.5149C371.642 36.2275 371.475 36.8589 371.14 37.4091C370.805 37.956 370.335 38.3868 369.728 38.7017C369.122 39.0133 368.411 39.169 367.595 39.169C366.783 39.169 366.074 39.0133 365.468 38.7017C364.861 38.3868 364.39 37.956 364.056 37.4091C363.721 36.8589 363.554 36.2275 363.554 35.5149V28.8182H365.09V35.3906C365.09 35.8513 365.191 36.2607 365.393 36.6186C365.599 36.9766 365.889 37.2583 366.263 37.4638C366.638 37.666 367.082 37.767 367.595 37.767C368.112 37.767 368.558 37.666 368.933 37.4638C369.311 37.2583 369.599 36.9766 369.798 36.6186C370 36.2607 370.101 35.8513 370.101 35.3906V28.8182ZM377.861 39V28.8182H379.347V32.6016H379.437C379.523 32.4425 379.647 32.2585 379.81 32.0497C379.972 31.8409 380.198 31.6586 380.486 31.5028C380.774 31.3438 381.155 31.2642 381.629 31.2642C382.246 31.2642 382.796 31.42 383.28 31.7315C383.764 32.0431 384.143 32.4922 384.418 33.0788C384.697 33.6655 384.836 34.3714 384.836 35.1967C384.836 36.022 384.698 36.7296 384.423 37.3196C384.148 37.9062 383.77 38.3587 383.29 38.6768C382.809 38.9917 382.261 39.1491 381.644 39.1491C381.18 39.1491 380.801 39.0713 380.506 38.9155C380.214 38.7597 379.985 38.5774 379.82 38.3686C379.654 38.1598 379.526 37.9742 379.437 37.8118H379.313V39H377.861ZM379.318 35.1818C379.318 35.7187 379.395 36.1894 379.551 36.5938C379.707 36.9981 379.932 37.3146 380.227 37.5433C380.522 37.7687 380.884 37.8814 381.311 37.8814C381.755 37.8814 382.126 37.7637 382.425 37.5284C382.723 37.2898 382.948 36.9666 383.101 36.5589C383.257 36.1513 383.335 35.6922 383.335 35.1818C383.335 34.678 383.258 34.2256 383.106 33.8246C382.957 33.4235 382.731 33.107 382.43 32.875C382.131 32.643 381.759 32.527 381.311 32.527C380.88 32.527 380.516 32.638 380.217 32.8601C379.922 33.0821 379.699 33.392 379.546 33.7898C379.394 34.1875 379.318 34.6515 379.318 35.1818ZM388.868 39.169C388.384 39.169 387.946 39.0795 387.555 38.9006C387.164 38.7183 386.854 38.4548 386.625 38.1101C386.4 37.7654 386.287 37.3428 386.287 36.8423C386.287 36.4115 386.37 36.0568 386.536 35.7784C386.702 35.5 386.925 35.2796 387.207 35.1172C387.489 34.9548 387.804 34.8321 388.152 34.7493C388.5 34.6664 388.854 34.6035 389.216 34.5604C389.673 34.5073 390.044 34.4643 390.329 34.4311C390.614 34.3946 390.821 34.3366 390.951 34.2571C391.08 34.1776 391.145 34.0483 391.145 33.8693V33.8345C391.145 33.4003 391.022 33.0639 390.777 32.8253C390.535 32.5866 390.173 32.4673 389.693 32.4673C389.192 32.4673 388.798 32.5784 388.51 32.8004C388.225 33.0192 388.027 33.2628 387.918 33.5312L386.521 33.2131C386.687 32.7491 386.929 32.3745 387.247 32.0895C387.568 31.8011 387.938 31.5923 388.355 31.4631C388.773 31.3305 389.212 31.2642 389.673 31.2642C389.978 31.2642 390.301 31.3007 390.642 31.3736C390.987 31.4432 391.309 31.5724 391.607 31.7614C391.908 31.9503 392.155 32.2204 392.348 32.5717C392.54 32.9197 392.636 33.3722 392.636 33.929V39H391.184V37.956H391.125C391.029 38.1482 390.884 38.3371 390.692 38.5227C390.5 38.7083 390.253 38.8625 389.951 38.9851C389.65 39.1077 389.288 39.169 388.868 39.169ZM389.191 37.9759C389.602 37.9759 389.953 37.8946 390.245 37.7322C390.54 37.5698 390.763 37.3577 390.916 37.0959C391.072 36.8307 391.149 36.5473 391.149 36.2457V35.2614C391.096 35.3144 390.994 35.3641 390.841 35.4105C390.692 35.4536 390.521 35.4917 390.329 35.5249C390.137 35.5547 389.95 35.5829 389.767 35.6094C389.585 35.6326 389.433 35.6525 389.31 35.669C389.022 35.7055 388.758 35.7668 388.52 35.853C388.284 35.9392 388.095 36.0634 387.953 36.2259C387.814 36.3849 387.744 36.5971 387.744 36.8622C387.744 37.2301 387.88 37.5085 388.152 37.6974C388.423 37.883 388.77 37.9759 389.191 37.9759ZM396.242 28.8182V39H394.756V28.8182H396.242ZM400.605 39.169C400.121 39.169 399.683 39.0795 399.292 38.9006C398.901 38.7183 398.591 38.4548 398.362 38.1101C398.137 37.7654 398.024 37.3428 398.024 36.8423C398.024 36.4115 398.107 36.0568 398.273 35.7784C398.439 35.5 398.662 35.2796 398.944 35.1172C399.226 34.9548 399.541 34.8321 399.889 34.7493C400.237 34.6664 400.591 34.6035 400.953 34.5604C401.41 34.5073 401.781 34.4643 402.066 34.4311C402.351 34.3946 402.558 34.3366 402.688 34.2571C402.817 34.1776 402.882 34.0483 402.882 33.8693V33.8345C402.882 33.4003 402.759 33.0639 402.514 32.8253C402.272 32.5866 401.91 32.4673 401.43 32.4673C400.929 32.4673 400.535 32.5784 400.247 32.8004C399.962 33.0192 399.764 33.2628 399.655 33.5312L398.258 33.2131C398.424 32.7491 398.666 32.3745 398.984 32.0895C399.305 31.8011 399.675 31.5923 400.092 31.4631C400.51 31.3305 400.949 31.2642 401.41 31.2642C401.715 31.2642 402.038 31.3007 402.379 31.3736C402.724 31.4432 403.046 31.5724 403.344 31.7614C403.646 31.9503 403.892 32.2204 404.085 32.5717C404.277 32.9197 404.373 33.3722 404.373 33.929V39H402.921V37.956H402.862C402.766 38.1482 402.621 38.3371 402.429 38.5227C402.237 38.7083 401.99 38.8625 401.688 38.9851C401.387 39.1077 401.025 39.169 400.605 39.169ZM400.928 37.9759C401.339 37.9759 401.69 37.8946 401.982 37.7322C402.277 37.5698 402.5 37.3577 402.653 37.0959C402.809 36.8307 402.887 36.5473 402.887 36.2457V35.2614C402.833 35.3144 402.731 35.3641 402.578 35.4105C402.429 35.4536 402.258 35.4917 402.066 35.5249C401.874 35.5547 401.687 35.5829 401.504 35.6094C401.322 35.6326 401.17 35.6525 401.047 35.669C400.759 35.7055 400.495 35.7668 400.257 35.853C400.021 35.9392 399.832 36.0634 399.69 36.2259C399.551 36.3849 399.481 36.5971 399.481 36.8622C399.481 37.2301 399.617 37.5085 399.889 37.6974C400.16 37.883 400.507 37.9759 400.928 37.9759ZM407.979 34.4659V39H406.493V31.3636H407.92V32.6065H408.014C408.19 32.2022 408.465 31.8774 408.84 31.6321C409.217 31.3868 409.693 31.2642 410.266 31.2642C410.787 31.2642 411.242 31.3736 411.634 31.5923C412.025 31.8078 412.328 32.1293 412.543 32.5568C412.759 32.9844 412.867 33.513 412.867 34.1428V39H411.38V34.3217C411.38 33.7682 411.236 33.3357 410.948 33.0241C410.659 32.7093 410.263 32.5518 409.759 32.5518C409.415 32.5518 409.108 32.6264 408.84 32.7756C408.574 32.9247 408.364 33.1435 408.208 33.4318C408.056 33.7169 407.979 34.0616 407.979 34.4659ZM418.217 39.1541C417.478 39.1541 416.841 38.9867 416.308 38.652C415.777 38.3139 415.37 37.8482 415.085 37.255C414.8 36.6617 414.657 35.9822 414.657 35.2166C414.657 34.4411 414.803 33.7566 415.095 33.1634C415.386 32.5668 415.797 32.1011 416.328 31.7663C416.858 31.4316 417.483 31.2642 418.202 31.2642C418.782 31.2642 419.299 31.3719 419.753 31.5874C420.207 31.7995 420.573 32.0978 420.852 32.4822C421.133 32.8667 421.301 33.3158 421.354 33.8295H419.907C419.828 33.4716 419.645 33.1634 419.36 32.9048C419.079 32.6463 418.701 32.517 418.227 32.517C417.812 32.517 417.449 32.6264 417.138 32.8452C416.83 33.0606 416.589 33.3688 416.417 33.7699C416.245 34.1676 416.159 34.6383 416.159 35.1818C416.159 35.7386 416.243 36.2192 416.412 36.6236C416.581 37.0279 416.82 37.3411 417.128 37.5632C417.44 37.7853 417.806 37.8963 418.227 37.8963C418.508 37.8963 418.764 37.8449 418.992 37.7422C419.224 37.6361 419.418 37.4853 419.574 37.2898C419.733 37.0942 419.844 36.8589 419.907 36.5838H421.354C421.301 37.0777 421.14 37.5185 420.872 37.9062C420.603 38.294 420.244 38.599 419.793 38.821C419.345 39.0431 418.82 39.1541 418.217 39.1541ZM426.375 39.1541C425.622 39.1541 424.974 38.9934 424.431 38.6719C423.891 38.3471 423.473 37.8913 423.178 37.3047C422.886 36.7147 422.74 36.0237 422.74 35.2315C422.74 34.4493 422.886 33.7599 423.178 33.1634C423.473 32.5668 423.884 32.1011 424.411 31.7663C424.941 31.4316 425.561 31.2642 426.27 31.2642C426.701 31.2642 427.119 31.3355 427.523 31.478C427.927 31.6205 428.29 31.8442 428.612 32.1491C428.933 32.4541 429.187 32.8501 429.373 33.3374C429.558 33.8213 429.651 34.4096 429.651 35.1023V35.6293H423.581V34.5156H428.194C428.194 34.1245 428.115 33.7782 427.956 33.4766C427.797 33.1716 427.573 32.9313 427.285 32.7557C426.999 32.58 426.665 32.4922 426.28 32.4922C425.863 32.4922 425.498 32.5949 425.186 32.8004C424.878 33.0026 424.64 33.2678 424.471 33.5959C424.305 33.9207 424.222 34.2737 424.222 34.6548V35.5249C424.222 36.0353 424.311 36.4695 424.49 36.8274C424.673 37.1854 424.926 37.4588 425.251 37.6477C425.576 37.8333 425.955 37.9261 426.39 37.9261C426.671 37.9261 426.928 37.8864 427.16 37.8068C427.392 37.724 427.593 37.6013 427.762 37.4389C427.931 37.2765 428.06 37.076 428.15 36.8374L429.557 37.0909C429.444 37.5052 429.242 37.8681 428.95 38.1797C428.662 38.4879 428.299 38.7282 427.861 38.9006C427.427 39.0696 426.932 39.1541 426.375 39.1541Z" fill="#AEAEB2"/>
<path d="M360.651 51.5455V69H357.489V54.6222H357.386L353.304 57.2301V54.3324L357.642 51.5455H360.651ZM377.428 69.2386C376.592 69.233 375.777 69.0881 374.982 68.804C374.186 68.5142 373.47 68.0455 372.834 67.3977C372.197 66.7443 371.692 65.8778 371.317 64.7983C370.942 63.7131 370.757 62.3693 370.763 60.767C370.763 59.2727 370.922 57.9403 371.24 56.7699C371.558 55.5994 372.016 54.6108 372.612 53.804C373.209 52.9915 373.928 52.3722 374.768 51.946C375.615 51.5199 376.561 51.3068 377.607 51.3068C378.703 51.3068 379.675 51.5227 380.521 51.9545C381.374 52.3864 382.061 52.9773 382.584 53.7273C383.107 54.4716 383.43 55.3125 383.555 56.25H380.445C380.286 55.5795 379.959 55.0455 379.464 54.6477C378.976 54.2443 378.357 54.0426 377.607 54.0426C376.396 54.0426 375.464 54.5682 374.811 55.6193C374.163 56.6705 373.837 58.1136 373.831 59.9489H373.95C374.229 59.4489 374.589 59.0199 375.033 58.6619C375.476 58.304 375.976 58.0284 376.533 57.8352C377.095 57.6364 377.689 57.5369 378.314 57.5369C379.337 57.5369 380.254 57.7812 381.067 58.2699C381.885 58.7585 382.533 59.4318 383.01 60.2898C383.487 61.142 383.723 62.1193 383.717 63.2216C383.723 64.3693 383.462 65.4006 382.933 66.3153C382.405 67.2244 381.669 67.9403 380.726 68.4631C379.783 68.9858 378.683 69.2443 377.428 69.2386ZM377.411 66.6818C378.03 66.6818 378.584 66.5312 379.072 66.2301C379.561 65.929 379.947 65.5227 380.232 65.0114C380.516 64.5 380.655 63.9261 380.649 63.2898C380.655 62.6648 380.518 62.0994 380.24 61.5938C379.967 61.0881 379.589 60.6875 379.107 60.392C378.624 60.0966 378.072 59.9489 377.453 59.9489C376.993 59.9489 376.564 60.0369 376.166 60.2131C375.768 60.3892 375.422 60.6335 375.126 60.946C374.831 61.2528 374.598 61.6108 374.428 62.0199C374.263 62.4233 374.178 62.8551 374.172 63.3153C374.178 63.9233 374.32 64.483 374.598 64.9943C374.876 65.5057 375.26 65.9148 375.749 66.2216C376.237 66.5284 376.791 66.6818 377.411 66.6818ZM393.05 69.3324C391.646 69.3324 390.442 68.9773 389.436 68.267C388.436 67.5511 387.666 66.5199 387.126 65.1733C386.592 63.821 386.325 62.1932 386.325 60.2898C386.331 58.3864 386.601 56.767 387.135 55.4318C387.675 54.0909 388.445 53.0682 389.445 52.3636C390.45 51.6591 391.652 51.3068 393.05 51.3068C394.447 51.3068 395.649 51.6591 396.655 52.3636C397.661 53.0682 398.43 54.0909 398.964 55.4318C399.504 56.7727 399.774 58.392 399.774 60.2898C399.774 62.1989 399.504 63.8295 398.964 65.1818C398.43 66.5284 397.661 67.5568 396.655 68.267C395.655 68.9773 394.453 69.3324 393.05 69.3324ZM393.05 66.6648C394.141 66.6648 395.001 66.1278 395.632 65.054C396.268 63.9744 396.587 62.3864 396.587 60.2898C396.587 58.9034 396.442 57.7386 396.152 56.7955C395.862 55.8523 395.453 55.142 394.925 54.6648C394.396 54.1818 393.771 53.9403 393.05 53.9403C391.964 53.9403 391.107 54.4801 390.476 55.5597C389.845 56.6335 389.527 58.2102 389.521 60.2898C389.516 61.6818 389.655 62.8523 389.939 63.8011C390.229 64.75 390.638 65.4659 391.166 65.9489C391.695 66.4261 392.322 66.6648 393.05 66.6648ZM409.058 69.3324C407.654 69.3324 406.45 68.9773 405.444 68.267C404.444 67.5511 403.674 66.5199 403.134 65.1733C402.6 63.821 402.333 62.1932 402.333 60.2898C402.339 58.3864 402.609 56.767 403.143 55.4318C403.683 54.0909 404.452 53.0682 405.452 52.3636C406.458 51.6591 407.66 51.3068 409.058 51.3068C410.455 51.3068 411.657 51.6591 412.663 52.3636C413.668 53.0682 414.438 54.0909 414.972 55.4318C415.512 56.7727 415.782 58.392 415.782 60.2898C415.782 62.1989 415.512 63.8295 414.972 65.1818C414.438 66.5284 413.668 67.5568 412.663 68.267C411.663 68.9773 410.461 69.3324 409.058 69.3324ZM409.058 66.6648C410.148 66.6648 411.009 66.1278 411.64 65.054C412.276 63.9744 412.594 62.3864 412.594 60.2898C412.594 58.9034 412.45 57.7386 412.16 56.7955C411.87 55.8523 411.461 55.142 410.933 54.6648C410.404 54.1818 409.779 53.9403 409.058 53.9403C407.972 53.9403 407.114 54.4801 406.484 55.5597C405.853 56.6335 405.535 58.2102 405.529 60.2898C405.523 61.6818 405.663 62.8523 405.947 63.8011C406.237 64.75 406.646 65.4659 407.174 65.9489C407.702 66.4261 408.33 66.6648 409.058 66.6648ZM431.018 69.3324C429.615 69.3324 428.411 68.9773 427.405 68.267C426.405 67.5511 425.635 66.5199 425.095 65.1733C424.561 63.821 424.294 62.1932 424.294 60.2898C424.3 58.3864 424.57 56.767 425.104 55.4318C425.643 54.0909 426.413 53.0682 427.413 52.3636C428.419 51.6591 429.621 51.3068 431.018 51.3068C432.416 51.3068 433.618 51.6591 434.624 52.3636C435.629 53.0682 436.399 54.0909 436.933 55.4318C437.473 56.7727 437.743 58.392 437.743 60.2898C437.743 62.1989 437.473 63.8295 436.933 65.1818C436.399 66.5284 435.629 67.5568 434.624 68.267C433.624 68.9773 432.422 69.3324 431.018 69.3324ZM431.018 66.6648C432.109 66.6648 432.97 66.1278 433.601 65.054C434.237 63.9744 434.555 62.3864 434.555 60.2898C434.555 58.9034 434.411 57.7386 434.121 56.7955C433.831 55.8523 433.422 55.142 432.893 54.6648C432.365 54.1818 431.74 53.9403 431.018 53.9403C429.933 53.9403 429.075 54.4801 428.445 55.5597C427.814 56.6335 427.496 58.2102 427.49 60.2898C427.484 61.6818 427.624 62.8523 427.908 63.8011C428.197 64.75 428.607 65.4659 429.135 65.9489C429.663 66.4261 430.291 66.6648 431.018 66.6648ZM447.026 69.3324C445.623 69.3324 444.418 68.9773 443.413 68.267C442.413 67.5511 441.643 66.5199 441.103 65.1733C440.569 63.821 440.302 62.1932 440.302 60.2898C440.308 58.3864 440.577 56.767 441.112 55.4318C441.651 54.0909 442.421 53.0682 443.421 52.3636C444.427 51.6591 445.629 51.3068 447.026 51.3068C448.424 51.3068 449.626 51.6591 450.631 52.3636C451.637 53.0682 452.407 54.0909 452.941 55.4318C453.481 56.7727 453.751 58.392 453.751 60.2898C453.751 62.1989 453.481 63.8295 452.941 65.1818C452.407 66.5284 451.637 67.5568 450.631 68.267C449.631 68.9773 448.43 69.3324 447.026 69.3324ZM447.026 66.6648C448.117 66.6648 448.978 66.1278 449.609 65.054C450.245 63.9744 450.563 62.3864 450.563 60.2898C450.563 58.9034 450.418 57.7386 450.129 56.7955C449.839 55.8523 449.43 55.142 448.901 54.6648C448.373 54.1818 447.748 53.9403 447.026 53.9403C445.941 53.9403 445.083 54.4801 444.452 55.5597C443.822 56.6335 443.504 58.2102 443.498 60.2898C443.492 61.6818 443.631 62.8523 443.915 63.8011C444.205 64.75 444.614 65.4659 445.143 65.9489C445.671 66.4261 446.299 66.6648 447.026 66.6648ZM463.034 69.3324C461.631 69.3324 460.426 68.9773 459.42 68.267C458.42 67.5511 457.651 66.5199 457.111 65.1733C456.577 63.821 456.31 62.1932 456.31 60.2898C456.315 58.3864 456.585 56.767 457.119 55.4318C457.659 54.0909 458.429 53.0682 459.429 52.3636C460.435 51.6591 461.636 51.3068 463.034 51.3068C464.432 51.3068 465.634 51.6591 466.639 52.3636C467.645 53.0682 468.415 54.0909 468.949 55.4318C469.489 56.7727 469.759 58.392 469.759 60.2898C469.759 62.1989 469.489 63.8295 468.949 65.1818C468.415 66.5284 467.645 67.5568 466.639 68.267C465.639 68.9773 464.438 69.3324 463.034 69.3324ZM463.034 66.6648C464.125 66.6648 464.986 66.1278 465.616 65.054C466.253 63.9744 466.571 62.3864 466.571 60.2898C466.571 58.9034 466.426 57.7386 466.136 56.7955C465.847 55.8523 465.438 55.142 464.909 54.6648C464.381 54.1818 463.756 53.9403 463.034 53.9403C461.949 53.9403 461.091 54.4801 460.46 55.5597C459.83 56.6335 459.511 58.2102 459.506 60.2898C459.5 61.6818 459.639 62.8523 459.923 63.8011C460.213 64.75 460.622 65.4659 461.151 65.9489C461.679 66.4261 462.307 66.6648 463.034 66.6648ZM484.995 69.3324C483.592 69.3324 482.387 68.9773 481.381 68.267C480.381 67.5511 479.612 66.5199 479.072 65.1733C478.538 63.821 478.271 62.1932 478.271 60.2898C478.276 58.3864 478.546 56.767 479.08 55.4318C479.62 54.0909 480.39 53.0682 481.39 52.3636C482.396 51.6591 483.597 51.3068 484.995 51.3068C486.393 51.3068 487.594 51.6591 488.6 52.3636C489.606 53.0682 490.376 54.0909 490.91 55.4318C491.45 56.7727 491.719 58.392 491.719 60.2898C491.719 62.1989 491.45 63.8295 490.91 65.1818C490.376 66.5284 489.606 67.5568 488.6 68.267C487.6 68.9773 486.398 69.3324 484.995 69.3324ZM484.995 66.6648C486.086 66.6648 486.947 66.1278 487.577 65.054C488.214 63.9744 488.532 62.3864 488.532 60.2898C488.532 58.9034 488.387 57.7386 488.097 56.7955C487.808 55.8523 487.398 55.142 486.87 54.6648C486.342 54.1818 485.717 53.9403 484.995 53.9403C483.91 53.9403 483.052 54.4801 482.421 55.5597C481.79 56.6335 481.472 58.2102 481.467 60.2898C481.461 61.6818 481.6 62.8523 481.884 63.8011C482.174 64.75 482.583 65.4659 483.112 65.9489C483.64 66.4261 484.268 66.6648 484.995 66.6648ZM501.003 69.3324C499.599 69.3324 498.395 68.9773 497.389 68.267C496.389 67.5511 495.619 66.5199 495.08 65.1733C494.545 63.821 494.278 62.1932 494.278 60.2898C494.284 58.3864 494.554 56.767 495.088 55.4318C495.628 54.0909 496.398 53.0682 497.398 52.3636C498.403 51.6591 499.605 51.3068 501.003 51.3068C502.401 51.3068 503.602 51.6591 504.608 52.3636C505.614 53.0682 506.384 54.0909 506.918 55.4318C507.457 56.7727 507.727 58.392 507.727 60.2898C507.727 62.1989 507.457 63.8295 506.918 65.1818C506.384 66.5284 505.614 67.5568 504.608 68.267C503.608 68.9773 502.406 69.3324 501.003 69.3324ZM501.003 66.6648C502.094 66.6648 502.955 66.1278 503.585 65.054C504.222 63.9744 504.54 62.3864 504.54 60.2898C504.54 58.9034 504.395 57.7386 504.105 56.7955C503.815 55.8523 503.406 55.142 502.878 54.6648C502.349 54.1818 501.724 53.9403 501.003 53.9403C499.918 53.9403 499.06 54.4801 498.429 55.5597C497.798 56.6335 497.48 58.2102 497.474 60.2898C497.469 61.6818 497.608 62.8523 497.892 63.8011C498.182 64.75 498.591 65.4659 499.119 65.9489C499.648 66.4261 500.276 66.6648 501.003 66.6648ZM517.011 69.3324C515.607 69.3324 514.403 68.9773 513.397 68.267C512.397 67.5511 511.627 66.5199 511.087 65.1733C510.553 63.821 510.286 62.1932 510.286 60.2898C510.292 58.3864 510.562 56.767 511.096 55.4318C511.636 54.0909 512.406 53.0682 513.406 52.3636C514.411 51.6591 515.613 51.3068 517.011 51.3068C518.408 51.3068 519.61 51.6591 520.616 52.3636C521.621 53.0682 522.391 54.0909 522.925 55.4318C523.465 56.7727 523.735 58.392 523.735 60.2898C523.735 62.1989 523.465 63.8295 522.925 65.1818C522.391 66.5284 521.621 67.5568 520.616 68.267C519.616 68.9773 518.414 69.3324 517.011 69.3324ZM517.011 66.6648C518.102 66.6648 518.962 66.1278 519.593 65.054C520.229 63.9744 520.548 62.3864 520.548 60.2898C520.548 58.9034 520.403 57.7386 520.113 56.7955C519.823 55.8523 519.414 55.142 518.886 54.6648C518.357 54.1818 517.732 53.9403 517.011 53.9403C515.925 53.9403 515.067 54.4801 514.437 55.5597C513.806 56.6335 513.488 58.2102 513.482 60.2898C513.477 61.6818 513.616 62.8523 513.9 63.8011C514.19 64.75 514.599 65.4659 515.127 65.9489C515.656 66.4261 516.283 66.6648 517.011 66.6648Z" fill="#1E1E1F"/>
<rect x="550" y="24" width="70" height="36" rx="12" fill="#EBF3FF"/>
<path d="M565.304 47V38.348H562.406V37.2H569.616V38.348H566.704V47H565.304ZM572.926 47.168C572.263 47.168 571.666 47.014 571.134 46.706C570.611 46.398 570.196 45.9687 569.888 45.418C569.589 44.858 569.44 44.214 569.44 43.486C569.44 42.7393 569.594 42.0907 569.902 41.54C570.21 40.98 570.63 40.546 571.162 40.238C571.694 39.93 572.291 39.776 572.954 39.776C573.626 39.776 574.223 39.93 574.746 40.238C575.269 40.546 575.679 40.9753 575.978 41.526C576.286 42.0767 576.44 42.7253 576.44 43.472C576.44 44.2187 576.286 44.8673 575.978 45.418C575.679 45.9687 575.264 46.398 574.732 46.706C574.2 47.014 573.598 47.168 572.926 47.168ZM572.926 45.964C573.309 45.964 573.654 45.8707 573.962 45.684C574.279 45.4973 574.531 45.222 574.718 44.858C574.914 44.4847 575.012 44.0227 575.012 43.472C575.012 42.9213 574.919 42.464 574.732 42.1C574.545 41.7267 574.293 41.4467 573.976 41.26C573.668 41.0733 573.327 40.98 572.954 40.98C572.581 40.98 572.235 41.0733 571.918 41.26C571.601 41.4467 571.344 41.7267 571.148 42.1C570.961 42.464 570.868 42.9213 570.868 43.472C570.868 44.0227 570.961 44.4847 571.148 44.858C571.344 45.222 571.596 45.4973 571.904 45.684C572.221 45.8707 572.562 45.964 572.926 45.964ZM578.087 50.08V39.944H579.347L579.487 41.036C579.636 40.8213 579.823 40.6207 580.047 40.434C580.271 40.238 580.537 40.0793 580.845 39.958C581.162 39.8367 581.531 39.776 581.951 39.776C582.623 39.776 583.211 39.9393 583.715 40.266C584.228 40.5927 584.625 41.036 584.905 41.596C585.194 42.1467 585.339 42.7767 585.339 43.486C585.339 44.1953 585.194 44.83 584.905 45.39C584.615 45.9407 584.214 46.3747 583.701 46.692C583.197 47.0093 582.609 47.168 581.937 47.168C581.386 47.168 580.901 47.0607 580.481 46.846C580.061 46.622 579.729 46.314 579.487 45.922V50.08H578.087ZM581.713 45.95C582.142 45.95 582.52 45.8473 582.847 45.642C583.183 45.4367 583.444 45.1473 583.631 44.774C583.827 44.4007 583.925 43.9667 583.925 43.472C583.925 42.9773 583.827 42.548 583.631 42.184C583.444 41.8107 583.183 41.5213 582.847 41.316C582.52 41.1013 582.142 40.994 581.713 40.994C581.274 40.994 580.887 41.1013 580.551 41.316C580.224 41.5213 579.967 41.8107 579.781 42.184C579.594 42.548 579.501 42.9773 579.501 43.472C579.501 43.9667 579.594 44.4007 579.781 44.774C579.967 45.1473 580.224 45.4367 580.551 45.642C580.887 45.8473 581.274 45.95 581.713 45.95ZM594.238 47.168C593.547 47.168 592.922 47.0327 592.362 46.762C591.802 46.482 591.354 46.062 591.018 45.502C590.691 44.9327 590.528 44.2093 590.528 43.332V37.2H591.928V43.346C591.928 43.934 592.026 44.4193 592.222 44.802C592.418 45.1753 592.688 45.4553 593.034 45.642C593.388 45.8193 593.799 45.908 594.266 45.908C594.742 45.908 595.152 45.8193 595.498 45.642C595.843 45.4553 596.109 45.1753 596.296 44.802C596.492 44.4193 596.59 43.934 596.59 43.346V37.2H597.99V43.332C597.99 44.2093 597.822 44.9327 597.486 45.502C597.15 46.062 596.697 46.482 596.128 46.762C595.558 47.0327 594.928 47.168 594.238 47.168ZM599.866 50.08V39.944H601.126L601.266 41.036C601.415 40.8213 601.602 40.6207 601.826 40.434C602.05 40.238 602.316 40.0793 602.624 39.958C602.941 39.8367 603.31 39.776 603.73 39.776C604.402 39.776 604.99 39.9393 605.494 40.266C606.007 40.5927 606.404 41.036 606.684 41.596C606.973 42.1467 607.118 42.7767 607.118 43.486C607.118 44.1953 606.973 44.83 606.684 45.39C606.395 45.9407 605.993 46.3747 605.48 46.692C604.976 47.0093 604.388 47.168 603.716 47.168C603.165 47.168 602.68 47.0607 602.26 46.846C601.84 46.622 601.509 46.314 601.266 45.922V50.08H599.866ZM603.492 45.95C603.921 45.95 604.299 45.8473 604.626 45.642C604.962 45.4367 605.223 45.1473 605.41 44.774C605.606 44.4007 605.704 43.9667 605.704 43.472C605.704 42.9773 605.606 42.548 605.41 42.184C605.223 41.8107 604.962 41.5213 604.626 41.316C604.299 41.1013 603.921 40.994 603.492 40.994C603.053 40.994 602.666 41.1013 602.33 41.316C602.003 41.5213 601.747 41.8107 601.56 42.184C601.373 42.548 601.28 42.9773 601.28 43.472C601.28 43.9667 601.373 44.4007 601.56 44.774C601.747 45.1473 602.003 45.4367 602.33 45.642C602.666 45.8473 603.053 45.95 603.492 45.95Z" fill="#0B57D0"/>
<path d="M356.151 96.2727V105H354.83V97.5938H354.778L352.69 98.9574V97.696L354.868 96.2727H356.151ZM358.984 105.081C358.751 105.081 358.551 104.999 358.383 104.834C358.216 104.666 358.132 104.464 358.132 104.229C358.132 103.996 358.216 103.797 358.383 103.632C358.551 103.464 358.751 103.381 358.984 103.381C359.217 103.381 359.417 103.464 359.585 103.632C359.752 103.797 359.836 103.996 359.836 104.229C359.836 104.385 359.796 104.528 359.717 104.659C359.64 104.787 359.538 104.889 359.41 104.966C359.282 105.043 359.14 105.081 358.984 105.081ZM364.376 105.119C363.987 105.114 363.604 105.043 363.226 104.906C362.851 104.77 362.51 104.543 362.203 104.224C361.896 103.906 361.651 103.479 361.466 102.942C361.284 102.405 361.193 101.734 361.193 100.93C361.193 100.169 361.268 99.4929 361.419 98.902C361.572 98.3111 361.793 97.8125 362.079 97.4062C362.366 96.9972 362.713 96.6861 363.119 96.473C363.526 96.2599 363.981 96.1534 364.487 96.1534C365.007 96.1534 365.469 96.2557 365.872 96.4602C366.276 96.6648 366.602 96.9474 366.852 97.3082C367.105 97.669 367.266 98.0795 367.334 98.5398H366.034C365.946 98.1761 365.771 97.8793 365.51 97.6491C365.249 97.419 364.908 97.304 364.487 97.304C363.848 97.304 363.349 97.5824 362.991 98.1392C362.636 98.696 362.457 99.4702 362.454 100.462H362.518C362.669 100.214 362.854 100.004 363.072 99.831C363.294 99.6548 363.541 99.5199 363.814 99.4261C364.089 99.3295 364.379 99.2812 364.683 99.2812C365.189 99.2812 365.646 99.4048 366.055 99.652C366.467 99.8963 366.795 100.234 367.04 100.666C367.284 101.098 367.406 101.592 367.406 102.149C367.406 102.706 367.28 103.21 367.027 103.662C366.777 104.114 366.425 104.472 365.97 104.736C365.516 104.997 364.984 105.125 364.376 105.119ZM364.372 104.011C364.707 104.011 365.007 103.929 365.271 103.764C365.535 103.599 365.744 103.378 365.898 103.099C366.051 102.821 366.128 102.51 366.128 102.166C366.128 101.831 366.052 101.526 365.902 101.25C365.754 100.974 365.55 100.756 365.288 100.594C365.03 100.432 364.734 100.351 364.402 100.351C364.149 100.351 363.915 100.399 363.699 100.496C363.486 100.592 363.298 100.726 363.136 100.896C362.974 101.067 362.847 101.263 362.753 101.484C362.662 101.703 362.616 101.935 362.616 102.179C362.616 102.506 362.692 102.808 362.842 103.087C362.996 103.365 363.204 103.589 363.469 103.76C363.736 103.928 364.037 104.011 364.372 104.011ZM369.198 105V96.2727H372.394C373.013 96.2727 373.526 96.375 373.932 96.5795C374.338 96.7812 374.642 97.0554 374.844 97.402C375.046 97.7457 375.147 98.1335 375.147 98.5653C375.147 98.929 375.08 99.2358 374.946 99.4858C374.813 99.733 374.634 99.9318 374.409 100.082C374.188 100.23 373.943 100.338 373.676 100.406V100.491C373.966 100.506 374.249 100.599 374.524 100.773C374.803 100.943 375.033 101.186 375.215 101.501C375.397 101.817 375.487 102.2 375.487 102.652C375.487 103.098 375.382 103.499 375.172 103.854C374.965 104.206 374.644 104.486 374.209 104.693C373.774 104.898 373.219 105 372.543 105H369.198ZM370.514 103.871H372.415C373.046 103.871 373.497 103.749 373.77 103.504C374.043 103.26 374.179 102.955 374.179 102.588C374.179 102.312 374.11 102.06 373.97 101.83C373.831 101.599 373.632 101.416 373.374 101.28C373.118 101.143 372.814 101.075 372.462 101.075H370.514V103.871ZM370.514 100.048H372.279C372.574 100.048 372.84 99.9915 373.076 99.8778C373.314 99.7642 373.503 99.6051 373.642 99.4006C373.784 99.1932 373.855 98.9489 373.855 98.6676C373.855 98.3068 373.729 98.0043 373.476 97.7599C373.223 97.5156 372.835 97.3935 372.313 97.3935H370.514V100.048ZM380.391 95.8636L377.578 106.312H376.441L379.253 95.8636H380.391ZM384.887 96.2727V105H383.566V97.5938H383.515L381.427 98.9574V97.696L383.605 96.2727H384.887ZM387.721 105.081C387.488 105.081 387.287 104.999 387.12 104.834C386.952 104.666 386.868 104.464 386.868 104.229C386.868 103.996 386.952 103.797 387.12 103.632C387.287 103.464 387.488 103.381 387.721 103.381C387.954 103.381 388.154 103.464 388.322 103.632C388.489 103.797 388.573 103.996 388.573 104.229C388.573 104.385 388.533 104.528 388.454 104.659C388.377 104.787 388.275 104.889 388.147 104.966C388.019 105.043 387.877 105.081 387.721 105.081ZM393.113 105.119C392.724 105.114 392.34 105.043 391.963 104.906C391.588 104.77 391.247 104.543 390.94 104.224C390.633 103.906 390.387 103.479 390.203 102.942C390.021 102.405 389.93 101.734 389.93 100.93C389.93 100.169 390.005 99.4929 390.156 98.902C390.309 98.3111 390.529 97.8125 390.816 97.4062C391.103 96.9972 391.45 96.6861 391.856 96.473C392.262 96.2599 392.718 96.1534 393.224 96.1534C393.744 96.1534 394.205 96.2557 394.609 96.4602C395.012 96.6648 395.339 96.9474 395.589 97.3082C395.842 97.669 396.002 98.0795 396.07 98.5398H394.771C394.683 98.1761 394.508 97.8793 394.247 97.6491C393.985 97.419 393.644 97.304 393.224 97.304C392.585 97.304 392.086 97.5824 391.728 98.1392C391.373 98.696 391.194 99.4702 391.191 100.462H391.255C391.406 100.214 391.59 100.004 391.809 99.831C392.031 99.6548 392.278 99.5199 392.551 99.4261C392.826 99.3295 393.116 99.2812 393.42 99.2812C393.926 99.2812 394.383 99.4048 394.792 99.652C395.204 99.8963 395.532 100.234 395.776 100.666C396.021 101.098 396.143 101.592 396.143 102.149C396.143 102.706 396.016 103.21 395.764 103.662C395.514 104.114 395.161 104.472 394.707 104.736C394.252 104.997 393.721 105.125 393.113 105.119ZM393.109 104.011C393.444 104.011 393.744 103.929 394.008 103.764C394.272 103.599 394.481 103.378 394.634 103.099C394.788 102.821 394.865 102.51 394.865 102.166C394.865 101.831 394.789 101.526 394.639 101.25C394.491 100.974 394.286 100.756 394.025 100.594C393.766 100.432 393.471 100.351 393.139 100.351C392.886 100.351 392.651 100.399 392.436 100.496C392.222 100.592 392.035 100.726 391.873 100.896C391.711 101.067 391.583 101.263 391.49 101.484C391.399 101.703 391.353 101.935 391.353 102.179C391.353 102.506 391.428 102.808 391.579 103.087C391.732 103.365 391.941 103.589 392.205 103.76C392.472 103.928 392.774 104.011 393.109 104.011ZM397.934 105V96.2727H401.13C401.75 96.2727 402.263 96.375 402.669 96.5795C403.075 96.7812 403.379 97.0554 403.581 97.402C403.782 97.7457 403.883 98.1335 403.883 98.5653C403.883 98.929 403.817 99.2358 403.683 99.4858C403.549 99.733 403.371 99.9318 403.146 100.082C402.924 100.23 402.68 100.338 402.413 100.406V100.491C402.703 100.506 402.986 100.599 403.261 100.773C403.54 100.943 403.77 101.186 403.951 101.501C404.133 101.817 404.224 102.2 404.224 102.652C404.224 103.098 404.119 103.499 403.909 103.854C403.701 104.206 403.38 104.486 402.946 104.693C402.511 104.898 401.956 105 401.28 105H397.934ZM399.251 103.871H401.152C401.782 103.871 402.234 103.749 402.507 103.504C402.78 103.26 402.916 102.955 402.916 102.588C402.916 102.312 402.846 102.06 402.707 101.83C402.568 101.599 402.369 101.416 402.111 101.28C401.855 101.143 401.551 101.075 401.199 101.075H399.251V103.871ZM399.251 100.048H401.015C401.311 100.048 401.576 99.9915 401.812 99.8778C402.051 99.7642 402.24 99.6051 402.379 99.4006C402.521 99.1932 402.592 98.9489 402.592 98.6676C402.592 98.3068 402.466 98.0043 402.213 97.7599C401.96 97.5156 401.572 97.3935 401.049 97.3935H399.251V100.048Z" fill="#85B4FF"/>
<path d="M459.656 103.295V102.23L463.428 96.2727H464.267V97.8409H463.734L461.037 102.111V102.179H466.206V103.295H459.656ZM463.794 105V102.972L463.803 102.486V96.2727H465.051V105H463.794ZM470.849 105.145C470.176 105.142 469.601 104.964 469.124 104.612C468.646 104.26 468.281 103.747 468.028 103.074C467.776 102.401 467.649 101.589 467.649 100.641C467.649 99.6946 467.776 98.8864 468.028 98.2159C468.284 97.5455 468.651 97.0341 469.128 96.6818C469.608 96.3295 470.182 96.1534 470.849 96.1534C471.517 96.1534 472.089 96.331 472.567 96.6861C473.044 97.0384 473.409 97.5497 473.662 98.2202C473.918 98.8878 474.045 99.6946 474.045 100.641C474.045 101.592 473.919 102.405 473.666 103.078C473.413 103.749 473.048 104.261 472.571 104.616C472.094 104.969 471.52 105.145 470.849 105.145ZM470.849 104.007C471.44 104.007 471.902 103.719 472.234 103.142C472.57 102.565 472.737 101.732 472.737 100.641C472.737 99.9162 472.66 99.304 472.507 98.804C472.357 98.3011 472.139 97.9205 471.855 97.6619C471.574 97.4006 471.239 97.2699 470.849 97.2699C470.261 97.2699 469.8 97.5597 469.464 98.1392C469.129 98.7187 468.96 99.5526 468.957 100.641C468.957 101.368 469.033 101.983 469.183 102.486C469.337 102.986 469.554 103.365 469.835 103.624C470.116 103.879 470.455 104.007 470.849 104.007ZM478.715 105.145C478.042 105.142 477.467 104.964 476.99 104.612C476.512 104.26 476.147 103.747 475.894 103.074C475.642 102.401 475.515 101.589 475.515 100.641C475.515 99.6946 475.642 98.8864 475.894 98.2159C476.15 97.5455 476.517 97.0341 476.994 96.6818C477.474 96.3295 478.048 96.1534 478.715 96.1534C479.383 96.1534 479.956 96.331 480.433 96.6861C480.91 97.0384 481.275 97.5497 481.528 98.2202C481.784 98.8878 481.912 99.6946 481.912 100.641C481.912 101.592 481.785 102.405 481.532 103.078C481.279 103.749 480.914 104.261 480.437 104.616C479.96 104.969 479.386 105.145 478.715 105.145ZM478.715 104.007C479.306 104.007 479.768 103.719 480.1 103.142C480.436 102.565 480.603 101.732 480.603 100.641C480.603 99.9162 480.527 99.304 480.373 98.804C480.223 98.3011 480.005 97.9205 479.721 97.6619C479.44 97.4006 479.105 97.2699 478.715 97.2699C478.127 97.2699 477.666 97.5597 477.331 98.1392C476.995 98.7187 476.826 99.5526 476.823 100.641C476.823 101.368 476.899 101.983 477.049 102.486C477.203 102.986 477.42 103.365 477.701 103.624C477.983 103.879 478.321 104.007 478.715 104.007ZM483.663 96.2727H485.261L488.039 103.057H488.141L490.92 96.2727H492.518V105H491.265V98.6847H491.184L488.61 104.987H487.57L484.996 98.6804H484.915V105H483.663V96.2727ZM497.774 95.8636L494.961 106.312H493.823L496.636 95.8636H497.774ZM498.776 103.295V102.23L502.547 96.2727H503.387V97.8409H502.854L500.156 102.111V102.179H505.325V103.295H498.776ZM502.914 105V102.972L502.922 102.486V96.2727H504.171V105H502.914ZM509.969 105.145C509.296 105.142 508.72 104.964 508.243 104.612C507.766 104.26 507.401 103.747 507.148 103.074C506.895 102.401 506.769 101.589 506.769 100.641C506.769 99.6946 506.895 98.8864 507.148 98.2159C507.404 97.5455 507.77 97.0341 508.247 96.6818C508.727 96.3295 509.301 96.1534 509.969 96.1534C510.637 96.1534 511.209 96.331 511.686 96.6861C512.164 97.0384 512.529 97.5497 512.781 98.2202C513.037 98.8878 513.165 99.6946 513.165 100.641C513.165 101.592 513.039 102.405 512.786 103.078C512.533 103.749 512.168 104.261 511.691 104.616C511.213 104.969 510.639 105.145 509.969 105.145ZM509.969 104.007C510.56 104.007 511.021 103.719 511.354 103.142C511.689 102.565 511.857 101.732 511.857 100.641C511.857 99.9162 511.78 99.304 511.627 98.804C511.476 98.3011 511.259 97.9205 510.975 97.6619C510.693 97.4006 510.358 97.2699 509.969 97.2699C509.381 97.2699 508.919 97.5597 508.584 98.1392C508.249 98.7187 508.08 99.5526 508.077 100.641C508.077 101.368 508.152 101.983 508.303 102.486C508.456 102.986 508.673 103.365 508.955 103.624C509.236 103.879 509.574 104.007 509.969 104.007ZM517.835 105.145C517.162 105.142 516.586 104.964 516.109 104.612C515.632 104.26 515.267 103.747 515.014 103.074C514.761 102.401 514.635 101.589 514.635 100.641C514.635 99.6946 514.761 98.8864 515.014 98.2159C515.27 97.5455 515.636 97.0341 516.113 96.6818C516.594 96.3295 517.167 96.1534 517.835 96.1534C518.503 96.1534 519.075 96.331 519.552 96.6861C520.03 97.0384 520.395 97.5497 520.648 98.2202C520.903 98.8878 521.031 99.6946 521.031 100.641C521.031 101.592 520.905 102.405 520.652 103.078C520.399 103.749 520.034 104.261 519.557 104.616C519.079 104.969 518.505 105.145 517.835 105.145ZM517.835 104.007C518.426 104.007 518.888 103.719 519.22 103.142C519.555 102.565 519.723 101.732 519.723 100.641C519.723 99.9162 519.646 99.304 519.493 98.804C519.342 98.3011 519.125 97.9205 518.841 97.6619C518.559 97.4006 518.224 97.2699 517.835 97.2699C517.247 97.2699 516.785 97.5597 516.45 98.1392C516.115 98.7187 515.946 99.5526 515.943 100.641C515.943 101.368 516.018 101.983 516.169 102.486C516.322 102.986 516.54 103.365 516.821 103.624C517.102 103.879 517.44 104.007 517.835 104.007ZM522.782 96.2727H524.38L527.159 103.057H527.261L530.039 96.2727H531.637V105H530.384V98.6847H530.303L527.73 104.987H526.69L524.116 98.6804H524.035V105H522.782V96.2727Z" fill="white"/>
<g clip-path="url(#clip0_987_12114)">
<rect x="352" y="114" width="181" height="8" rx="4" fill="#D6E6FF"/>
<rect x="352" y="114" width="181" height="8" rx="4" fill="#2772F5"/>
</g>
<path d="M566.044 112.744C565.813 114.919 564.581 116.957 562.541 118.134C559.154 120.09 554.821 118.929 552.865 115.541L552.657 115.18M551.955 111.256C552.187 109.081 553.419 107.043 555.458 105.865C558.846 103.909 563.178 105.07 565.134 108.458L565.343 108.819M551.911 117.055L552.521 114.778L554.798 115.388M563.202 108.611L565.479 109.221L566.089 106.945M559 108.25V112L561.083 113.25" stroke="#2772F5" stroke-width="1.6" stroke-linecap="round" stroke-linejoin="round"/>
<path d="M582.371 106.818V117H580.731L575.933 110.065H575.849V117H574.004V106.818H575.655L580.447 113.759H580.537V106.818H582.371ZM587.773 117.149C587.027 117.149 586.381 116.985 585.834 116.657C585.287 116.329 584.863 115.87 584.561 115.28C584.263 114.69 584.114 114 584.114 113.212C584.114 112.423 584.263 111.732 584.561 111.138C584.863 110.545 585.287 110.085 585.834 109.756C586.381 109.428 587.027 109.264 587.773 109.264C588.518 109.264 589.165 109.428 589.712 109.756C590.258 110.085 590.681 110.545 590.979 111.138C591.281 111.732 591.432 112.423 591.432 113.212C591.432 114 591.281 114.69 590.979 115.28C590.681 115.87 590.258 116.329 589.712 116.657C589.165 116.985 588.518 117.149 587.773 117.149ZM587.783 115.707C588.187 115.707 588.525 115.596 588.797 115.374C589.069 115.149 589.271 114.847 589.403 114.469C589.539 114.092 589.607 113.671 589.607 113.207C589.607 112.739 589.539 112.317 589.403 111.939C589.271 111.558 589.069 111.254 588.797 111.029C588.525 110.804 588.187 110.691 587.783 110.691C587.368 110.691 587.024 110.804 586.748 111.029C586.477 111.254 586.273 111.558 586.137 111.939C586.004 112.317 585.938 112.739 585.938 113.207C585.938 113.671 586.004 114.092 586.137 114.469C586.273 114.847 586.477 115.149 586.748 115.374C587.024 115.596 587.368 115.707 587.783 115.707ZM599.661 109.364L596.941 117H594.952L592.233 109.364H594.152L595.907 115.036H595.986L597.746 109.364H599.661ZM608.78 106.818V117H606.936V108.613H606.876L604.494 110.134V108.444L607.025 106.818H608.78ZM615.269 117.194C614.45 117.194 613.747 116.987 613.161 116.572C612.577 116.155 612.128 115.553 611.813 114.768C611.502 113.979 611.346 113.029 611.346 111.919C611.349 110.809 611.507 109.864 611.818 109.085C612.133 108.303 612.582 107.706 613.166 107.295C613.752 106.884 614.453 106.679 615.269 106.679C616.084 106.679 616.785 106.884 617.372 107.295C617.958 107.706 618.407 108.303 618.719 109.085C619.034 109.867 619.191 110.812 619.191 111.919C619.191 113.033 619.034 113.984 618.719 114.773C618.407 115.558 617.958 116.158 617.372 116.572C616.788 116.987 616.087 117.194 615.269 117.194ZM615.269 115.638C615.905 115.638 616.407 115.325 616.775 114.698C617.146 114.068 617.332 113.142 617.332 111.919C617.332 111.11 617.247 110.431 617.078 109.881C616.909 109.33 616.671 108.916 616.362 108.638C616.054 108.356 615.69 108.215 615.269 108.215C614.636 108.215 614.135 108.53 613.767 109.16C613.399 109.786 613.214 110.706 613.21 111.919C613.207 112.731 613.288 113.414 613.454 113.967C613.623 114.521 613.862 114.938 614.17 115.22C614.478 115.499 614.844 115.638 615.269 115.638Z" fill="#0B57D0"/>
<rect x="660.5" y="0.5" width="311" height="147" rx="23.5" fill="white"/>
<rect x="660.5" y="0.5" width="311" height="147" rx="23.5" stroke="#EDEDF0"/>
<path d="M685.119 39V28.8182H688.748C689.537 28.8182 690.191 28.9541 690.712 29.2259C691.235 29.4976 691.626 29.8738 691.885 30.3544C692.143 30.8317 692.273 31.3835 692.273 32.0099C692.273 32.633 692.142 33.1816 691.88 33.6555C691.621 34.1262 691.23 34.4924 690.707 34.7543C690.186 35.0161 689.532 35.147 688.743 35.147H685.994V33.8246H688.604C689.101 33.8246 689.505 33.7533 689.817 33.6108C690.132 33.4683 690.362 33.2611 690.508 32.9893C690.654 32.7176 690.727 32.3911 690.727 32.0099C690.727 31.6255 690.652 31.2924 690.503 31.0107C690.357 30.7289 690.127 30.5135 689.812 30.3643C689.5 30.2119 689.091 30.1357 688.584 30.1357H686.655V39H685.119ZM690.145 34.4062L692.661 39H690.911L688.445 34.4062H690.145ZM696.385 39.169C695.901 39.169 695.464 39.0795 695.073 38.9006C694.681 38.7183 694.372 38.4548 694.143 38.1101C693.917 37.7654 693.805 37.3428 693.805 36.8423C693.805 36.4115 693.888 36.0568 694.053 35.7784C694.219 35.5 694.443 35.2796 694.725 35.1172C695.006 34.9548 695.321 34.8321 695.669 34.7493C696.017 34.6664 696.372 34.6035 696.733 34.5604C697.19 34.5073 697.562 34.4643 697.847 34.4311C698.132 34.3946 698.339 34.3366 698.468 34.2571C698.597 34.1776 698.662 34.0483 698.662 33.8693V33.8345C698.662 33.4003 698.539 33.0639 698.294 32.8253C698.052 32.5866 697.691 32.4673 697.21 32.4673C696.71 32.4673 696.315 32.5784 696.027 32.8004C695.742 33.0192 695.545 33.2628 695.435 33.5312L694.038 33.2131C694.204 32.7491 694.446 32.3745 694.764 32.0895C695.086 31.8011 695.455 31.5923 695.873 31.4631C696.291 31.3305 696.73 31.2642 697.19 31.2642C697.495 31.2642 697.819 31.3007 698.16 31.3736C698.505 31.4432 698.826 31.5724 699.124 31.7614C699.426 31.9503 699.673 32.2204 699.865 32.5717C700.057 32.9197 700.153 33.3722 700.153 33.929V39H698.702V37.956H698.642C698.546 38.1482 698.402 38.3371 698.21 38.5227C698.017 38.7083 697.77 38.8625 697.469 38.9851C697.167 39.1077 696.806 39.169 696.385 39.169ZM696.708 37.9759C697.119 37.9759 697.47 37.8946 697.762 37.7322C698.057 37.5698 698.281 37.3577 698.433 37.0959C698.589 36.8307 698.667 36.5473 698.667 36.2457V35.2614C698.614 35.3144 698.511 35.3641 698.359 35.4105C698.21 35.4536 698.039 35.4917 697.847 35.5249C697.654 35.5547 697.467 35.5829 697.285 35.6094C697.103 35.6326 696.95 35.6525 696.828 35.669C696.539 35.7055 696.276 35.7668 696.037 35.853C695.802 35.9392 695.613 36.0634 695.47 36.2259C695.331 36.3849 695.261 36.5971 695.261 36.8622C695.261 37.2301 695.397 37.5085 695.669 37.6974C695.941 37.883 696.287 37.9759 696.708 37.9759ZM705.838 31.3636V32.5568H701.667V31.3636H705.838ZM702.786 29.5341H704.272V36.7578C704.272 37.0462 704.315 37.2633 704.401 37.4091C704.487 37.5516 704.598 37.6494 704.734 37.7024C704.874 37.7521 705.024 37.777 705.187 37.777C705.306 37.777 705.411 37.7687 705.5 37.7521C705.589 37.7356 705.659 37.7223 705.709 37.7124L705.977 38.9403C705.891 38.9735 705.768 39.0066 705.609 39.0398C705.45 39.0762 705.251 39.0961 705.013 39.0994C704.622 39.1061 704.257 39.0365 703.919 38.8906C703.581 38.7448 703.308 38.5194 703.099 38.2145C702.89 37.9096 702.786 37.5268 702.786 37.0661V29.5341ZM710.832 39.1541C710.079 39.1541 709.431 38.9934 708.888 38.6719C708.347 38.3471 707.93 37.8913 707.635 37.3047C707.343 36.7147 707.197 36.0237 707.197 35.2315C707.197 34.4493 707.343 33.7599 707.635 33.1634C707.93 32.5668 708.341 32.1011 708.868 31.7663C709.398 31.4316 710.018 31.2642 710.727 31.2642C711.158 31.2642 711.576 31.3355 711.98 31.478C712.384 31.6205 712.747 31.8442 713.069 32.1491C713.39 32.4541 713.644 32.8501 713.829 33.3374C714.015 33.8213 714.108 34.4096 714.108 35.1023V35.6293H708.038V34.5156H712.651C712.651 34.1245 712.572 33.7782 712.413 33.4766C712.253 33.1716 712.03 32.9313 711.741 32.7557C711.456 32.58 711.122 32.4922 710.737 32.4922C710.32 32.4922 709.955 32.5949 709.643 32.8004C709.335 33.0026 709.096 33.2678 708.927 33.5959C708.762 33.9207 708.679 34.2737 708.679 34.6548V35.5249C708.679 36.0353 708.768 36.4695 708.947 36.8274C709.13 37.1854 709.383 37.4588 709.708 37.6477C710.033 37.8333 710.412 37.9261 710.846 37.9261C711.128 37.9261 711.385 37.8864 711.617 37.8068C711.849 37.724 712.05 37.6013 712.219 37.4389C712.388 37.2765 712.517 37.076 712.606 36.8374L714.013 37.0909C713.901 37.5052 713.699 37.8681 713.407 38.1797C713.119 38.4879 712.756 38.7282 712.318 38.9006C711.884 39.0696 711.388 39.1541 710.832 39.1541ZM721.229 28.8182V39H719.742V28.8182H721.229ZM723.369 39V31.3636H724.855V39H723.369ZM724.119 30.1854C723.861 30.1854 723.639 30.0992 723.453 29.9268C723.271 29.7512 723.18 29.5424 723.18 29.3004C723.18 29.0552 723.271 28.8464 723.453 28.674C723.639 28.4983 723.861 28.4105 724.119 28.4105C724.378 28.4105 724.598 28.4983 724.781 28.674C724.966 28.8464 725.059 29.0552 725.059 29.3004C725.059 29.5424 724.966 29.7512 724.781 29.9268C724.598 30.0992 724.378 30.1854 724.119 30.1854ZM726.995 39V31.3636H728.422V32.6065H728.516C728.675 32.1856 728.935 31.8575 729.297 31.6222C729.658 31.3835 730.091 31.2642 730.594 31.2642C731.105 31.2642 731.532 31.3835 731.877 31.6222C732.225 31.8608 732.482 32.1889 732.648 32.6065H732.727C732.909 32.1989 733.199 31.8741 733.597 31.6321C733.995 31.3868 734.469 31.2642 735.019 31.2642C735.712 31.2642 736.277 31.4813 736.714 31.9155C737.155 32.3497 737.376 33.0043 737.376 33.8793V39H735.889V34.0185C735.889 33.5014 735.748 33.1269 735.467 32.8949C735.185 32.6629 734.848 32.5469 734.457 32.5469C733.973 32.5469 733.597 32.696 733.329 32.9943C733.06 33.2893 732.926 33.6688 732.926 34.1328V39H731.444V33.924C731.444 33.5097 731.315 33.1766 731.057 32.9247C730.798 32.6728 730.462 32.5469 730.047 32.5469C729.766 32.5469 729.506 32.6214 729.267 32.7706C729.032 32.9164 728.841 33.1203 728.695 33.3821C728.553 33.6439 728.481 33.9472 728.481 34.2919V39H726.995ZM739.508 39V31.3636H740.994V39H739.508ZM740.259 30.1854C740 30.1854 739.778 30.0992 739.592 29.9268C739.41 29.7512 739.319 29.5424 739.319 29.3004C739.319 29.0552 739.41 28.8464 739.592 28.674C739.778 28.4983 740 28.4105 740.259 28.4105C740.517 28.4105 740.738 28.4983 740.92 28.674C741.105 28.8464 741.198 29.0552 741.198 29.3004C741.198 29.5424 741.105 29.7512 740.92 29.9268C740.738 30.0992 740.517 30.1854 740.259 30.1854ZM746.699 31.3636V32.5568H742.528V31.3636H746.699ZM743.646 29.5341H745.133V36.7578C745.133 37.0462 745.176 37.2633 745.262 37.4091C745.348 37.5516 745.459 37.6494 745.595 37.7024C745.734 37.7521 745.885 37.777 746.048 37.777C746.167 37.777 746.271 37.7687 746.361 37.7521C746.45 37.7356 746.52 37.7223 746.57 37.7124L746.838 38.9403C746.752 38.9735 746.629 39.0066 746.47 39.0398C746.311 39.0762 746.112 39.0961 745.874 39.0994C745.483 39.1061 745.118 39.0365 744.78 38.8906C744.442 38.7448 744.168 38.5194 743.96 38.2145C743.751 37.9096 743.646 37.5268 743.646 37.0661V29.5341Z" fill="#AEAEB2"/>
<path d="M691.756 69.2386C690.489 69.2386 689.364 69.0256 688.381 68.5994C687.403 68.1733 686.636 67.5909 686.08 66.8523C685.528 66.108 685.256 65.2642 685.261 64.321C685.256 63.5881 685.415 62.9148 685.739 62.3011C686.063 61.6875 686.5 61.1761 687.051 60.767C687.608 60.3523 688.227 60.0881 688.909 59.9744V59.8551C688.011 59.6562 687.284 59.1989 686.727 58.483C686.176 57.7614 685.903 56.929 685.909 55.9858C685.903 55.0881 686.153 54.2869 686.659 53.5824C687.165 52.8778 687.858 52.3239 688.739 51.9205C689.619 51.5114 690.625 51.3068 691.756 51.3068C692.875 51.3068 693.872 51.5114 694.747 51.9205C695.628 52.3239 696.321 52.8778 696.827 53.5824C697.338 54.2869 697.594 55.0881 697.594 55.9858C697.594 56.929 697.312 57.7614 696.75 58.483C696.193 59.1989 695.474 59.6562 694.594 59.8551V59.9744C695.276 60.0881 695.889 60.3523 696.435 60.767C696.986 61.1761 697.423 61.6875 697.747 62.3011C698.077 62.9148 698.241 63.5881 698.241 64.321C698.241 65.2642 697.963 66.108 697.406 66.8523C696.849 67.5909 696.082 68.1733 695.105 68.5994C694.134 69.0256 693.017 69.2386 691.756 69.2386ZM691.756 66.8011C692.409 66.8011 692.977 66.6903 693.46 66.4688C693.943 66.2415 694.318 65.9233 694.585 65.5142C694.852 65.1051 694.989 64.6335 694.994 64.0994C694.989 63.5426 694.844 63.0511 694.56 62.625C694.281 62.1932 693.898 61.8551 693.409 61.6108C692.926 61.3665 692.375 61.2443 691.756 61.2443C691.131 61.2443 690.574 61.3665 690.085 61.6108C689.597 61.8551 689.21 62.1932 688.926 62.625C688.648 63.0511 688.511 63.5426 688.517 64.0994C688.511 64.6335 688.642 65.1051 688.909 65.5142C689.176 65.9176 689.551 66.233 690.034 66.4602C690.523 66.6875 691.097 66.8011 691.756 66.8011ZM691.756 58.8494C692.29 58.8494 692.761 58.7415 693.17 58.5256C693.585 58.3097 693.912 58.0085 694.151 57.6222C694.389 57.2358 694.511 56.7898 694.517 56.2841C694.511 55.7841 694.392 55.3466 694.159 54.9716C693.926 54.5909 693.602 54.2983 693.188 54.0938C692.773 53.8835 692.295 53.7784 691.756 53.7784C691.205 53.7784 690.719 53.8835 690.298 54.0938C689.884 54.2983 689.56 54.5909 689.327 54.9716C689.099 55.3466 688.989 55.7841 688.994 56.2841C688.989 56.7898 689.102 57.2358 689.335 57.6222C689.574 58.0028 689.901 58.304 690.315 58.5256C690.736 58.7415 691.216 58.8494 691.756 58.8494ZM707.495 69.3324C706.092 69.3324 704.887 68.9773 703.881 68.267C702.881 67.5511 702.112 66.5199 701.572 65.1733C701.038 63.821 700.771 62.1932 700.771 60.2898C700.776 58.3864 701.046 56.767 701.58 55.4318C702.12 54.0909 702.89 53.0682 703.89 52.3636C704.896 51.6591 706.097 51.3068 707.495 51.3068C708.893 51.3068 710.094 51.6591 711.1 52.3636C712.106 53.0682 712.876 54.0909 713.41 55.4318C713.95 56.7727 714.219 58.392 714.219 60.2898C714.219 62.1989 713.95 63.8295 713.41 65.1818C712.876 66.5284 712.106 67.5568 711.1 68.267C710.1 68.9773 708.898 69.3324 707.495 69.3324ZM707.495 66.6648C708.586 66.6648 709.447 66.1278 710.077 65.054C710.714 63.9744 711.032 62.3864 711.032 60.2898C711.032 58.9034 710.887 57.7386 710.597 56.7955C710.308 55.8523 709.898 55.142 709.37 54.6648C708.842 54.1818 708.217 53.9403 707.495 53.9403C706.41 53.9403 705.552 54.4801 704.921 55.5597C704.29 56.6335 703.972 58.2102 703.967 60.2898C703.961 61.6818 704.1 62.8523 704.384 63.8011C704.674 64.75 705.083 65.4659 705.612 65.9489C706.14 66.4261 706.768 66.6648 707.495 66.6648ZM723.503 69.3324C722.099 69.3324 720.895 68.9773 719.889 68.267C718.889 67.5511 718.119 66.5199 717.58 65.1733C717.045 63.821 716.778 62.1932 716.778 60.2898C716.784 58.3864 717.054 56.767 717.588 55.4318C718.128 54.0909 718.898 53.0682 719.898 52.3636C720.903 51.6591 722.105 51.3068 723.503 51.3068C724.901 51.3068 726.102 51.6591 727.108 52.3636C728.114 53.0682 728.884 54.0909 729.418 55.4318C729.957 56.7727 730.227 58.392 730.227 60.2898C730.227 62.1989 729.957 63.8295 729.418 65.1818C728.884 66.5284 728.114 67.5568 727.108 68.267C726.108 68.9773 724.906 69.3324 723.503 69.3324ZM723.503 66.6648C724.594 66.6648 725.455 66.1278 726.085 65.054C726.722 63.9744 727.04 62.3864 727.04 60.2898C727.04 58.9034 726.895 57.7386 726.605 56.7955C726.315 55.8523 725.906 55.142 725.378 54.6648C724.849 54.1818 724.224 53.9403 723.503 53.9403C722.418 53.9403 721.56 54.4801 720.929 55.5597C720.298 56.6335 719.98 58.2102 719.974 60.2898C719.969 61.6818 720.108 62.8523 720.392 63.8011C720.682 64.75 721.091 65.4659 721.619 65.9489C722.148 66.4261 722.776 66.6648 723.503 66.6648ZM738.609 69V57.3636H742.972C743.866 57.3636 744.616 57.5189 745.222 57.8295C745.832 58.1402 746.292 58.5758 746.603 59.1364C746.917 59.6932 747.075 60.3428 747.075 61.0852C747.075 61.8314 746.915 62.4792 746.597 63.0284C746.283 63.5739 745.819 63.9962 745.205 64.2955C744.592 64.5909 743.838 64.7386 742.944 64.7386H739.836V62.9886H742.66C743.183 62.9886 743.611 62.9167 743.944 62.7727C744.277 62.625 744.523 62.411 744.683 62.1307C744.845 61.8466 744.927 61.4981 744.927 61.0852C744.927 60.6723 744.845 60.3201 744.683 60.0284C744.52 59.733 744.272 59.5095 743.938 59.358C743.605 59.2027 743.175 59.125 742.648 59.125H740.717V69H738.609ZM744.62 63.7273L747.501 69H745.148L742.319 63.7273H744.62ZM749.015 69V57.3636H753.379C754.272 57.3636 755.022 57.5303 755.629 57.8636C756.238 58.197 756.699 58.6553 757.009 59.2386C757.324 59.8182 757.481 60.4773 757.481 61.2159C757.481 61.9621 757.324 62.625 757.009 63.2045C756.695 63.7841 756.231 64.2405 755.617 64.5739C755.004 64.9034 754.248 65.0682 753.35 65.0682H750.458V63.3352H753.066C753.589 63.3352 754.017 63.2443 754.35 63.0625C754.683 62.8807 754.93 62.6307 755.089 62.3125C755.252 61.9943 755.333 61.6288 755.333 61.2159C755.333 60.803 755.252 60.4394 755.089 60.125C754.93 59.8106 754.682 59.5663 754.344 59.392C754.011 59.214 753.581 59.125 753.055 59.125H751.123V69H749.015ZM765.636 60.5625C765.583 60.0663 765.359 59.6799 764.965 59.4034C764.575 59.1269 764.067 58.9886 763.442 58.9886C763.003 58.9886 762.626 59.0549 762.312 59.1875C761.997 59.3201 761.757 59.5 761.59 59.7273C761.424 59.9545 761.338 60.214 761.335 60.5057C761.335 60.7481 761.389 60.9583 761.499 61.1364C761.613 61.3144 761.766 61.4659 761.96 61.5909C762.153 61.7121 762.367 61.8144 762.602 61.8977C762.836 61.9811 763.073 62.0511 763.312 62.108L764.403 62.3807C764.842 62.483 765.264 62.6212 765.67 62.7955C766.079 62.9697 766.444 63.1894 766.766 63.4545C767.092 63.7197 767.35 64.0398 767.539 64.4148C767.728 64.7898 767.823 65.2292 767.823 65.733C767.823 66.4148 767.649 67.0152 767.3 67.5341C766.952 68.0492 766.448 68.4527 765.789 68.7443C765.134 69.0322 764.34 69.1761 763.408 69.1761C762.503 69.1761 761.717 69.036 761.05 68.7557C760.388 68.4754 759.869 68.0663 759.494 67.5284C759.122 66.9905 758.922 66.3352 758.891 65.5625H760.965C760.996 65.9678 761.121 66.3049 761.34 66.5739C761.56 66.8428 761.846 67.0436 762.198 67.1761C762.554 67.3087 762.952 67.375 763.391 67.375C763.85 67.375 764.251 67.3068 764.596 67.1705C764.944 67.0303 765.217 66.8371 765.414 66.5909C765.611 66.3409 765.711 66.0492 765.715 65.7159C765.711 65.4129 765.622 65.1629 765.448 64.9659C765.274 64.7652 765.03 64.5985 764.715 64.4659C764.405 64.3295 764.041 64.2083 763.624 64.1023L762.3 63.7614C761.342 63.5152 760.585 63.142 760.028 62.642C759.475 62.1383 759.198 61.4697 759.198 60.6364C759.198 59.9508 759.384 59.3504 759.755 58.8352C760.13 58.3201 760.639 57.9205 761.283 57.6364C761.927 57.3485 762.656 57.2045 763.471 57.2045C764.297 57.2045 765.02 57.3485 765.641 57.6364C766.266 57.9205 766.757 58.3163 767.113 58.8239C767.469 59.3277 767.653 59.9072 767.664 60.5625H765.636Z" fill="#1E1E1F"/>
<rect x="684" y="92" width="8" height="32" rx="4" fill="#2772F5"/>
<g clip-path="url(#clip1_987_12114)">
<rect x="696" y="92" width="8" height="32" rx="4" fill="#C2DAFF"/>
<rect x="696" y="92" width="8" height="32" rx="4" fill="#2772F5"/>
</g>
<rect x="708" y="92" width="8" height="32" rx="4" fill="#2772F5"/>
<rect x="720" y="92" width="8" height="32" rx="4" fill="#2772F5"/>
<rect x="732" y="92" width="8" height="32" rx="4" fill="#2772F5"/>
<rect x="744" y="92" width="8" height="32" rx="4" fill="#2772F5"/>
<rect x="756" y="92" width="8" height="32" rx="4" fill="#2772F5"/>
<rect x="768" y="92" width="8" height="32" rx="4" fill="#2772F5"/>
<rect x="780" y="92" width="8" height="32" rx="4" fill="#2772F5"/>
<rect x="792" y="92" width="8" height="32" rx="4" fill="#2772F5"/>
<rect x="804" y="92" width="8" height="32" rx="4" fill="#2772F5"/>
<rect x="816" y="92" width="8" height="32" rx="4" fill="#2772F5"/>
<rect x="828" y="92" width="8" height="32" rx="4" fill="#2772F5"/>
<rect x="840" y="92" width="8" height="32" rx="4" fill="#2772F5"/>
<rect x="852" y="92" width="8" height="32" rx="4" fill="#2772F5"/>
<rect x="864" y="92" width="8" height="32" rx="4" fill="#2772F5"/>
<rect x="876" y="92" width="8" height="32" rx="4" fill="#2772F5"/>
<rect x="888" y="92" width="8" height="32" rx="4" fill="#2772F5"/>
<rect x="900" y="92" width="8" height="32" rx="4" fill="#2772F5"/>
<rect x="912" y="92" width="8" height="32" rx="4" fill="#2772F5"/>
<rect x="924" y="92" width="8" height="32" rx="4" fill="#2772F5"/>
<rect x="936" y="92" width="8" height="32" rx="4" fill="#2772F5"/>
<defs>
<clipPath id="clip0_987_12114">
<rect x="352" y="114" width="181" height="8" rx="4" fill="white"/>
</clipPath>
<clipPath id="clip1_987_12114">
<rect x="696" y="92" width="8" height="32" rx="4" fill="white"/>
</clipPath>
</defs>
</svg>
