<svg width="972" height="148" viewBox="0 0 972 148" fill="none" xmlns="http://www.w3.org/2000/svg">
<rect x="0.5" y="0.5" width="311" height="145" rx="23.5" fill="white"/>
<rect x="0.5" y="0.5" width="311" height="145" rx="23.5" stroke="#EDEDF0"/>
<path d="M25.1186 42V31.8182H28.7479C29.54 31.8182 30.1963 31.9624 30.7166 32.2507C31.237 32.5391 31.6264 32.9335 31.8849 33.4339C32.1435 33.9311 32.2727 34.4912 32.2727 35.1143C32.2727 35.7408 32.1418 36.3042 31.88 36.8047C31.6214 37.3018 31.2304 37.6963 30.7067 37.9879C30.1863 38.2763 29.5317 38.4205 28.7429 38.4205H26.2472V37.1179H28.6037C29.1042 37.1179 29.5102 37.0317 29.8217 36.8594C30.1333 36.6837 30.362 36.4451 30.5078 36.1435C30.6536 35.8419 30.7266 35.4988 30.7266 35.1143C30.7266 34.7299 30.6536 34.3885 30.5078 34.0902C30.362 33.7919 30.1316 33.5582 29.8168 33.3892C29.5052 33.2202 29.0942 33.1357 28.5838 33.1357H26.6548V42H25.1186ZM35.5809 31.8182V42H34.0944V31.8182H35.5809ZM39.943 42.169C39.4591 42.169 39.0216 42.0795 38.6305 41.9006C38.2394 41.7183 37.9295 41.4548 37.7008 41.1101C37.4754 40.7654 37.3627 40.3428 37.3627 39.8423C37.3627 39.4115 37.4456 39.0568 37.6113 38.7784C37.777 38.5 38.0008 38.2796 38.2825 38.1172C38.5642 37.9548 38.8791 37.8321 39.2271 37.7493C39.5751 37.6664 39.9297 37.6035 40.291 37.5604C40.7484 37.5073 41.1196 37.4643 41.4046 37.4311C41.6897 37.3946 41.8968 37.3366 42.0261 37.2571C42.1554 37.1776 42.22 37.0483 42.22 36.8693V36.8345C42.22 36.4003 42.0974 36.0639 41.8521 35.8253C41.6101 35.5866 41.2489 35.4673 40.7683 35.4673C40.2678 35.4673 39.8734 35.5784 39.585 35.8004C39.3 36.0192 39.1028 36.2628 38.9934 36.5312L37.5964 36.2131C37.7621 35.7491 38.0041 35.3745 38.3223 35.0895C38.6438 34.8011 39.0133 34.5923 39.4309 34.4631C39.8485 34.3305 40.2877 34.2642 40.7484 34.2642C41.0533 34.2642 41.3765 34.3007 41.7179 34.3736C42.0626 34.4432 42.384 34.5724 42.6823 34.7614C42.984 34.9503 43.2309 35.2204 43.4231 35.5717C43.6153 35.9197 43.7115 36.3722 43.7115 36.929V42H42.2598V40.956H42.2001C42.104 41.1482 41.9598 41.3371 41.7676 41.5227C41.5753 41.7083 41.3284 41.8625 41.0268 41.9851C40.7252 42.1077 40.3639 42.169 39.943 42.169ZM40.2662 40.9759C40.6771 40.9759 41.0285 40.8946 41.3201 40.7322C41.6151 40.5698 41.8388 40.3577 41.9913 40.0959C42.1471 39.8307 42.225 39.5473 42.225 39.2457V38.2614C42.1719 38.3144 42.0692 38.3641 41.9167 38.4105C41.7676 38.4536 41.5969 38.4917 41.4046 38.5249C41.2124 38.5547 41.0251 38.5829 40.8429 38.6094C40.6606 38.6326 40.5081 38.6525 40.3855 38.669C40.0971 38.7055 39.8336 38.7668 39.595 38.853C39.3597 38.9392 39.1707 39.0634 39.0282 39.2259C38.889 39.3849 38.8194 39.5971 38.8194 39.8622C38.8194 40.2301 38.9553 40.5085 39.2271 40.6974C39.4989 40.883 39.8452 40.9759 40.2662 40.9759ZM47.3179 37.4659V42H45.8314V34.3636H47.2582V35.6065H47.3527C47.5284 35.2022 47.8035 34.8774 48.178 34.6321C48.5558 34.3868 49.0314 34.2642 49.6048 34.2642C50.1252 34.2642 50.5809 34.3736 50.972 34.5923C51.3631 34.8078 51.6664 35.1293 51.8818 35.5568C52.0973 35.9844 52.205 36.513 52.205 37.1428V42H50.7185V37.3217C50.7185 36.7682 50.5743 36.3357 50.2859 36.0241C49.9976 35.7093 49.6015 35.5518 49.0977 35.5518C48.753 35.5518 48.4465 35.6264 48.178 35.7756C47.9128 35.9247 47.7024 36.1435 47.5466 36.4318C47.3941 36.7169 47.3179 37.0616 47.3179 37.4659Z" fill="#AEAEB2"/>
<path d="M25.517 72V54.5455H32.4034C33.7273 54.5455 34.8551 54.7983 35.7869 55.304C36.7188 55.804 37.429 56.5 37.9176 57.392C38.4119 58.2784 38.6591 59.3011 38.6591 60.4602C38.6591 61.6193 38.4091 62.642 37.9091 63.5284C37.4091 64.4148 36.6847 65.1051 35.7358 65.5994C34.7926 66.0937 33.6506 66.3409 32.3097 66.3409H27.9205V63.3835H31.7131C32.4233 63.3835 33.0085 63.2614 33.4688 63.017C33.9347 62.767 34.2813 62.4233 34.5085 61.9858C34.7415 61.5426 34.858 61.0341 34.858 60.4602C34.858 59.8807 34.7415 59.375 34.5085 58.9432C34.2813 58.5057 33.9347 58.1676 33.4688 57.929C33.0028 57.6847 32.4119 57.5625 31.696 57.5625H29.2074V72H25.517ZM40.9879 72V58.9091H44.5078V61.1932H44.6442C44.8828 60.3807 45.2834 59.767 45.8459 59.3523C46.4084 58.9318 47.0561 58.7216 47.7891 58.7216C47.9709 58.7216 48.1669 58.733 48.3771 58.7557C48.5874 58.7784 48.772 58.8097 48.9311 58.8494V62.071C48.7607 62.0199 48.5249 61.9744 48.2237 61.9347C47.9226 61.8949 47.647 61.875 47.397 61.875C46.8629 61.875 46.3857 61.9915 45.9652 62.2244C45.5504 62.4517 45.2209 62.7699 44.9766 63.179C44.7379 63.5881 44.6186 64.0597 44.6186 64.5938V72H40.9879ZM56.1136 72.2557C54.7898 72.2557 53.6449 71.9744 52.679 71.4119C51.7188 70.8437 50.9773 70.054 50.4545 69.0426C49.9318 68.0256 49.6705 66.8466 49.6705 65.5057C49.6705 64.1534 49.9318 62.9716 50.4545 61.9602C50.9773 60.9432 51.7188 60.1534 52.679 59.5909C53.6449 59.0227 54.7898 58.7386 56.1136 58.7386C57.4375 58.7386 58.5795 59.0227 59.5398 59.5909C60.5057 60.1534 61.25 60.9432 61.7727 61.9602C62.2955 62.9716 62.5568 64.1534 62.5568 65.5057C62.5568 66.8466 62.2955 68.0256 61.7727 69.0426C61.25 70.054 60.5057 70.8437 59.5398 71.4119C58.5795 71.9744 57.4375 72.2557 56.1136 72.2557ZM56.1307 69.4432C56.733 69.4432 57.2358 69.2727 57.6392 68.9318C58.0426 68.5852 58.3466 68.1136 58.5511 67.517C58.7614 66.9205 58.8665 66.2415 58.8665 65.4801C58.8665 64.7188 58.7614 64.0398 58.5511 63.4432C58.3466 62.8466 58.0426 62.375 57.6392 62.0284C57.2358 61.6818 56.733 61.5085 56.1307 61.5085C55.5227 61.5085 55.0114 61.6818 54.5966 62.0284C54.1875 62.375 53.8778 62.8466 53.6676 63.4432C53.4631 64.0398 53.3608 64.7188 53.3608 65.4801C53.3608 66.2415 53.4631 66.9205 53.6676 67.517C53.8778 68.1136 54.1875 68.5852 54.5966 68.9318C55.0114 69.2727 55.5227 69.4432 56.1307 69.4432Z" fill="#1E1E1F"/>
<rect x="24" y="95" width="48" height="24" rx="12" fill="#EDEEF0"/>
<path d="M33.98 111V103.956L32.408 104.412V103.476L34.424 102.6H35.204V111H33.98ZM37.0978 111V102.6H40.2058C40.7978 102.6 41.2898 102.696 41.6818 102.888C42.0738 103.072 42.3658 103.328 42.5578 103.656C42.7578 103.976 42.8578 104.34 42.8578 104.748C42.8578 105.172 42.7618 105.528 42.5698 105.816C42.3858 106.104 42.1418 106.328 41.8378 106.488C41.5418 106.64 41.2218 106.728 40.8778 106.752L41.0578 106.632C41.4258 106.64 41.7578 106.74 42.0538 106.932C42.3578 107.116 42.5978 107.364 42.7738 107.676C42.9578 107.988 43.0498 108.332 43.0498 108.708C43.0498 109.14 42.9418 109.532 42.7258 109.884C42.5178 110.228 42.2098 110.5 41.8018 110.7C41.4018 110.9 40.9058 111 40.3138 111H37.0978ZM38.2978 110.004H40.1578C40.6858 110.004 41.0938 109.884 41.3818 109.644C41.6778 109.396 41.8258 109.048 41.8258 108.6C41.8258 108.16 41.6738 107.808 41.3698 107.544C41.0738 107.28 40.6618 107.148 40.1338 107.148H38.2978V110.004ZM38.2978 106.224H40.0738C40.5778 106.224 40.9618 106.108 41.2258 105.876C41.4898 105.636 41.6218 105.308 41.6218 104.892C41.6218 104.492 41.4898 104.176 41.2258 103.944C40.9618 103.704 40.5698 103.584 40.0498 103.584H38.2978V106.224ZM51.4741 111.144C50.6581 111.144 49.9541 110.964 49.3621 110.604C48.7701 110.236 48.3141 109.728 47.9941 109.08C47.6741 108.424 47.5141 107.664 47.5141 106.8C47.5141 105.944 47.6741 105.188 47.9941 104.532C48.3141 103.876 48.7701 103.368 49.3621 103.008C49.9541 102.64 50.6581 102.456 51.4741 102.456C52.4501 102.456 53.2421 102.692 53.8501 103.164C54.4581 103.636 54.8461 104.3 55.0141 105.156H53.7061C53.5781 104.66 53.3301 104.264 52.9621 103.968C52.5941 103.672 52.0941 103.524 51.4621 103.524C50.9101 103.524 50.4261 103.656 50.0101 103.92C49.6021 104.184 49.2861 104.56 49.0621 105.048C48.8461 105.536 48.7381 106.12 48.7381 106.8C48.7381 107.48 48.8461 108.068 49.0621 108.564C49.2861 109.052 49.6021 109.428 50.0101 109.692C50.4261 109.948 50.9101 110.076 51.4621 110.076C52.0941 110.076 52.5941 109.936 52.9621 109.656C53.3301 109.368 53.5781 108.98 53.7061 108.492H55.0141C54.8461 109.324 54.4581 109.976 53.8501 110.448C53.2421 110.912 52.4501 111.144 51.4741 111.144ZM59.6786 111.144C59.0866 111.144 58.5506 111.028 58.0706 110.796C57.5906 110.556 57.2066 110.196 56.9186 109.716C56.6386 109.228 56.4986 108.608 56.4986 107.856V102.6H57.6986V107.868C57.6986 108.372 57.7826 108.788 57.9506 109.116C58.1186 109.436 58.3506 109.676 58.6466 109.836C58.9506 109.988 59.3026 110.064 59.7026 110.064C60.1106 110.064 60.4586 109.988 60.7466 109.836C61.0426 109.676 61.2706 109.436 61.4306 109.116C61.5986 108.788 61.6826 108.372 61.6826 107.868V102.6H62.8826V107.856C62.8826 108.608 62.7386 109.228 62.4506 109.716C62.1626 110.196 61.7746 110.556 61.2866 110.796C60.8066 111.028 60.2706 111.144 59.6786 111.144Z" fill="#1E1E1F"/>
<rect x="79" y="95" width="65" height="24" rx="12" fill="#EDEEF0"/>
<path d="M90.684 111.144C90.14 111.144 89.648 111.044 89.208 110.844C88.768 110.636 88.416 110.348 88.152 109.98C87.896 109.612 87.768 109.184 87.768 108.696C87.768 108.352 87.832 108.036 87.96 107.748C88.088 107.452 88.264 107.196 88.488 106.98C88.72 106.764 88.992 106.608 89.304 106.512C88.888 106.344 88.564 106.096 88.332 105.768C88.1 105.44 87.984 105.08 87.984 104.688C87.984 104.28 88.088 103.908 88.296 103.572C88.512 103.236 88.82 102.968 89.22 102.768C89.628 102.56 90.116 102.456 90.684 102.456C91.26 102.456 91.748 102.56 92.148 102.768C92.556 102.968 92.864 103.236 93.072 103.572C93.288 103.908 93.396 104.28 93.396 104.688C93.396 105.08 93.276 105.444 93.036 105.78C92.804 106.108 92.484 106.352 92.076 106.512C92.388 106.608 92.656 106.764 92.88 106.98C93.112 107.196 93.292 107.452 93.42 107.748C93.548 108.036 93.612 108.352 93.612 108.696C93.612 109.184 93.48 109.612 93.216 109.98C92.96 110.348 92.612 110.636 92.172 110.844C91.732 111.044 91.236 111.144 90.684 111.144ZM90.684 110.112C91.26 110.112 91.692 109.976 91.98 109.704C92.268 109.424 92.412 109.06 92.412 108.612C92.412 108.108 92.256 107.724 91.944 107.46C91.632 107.196 91.212 107.064 90.684 107.064C90.164 107.064 89.744 107.196 89.424 107.46C89.112 107.724 88.956 108.108 88.956 108.612C88.956 109.06 89.1 109.424 89.388 109.704C89.684 109.976 90.116 110.112 90.684 110.112ZM90.684 106.116C91.148 106.116 91.516 105.992 91.788 105.744C92.06 105.496 92.196 105.18 92.196 104.796C92.196 104.356 92.06 104.024 91.788 103.8C91.524 103.576 91.156 103.464 90.684 103.464C90.22 103.464 89.852 103.576 89.58 103.8C89.316 104.024 89.184 104.356 89.184 104.796C89.184 105.18 89.32 105.496 89.592 105.744C89.864 105.992 90.228 106.116 90.684 106.116ZM98.5828 111.144C97.8548 111.144 97.2268 110.964 96.6988 110.604C96.1788 110.236 95.7788 109.728 95.4988 109.08C95.2188 108.424 95.0788 107.664 95.0788 106.8C95.0788 105.936 95.2188 105.18 95.4988 104.532C95.7788 103.876 96.1788 103.368 96.6988 103.008C97.2268 102.64 97.8548 102.456 98.5828 102.456C99.3188 102.456 99.9428 102.64 100.455 103.008C100.975 103.368 101.375 103.876 101.655 104.532C101.943 105.18 102.087 105.936 102.087 106.8C102.087 107.664 101.943 108.424 101.655 109.08C101.375 109.728 100.975 110.236 100.455 110.604C99.9428 110.964 99.3188 111.144 98.5828 111.144ZM98.5828 110.076C99.0228 110.076 99.4108 109.944 99.7468 109.68C100.091 109.416 100.359 109.04 100.551 108.552C100.751 108.064 100.851 107.48 100.851 106.8C100.851 106.112 100.751 105.528 100.551 105.048C100.359 104.56 100.091 104.188 99.7468 103.932C99.4108 103.668 99.0228 103.536 98.5828 103.536C98.1428 103.536 97.7508 103.668 97.4068 103.932C97.0628 104.188 96.7908 104.56 96.5908 105.048C96.3988 105.528 96.3028 106.112 96.3028 106.8C96.3028 107.48 96.3988 108.064 96.5908 108.552C96.7908 109.04 97.0628 109.416 97.4068 109.68C97.7508 109.944 98.1428 110.076 98.5828 110.076ZM106.847 111.144C106.119 111.144 105.491 110.964 104.963 110.604C104.443 110.236 104.043 109.728 103.763 109.08C103.483 108.424 103.343 107.664 103.343 106.8C103.343 105.936 103.483 105.18 103.763 104.532C104.043 103.876 104.443 103.368 104.963 103.008C105.491 102.64 106.119 102.456 106.847 102.456C107.583 102.456 108.207 102.64 108.719 103.008C109.239 103.368 109.639 103.876 109.919 104.532C110.207 105.18 110.351 105.936 110.351 106.8C110.351 107.664 110.207 108.424 109.919 109.08C109.639 109.728 109.239 110.236 108.719 110.604C108.207 110.964 107.583 111.144 106.847 111.144ZM106.847 110.076C107.287 110.076 107.675 109.944 108.011 109.68C108.355 109.416 108.623 109.04 108.815 108.552C109.015 108.064 109.115 107.48 109.115 106.8C109.115 106.112 109.015 105.528 108.815 105.048C108.623 104.56 108.355 104.188 108.011 103.932C107.675 103.668 107.287 103.536 106.847 103.536C106.407 103.536 106.015 103.668 105.671 103.932C105.327 104.188 105.055 104.56 104.855 105.048C104.663 105.528 104.567 106.112 104.567 106.8C104.567 107.48 104.663 108.064 104.855 108.552C105.055 109.04 105.327 109.416 105.671 109.68C106.015 109.944 106.407 110.076 106.847 110.076ZM115.134 111V102.6H117.978C118.642 102.6 119.186 102.712 119.61 102.936C120.034 103.16 120.346 103.46 120.546 103.836C120.754 104.204 120.858 104.624 120.858 105.096C120.858 105.544 120.754 105.96 120.546 106.344C120.346 106.72 120.03 107.024 119.598 107.256C119.166 107.48 118.614 107.592 117.942 107.592H116.334V111H115.134ZM119.55 111L117.738 107.268H119.058L120.942 111H119.55ZM116.334 106.68H117.906C118.498 106.68 118.93 106.536 119.202 106.248C119.482 105.952 119.622 105.576 119.622 105.12C119.622 104.656 119.486 104.288 119.214 104.016C118.942 103.744 118.502 103.608 117.894 103.608H116.334V106.68ZM122.554 111V102.6H125.41C126.082 102.6 126.634 102.712 127.066 102.936C127.506 103.16 127.83 103.464 128.038 103.848C128.246 104.224 128.35 104.656 128.35 105.144C128.35 105.608 128.246 106.032 128.038 106.416C127.83 106.8 127.51 107.108 127.078 107.34C126.646 107.564 126.09 107.676 125.41 107.676H123.754V111H122.554ZM123.754 106.68H125.362C126.002 106.68 126.454 106.54 126.718 106.26C126.99 105.98 127.126 105.608 127.126 105.144C127.126 104.656 126.99 104.276 126.718 104.004C126.454 103.732 126.002 103.596 125.362 103.596H123.754V106.68ZM132.536 111.144C131.928 111.144 131.392 111.036 130.928 110.82C130.464 110.596 130.104 110.284 129.848 109.884C129.592 109.484 129.46 109.016 129.452 108.48H130.724C130.724 108.784 130.792 109.064 130.928 109.32C131.072 109.568 131.276 109.768 131.54 109.92C131.812 110.064 132.144 110.136 132.536 110.136C132.872 110.136 133.16 110.08 133.4 109.968C133.648 109.856 133.836 109.704 133.964 109.512C134.092 109.312 134.156 109.084 134.156 108.828C134.156 108.54 134.092 108.304 133.964 108.12C133.836 107.928 133.656 107.768 133.424 107.64C133.2 107.512 132.94 107.4 132.644 107.304C132.356 107.208 132.044 107.104 131.708 106.992C131.028 106.768 130.524 106.484 130.196 106.14C129.876 105.796 129.716 105.348 129.716 104.796C129.716 104.324 129.824 103.916 130.04 103.572C130.264 103.22 130.58 102.948 130.988 102.756C131.396 102.556 131.872 102.456 132.416 102.456C132.968 102.456 133.444 102.556 133.844 102.756C134.252 102.956 134.572 103.232 134.804 103.584C135.036 103.936 135.156 104.348 135.164 104.82H133.892C133.892 104.604 133.832 104.392 133.712 104.184C133.6 103.976 133.432 103.808 133.208 103.68C132.992 103.544 132.72 103.476 132.392 103.476C132.112 103.468 131.864 103.512 131.648 103.608C131.432 103.704 131.264 103.844 131.144 104.028C131.024 104.212 130.964 104.432 130.964 104.688C130.964 104.944 131.02 105.152 131.132 105.312C131.244 105.464 131.4 105.596 131.6 105.708C131.808 105.82 132.052 105.924 132.332 106.02C132.612 106.108 132.92 106.208 133.256 106.32C133.664 106.456 134.032 106.624 134.36 106.824C134.688 107.016 134.944 107.268 135.128 107.58C135.32 107.884 135.416 108.276 135.416 108.756C135.416 109.172 135.308 109.56 135.092 109.92C134.876 110.28 134.556 110.576 134.132 110.808C133.708 111.032 133.176 111.144 132.536 111.144Z" fill="#1E1E1F"/>
<path d="M212.423 101.818H214.267V108.47C214.267 109.199 214.095 109.841 213.75 110.394C213.409 110.948 212.928 111.38 212.308 111.692C211.688 112 210.964 112.154 210.136 112.154C209.304 112.154 208.578 112 207.958 111.692C207.338 111.38 206.858 110.948 206.516 110.394C206.175 109.841 206.004 109.199 206.004 108.47V101.818H207.849V108.316C207.849 108.74 207.942 109.118 208.127 109.45C208.316 109.781 208.581 110.041 208.923 110.23C209.264 110.416 209.668 110.509 210.136 110.509C210.603 110.509 211.007 110.416 211.349 110.23C211.693 110.041 211.959 109.781 212.144 109.45C212.33 109.118 212.423 108.74 212.423 108.316V101.818ZM218.132 107.526V112H216.332V104.364H218.052V105.661H218.142C218.318 105.234 218.598 104.894 218.982 104.642C219.37 104.39 219.849 104.264 220.419 104.264C220.946 104.264 221.405 104.377 221.796 104.602C222.19 104.828 222.495 105.154 222.711 105.582C222.93 106.009 223.037 106.528 223.034 107.138V112H221.234V107.416C221.234 106.906 221.102 106.506 220.837 106.218C220.575 105.93 220.212 105.786 219.748 105.786C219.433 105.786 219.153 105.855 218.908 105.994C218.666 106.13 218.475 106.327 218.336 106.586C218.2 106.844 218.132 107.158 218.132 107.526ZM228.817 104.364V105.756H224.427V104.364H228.817ZM225.511 102.534H227.31V109.703C227.31 109.945 227.347 110.131 227.42 110.26C227.496 110.386 227.595 110.472 227.718 110.518C227.841 110.565 227.977 110.588 228.126 110.588C228.238 110.588 228.341 110.58 228.434 110.563C228.53 110.547 228.603 110.532 228.653 110.518L228.956 111.925C228.86 111.959 228.722 111.995 228.543 112.035C228.368 112.075 228.152 112.098 227.897 112.104C227.446 112.118 227.04 112.05 226.679 111.901C226.318 111.748 226.031 111.513 225.819 111.195C225.61 110.876 225.507 110.479 225.511 110.001V102.534ZM230.462 112V104.364H232.262V112H230.462ZM231.367 103.28C231.082 103.28 230.836 103.185 230.631 102.996C230.425 102.804 230.323 102.574 230.323 102.305C230.323 102.034 230.425 101.803 230.631 101.614C230.836 101.422 231.082 101.326 231.367 101.326C231.655 101.326 231.9 101.422 232.103 101.614C232.308 101.803 232.411 102.034 232.411 102.305C232.411 102.574 232.308 102.804 232.103 102.996C231.9 103.185 231.655 103.28 231.367 103.28ZM236.052 101.818V112H234.252V101.818H236.052ZM250.102 101.818V112H248.461L243.664 105.065H243.579V112H241.735V101.818H243.385L248.178 108.759H248.268V101.818H250.102ZM255.503 112.149C254.758 112.149 254.111 111.985 253.564 111.657C253.017 111.329 252.593 110.87 252.292 110.28C251.993 109.69 251.844 109 251.844 108.212C251.844 107.423 251.993 106.732 252.292 106.138C252.593 105.545 253.017 105.085 253.564 104.756C254.111 104.428 254.758 104.264 255.503 104.264C256.249 104.264 256.895 104.428 257.442 104.756C257.989 105.085 258.412 105.545 258.71 106.138C259.012 106.732 259.162 107.423 259.162 108.212C259.162 109 259.012 109.69 258.71 110.28C258.412 110.87 257.989 111.329 257.442 111.657C256.895 111.985 256.249 112.149 255.503 112.149ZM255.513 110.707C255.918 110.707 256.256 110.596 256.527 110.374C256.799 110.149 257.001 109.847 257.134 109.469C257.27 109.092 257.338 108.671 257.338 108.207C257.338 107.739 257.27 107.317 257.134 106.939C257.001 106.558 256.799 106.254 256.527 106.029C256.256 105.804 255.918 105.691 255.513 105.691C255.099 105.691 254.754 105.804 254.479 106.029C254.207 106.254 254.003 106.558 253.868 106.939C253.735 107.317 253.669 107.739 253.669 108.207C253.669 108.671 253.735 109.092 253.868 109.469C254.003 109.847 254.207 110.149 254.479 110.374C254.754 110.596 255.099 110.707 255.513 110.707ZM267.391 104.364L264.672 112H262.683L259.964 104.364H261.883L263.638 110.036H263.717L265.477 104.364H267.391ZM276.511 101.818V112H274.666V103.613H274.607L272.225 105.134V103.444L274.756 101.818H276.511ZM282.999 112.194C282.181 112.194 281.478 111.987 280.891 111.572C280.308 111.155 279.859 110.553 279.544 109.768C279.233 108.979 279.077 108.029 279.077 106.919C279.08 105.809 279.238 104.864 279.549 104.085C279.864 103.303 280.313 102.706 280.896 102.295C281.483 101.884 282.184 101.679 282.999 101.679C283.815 101.679 284.516 101.884 285.102 102.295C285.689 102.706 286.138 103.303 286.45 104.085C286.764 104.867 286.922 105.812 286.922 106.919C286.922 108.033 286.764 108.984 286.45 109.773C286.138 110.558 285.689 111.158 285.102 111.572C284.519 111.987 283.818 112.194 282.999 112.194ZM282.999 110.638C283.636 110.638 284.138 110.325 284.506 109.698C284.877 109.068 285.063 108.142 285.063 106.919C285.063 106.11 284.978 105.431 284.809 104.881C284.64 104.33 284.401 103.916 284.093 103.638C283.785 103.356 283.42 103.215 282.999 103.215C282.366 103.215 281.866 103.53 281.498 104.16C281.13 104.786 280.944 105.706 280.941 106.919C280.938 107.731 281.019 108.414 281.185 108.967C281.354 109.521 281.592 109.938 281.901 110.22C282.209 110.499 282.575 110.638 282.999 110.638Z" fill="#0B57D0"/>
<rect x="328.5" y="0.5" width="315" height="145" rx="23.5" fill="white"/>
<rect x="328.5" y="0.5" width="315" height="145" rx="23.5" stroke="#EDEDF0"/>
<path d="M361.575 32.1293H360.024C359.964 31.7978 359.853 31.5062 359.691 31.2543C359.529 31.0024 359.33 30.7886 359.094 30.6129C358.859 30.4373 358.596 30.3047 358.304 30.2152C358.016 30.1257 357.709 30.081 357.384 30.081C356.798 30.081 356.272 30.2285 355.808 30.5234C355.348 30.8184 354.983 31.2509 354.714 31.821C354.449 32.3911 354.317 33.0871 354.317 33.9091C354.317 34.7377 354.449 35.437 354.714 36.0071C354.983 36.5772 355.349 37.008 355.813 37.2997C356.277 37.5914 356.799 37.7372 357.379 37.7372C357.701 37.7372 358.006 37.6941 358.294 37.608C358.586 37.5185 358.849 37.3875 359.085 37.2152C359.32 37.0429 359.519 36.8324 359.681 36.5838C359.847 36.3319 359.961 36.0436 360.024 35.7188L361.575 35.7237C361.492 36.2242 361.332 36.6849 361.093 37.1058C360.858 37.5234 360.554 37.8847 360.183 38.1896C359.815 38.4912 359.394 38.7249 358.92 38.8906C358.446 39.0563 357.929 39.1392 357.369 39.1392C356.488 39.1392 355.702 38.9304 355.013 38.5128C354.323 38.0919 353.78 37.4903 353.382 36.7081C352.988 35.9259 352.79 34.9929 352.79 33.9091C352.79 32.822 352.989 31.889 353.387 31.1101C353.785 30.3279 354.328 29.728 355.018 29.3104C355.707 28.8894 356.491 28.679 357.369 28.679C357.91 28.679 358.413 28.7569 358.881 28.9126C359.351 29.0651 359.774 29.2905 360.148 29.5888C360.523 29.8838 360.833 30.245 361.078 30.6726C361.323 31.0968 361.489 31.5824 361.575 32.1293ZM370.101 28.8182H371.642V35.5149C371.642 36.2275 371.475 36.8589 371.14 37.4091C370.805 37.956 370.335 38.3868 369.728 38.7017C369.122 39.0133 368.411 39.169 367.595 39.169C366.783 39.169 366.074 39.0133 365.468 38.7017C364.861 38.3868 364.39 37.956 364.056 37.4091C363.721 36.8589 363.554 36.2275 363.554 35.5149V28.8182H365.09V35.3906C365.09 35.8513 365.191 36.2607 365.393 36.6186C365.599 36.9766 365.889 37.2583 366.263 37.4638C366.638 37.666 367.082 37.767 367.595 37.767C368.112 37.767 368.558 37.666 368.933 37.4638C369.311 37.2583 369.599 36.9766 369.798 36.6186C370 36.2607 370.101 35.8513 370.101 35.3906V28.8182ZM377.861 39V28.8182H379.347V32.6016H379.437C379.523 32.4425 379.647 32.2585 379.81 32.0497C379.972 31.8409 380.198 31.6586 380.486 31.5028C380.774 31.3438 381.155 31.2642 381.629 31.2642C382.246 31.2642 382.796 31.42 383.28 31.7315C383.764 32.0431 384.143 32.4922 384.418 33.0788C384.697 33.6655 384.836 34.3714 384.836 35.1967C384.836 36.022 384.698 36.7296 384.423 37.3196C384.148 37.9062 383.77 38.3587 383.29 38.6768C382.809 38.9917 382.261 39.1491 381.644 39.1491C381.18 39.1491 380.801 39.0713 380.506 38.9155C380.214 38.7597 379.985 38.5774 379.82 38.3686C379.654 38.1598 379.526 37.9742 379.437 37.8118H379.313V39H377.861ZM379.318 35.1818C379.318 35.7187 379.395 36.1894 379.551 36.5938C379.707 36.9981 379.932 37.3146 380.227 37.5433C380.522 37.7687 380.884 37.8814 381.311 37.8814C381.755 37.8814 382.126 37.7637 382.425 37.5284C382.723 37.2898 382.948 36.9666 383.101 36.5589C383.257 36.1513 383.335 35.6922 383.335 35.1818C383.335 34.678 383.258 34.2256 383.106 33.8246C382.957 33.4235 382.731 33.107 382.43 32.875C382.131 32.643 381.759 32.527 381.311 32.527C380.88 32.527 380.516 32.638 380.217 32.8601C379.922 33.0821 379.699 33.392 379.546 33.7898C379.394 34.1875 379.318 34.6515 379.318 35.1818ZM388.868 39.169C388.384 39.169 387.946 39.0795 387.555 38.9006C387.164 38.7183 386.854 38.4548 386.625 38.1101C386.4 37.7654 386.287 37.3428 386.287 36.8423C386.287 36.4115 386.37 36.0568 386.536 35.7784C386.702 35.5 386.925 35.2796 387.207 35.1172C387.489 34.9548 387.804 34.8321 388.152 34.7493C388.5 34.6664 388.854 34.6035 389.216 34.5604C389.673 34.5073 390.044 34.4643 390.329 34.4311C390.614 34.3946 390.821 34.3366 390.951 34.2571C391.08 34.1776 391.145 34.0483 391.145 33.8693V33.8345C391.145 33.4003 391.022 33.0639 390.777 32.8253C390.535 32.5866 390.173 32.4673 389.693 32.4673C389.192 32.4673 388.798 32.5784 388.51 32.8004C388.225 33.0192 388.027 33.2628 387.918 33.5312L386.521 33.2131C386.687 32.7491 386.929 32.3745 387.247 32.0895C387.568 31.8011 387.938 31.5923 388.355 31.4631C388.773 31.3305 389.212 31.2642 389.673 31.2642C389.978 31.2642 390.301 31.3007 390.642 31.3736C390.987 31.4432 391.309 31.5724 391.607 31.7614C391.908 31.9503 392.155 32.2204 392.348 32.5717C392.54 32.9197 392.636 33.3722 392.636 33.929V39H391.184V37.956H391.125C391.029 38.1482 390.884 38.3371 390.692 38.5227C390.5 38.7083 390.253 38.8625 389.951 38.9851C389.65 39.1077 389.288 39.169 388.868 39.169ZM389.191 37.9759C389.602 37.9759 389.953 37.8946 390.245 37.7322C390.54 37.5698 390.763 37.3577 390.916 37.0959C391.072 36.8307 391.149 36.5473 391.149 36.2457V35.2614C391.096 35.3144 390.994 35.3641 390.841 35.4105C390.692 35.4536 390.521 35.4917 390.329 35.5249C390.137 35.5547 389.95 35.5829 389.767 35.6094C389.585 35.6326 389.433 35.6525 389.31 35.669C389.022 35.7055 388.758 35.7668 388.52 35.853C388.284 35.9392 388.095 36.0634 387.953 36.2259C387.814 36.3849 387.744 36.5971 387.744 36.8622C387.744 37.2301 387.88 37.5085 388.152 37.6974C388.423 37.883 388.77 37.9759 389.191 37.9759ZM396.242 28.8182V39H394.756V28.8182H396.242ZM400.605 39.169C400.121 39.169 399.683 39.0795 399.292 38.9006C398.901 38.7183 398.591 38.4548 398.362 38.1101C398.137 37.7654 398.024 37.3428 398.024 36.8423C398.024 36.4115 398.107 36.0568 398.273 35.7784C398.439 35.5 398.662 35.2796 398.944 35.1172C399.226 34.9548 399.541 34.8321 399.889 34.7493C400.237 34.6664 400.591 34.6035 400.953 34.5604C401.41 34.5073 401.781 34.4643 402.066 34.4311C402.351 34.3946 402.558 34.3366 402.688 34.2571C402.817 34.1776 402.882 34.0483 402.882 33.8693V33.8345C402.882 33.4003 402.759 33.0639 402.514 32.8253C402.272 32.5866 401.91 32.4673 401.43 32.4673C400.929 32.4673 400.535 32.5784 400.247 32.8004C399.962 33.0192 399.764 33.2628 399.655 33.5312L398.258 33.2131C398.424 32.7491 398.666 32.3745 398.984 32.0895C399.305 31.8011 399.675 31.5923 400.092 31.4631C400.51 31.3305 400.949 31.2642 401.41 31.2642C401.715 31.2642 402.038 31.3007 402.379 31.3736C402.724 31.4432 403.046 31.5724 403.344 31.7614C403.646 31.9503 403.892 32.2204 404.085 32.5717C404.277 32.9197 404.373 33.3722 404.373 33.929V39H402.921V37.956H402.862C402.766 38.1482 402.621 38.3371 402.429 38.5227C402.237 38.7083 401.99 38.8625 401.688 38.9851C401.387 39.1077 401.025 39.169 400.605 39.169ZM400.928 37.9759C401.339 37.9759 401.69 37.8946 401.982 37.7322C402.277 37.5698 402.5 37.3577 402.653 37.0959C402.809 36.8307 402.887 36.5473 402.887 36.2457V35.2614C402.833 35.3144 402.731 35.3641 402.578 35.4105C402.429 35.4536 402.258 35.4917 402.066 35.5249C401.874 35.5547 401.687 35.5829 401.504 35.6094C401.322 35.6326 401.17 35.6525 401.047 35.669C400.759 35.7055 400.495 35.7668 400.257 35.853C400.021 35.9392 399.832 36.0634 399.69 36.2259C399.551 36.3849 399.481 36.5971 399.481 36.8622C399.481 37.2301 399.617 37.5085 399.889 37.6974C400.16 37.883 400.507 37.9759 400.928 37.9759ZM407.979 34.4659V39H406.493V31.3636H407.92V32.6065H408.014C408.19 32.2022 408.465 31.8774 408.84 31.6321C409.217 31.3868 409.693 31.2642 410.266 31.2642C410.787 31.2642 411.242 31.3736 411.634 31.5923C412.025 31.8078 412.328 32.1293 412.543 32.5568C412.759 32.9844 412.867 33.513 412.867 34.1428V39H411.38V34.3217C411.38 33.7682 411.236 33.3357 410.948 33.0241C410.659 32.7093 410.263 32.5518 409.759 32.5518C409.415 32.5518 409.108 32.6264 408.84 32.7756C408.574 32.9247 408.364 33.1435 408.208 33.4318C408.056 33.7169 407.979 34.0616 407.979 34.4659ZM418.217 39.1541C417.478 39.1541 416.841 38.9867 416.308 38.652C415.777 38.3139 415.37 37.8482 415.085 37.255C414.8 36.6617 414.657 35.9822 414.657 35.2166C414.657 34.4411 414.803 33.7566 415.095 33.1634C415.386 32.5668 415.797 32.1011 416.328 31.7663C416.858 31.4316 417.483 31.2642 418.202 31.2642C418.782 31.2642 419.299 31.3719 419.753 31.5874C420.207 31.7995 420.573 32.0978 420.852 32.4822C421.133 32.8667 421.301 33.3158 421.354 33.8295H419.907C419.828 33.4716 419.645 33.1634 419.36 32.9048C419.079 32.6463 418.701 32.517 418.227 32.517C417.812 32.517 417.449 32.6264 417.138 32.8452C416.83 33.0606 416.589 33.3688 416.417 33.7699C416.245 34.1676 416.159 34.6383 416.159 35.1818C416.159 35.7386 416.243 36.2192 416.412 36.6236C416.581 37.0279 416.82 37.3411 417.128 37.5632C417.44 37.7853 417.806 37.8963 418.227 37.8963C418.508 37.8963 418.764 37.8449 418.992 37.7422C419.224 37.6361 419.418 37.4853 419.574 37.2898C419.733 37.0942 419.844 36.8589 419.907 36.5838H421.354C421.301 37.0777 421.14 37.5185 420.872 37.9062C420.603 38.294 420.244 38.599 419.793 38.821C419.345 39.0431 418.82 39.1541 418.217 39.1541ZM426.375 39.1541C425.622 39.1541 424.974 38.9934 424.431 38.6719C423.891 38.3471 423.473 37.8913 423.178 37.3047C422.886 36.7147 422.74 36.0237 422.74 35.2315C422.74 34.4493 422.886 33.7599 423.178 33.1634C423.473 32.5668 423.884 32.1011 424.411 31.7663C424.941 31.4316 425.561 31.2642 426.27 31.2642C426.701 31.2642 427.119 31.3355 427.523 31.478C427.927 31.6205 428.29 31.8442 428.612 32.1491C428.933 32.4541 429.187 32.8501 429.373 33.3374C429.558 33.8213 429.651 34.4096 429.651 35.1023V35.6293H423.581V34.5156H428.194C428.194 34.1245 428.115 33.7782 427.956 33.4766C427.797 33.1716 427.573 32.9313 427.285 32.7557C426.999 32.58 426.665 32.4922 426.28 32.4922C425.863 32.4922 425.498 32.5949 425.186 32.8004C424.878 33.0026 424.64 33.2678 424.471 33.5959C424.305 33.9207 424.222 34.2737 424.222 34.6548V35.5249C424.222 36.0353 424.311 36.4695 424.49 36.8274C424.673 37.1854 424.926 37.4588 425.251 37.6477C425.576 37.8333 425.955 37.9261 426.39 37.9261C426.671 37.9261 426.928 37.8864 427.16 37.8068C427.392 37.724 427.593 37.6013 427.762 37.4389C427.931 37.2765 428.06 37.076 428.15 36.8374L429.557 37.0909C429.444 37.5052 429.242 37.8681 428.95 38.1797C428.662 38.4879 428.299 38.7282 427.861 38.9006C427.427 39.0696 426.932 39.1541 426.375 39.1541Z" fill="#AEAEB2"/>
<path d="M359.943 69.2386C359.108 69.233 358.293 69.0881 357.497 68.804C356.702 68.5142 355.986 68.0455 355.349 67.3977C354.713 66.7443 354.207 65.8778 353.832 64.7983C353.457 63.7131 353.273 62.3693 353.278 60.767C353.278 59.2727 353.438 57.9403 353.756 56.7699C354.074 55.5994 354.531 54.6108 355.128 53.804C355.724 52.9915 356.443 52.3722 357.284 51.946C358.131 51.5199 359.077 51.3068 360.122 51.3068C361.219 51.3068 362.19 51.5227 363.037 51.9545C363.889 52.3864 364.577 52.9773 365.099 53.7273C365.622 54.4716 365.946 55.3125 366.071 56.25H362.96C362.801 55.5795 362.474 55.0455 361.98 54.6477C361.491 54.2443 360.872 54.0426 360.122 54.0426C358.912 54.0426 357.98 54.5682 357.327 55.6193C356.679 56.6705 356.352 58.1136 356.347 59.9489H356.466C356.744 59.4489 357.105 59.0199 357.548 58.6619C357.991 58.304 358.491 58.0284 359.048 57.8352C359.611 57.6364 360.205 57.5369 360.83 57.5369C361.852 57.5369 362.77 57.7812 363.582 58.2699C364.401 58.7585 365.048 59.4318 365.526 60.2898C366.003 61.142 366.239 62.1193 366.233 63.2216C366.239 64.3693 365.977 65.4006 365.449 66.3153C364.92 67.2244 364.185 67.9403 363.241 68.4631C362.298 68.9858 361.199 69.2443 359.943 69.2386ZM359.926 66.6818C360.545 66.6818 361.099 66.5312 361.588 66.2301C362.077 65.929 362.463 65.5227 362.747 65.0114C363.031 64.5 363.17 63.9261 363.165 63.2898C363.17 62.6648 363.034 62.0994 362.756 61.5938C362.483 61.0881 362.105 60.6875 361.622 60.392C361.139 60.0966 360.588 59.9489 359.969 59.9489C359.509 59.9489 359.08 60.0369 358.682 60.2131C358.284 60.3892 357.938 60.6335 357.642 60.946C357.347 61.2528 357.114 61.6108 356.943 62.0199C356.778 62.4233 356.693 62.8551 356.688 63.3153C356.693 63.9233 356.835 64.483 357.114 64.9943C357.392 65.5057 357.776 65.9148 358.264 66.2216C358.753 66.5284 359.307 66.6818 359.926 66.6818ZM368.798 65.7614V63.2472L376.205 51.5455H378.301V55.125H377.023L372.037 63.0256V63.1619H382.375V65.7614H368.798ZM377.125 69V64.9943L377.159 63.8693V51.5455H380.142V69H377.125ZM391.158 51.3068C391.993 51.3125 392.805 51.4602 393.595 51.75C394.391 52.0341 395.107 52.5 395.743 53.1477C396.379 53.7898 396.885 54.6506 397.26 55.7301C397.635 56.8097 397.822 58.1449 397.822 59.7358C397.828 61.2358 397.669 62.5767 397.345 63.7585C397.027 64.9347 396.57 65.929 395.973 66.7415C395.376 67.554 394.658 68.1733 393.817 68.5994C392.976 69.0256 392.03 69.2386 390.979 69.2386C389.876 69.2386 388.899 69.0227 388.047 68.5909C387.2 68.1591 386.516 67.5682 385.993 66.8182C385.47 66.0682 385.149 65.2102 385.03 64.2443H388.141C388.3 64.9375 388.624 65.4886 389.112 65.8977C389.607 66.3011 390.229 66.5028 390.979 66.5028C392.189 66.5028 393.121 65.9773 393.774 64.9261C394.428 63.875 394.754 62.4148 394.754 60.5455H394.635C394.357 61.0455 393.996 61.4773 393.553 61.8409C393.109 62.1989 392.607 62.4744 392.044 62.6676C391.487 62.8608 390.896 62.9574 390.271 62.9574C389.249 62.9574 388.328 62.7131 387.51 62.2244C386.697 61.7358 386.053 61.0653 385.575 60.2131C385.104 59.3608 384.865 58.3864 384.859 57.2898C384.859 56.1534 385.121 55.1335 385.643 54.2301C386.172 53.321 386.908 52.6051 387.851 52.0824C388.794 51.554 389.896 51.2955 391.158 51.3068ZM391.166 53.8636C390.553 53.8636 389.999 54.0142 389.504 54.3153C389.016 54.6108 388.629 55.0142 388.345 55.5256C388.067 56.0312 387.928 56.5966 387.928 57.2216C387.933 57.8409 388.072 58.4034 388.345 58.9091C388.624 59.4148 389.001 59.8153 389.479 60.1108C389.962 60.4062 390.513 60.554 391.132 60.554C391.592 60.554 392.021 60.4659 392.419 60.2898C392.817 60.1136 393.163 59.8693 393.459 59.5568C393.76 59.2386 393.993 58.8778 394.158 58.4744C394.328 58.071 394.411 57.6449 394.405 57.196C394.405 56.5994 394.263 56.0483 393.979 55.5426C393.7 55.0369 393.317 54.6307 392.828 54.3239C392.345 54.017 391.791 53.8636 391.166 53.8636ZM406.298 65.7614V63.2472L413.705 51.5455H415.801V55.125H414.523L409.537 63.0256V63.1619H419.875V65.7614H406.298ZM414.625 69V64.9943L414.659 63.8693V51.5455H417.642V69H414.625ZM428.666 69.2386C427.53 69.2386 426.513 69.0256 425.615 68.5994C424.717 68.1676 424.004 67.5767 423.476 66.8267C422.953 66.0767 422.675 65.2187 422.641 64.2528H425.709C425.766 64.9687 426.075 65.554 426.638 66.0085C427.2 66.4574 427.876 66.6818 428.666 66.6818C429.286 66.6818 429.837 66.5398 430.32 66.2557C430.803 65.9716 431.183 65.5767 431.462 65.071C431.74 64.5653 431.876 63.9886 431.871 63.3409C431.876 62.6818 431.737 62.0966 431.453 61.5852C431.169 61.0739 430.78 60.6733 430.286 60.3835C429.791 60.0881 429.223 59.9403 428.581 59.9403C428.058 59.9347 427.544 60.0312 427.038 60.2301C426.533 60.429 426.132 60.6903 425.837 61.0142L422.982 60.5455L423.893 51.5455H434.018V54.1875H426.51L426.007 58.8153H426.109C426.433 58.4347 426.891 58.1193 427.482 57.8693C428.072 57.6136 428.72 57.4858 429.425 57.4858C430.482 57.4858 431.425 57.7358 432.254 58.2358C433.084 58.7301 433.737 59.4119 434.214 60.2812C434.692 61.1506 434.93 62.1449 434.93 63.2642C434.93 64.4176 434.663 65.446 434.129 66.3494C433.601 67.2472 432.865 67.9545 431.922 68.4716C430.984 68.983 429.899 69.2386 428.666 69.2386ZM444.178 69.2386C443.342 69.233 442.527 69.0881 441.732 68.804C440.936 68.5142 440.22 68.0455 439.584 67.3977C438.947 66.7443 438.442 65.8778 438.067 64.7983C437.692 63.7131 437.507 62.3693 437.513 60.767C437.513 59.2727 437.672 57.9403 437.99 56.7699C438.308 55.5994 438.766 54.6108 439.362 53.804C439.959 52.9915 440.678 52.3722 441.518 51.946C442.365 51.5199 443.311 51.3068 444.357 51.3068C445.453 51.3068 446.425 51.5227 447.271 51.9545C448.124 52.3864 448.811 52.9773 449.334 53.7273C449.857 54.4716 450.18 55.3125 450.305 56.25H447.195C447.036 55.5795 446.709 55.0455 446.214 54.6477C445.726 54.2443 445.107 54.0426 444.357 54.0426C443.146 54.0426 442.214 54.5682 441.561 55.6193C440.913 56.6705 440.587 58.1136 440.581 59.9489H440.7C440.979 59.4489 441.339 59.0199 441.783 58.6619C442.226 58.304 442.726 58.0284 443.283 57.8352C443.845 57.6364 444.439 57.5369 445.064 57.5369C446.087 57.5369 447.004 57.7812 447.817 58.2699C448.635 58.7585 449.283 59.4318 449.76 60.2898C450.237 61.142 450.473 62.1193 450.467 63.2216C450.473 64.3693 450.212 65.4006 449.683 66.3153C449.155 67.2244 448.419 67.9403 447.476 68.4631C446.533 68.9858 445.433 69.2443 444.178 69.2386ZM444.161 66.6818C444.78 66.6818 445.334 66.5312 445.822 66.2301C446.311 65.929 446.697 65.5227 446.982 65.0114C447.266 64.5 447.405 63.9261 447.399 63.2898C447.405 62.6648 447.268 62.0994 446.99 61.5938C446.717 61.0881 446.339 60.6875 445.857 60.392C445.374 60.0966 444.822 59.9489 444.203 59.9489C443.743 59.9489 443.314 60.0369 442.916 60.2131C442.518 60.3892 442.172 60.6335 441.876 60.946C441.581 61.2528 441.348 61.6108 441.178 62.0199C441.013 62.4233 440.928 62.8551 440.922 63.3153C440.928 63.9233 441.07 64.483 441.348 64.9943C441.626 65.5057 442.01 65.9148 442.499 66.2216C442.987 66.5284 443.541 66.6818 444.161 66.6818ZM465.693 69.2386C464.858 69.233 464.043 69.0881 463.247 68.804C462.452 68.5142 461.736 68.0455 461.099 67.3977C460.463 66.7443 459.957 65.8778 459.582 64.7983C459.207 63.7131 459.023 62.3693 459.028 60.767C459.028 59.2727 459.188 57.9403 459.506 56.7699C459.824 55.5994 460.281 54.6108 460.878 53.804C461.474 52.9915 462.193 52.3722 463.034 51.946C463.881 51.5199 464.827 51.3068 465.872 51.3068C466.969 51.3068 467.94 51.5227 468.787 51.9545C469.639 52.3864 470.327 52.9773 470.849 53.7273C471.372 54.4716 471.696 55.3125 471.821 56.25H468.71C468.551 55.5795 468.224 55.0455 467.73 54.6477C467.241 54.2443 466.622 54.0426 465.872 54.0426C464.662 54.0426 463.73 54.5682 463.077 55.6193C462.429 56.6705 462.102 58.1136 462.097 59.9489H462.216C462.494 59.4489 462.855 59.0199 463.298 58.6619C463.741 58.304 464.241 58.0284 464.798 57.8352C465.361 57.6364 465.955 57.5369 466.58 57.5369C467.602 57.5369 468.52 57.7812 469.332 58.2699C470.151 58.7585 470.798 59.4318 471.276 60.2898C471.753 61.142 471.989 62.1193 471.983 63.2216C471.989 64.3693 471.727 65.4006 471.199 66.3153C470.67 67.2244 469.935 67.9403 468.991 68.4631C468.048 68.9858 466.949 69.2443 465.693 69.2386ZM465.676 66.6818C466.295 66.6818 466.849 66.5312 467.338 66.2301C467.827 65.929 468.213 65.5227 468.497 65.0114C468.781 64.5 468.92 63.9261 468.915 63.2898C468.92 62.6648 468.784 62.0994 468.506 61.5938C468.233 61.0881 467.855 60.6875 467.372 60.392C466.889 60.0966 466.338 59.9489 465.719 59.9489C465.259 59.9489 464.83 60.0369 464.432 60.2131C464.034 60.3892 463.688 60.6335 463.392 60.946C463.097 61.2528 462.864 61.6108 462.693 62.0199C462.528 62.4233 462.443 62.8551 462.438 63.3153C462.443 63.9233 462.585 64.483 462.864 64.9943C463.142 65.5057 463.526 65.9148 464.014 66.2216C464.503 66.5284 465.057 66.6818 465.676 66.6818ZM480.932 69.2386C479.795 69.2386 478.778 69.0256 477.881 68.5994C476.983 68.1676 476.27 67.5767 475.741 66.8267C475.219 66.0767 474.94 65.2187 474.906 64.2528H477.974C478.031 64.9687 478.341 65.554 478.903 66.0085C479.466 66.4574 480.142 66.6818 480.932 66.6818C481.551 66.6818 482.102 66.5398 482.585 66.2557C483.068 65.9716 483.449 65.5767 483.727 65.071C484.006 64.5653 484.142 63.9886 484.136 63.3409C484.142 62.6818 484.003 62.0966 483.719 61.5852C483.435 61.0739 483.045 60.6733 482.551 60.3835C482.057 60.0881 481.489 59.9403 480.847 59.9403C480.324 59.9347 479.81 60.0312 479.304 60.2301C478.798 60.429 478.398 60.6903 478.102 61.0142L475.247 60.5455L476.159 51.5455H486.284V54.1875H478.776L478.273 58.8153H478.375C478.699 58.4347 479.156 58.1193 479.747 57.8693C480.338 57.6136 480.986 57.4858 481.69 57.4858C482.747 57.4858 483.69 57.7358 484.52 58.2358C485.349 58.7301 486.003 59.4119 486.48 60.2812C486.957 61.1506 487.196 62.1449 487.196 63.2642C487.196 64.4176 486.929 65.446 486.395 66.3494C485.866 67.2472 485.131 67.9545 484.188 68.4716C483.25 68.983 482.165 69.2386 480.932 69.2386ZM490.69 69L498.114 54.3068V54.1875H489.497V51.5455H501.386V54.2472L493.972 69H490.69Z" fill="#1E1E1F"/>
<rect x="550" y="24" width="70" height="36" rx="12" fill="#EBF3FF"/>
<path d="M565.304 47V38.348H562.406V37.2H569.616V38.348H566.704V47H565.304ZM572.926 47.168C572.263 47.168 571.666 47.014 571.134 46.706C570.611 46.398 570.196 45.9687 569.888 45.418C569.589 44.858 569.44 44.214 569.44 43.486C569.44 42.7393 569.594 42.0907 569.902 41.54C570.21 40.98 570.63 40.546 571.162 40.238C571.694 39.93 572.291 39.776 572.954 39.776C573.626 39.776 574.223 39.93 574.746 40.238C575.269 40.546 575.679 40.9753 575.978 41.526C576.286 42.0767 576.44 42.7253 576.44 43.472C576.44 44.2187 576.286 44.8673 575.978 45.418C575.679 45.9687 575.264 46.398 574.732 46.706C574.2 47.014 573.598 47.168 572.926 47.168ZM572.926 45.964C573.309 45.964 573.654 45.8707 573.962 45.684C574.279 45.4973 574.531 45.222 574.718 44.858C574.914 44.4847 575.012 44.0227 575.012 43.472C575.012 42.9213 574.919 42.464 574.732 42.1C574.545 41.7267 574.293 41.4467 573.976 41.26C573.668 41.0733 573.327 40.98 572.954 40.98C572.581 40.98 572.235 41.0733 571.918 41.26C571.601 41.4467 571.344 41.7267 571.148 42.1C570.961 42.464 570.868 42.9213 570.868 43.472C570.868 44.0227 570.961 44.4847 571.148 44.858C571.344 45.222 571.596 45.4973 571.904 45.684C572.221 45.8707 572.562 45.964 572.926 45.964ZM578.087 50.08V39.944H579.347L579.487 41.036C579.636 40.8213 579.823 40.6207 580.047 40.434C580.271 40.238 580.537 40.0793 580.845 39.958C581.162 39.8367 581.531 39.776 581.951 39.776C582.623 39.776 583.211 39.9393 583.715 40.266C584.228 40.5927 584.625 41.036 584.905 41.596C585.194 42.1467 585.339 42.7767 585.339 43.486C585.339 44.1953 585.194 44.83 584.905 45.39C584.615 45.9407 584.214 46.3747 583.701 46.692C583.197 47.0093 582.609 47.168 581.937 47.168C581.386 47.168 580.901 47.0607 580.481 46.846C580.061 46.622 579.729 46.314 579.487 45.922V50.08H578.087ZM581.713 45.95C582.142 45.95 582.52 45.8473 582.847 45.642C583.183 45.4367 583.444 45.1473 583.631 44.774C583.827 44.4007 583.925 43.9667 583.925 43.472C583.925 42.9773 583.827 42.548 583.631 42.184C583.444 41.8107 583.183 41.5213 582.847 41.316C582.52 41.1013 582.142 40.994 581.713 40.994C581.274 40.994 580.887 41.1013 580.551 41.316C580.224 41.5213 579.967 41.8107 579.781 42.184C579.594 42.548 579.501 42.9773 579.501 43.472C579.501 43.9667 579.594 44.4007 579.781 44.774C579.967 45.1473 580.224 45.4367 580.551 45.642C580.887 45.8473 581.274 45.95 581.713 45.95ZM594.238 47.168C593.547 47.168 592.922 47.0327 592.362 46.762C591.802 46.482 591.354 46.062 591.018 45.502C590.691 44.9327 590.528 44.2093 590.528 43.332V37.2H591.928V43.346C591.928 43.934 592.026 44.4193 592.222 44.802C592.418 45.1753 592.688 45.4553 593.034 45.642C593.388 45.8193 593.799 45.908 594.266 45.908C594.742 45.908 595.152 45.8193 595.498 45.642C595.843 45.4553 596.109 45.1753 596.296 44.802C596.492 44.4193 596.59 43.934 596.59 43.346V37.2H597.99V43.332C597.99 44.2093 597.822 44.9327 597.486 45.502C597.15 46.062 596.697 46.482 596.128 46.762C595.558 47.0327 594.928 47.168 594.238 47.168ZM599.866 50.08V39.944H601.126L601.266 41.036C601.415 40.8213 601.602 40.6207 601.826 40.434C602.05 40.238 602.316 40.0793 602.624 39.958C602.941 39.8367 603.31 39.776 603.73 39.776C604.402 39.776 604.99 39.9393 605.494 40.266C606.007 40.5927 606.404 41.036 606.684 41.596C606.973 42.1467 607.118 42.7767 607.118 43.486C607.118 44.1953 606.973 44.83 606.684 45.39C606.395 45.9407 605.993 46.3747 605.48 46.692C604.976 47.0093 604.388 47.168 603.716 47.168C603.165 47.168 602.68 47.0607 602.26 46.846C601.84 46.622 601.509 46.314 601.266 45.922V50.08H599.866ZM603.492 45.95C603.921 45.95 604.299 45.8473 604.626 45.642C604.962 45.4367 605.223 45.1473 605.41 44.774C605.606 44.4007 605.704 43.9667 605.704 43.472C605.704 42.9773 605.606 42.548 605.41 42.184C605.223 41.8107 604.962 41.5213 604.626 41.316C604.299 41.1013 603.921 40.994 603.492 40.994C603.053 40.994 602.666 41.1013 602.33 41.316C602.003 41.5213 601.747 41.8107 601.56 42.184C601.373 42.548 601.28 42.9773 601.28 43.472C601.28 43.9667 601.373 44.4007 601.56 44.774C601.747 45.1473 602.003 45.4367 602.33 45.642C602.666 45.8473 603.053 45.95 603.492 45.95Z" fill="#0B57D0"/>
<path d="M355.878 105.145C355.205 105.142 354.629 104.964 354.152 104.612C353.675 104.26 353.31 103.747 353.057 103.074C352.804 102.401 352.678 101.589 352.678 100.641C352.678 99.6946 352.804 98.8864 353.057 98.2159C353.313 97.5455 353.679 97.0341 354.156 96.6818C354.636 96.3295 355.21 96.1534 355.878 96.1534C356.545 96.1534 357.118 96.331 357.595 96.6861C358.072 97.0384 358.438 97.5497 358.69 98.2202C358.946 98.8878 359.074 99.6946 359.074 100.641C359.074 101.592 358.947 102.405 358.695 103.078C358.442 103.749 358.077 104.261 357.599 104.616C357.122 104.969 356.548 105.145 355.878 105.145ZM355.878 104.007C356.469 104.007 356.93 103.719 357.263 103.142C357.598 102.565 357.766 101.732 357.766 100.641C357.766 99.9162 357.689 99.304 357.536 98.804C357.385 98.3011 357.168 97.9205 356.884 97.6619C356.602 97.4006 356.267 97.2699 355.878 97.2699C355.29 97.2699 354.828 97.5597 354.493 98.1392C354.158 98.7187 353.989 99.5526 353.986 100.641C353.986 101.368 354.061 101.983 354.212 102.486C354.365 102.986 354.582 103.365 354.864 103.624C355.145 103.879 355.483 104.007 355.878 104.007Z" fill="#2772F5"/>
<path d="M523.151 96.2727V105H521.83V97.5938H521.778L519.69 98.9574V97.696L521.868 96.2727H523.151ZM525.751 105V96.2727H528.947C529.566 96.2727 530.079 96.375 530.485 96.5795C530.891 96.7812 531.195 97.0554 531.397 97.402C531.599 97.7457 531.7 98.1335 531.7 98.5653C531.7 98.929 531.633 99.2358 531.499 99.4858C531.366 99.733 531.187 99.9318 530.962 100.082C530.741 100.23 530.496 100.338 530.229 100.406V100.491C530.519 100.506 530.802 100.599 531.077 100.773C531.356 100.943 531.586 101.186 531.768 101.501C531.95 101.817 532.04 102.2 532.04 102.652C532.04 103.098 531.935 103.499 531.725 103.854C531.518 104.206 531.197 104.486 530.762 104.693C530.327 104.898 529.772 105 529.096 105H525.751ZM527.067 103.871H528.968C529.599 103.871 530.05 103.749 530.323 103.504C530.596 103.26 530.732 102.955 530.732 102.588C530.732 102.312 530.663 102.06 530.523 101.83C530.384 101.599 530.185 101.416 529.927 101.28C529.671 101.143 529.367 101.075 529.015 101.075H527.067V103.871ZM527.067 100.048H528.832C529.127 100.048 529.393 99.9915 529.629 99.8778C529.867 99.7642 530.056 99.6051 530.195 99.4006C530.337 99.1932 530.408 98.9489 530.408 98.6676C530.408 98.3068 530.282 98.0043 530.029 97.7599C529.776 97.5156 529.388 97.3935 528.866 97.3935H527.067V100.048Z" fill="#85B4FF"/>
<rect x="352" y="114" width="181" height="8" rx="4" fill="#D6E6FF"/>
<rect x="352" y="114" width="114.531" height="8" rx="4" fill="#2772F5"/>
<path d="M566.044 112.744C565.813 114.919 564.581 116.957 562.541 118.134C559.154 120.09 554.821 118.929 552.865 115.541L552.657 115.18M551.955 111.256C552.187 109.081 553.419 107.043 555.458 105.865C558.846 103.909 563.178 105.07 565.134 108.458L565.343 108.819M551.911 117.055L552.521 114.778L554.798 115.388M563.202 108.611L565.479 109.221L566.089 106.945M559 108.25V112L561.083 113.25" stroke="#2772F5" stroke-width="1.6" stroke-linecap="round" stroke-linejoin="round"/>
<path d="M582.371 106.818V117H580.731L575.933 110.065H575.849V117H574.004V106.818H575.655L580.447 113.759H580.537V106.818H582.371ZM587.773 117.149C587.027 117.149 586.381 116.985 585.834 116.657C585.287 116.329 584.863 115.87 584.561 115.28C584.263 114.69 584.114 114 584.114 113.212C584.114 112.423 584.263 111.732 584.561 111.138C584.863 110.545 585.287 110.085 585.834 109.756C586.381 109.428 587.027 109.264 587.773 109.264C588.518 109.264 589.165 109.428 589.712 109.756C590.258 110.085 590.681 110.545 590.979 111.138C591.281 111.732 591.432 112.423 591.432 113.212C591.432 114 591.281 114.69 590.979 115.28C590.681 115.87 590.258 116.329 589.712 116.657C589.165 116.985 588.518 117.149 587.773 117.149ZM587.783 115.707C588.187 115.707 588.525 115.596 588.797 115.374C589.069 115.149 589.271 114.847 589.403 114.469C589.539 114.092 589.607 113.671 589.607 113.207C589.607 112.739 589.539 112.317 589.403 111.939C589.271 111.558 589.069 111.254 588.797 111.029C588.525 110.804 588.187 110.691 587.783 110.691C587.368 110.691 587.024 110.804 586.748 111.029C586.477 111.254 586.273 111.558 586.137 111.939C586.004 112.317 585.938 112.739 585.938 113.207C585.938 113.671 586.004 114.092 586.137 114.469C586.273 114.847 586.477 115.149 586.748 115.374C587.024 115.596 587.368 115.707 587.783 115.707ZM599.661 109.364L596.941 117H594.952L592.233 109.364H594.152L595.907 115.036H595.986L597.746 109.364H599.661ZM608.78 106.818V117H606.936V108.613H606.876L604.494 110.134V108.444L607.025 106.818H608.78ZM615.269 117.194C614.45 117.194 613.747 116.987 613.161 116.572C612.577 116.155 612.128 115.553 611.813 114.768C611.502 113.979 611.346 113.029 611.346 111.919C611.349 110.809 611.507 109.864 611.818 109.085C612.133 108.303 612.582 107.706 613.166 107.295C613.752 106.884 614.453 106.679 615.269 106.679C616.084 106.679 616.785 106.884 617.372 107.295C617.958 107.706 618.407 108.303 618.719 109.085C619.034 109.867 619.191 110.812 619.191 111.919C619.191 113.033 619.034 113.984 618.719 114.773C618.407 115.558 617.958 116.158 617.372 116.572C616.788 116.987 616.087 117.194 615.269 117.194ZM615.269 115.638C615.905 115.638 616.407 115.325 616.775 114.698C617.146 114.068 617.332 113.142 617.332 111.919C617.332 111.11 617.247 110.431 617.078 109.881C616.909 109.33 616.671 108.916 616.362 108.638C616.054 108.356 615.69 108.215 615.269 108.215C614.636 108.215 614.135 108.53 613.767 109.16C613.399 109.786 613.214 110.706 613.21 111.919C613.207 112.731 613.288 113.414 613.454 113.967C613.623 114.521 613.862 114.938 614.17 115.22C614.478 115.499 614.844 115.638 615.269 115.638Z" fill="#0B57D0"/>
<rect x="660.5" y="0.5" width="311" height="147" rx="23.5" fill="white"/>
<rect x="660.5" y="0.5" width="311" height="147" rx="23.5" stroke="#EDEDF0"/>
<path d="M685.119 39V28.8182H688.748C689.537 28.8182 690.191 28.9541 690.712 29.2259C691.235 29.4976 691.626 29.8738 691.885 30.3544C692.143 30.8317 692.273 31.3835 692.273 32.0099C692.273 32.633 692.142 33.1816 691.88 33.6555C691.621 34.1262 691.23 34.4924 690.707 34.7543C690.186 35.0161 689.532 35.147 688.743 35.147H685.994V33.8246H688.604C689.101 33.8246 689.505 33.7533 689.817 33.6108C690.132 33.4683 690.362 33.2611 690.508 32.9893C690.654 32.7176 690.727 32.3911 690.727 32.0099C690.727 31.6255 690.652 31.2924 690.503 31.0107C690.357 30.7289 690.127 30.5135 689.812 30.3643C689.5 30.2119 689.091 30.1357 688.584 30.1357H686.655V39H685.119ZM690.145 34.4062L692.661 39H690.911L688.445 34.4062H690.145ZM696.385 39.169C695.901 39.169 695.464 39.0795 695.073 38.9006C694.681 38.7183 694.372 38.4548 694.143 38.1101C693.917 37.7654 693.805 37.3428 693.805 36.8423C693.805 36.4115 693.888 36.0568 694.053 35.7784C694.219 35.5 694.443 35.2796 694.725 35.1172C695.006 34.9548 695.321 34.8321 695.669 34.7493C696.017 34.6664 696.372 34.6035 696.733 34.5604C697.19 34.5073 697.562 34.4643 697.847 34.4311C698.132 34.3946 698.339 34.3366 698.468 34.2571C698.597 34.1776 698.662 34.0483 698.662 33.8693V33.8345C698.662 33.4003 698.539 33.0639 698.294 32.8253C698.052 32.5866 697.691 32.4673 697.21 32.4673C696.71 32.4673 696.315 32.5784 696.027 32.8004C695.742 33.0192 695.545 33.2628 695.435 33.5312L694.038 33.2131C694.204 32.7491 694.446 32.3745 694.764 32.0895C695.086 31.8011 695.455 31.5923 695.873 31.4631C696.291 31.3305 696.73 31.2642 697.19 31.2642C697.495 31.2642 697.819 31.3007 698.16 31.3736C698.505 31.4432 698.826 31.5724 699.124 31.7614C699.426 31.9503 699.673 32.2204 699.865 32.5717C700.057 32.9197 700.153 33.3722 700.153 33.929V39H698.702V37.956H698.642C698.546 38.1482 698.402 38.3371 698.21 38.5227C698.017 38.7083 697.77 38.8625 697.469 38.9851C697.167 39.1077 696.806 39.169 696.385 39.169ZM696.708 37.9759C697.119 37.9759 697.47 37.8946 697.762 37.7322C698.057 37.5698 698.281 37.3577 698.433 37.0959C698.589 36.8307 698.667 36.5473 698.667 36.2457V35.2614C698.614 35.3144 698.511 35.3641 698.359 35.4105C698.21 35.4536 698.039 35.4917 697.847 35.5249C697.654 35.5547 697.467 35.5829 697.285 35.6094C697.103 35.6326 696.95 35.6525 696.828 35.669C696.539 35.7055 696.276 35.7668 696.037 35.853C695.802 35.9392 695.613 36.0634 695.47 36.2259C695.331 36.3849 695.261 36.5971 695.261 36.8622C695.261 37.2301 695.397 37.5085 695.669 37.6974C695.941 37.883 696.287 37.9759 696.708 37.9759ZM705.838 31.3636V32.5568H701.667V31.3636H705.838ZM702.786 29.5341H704.272V36.7578C704.272 37.0462 704.315 37.2633 704.401 37.4091C704.487 37.5516 704.598 37.6494 704.734 37.7024C704.874 37.7521 705.024 37.777 705.187 37.777C705.306 37.777 705.411 37.7687 705.5 37.7521C705.589 37.7356 705.659 37.7223 705.709 37.7124L705.977 38.9403C705.891 38.9735 705.768 39.0066 705.609 39.0398C705.45 39.0762 705.251 39.0961 705.013 39.0994C704.622 39.1061 704.257 39.0365 703.919 38.8906C703.581 38.7448 703.308 38.5194 703.099 38.2145C702.89 37.9096 702.786 37.5268 702.786 37.0661V29.5341ZM710.832 39.1541C710.079 39.1541 709.431 38.9934 708.888 38.6719C708.347 38.3471 707.93 37.8913 707.635 37.3047C707.343 36.7147 707.197 36.0237 707.197 35.2315C707.197 34.4493 707.343 33.7599 707.635 33.1634C707.93 32.5668 708.341 32.1011 708.868 31.7663C709.398 31.4316 710.018 31.2642 710.727 31.2642C711.158 31.2642 711.576 31.3355 711.98 31.478C712.384 31.6205 712.747 31.8442 713.069 32.1491C713.39 32.4541 713.644 32.8501 713.829 33.3374C714.015 33.8213 714.108 34.4096 714.108 35.1023V35.6293H708.038V34.5156H712.651C712.651 34.1245 712.572 33.7782 712.413 33.4766C712.253 33.1716 712.03 32.9313 711.741 32.7557C711.456 32.58 711.122 32.4922 710.737 32.4922C710.32 32.4922 709.955 32.5949 709.643 32.8004C709.335 33.0026 709.096 33.2678 708.927 33.5959C708.762 33.9207 708.679 34.2737 708.679 34.6548V35.5249C708.679 36.0353 708.768 36.4695 708.947 36.8274C709.13 37.1854 709.383 37.4588 709.708 37.6477C710.033 37.8333 710.412 37.9261 710.846 37.9261C711.128 37.9261 711.385 37.8864 711.617 37.8068C711.849 37.724 712.05 37.6013 712.219 37.4389C712.388 37.2765 712.517 37.076 712.606 36.8374L714.013 37.0909C713.901 37.5052 713.699 37.8681 713.407 38.1797C713.119 38.4879 712.756 38.7282 712.318 38.9006C711.884 39.0696 711.388 39.1541 710.832 39.1541ZM721.229 28.8182V39H719.742V28.8182H721.229ZM723.369 39V31.3636H724.855V39H723.369ZM724.119 30.1854C723.861 30.1854 723.639 30.0992 723.453 29.9268C723.271 29.7512 723.18 29.5424 723.18 29.3004C723.18 29.0552 723.271 28.8464 723.453 28.674C723.639 28.4983 723.861 28.4105 724.119 28.4105C724.378 28.4105 724.598 28.4983 724.781 28.674C724.966 28.8464 725.059 29.0552 725.059 29.3004C725.059 29.5424 724.966 29.7512 724.781 29.9268C724.598 30.0992 724.378 30.1854 724.119 30.1854ZM726.995 39V31.3636H728.422V32.6065H728.516C728.675 32.1856 728.935 31.8575 729.297 31.6222C729.658 31.3835 730.091 31.2642 730.594 31.2642C731.105 31.2642 731.532 31.3835 731.877 31.6222C732.225 31.8608 732.482 32.1889 732.648 32.6065H732.727C732.909 32.1989 733.199 31.8741 733.597 31.6321C733.995 31.3868 734.469 31.2642 735.019 31.2642C735.712 31.2642 736.277 31.4813 736.714 31.9155C737.155 32.3497 737.376 33.0043 737.376 33.8793V39H735.889V34.0185C735.889 33.5014 735.748 33.1269 735.467 32.8949C735.185 32.6629 734.848 32.5469 734.457 32.5469C733.973 32.5469 733.597 32.696 733.329 32.9943C733.06 33.2893 732.926 33.6688 732.926 34.1328V39H731.444V33.924C731.444 33.5097 731.315 33.1766 731.057 32.9247C730.798 32.6728 730.462 32.5469 730.047 32.5469C729.766 32.5469 729.506 32.6214 729.267 32.7706C729.032 32.9164 728.841 33.1203 728.695 33.3821C728.553 33.6439 728.481 33.9472 728.481 34.2919V39H726.995ZM739.508 39V31.3636H740.994V39H739.508ZM740.259 30.1854C740 30.1854 739.778 30.0992 739.592 29.9268C739.41 29.7512 739.319 29.5424 739.319 29.3004C739.319 29.0552 739.41 28.8464 739.592 28.674C739.778 28.4983 740 28.4105 740.259 28.4105C740.517 28.4105 740.738 28.4983 740.92 28.674C741.105 28.8464 741.198 29.0552 741.198 29.3004C741.198 29.5424 741.105 29.7512 740.92 29.9268C740.738 30.0992 740.517 30.1854 740.259 30.1854ZM746.699 31.3636V32.5568H742.528V31.3636H746.699ZM743.646 29.5341H745.133V36.7578C745.133 37.0462 745.176 37.2633 745.262 37.4091C745.348 37.5516 745.459 37.6494 745.595 37.7024C745.734 37.7521 745.885 37.777 746.048 37.777C746.167 37.777 746.271 37.7687 746.361 37.7521C746.45 37.7356 746.52 37.7223 746.57 37.7124L746.838 38.9403C746.752 38.9735 746.629 39.0066 746.47 39.0398C746.311 39.0762 746.112 39.0961 745.874 39.0994C745.483 39.1061 745.118 39.0365 744.78 38.8906C744.442 38.7448 744.168 38.5194 743.96 38.2145C743.751 37.9096 743.646 37.5268 743.646 37.0661V29.5341Z" fill="#AEAEB2"/>
<path d="M691.756 69.2386C690.489 69.2386 689.364 69.0256 688.381 68.5994C687.403 68.1733 686.636 67.5909 686.08 66.8523C685.528 66.108 685.256 65.2642 685.261 64.321C685.256 63.5881 685.415 62.9148 685.739 62.3011C686.063 61.6875 686.5 61.1761 687.051 60.767C687.608 60.3523 688.227 60.0881 688.909 59.9744V59.8551C688.011 59.6562 687.284 59.1989 686.727 58.483C686.176 57.7614 685.903 56.929 685.909 55.9858C685.903 55.0881 686.153 54.2869 686.659 53.5824C687.165 52.8778 687.858 52.3239 688.739 51.9205C689.619 51.5114 690.625 51.3068 691.756 51.3068C692.875 51.3068 693.872 51.5114 694.747 51.9205C695.628 52.3239 696.321 52.8778 696.827 53.5824C697.338 54.2869 697.594 55.0881 697.594 55.9858C697.594 56.929 697.312 57.7614 696.75 58.483C696.193 59.1989 695.474 59.6562 694.594 59.8551V59.9744C695.276 60.0881 695.889 60.3523 696.435 60.767C696.986 61.1761 697.423 61.6875 697.747 62.3011C698.077 62.9148 698.241 63.5881 698.241 64.321C698.241 65.2642 697.963 66.108 697.406 66.8523C696.849 67.5909 696.082 68.1733 695.105 68.5994C694.134 69.0256 693.017 69.2386 691.756 69.2386ZM691.756 66.8011C692.409 66.8011 692.977 66.6903 693.46 66.4688C693.943 66.2415 694.318 65.9233 694.585 65.5142C694.852 65.1051 694.989 64.6335 694.994 64.0994C694.989 63.5426 694.844 63.0511 694.56 62.625C694.281 62.1932 693.898 61.8551 693.409 61.6108C692.926 61.3665 692.375 61.2443 691.756 61.2443C691.131 61.2443 690.574 61.3665 690.085 61.6108C689.597 61.8551 689.21 62.1932 688.926 62.625C688.648 63.0511 688.511 63.5426 688.517 64.0994C688.511 64.6335 688.642 65.1051 688.909 65.5142C689.176 65.9176 689.551 66.233 690.034 66.4602C690.523 66.6875 691.097 66.8011 691.756 66.8011ZM691.756 58.8494C692.29 58.8494 692.761 58.7415 693.17 58.5256C693.585 58.3097 693.912 58.0085 694.151 57.6222C694.389 57.2358 694.511 56.7898 694.517 56.2841C694.511 55.7841 694.392 55.3466 694.159 54.9716C693.926 54.5909 693.602 54.2983 693.188 54.0938C692.773 53.8835 692.295 53.7784 691.756 53.7784C691.205 53.7784 690.719 53.8835 690.298 54.0938C689.884 54.2983 689.56 54.5909 689.327 54.9716C689.099 55.3466 688.989 55.7841 688.994 56.2841C688.989 56.7898 689.102 57.2358 689.335 57.6222C689.574 58.0028 689.901 58.304 690.315 58.5256C690.736 58.7415 691.216 58.8494 691.756 58.8494ZM707.495 69.3324C706.092 69.3324 704.887 68.9773 703.881 68.267C702.881 67.5511 702.112 66.5199 701.572 65.1733C701.038 63.821 700.771 62.1932 700.771 60.2898C700.776 58.3864 701.046 56.767 701.58 55.4318C702.12 54.0909 702.89 53.0682 703.89 52.3636C704.896 51.6591 706.097 51.3068 707.495 51.3068C708.893 51.3068 710.094 51.6591 711.1 52.3636C712.106 53.0682 712.876 54.0909 713.41 55.4318C713.95 56.7727 714.219 58.392 714.219 60.2898C714.219 62.1989 713.95 63.8295 713.41 65.1818C712.876 66.5284 712.106 67.5568 711.1 68.267C710.1 68.9773 708.898 69.3324 707.495 69.3324ZM707.495 66.6648C708.586 66.6648 709.447 66.1278 710.077 65.054C710.714 63.9744 711.032 62.3864 711.032 60.2898C711.032 58.9034 710.887 57.7386 710.597 56.7955C710.308 55.8523 709.898 55.142 709.37 54.6648C708.842 54.1818 708.217 53.9403 707.495 53.9403C706.41 53.9403 705.552 54.4801 704.921 55.5597C704.29 56.6335 703.972 58.2102 703.967 60.2898C703.961 61.6818 704.1 62.8523 704.384 63.8011C704.674 64.75 705.083 65.4659 705.612 65.9489C706.14 66.4261 706.768 66.6648 707.495 66.6648ZM723.503 69.3324C722.099 69.3324 720.895 68.9773 719.889 68.267C718.889 67.5511 718.119 66.5199 717.58 65.1733C717.045 63.821 716.778 62.1932 716.778 60.2898C716.784 58.3864 717.054 56.767 717.588 55.4318C718.128 54.0909 718.898 53.0682 719.898 52.3636C720.903 51.6591 722.105 51.3068 723.503 51.3068C724.901 51.3068 726.102 51.6591 727.108 52.3636C728.114 53.0682 728.884 54.0909 729.418 55.4318C729.957 56.7727 730.227 58.392 730.227 60.2898C730.227 62.1989 729.957 63.8295 729.418 65.1818C728.884 66.5284 728.114 67.5568 727.108 68.267C726.108 68.9773 724.906 69.3324 723.503 69.3324ZM723.503 66.6648C724.594 66.6648 725.455 66.1278 726.085 65.054C726.722 63.9744 727.04 62.3864 727.04 60.2898C727.04 58.9034 726.895 57.7386 726.605 56.7955C726.315 55.8523 725.906 55.142 725.378 54.6648C724.849 54.1818 724.224 53.9403 723.503 53.9403C722.418 53.9403 721.56 54.4801 720.929 55.5597C720.298 56.6335 719.98 58.2102 719.974 60.2898C719.969 61.6818 720.108 62.8523 720.392 63.8011C720.682 64.75 721.091 65.4659 721.619 65.9489C722.148 66.4261 722.776 66.6648 723.503 66.6648ZM738.609 69V57.3636H742.972C743.866 57.3636 744.616 57.5189 745.222 57.8295C745.832 58.1402 746.292 58.5758 746.603 59.1364C746.917 59.6932 747.075 60.3428 747.075 61.0852C747.075 61.8314 746.915 62.4792 746.597 63.0284C746.283 63.5739 745.819 63.9962 745.205 64.2955C744.592 64.5909 743.838 64.7386 742.944 64.7386H739.836V62.9886H742.66C743.183 62.9886 743.611 62.9167 743.944 62.7727C744.277 62.625 744.523 62.411 744.683 62.1307C744.845 61.8466 744.927 61.4981 744.927 61.0852C744.927 60.6723 744.845 60.3201 744.683 60.0284C744.52 59.733 744.272 59.5095 743.938 59.358C743.605 59.2027 743.175 59.125 742.648 59.125H740.717V69H738.609ZM744.62 63.7273L747.501 69H745.148L742.319 63.7273H744.62ZM749.015 69V57.3636H753.379C754.272 57.3636 755.022 57.5303 755.629 57.8636C756.238 58.197 756.699 58.6553 757.009 59.2386C757.324 59.8182 757.481 60.4773 757.481 61.2159C757.481 61.9621 757.324 62.625 757.009 63.2045C756.695 63.7841 756.231 64.2405 755.617 64.5739C755.004 64.9034 754.248 65.0682 753.35 65.0682H750.458V63.3352H753.066C753.589 63.3352 754.017 63.2443 754.35 63.0625C754.683 62.8807 754.93 62.6307 755.089 62.3125C755.252 61.9943 755.333 61.6288 755.333 61.2159C755.333 60.803 755.252 60.4394 755.089 60.125C754.93 59.8106 754.682 59.5663 754.344 59.392C754.011 59.214 753.581 59.125 753.055 59.125H751.123V69H749.015ZM765.636 60.5625C765.583 60.0663 765.359 59.6799 764.965 59.4034C764.575 59.1269 764.067 58.9886 763.442 58.9886C763.003 58.9886 762.626 59.0549 762.312 59.1875C761.997 59.3201 761.757 59.5 761.59 59.7273C761.424 59.9545 761.338 60.214 761.335 60.5057C761.335 60.7481 761.389 60.9583 761.499 61.1364C761.613 61.3144 761.766 61.4659 761.96 61.5909C762.153 61.7121 762.367 61.8144 762.602 61.8977C762.836 61.9811 763.073 62.0511 763.312 62.108L764.403 62.3807C764.842 62.483 765.264 62.6212 765.67 62.7955C766.079 62.9697 766.444 63.1894 766.766 63.4545C767.092 63.7197 767.35 64.0398 767.539 64.4148C767.728 64.7898 767.823 65.2292 767.823 65.733C767.823 66.4148 767.649 67.0152 767.3 67.5341C766.952 68.0492 766.448 68.4527 765.789 68.7443C765.134 69.0322 764.34 69.1761 763.408 69.1761C762.503 69.1761 761.717 69.036 761.05 68.7557C760.388 68.4754 759.869 68.0663 759.494 67.5284C759.122 66.9905 758.922 66.3352 758.891 65.5625H760.965C760.996 65.9678 761.121 66.3049 761.34 66.5739C761.56 66.8428 761.846 67.0436 762.198 67.1761C762.554 67.3087 762.952 67.375 763.391 67.375C763.85 67.375 764.251 67.3068 764.596 67.1705C764.944 67.0303 765.217 66.8371 765.414 66.5909C765.611 66.3409 765.711 66.0492 765.715 65.7159C765.711 65.4129 765.622 65.1629 765.448 64.9659C765.274 64.7652 765.03 64.5985 764.715 64.4659C764.405 64.3295 764.041 64.2083 763.624 64.1023L762.3 63.7614C761.342 63.5152 760.585 63.142 760.028 62.642C759.475 62.1383 759.198 61.4697 759.198 60.6364C759.198 59.9508 759.384 59.3504 759.755 58.8352C760.13 58.3201 760.639 57.9205 761.283 57.6364C761.927 57.3485 762.656 57.2045 763.471 57.2045C764.297 57.2045 765.02 57.3485 765.641 57.6364C766.266 57.9205 766.757 58.3163 767.113 58.8239C767.469 59.3277 767.653 59.9072 767.664 60.5625H765.636Z" fill="#1E1E1F"/>
<rect x="684" y="92" width="8" height="32" rx="4" fill="#2772F5"/>
<g clip-path="url(#clip0_295_2267)">
<rect x="696" y="92" width="8" height="32" rx="4" fill="#C2DAFF"/>
<rect x="696" y="92" width="8" height="32" rx="4" fill="#2772F5"/>
</g>
<rect x="708" y="92" width="8" height="32" rx="4" fill="#2772F5"/>
<rect x="720" y="92" width="8" height="32" rx="4" fill="#2772F5"/>
<rect x="732" y="92" width="8" height="32" rx="4" fill="#2772F5"/>
<rect x="744" y="92" width="8" height="32" rx="4" fill="#2772F5"/>
<rect x="756" y="92" width="8" height="32" rx="4" fill="#2772F5"/>
<rect x="768" y="92" width="8" height="32" rx="4" fill="#2772F5"/>
<rect x="780" y="92" width="8" height="32" rx="4" fill="#2772F5"/>
<rect x="792" y="92" width="8" height="32" rx="4" fill="#2772F5"/>
<rect x="804" y="92" width="8" height="32" rx="4" fill="#2772F5"/>
<rect x="816" y="92" width="8" height="32" rx="4" fill="#2772F5"/>
<rect x="828" y="92" width="8" height="32" rx="4" fill="#2772F5"/>
<rect x="840" y="92" width="8" height="32" rx="4" fill="#2772F5"/>
<rect x="852" y="92" width="8" height="32" rx="4" fill="#2772F5"/>
<rect x="864" y="92" width="8" height="32" rx="4" fill="#2772F5"/>
<rect x="876" y="92" width="8" height="32" rx="4" fill="#2772F5"/>
<rect x="888" y="92" width="8" height="32" rx="4" fill="#2772F5"/>
<rect x="900" y="92" width="8" height="32" rx="4" fill="#2772F5"/>
<rect x="912" y="92" width="8" height="32" rx="4" fill="#2772F5"/>
<rect x="924" y="92" width="8" height="32" rx="4" fill="#2772F5"/>
<rect x="936" y="92" width="8" height="32" rx="4" fill="#2772F5"/>
<defs>
<clipPath id="clip0_295_2267">
<rect x="696" y="92" width="8" height="32" rx="4" fill="white"/>
</clipPath>
</defs>
</svg>
