<svg width="972" height="148" viewBox="0 0 972 148" fill="none" xmlns="http://www.w3.org/2000/svg">
<rect x="0.5" y="0.5" width="311" height="145" rx="23.5" fill="white"/>
<rect x="0.5" y="0.5" width="311" height="145" rx="23.5" stroke="#EDEDF0"/>
<path d="M25.1186 42V31.8182H28.7479C29.54 31.8182 30.1963 31.9624 30.7166 32.2507C31.237 32.5391 31.6264 32.9335 31.8849 33.4339C32.1435 33.9311 32.2727 34.4912 32.2727 35.1143C32.2727 35.7408 32.1418 36.3042 31.88 36.8047C31.6214 37.3018 31.2304 37.6963 30.7067 37.9879C30.1863 38.2763 29.5317 38.4205 28.7429 38.4205H26.2472V37.1179H28.6037C29.1042 37.1179 29.5102 37.0317 29.8217 36.8594C30.1333 36.6837 30.362 36.4451 30.5078 36.1435C30.6536 35.8419 30.7266 35.4988 30.7266 35.1143C30.7266 34.7299 30.6536 34.3885 30.5078 34.0902C30.362 33.7919 30.1316 33.5582 29.8168 33.3892C29.5052 33.2202 29.0942 33.1357 28.5838 33.1357H26.6548V42H25.1186ZM35.5809 31.8182V42H34.0944V31.8182H35.5809ZM39.943 42.169C39.4591 42.169 39.0216 42.0795 38.6305 41.9006C38.2394 41.7183 37.9295 41.4548 37.7008 41.1101C37.4754 40.7654 37.3627 40.3428 37.3627 39.8423C37.3627 39.4115 37.4456 39.0568 37.6113 38.7784C37.777 38.5 38.0008 38.2796 38.2825 38.1172C38.5642 37.9548 38.8791 37.8321 39.2271 37.7493C39.5751 37.6664 39.9297 37.6035 40.291 37.5604C40.7484 37.5073 41.1196 37.4643 41.4046 37.4311C41.6897 37.3946 41.8968 37.3366 42.0261 37.2571C42.1554 37.1776 42.22 37.0483 42.22 36.8693V36.8345C42.22 36.4003 42.0974 36.0639 41.8521 35.8253C41.6101 35.5866 41.2489 35.4673 40.7683 35.4673C40.2678 35.4673 39.8734 35.5784 39.585 35.8004C39.3 36.0192 39.1028 36.2628 38.9934 36.5312L37.5964 36.2131C37.7621 35.7491 38.0041 35.3745 38.3223 35.0895C38.6438 34.8011 39.0133 34.5923 39.4309 34.4631C39.8485 34.3305 40.2877 34.2642 40.7484 34.2642C41.0533 34.2642 41.3765 34.3007 41.7179 34.3736C42.0626 34.4432 42.384 34.5724 42.6823 34.7614C42.984 34.9503 43.2309 35.2204 43.4231 35.5717C43.6153 35.9197 43.7115 36.3722 43.7115 36.929V42H42.2598V40.956H42.2001C42.104 41.1482 41.9598 41.3371 41.7676 41.5227C41.5753 41.7083 41.3284 41.8625 41.0268 41.9851C40.7252 42.1077 40.3639 42.169 39.943 42.169ZM40.2662 40.9759C40.6771 40.9759 41.0285 40.8946 41.3201 40.7322C41.6151 40.5698 41.8388 40.3577 41.9913 40.0959C42.1471 39.8307 42.225 39.5473 42.225 39.2457V38.2614C42.1719 38.3144 42.0692 38.3641 41.9167 38.4105C41.7676 38.4536 41.5969 38.4917 41.4046 38.5249C41.2124 38.5547 41.0251 38.5829 40.8429 38.6094C40.6606 38.6326 40.5081 38.6525 40.3855 38.669C40.0971 38.7055 39.8336 38.7668 39.595 38.853C39.3597 38.9392 39.1707 39.0634 39.0282 39.2259C38.889 39.3849 38.8194 39.5971 38.8194 39.8622C38.8194 40.2301 38.9553 40.5085 39.2271 40.6974C39.4989 40.883 39.8452 40.9759 40.2662 40.9759ZM47.3179 37.4659V42H45.8314V34.3636H47.2582V35.6065H47.3527C47.5284 35.2022 47.8035 34.8774 48.178 34.6321C48.5558 34.3868 49.0314 34.2642 49.6048 34.2642C50.1252 34.2642 50.5809 34.3736 50.972 34.5923C51.3631 34.8078 51.6664 35.1293 51.8818 35.5568C52.0973 35.9844 52.205 36.513 52.205 37.1428V42H50.7185V37.3217C50.7185 36.7682 50.5743 36.3357 50.2859 36.0241C49.9976 35.7093 49.6015 35.5518 49.0977 35.5518C48.753 35.5518 48.4465 35.6264 48.178 35.7756C47.9128 35.9247 47.7024 36.1435 47.5466 36.4318C47.3941 36.7169 47.3179 37.0616 47.3179 37.4659Z" fill="#AEAEB2"/>
<path d="M34.9858 59.5653C34.9176 58.8778 34.625 58.3437 34.108 57.9631C33.5909 57.5824 32.8892 57.392 32.0028 57.392C31.4006 57.392 30.892 57.4773 30.4773 57.6477C30.0625 57.8125 29.7443 58.0426 29.5227 58.3381C29.3068 58.6335 29.1989 58.9688 29.1989 59.3438C29.1875 59.6562 29.2528 59.929 29.3949 60.1619C29.5426 60.3949 29.7443 60.5966 30 60.767C30.2557 60.9318 30.5511 61.0767 30.8864 61.2017C31.2216 61.321 31.5795 61.4233 31.9602 61.5085L33.5284 61.8835C34.2898 62.054 34.9886 62.2812 35.625 62.5653C36.2614 62.8494 36.8125 63.1989 37.2784 63.6136C37.7443 64.0284 38.1051 64.517 38.3608 65.0795C38.6222 65.642 38.7557 66.2869 38.7614 67.0142C38.7557 68.0824 38.483 69.0085 37.9432 69.7926C37.4091 70.571 36.6364 71.1761 35.625 71.608C34.6193 72.0341 33.4063 72.2472 31.9858 72.2472C30.5767 72.2472 29.3494 72.0312 28.304 71.5994C27.2642 71.1676 26.4517 70.5284 25.8665 69.6818C25.2869 68.8295 24.983 67.7756 24.9545 66.5199H28.5256C28.5653 67.1051 28.733 67.5937 29.0284 67.9858C29.3295 68.3722 29.7301 68.6648 30.2301 68.8636C30.7358 69.0568 31.3068 69.1534 31.9432 69.1534C32.5682 69.1534 33.1108 69.0625 33.571 68.8807C34.0369 68.6989 34.3977 68.446 34.6534 68.1222C34.9091 67.7983 35.0369 67.4261 35.0369 67.0057C35.0369 66.6136 34.9205 66.2841 34.6875 66.017C34.4602 65.75 34.125 65.5227 33.6818 65.3352C33.2443 65.1477 32.7074 64.9773 32.071 64.8239L30.1705 64.3466C28.6989 63.9886 27.5369 63.429 26.6847 62.6676C25.8324 61.9062 25.4091 60.8807 25.4148 59.5909C25.4091 58.5341 25.6903 57.6108 26.2585 56.821C26.8324 56.0312 27.6193 55.4148 28.6193 54.9716C29.6193 54.5284 30.7557 54.3068 32.0284 54.3068C33.3239 54.3068 34.4545 54.5284 35.4205 54.9716C36.392 55.4148 37.1477 56.0312 37.6875 56.821C38.2273 57.6108 38.5057 58.5256 38.5227 59.5653H34.9858ZM47.0902 72.2557C45.7493 72.2557 44.5959 71.9716 43.63 71.4034C42.6697 70.8295 41.9311 70.0341 41.4141 69.017C40.9027 68 40.647 66.8295 40.647 65.5057C40.647 64.1648 40.9055 62.9886 41.4226 61.9773C41.9453 60.9602 42.6868 60.1676 43.647 59.5994C44.6072 59.0256 45.7493 58.7386 47.0732 58.7386C48.2152 58.7386 49.2152 58.946 50.0732 59.3608C50.9311 59.7756 51.6101 60.358 52.1101 61.108C52.6101 61.858 52.8857 62.7386 52.9368 63.75H49.5107C49.4141 63.0966 49.1584 62.571 48.7436 62.1733C48.3345 61.7699 47.7976 61.5682 47.1328 61.5682C46.5703 61.5682 46.0788 61.7216 45.6584 62.0284C45.2436 62.3295 44.9197 62.7699 44.6868 63.3494C44.4538 63.929 44.3374 64.6307 44.3374 65.4545C44.3374 66.2898 44.451 67 44.6783 67.5852C44.9112 68.1705 45.2379 68.6165 45.6584 68.9233C46.0788 69.2301 46.5703 69.3835 47.1328 69.3835C47.5476 69.3835 47.9197 69.2983 48.2493 69.1278C48.5845 68.9574 48.8601 68.7102 49.076 68.3864C49.2976 68.0568 49.4425 67.6619 49.5107 67.2017H52.9368C52.88 68.2017 52.6072 69.0824 52.1186 69.8438C51.6357 70.5994 50.968 71.1903 50.1158 71.6165C49.2635 72.0426 48.255 72.2557 47.0902 72.2557ZM58.9943 72.2472C58.1591 72.2472 57.4148 72.1023 56.7614 71.8125C56.108 71.517 55.5909 71.0824 55.2102 70.5085C54.8352 69.929 54.6477 69.2074 54.6477 68.3438C54.6477 67.6165 54.7813 67.0057 55.0483 66.5114C55.3153 66.017 55.679 65.6193 56.1392 65.3182C56.5994 65.017 57.1222 64.7898 57.7074 64.6364C58.2983 64.483 58.9176 64.375 59.5653 64.3125C60.3267 64.233 60.9403 64.1591 61.4062 64.0909C61.8722 64.017 62.2102 63.9091 62.4205 63.767C62.6307 63.625 62.7358 63.4148 62.7358 63.1364V63.0852C62.7358 62.5455 62.5653 62.1278 62.2244 61.8324C61.8892 61.5369 61.4119 61.3892 60.7926 61.3892C60.1392 61.3892 59.6193 61.5341 59.233 61.8239C58.8466 62.108 58.5909 62.4659 58.4659 62.8977L55.108 62.625C55.2784 61.8295 55.6136 61.142 56.1136 60.5625C56.6136 59.9773 57.2585 59.5284 58.0483 59.2159C58.8438 58.8977 59.7642 58.7386 60.8097 58.7386C61.5369 58.7386 62.233 58.8239 62.8977 58.9943C63.5682 59.1648 64.1619 59.429 64.679 59.7869C65.2017 60.1449 65.6136 60.6051 65.9148 61.1676C66.2159 61.7244 66.3665 62.392 66.3665 63.1705V72H62.9233V70.1847H62.821C62.6108 70.5938 62.3295 70.9545 61.9773 71.267C61.625 71.5739 61.2017 71.8153 60.7074 71.9915C60.2131 72.1619 59.642 72.2472 58.9943 72.2472ZM60.0341 69.7415C60.5682 69.7415 61.0398 69.6364 61.4489 69.4261C61.858 69.2102 62.179 68.9205 62.4119 68.5568C62.6449 68.1932 62.7614 67.7812 62.7614 67.321V65.9318C62.6477 66.0057 62.4915 66.0739 62.2926 66.1364C62.0994 66.1932 61.8807 66.2472 61.6364 66.2983C61.392 66.3437 61.1477 66.3864 60.9034 66.4261C60.6591 66.4602 60.4375 66.4915 60.2386 66.5199C59.8125 66.5824 59.4403 66.6818 59.1222 66.8182C58.804 66.9545 58.5568 67.1392 58.3807 67.3722C58.2045 67.5994 58.1165 67.8835 58.1165 68.2244C58.1165 68.7188 58.2955 69.0966 58.6534 69.358C59.017 69.6136 59.4773 69.7415 60.0341 69.7415ZM72.8139 54.5455V72H69.1832V54.5455H72.8139ZM81.6882 72.2557C80.3416 72.2557 79.1825 71.983 78.2109 71.4375C77.245 70.8864 76.5007 70.108 75.978 69.1023C75.4553 68.0909 75.1939 66.8949 75.1939 65.5142C75.1939 64.1676 75.4553 62.9858 75.978 61.9688C76.5007 60.9517 77.2365 60.1591 78.1854 59.5909C79.1399 59.0227 80.2592 58.7386 81.5433 58.7386C82.407 58.7386 83.2109 58.8778 83.9553 59.1562C84.7053 59.429 85.3587 59.8409 85.9155 60.392C86.478 60.9432 86.9155 61.6364 87.228 62.4716C87.5405 63.3011 87.6967 64.2727 87.6967 65.3864V66.3835H76.6428V64.1335H84.2791C84.2791 63.6108 84.1655 63.1477 83.9382 62.7443C83.7109 62.3409 83.3956 62.0256 82.9922 61.7983C82.5945 61.5653 82.1314 61.4489 81.603 61.4489C81.0518 61.4489 80.5632 61.5767 80.1371 61.8324C79.7166 62.0824 79.3871 62.4205 79.1484 62.8466C78.9098 63.267 78.7876 63.7358 78.782 64.2528V66.392C78.782 67.0398 78.9013 67.5994 79.1399 68.071C79.3842 68.5426 79.728 68.9062 80.1712 69.1619C80.6143 69.4176 81.1399 69.5455 81.7479 69.5455C82.1513 69.5455 82.5206 69.4886 82.8558 69.375C83.1911 69.2614 83.478 69.0909 83.7166 68.8636C83.9553 68.6364 84.1371 68.358 84.2621 68.0284L87.62 68.25C87.4496 69.0568 87.1001 69.7614 86.5717 70.3636C86.049 70.9602 85.3729 71.4261 84.5433 71.7614C83.7195 72.0909 82.7678 72.2557 81.6882 72.2557Z" fill="#1E1E1F"/>
<rect x="24" y="95" width="70" height="24" rx="12" fill="#EDEEF0"/>
<path d="M33.644 111L36.776 103.632H32.348V102.6H38.012V103.476L34.904 111H33.644ZM42.5164 111.144C41.7884 111.144 41.1604 110.964 40.6324 110.604C40.1124 110.236 39.7124 109.728 39.4324 109.08C39.1524 108.424 39.0124 107.664 39.0124 106.8C39.0124 105.936 39.1524 105.18 39.4324 104.532C39.7124 103.876 40.1124 103.368 40.6324 103.008C41.1604 102.64 41.7884 102.456 42.5164 102.456C43.2524 102.456 43.8764 102.64 44.3884 103.008C44.9084 103.368 45.3084 103.876 45.5884 104.532C45.8764 105.18 46.0204 105.936 46.0204 106.8C46.0204 107.664 45.8764 108.424 45.5884 109.08C45.3084 109.728 44.9084 110.236 44.3884 110.604C43.8764 110.964 43.2524 111.144 42.5164 111.144ZM42.5164 110.076C42.9564 110.076 43.3444 109.944 43.6804 109.68C44.0244 109.416 44.2924 109.04 44.4844 108.552C44.6844 108.064 44.7844 107.48 44.7844 106.8C44.7844 106.112 44.6844 105.528 44.4844 105.048C44.2924 104.56 44.0244 104.188 43.6804 103.932C43.3444 103.668 42.9564 103.536 42.5164 103.536C42.0764 103.536 41.6844 103.668 41.3404 103.932C40.9964 104.188 40.7244 104.56 40.5244 105.048C40.3324 105.528 40.2364 106.112 40.2364 106.8C40.2364 107.48 40.3324 108.064 40.5244 108.552C40.7244 109.04 40.9964 109.416 41.3404 109.68C41.6844 109.944 42.0764 110.076 42.5164 110.076ZM50.7809 111.144C50.0529 111.144 49.4249 110.964 48.8969 110.604C48.3769 110.236 47.9769 109.728 47.6969 109.08C47.4169 108.424 47.2769 107.664 47.2769 106.8C47.2769 105.936 47.4169 105.18 47.6969 104.532C47.9769 103.876 48.3769 103.368 48.8969 103.008C49.4249 102.64 50.0529 102.456 50.7809 102.456C51.5169 102.456 52.1409 102.64 52.6529 103.008C53.1729 103.368 53.5729 103.876 53.8529 104.532C54.1409 105.18 54.2849 105.936 54.2849 106.8C54.2849 107.664 54.1409 108.424 53.8529 109.08C53.5729 109.728 53.1729 110.236 52.6529 110.604C52.1409 110.964 51.5169 111.144 50.7809 111.144ZM50.7809 110.076C51.2209 110.076 51.6089 109.944 51.9449 109.68C52.2889 109.416 52.5569 109.04 52.7489 108.552C52.9489 108.064 53.0489 107.48 53.0489 106.8C53.0489 106.112 52.9489 105.528 52.7489 105.048C52.5569 104.56 52.2889 104.188 51.9449 103.932C51.6089 103.668 51.2209 103.536 50.7809 103.536C50.3409 103.536 49.9489 103.668 49.6049 103.932C49.2609 104.188 48.9889 104.56 48.7889 105.048C48.5969 105.528 48.5009 106.112 48.5009 106.8C48.5009 107.48 48.5969 108.064 48.7889 108.552C48.9889 109.04 49.2609 109.416 49.6049 109.68C49.9489 109.944 50.3409 110.076 50.7809 110.076ZM55.8535 111V102.6H57.2695L60.0655 108.288L62.8495 102.6H64.2655V111H63.0655V104.712L60.5215 109.848H59.5975L57.0535 104.736V111H55.8535ZM73.0305 111.144C72.2145 111.144 71.5105 110.964 70.9185 110.604C70.3265 110.236 69.8705 109.728 69.5505 109.08C69.2305 108.424 69.0705 107.664 69.0705 106.8C69.0705 105.944 69.2305 105.188 69.5505 104.532C69.8705 103.876 70.3265 103.368 70.9185 103.008C71.5105 102.64 72.2145 102.456 73.0305 102.456C74.0065 102.456 74.7985 102.692 75.4065 103.164C76.0145 103.636 76.4025 104.3 76.5705 105.156H75.2625C75.1345 104.66 74.8865 104.264 74.5185 103.968C74.1505 103.672 73.6505 103.524 73.0185 103.524C72.4665 103.524 71.9825 103.656 71.5665 103.92C71.1585 104.184 70.8425 104.56 70.6185 105.048C70.4025 105.536 70.2945 106.12 70.2945 106.8C70.2945 107.48 70.4025 108.068 70.6185 108.564C70.8425 109.052 71.1585 109.428 71.5665 109.692C71.9825 109.948 72.4665 110.076 73.0185 110.076C73.6505 110.076 74.1505 109.936 74.5185 109.656C74.8865 109.368 75.1345 108.98 75.2625 108.492H76.5705C76.4025 109.324 76.0145 109.976 75.4065 110.448C74.7985 110.912 74.0065 111.144 73.0305 111.144ZM81.235 111.144C80.643 111.144 80.107 111.028 79.627 110.796C79.147 110.556 78.763 110.196 78.475 109.716C78.195 109.228 78.055 108.608 78.055 107.856V102.6H79.255V107.868C79.255 108.372 79.339 108.788 79.507 109.116C79.675 109.436 79.907 109.676 80.203 109.836C80.507 109.988 80.859 110.064 81.259 110.064C81.667 110.064 82.015 109.988 82.303 109.836C82.599 109.676 82.827 109.436 82.987 109.116C83.155 108.788 83.239 108.372 83.239 107.868V102.6H84.439V107.856C84.439 108.608 84.295 109.228 84.007 109.716C83.719 110.196 83.331 110.556 82.843 110.796C82.363 111.028 81.827 111.144 81.235 111.144Z" fill="#1E1E1F"/>
<rect x="101" y="95" width="66" height="24" rx="12" fill="#EDEEF0"/>
<path d="M112.936 111.144C112.32 111.144 111.8 111.032 111.376 110.808C110.96 110.576 110.628 110.268 110.38 109.884C110.132 109.5 109.948 109.068 109.828 108.588C109.716 108.108 109.66 107.616 109.66 107.112C109.66 106.184 109.788 105.372 110.044 104.676C110.3 103.98 110.672 103.436 111.16 103.044C111.648 102.652 112.236 102.456 112.924 102.456C113.468 102.456 113.932 102.564 114.316 102.78C114.708 102.988 115.016 103.264 115.24 103.608C115.464 103.952 115.6 104.332 115.648 104.748H114.532C114.452 104.34 114.272 104.028 113.992 103.812C113.712 103.588 113.352 103.476 112.912 103.476C112.512 103.476 112.156 103.6 111.844 103.848C111.54 104.088 111.296 104.456 111.112 104.952C110.936 105.448 110.836 106.076 110.812 106.836C110.812 106.852 110.812 106.868 110.812 106.884C110.812 106.9 110.812 106.916 110.812 106.932C110.932 106.692 111.1 106.472 111.316 106.272C111.54 106.072 111.804 105.912 112.108 105.792C112.42 105.672 112.756 105.612 113.116 105.612C113.588 105.612 114.024 105.724 114.424 105.948C114.832 106.164 115.16 106.476 115.408 106.884C115.664 107.292 115.792 107.768 115.792 108.312C115.792 108.8 115.676 109.26 115.444 109.692C115.212 110.124 114.88 110.476 114.448 110.748C114.024 111.012 113.52 111.144 112.936 111.144ZM112.852 110.1C113.188 110.1 113.488 110.028 113.752 109.884C114.016 109.732 114.224 109.524 114.376 109.26C114.528 108.996 114.604 108.696 114.604 108.36C114.604 108.016 114.528 107.716 114.376 107.46C114.224 107.196 114.016 106.992 113.752 106.848C113.488 106.704 113.188 106.632 112.852 106.632C112.516 106.632 112.212 106.708 111.94 106.86C111.668 107.012 111.452 107.22 111.292 107.484C111.14 107.748 111.064 108.044 111.064 108.372C111.064 108.708 111.14 109.008 111.292 109.272C111.452 109.528 111.668 109.732 111.94 109.884C112.212 110.028 112.516 110.1 112.852 110.1ZM120.747 111.144C120.019 111.144 119.391 110.964 118.863 110.604C118.343 110.236 117.943 109.728 117.663 109.08C117.383 108.424 117.243 107.664 117.243 106.8C117.243 105.936 117.383 105.18 117.663 104.532C117.943 103.876 118.343 103.368 118.863 103.008C119.391 102.64 120.019 102.456 120.747 102.456C121.483 102.456 122.107 102.64 122.619 103.008C123.139 103.368 123.539 103.876 123.819 104.532C124.107 105.18 124.251 105.936 124.251 106.8C124.251 107.664 124.107 108.424 123.819 109.08C123.539 109.728 123.139 110.236 122.619 110.604C122.107 110.964 121.483 111.144 120.747 111.144ZM120.747 110.076C121.187 110.076 121.575 109.944 121.911 109.68C122.255 109.416 122.523 109.04 122.715 108.552C122.915 108.064 123.015 107.48 123.015 106.8C123.015 106.112 122.915 105.528 122.715 105.048C122.523 104.56 122.255 104.188 121.911 103.932C121.575 103.668 121.187 103.536 120.747 103.536C120.307 103.536 119.915 103.668 119.571 103.932C119.227 104.188 118.955 104.56 118.755 105.048C118.563 105.528 118.467 106.112 118.467 106.8C118.467 107.48 118.563 108.064 118.755 108.552C118.955 109.04 119.227 109.416 119.571 109.68C119.915 109.944 120.307 110.076 120.747 110.076ZM129.011 111.144C128.283 111.144 127.655 110.964 127.127 110.604C126.607 110.236 126.207 109.728 125.927 109.08C125.647 108.424 125.507 107.664 125.507 106.8C125.507 105.936 125.647 105.18 125.927 104.532C126.207 103.876 126.607 103.368 127.127 103.008C127.655 102.64 128.283 102.456 129.011 102.456C129.747 102.456 130.371 102.64 130.883 103.008C131.403 103.368 131.803 103.876 132.083 104.532C132.371 105.18 132.515 105.936 132.515 106.8C132.515 107.664 132.371 108.424 132.083 109.08C131.803 109.728 131.403 110.236 130.883 110.604C130.371 110.964 129.747 111.144 129.011 111.144ZM129.011 110.076C129.451 110.076 129.839 109.944 130.175 109.68C130.519 109.416 130.787 109.04 130.979 108.552C131.179 108.064 131.279 107.48 131.279 106.8C131.279 106.112 131.179 105.528 130.979 105.048C130.787 104.56 130.519 104.188 130.175 103.932C129.839 103.668 129.451 103.536 129.011 103.536C128.571 103.536 128.179 103.668 127.835 103.932C127.491 104.188 127.219 104.56 127.019 105.048C126.827 105.528 126.731 106.112 126.731 106.8C126.731 107.48 126.827 108.064 127.019 108.552C127.219 109.04 127.491 109.416 127.835 109.68C128.179 109.944 128.571 110.076 129.011 110.076ZM137.298 111V102.6H140.142C140.806 102.6 141.35 102.712 141.774 102.936C142.198 103.16 142.51 103.46 142.71 103.836C142.918 104.204 143.022 104.624 143.022 105.096C143.022 105.544 142.918 105.96 142.71 106.344C142.51 106.72 142.194 107.024 141.762 107.256C141.33 107.48 140.778 107.592 140.106 107.592H138.498V111H137.298ZM141.714 111L139.902 107.268H141.222L143.106 111H141.714ZM138.498 106.68H140.07C140.662 106.68 141.094 106.536 141.366 106.248C141.646 105.952 141.786 105.576 141.786 105.12C141.786 104.656 141.65 104.288 141.378 104.016C141.106 103.744 140.666 103.608 140.058 103.608H138.498V106.68ZM144.718 111V102.6H147.574C148.246 102.6 148.798 102.712 149.23 102.936C149.67 103.16 149.994 103.464 150.202 103.848C150.41 104.224 150.514 104.656 150.514 105.144C150.514 105.608 150.41 106.032 150.202 106.416C149.994 106.8 149.674 107.108 149.242 107.34C148.81 107.564 148.254 107.676 147.574 107.676H145.918V111H144.718ZM145.918 106.68H147.526C148.166 106.68 148.618 106.54 148.882 106.26C149.154 105.98 149.29 105.608 149.29 105.144C149.29 104.656 149.154 104.276 148.882 104.004C148.618 103.732 148.166 103.596 147.526 103.596H145.918V106.68ZM154.7 111.144C154.092 111.144 153.556 111.036 153.092 110.82C152.628 110.596 152.268 110.284 152.012 109.884C151.756 109.484 151.624 109.016 151.616 108.48H152.888C152.888 108.784 152.956 109.064 153.092 109.32C153.236 109.568 153.44 109.768 153.704 109.92C153.976 110.064 154.308 110.136 154.7 110.136C155.036 110.136 155.324 110.08 155.564 109.968C155.812 109.856 156 109.704 156.128 109.512C156.256 109.312 156.32 109.084 156.32 108.828C156.32 108.54 156.256 108.304 156.128 108.12C156 107.928 155.82 107.768 155.588 107.64C155.364 107.512 155.104 107.4 154.808 107.304C154.52 107.208 154.208 107.104 153.872 106.992C153.192 106.768 152.688 106.484 152.36 106.14C152.04 105.796 151.88 105.348 151.88 104.796C151.88 104.324 151.988 103.916 152.204 103.572C152.428 103.22 152.744 102.948 153.152 102.756C153.56 102.556 154.036 102.456 154.58 102.456C155.132 102.456 155.608 102.556 156.008 102.756C156.416 102.956 156.736 103.232 156.968 103.584C157.2 103.936 157.32 104.348 157.328 104.82H156.056C156.056 104.604 155.996 104.392 155.876 104.184C155.764 103.976 155.596 103.808 155.372 103.68C155.156 103.544 154.884 103.476 154.556 103.476C154.276 103.468 154.028 103.512 153.812 103.608C153.596 103.704 153.428 103.844 153.308 104.028C153.188 104.212 153.128 104.432 153.128 104.688C153.128 104.944 153.184 105.152 153.296 105.312C153.408 105.464 153.564 105.596 153.764 105.708C153.972 105.82 154.216 105.924 154.496 106.02C154.776 106.108 155.084 106.208 155.42 106.32C155.828 106.456 156.196 106.624 156.524 106.824C156.852 107.016 157.108 107.268 157.292 107.58C157.484 107.884 157.58 108.276 157.58 108.756C157.58 109.172 157.472 109.56 157.256 109.92C157.04 110.28 156.72 110.576 156.296 110.808C155.872 111.032 155.34 111.144 154.7 111.144Z" fill="#1E1E1F"/>
<path d="M212.423 101.818H214.267V108.47C214.267 109.199 214.095 109.841 213.75 110.394C213.409 110.948 212.928 111.38 212.308 111.692C211.688 112 210.964 112.154 210.136 112.154C209.304 112.154 208.578 112 207.958 111.692C207.338 111.38 206.858 110.948 206.516 110.394C206.175 109.841 206.004 109.199 206.004 108.47V101.818H207.849V108.316C207.849 108.74 207.942 109.118 208.127 109.45C208.316 109.781 208.581 110.041 208.923 110.23C209.264 110.416 209.668 110.509 210.136 110.509C210.603 110.509 211.007 110.416 211.349 110.23C211.693 110.041 211.959 109.781 212.144 109.45C212.33 109.118 212.423 108.74 212.423 108.316V101.818ZM218.132 107.526V112H216.332V104.364H218.052V105.661H218.142C218.318 105.234 218.598 104.894 218.982 104.642C219.37 104.39 219.849 104.264 220.419 104.264C220.946 104.264 221.405 104.377 221.796 104.602C222.19 104.828 222.495 105.154 222.711 105.582C222.93 106.009 223.037 106.528 223.034 107.138V112H221.234V107.416C221.234 106.906 221.102 106.506 220.837 106.218C220.575 105.93 220.212 105.786 219.748 105.786C219.433 105.786 219.153 105.855 218.908 105.994C218.666 106.13 218.475 106.327 218.336 106.586C218.2 106.844 218.132 107.158 218.132 107.526ZM228.817 104.364V105.756H224.427V104.364H228.817ZM225.511 102.534H227.31V109.703C227.31 109.945 227.347 110.131 227.42 110.26C227.496 110.386 227.595 110.472 227.718 110.518C227.841 110.565 227.977 110.588 228.126 110.588C228.238 110.588 228.341 110.58 228.434 110.563C228.53 110.547 228.603 110.532 228.653 110.518L228.956 111.925C228.86 111.959 228.722 111.995 228.543 112.035C228.368 112.075 228.152 112.098 227.897 112.104C227.446 112.118 227.04 112.05 226.679 111.901C226.318 111.748 226.031 111.513 225.819 111.195C225.61 110.876 225.507 110.479 225.511 110.001V102.534ZM230.462 112V104.364H232.262V112H230.462ZM231.367 103.28C231.082 103.28 230.836 103.185 230.631 102.996C230.425 102.804 230.323 102.574 230.323 102.305C230.323 102.034 230.425 101.803 230.631 101.614C230.836 101.422 231.082 101.326 231.367 101.326C231.655 101.326 231.9 101.422 232.103 101.614C232.308 101.803 232.411 102.034 232.411 102.305C232.411 102.574 232.308 102.804 232.103 102.996C231.9 103.185 231.655 103.28 231.367 103.28ZM236.052 101.818V112H234.252V101.818H236.052ZM250.102 101.818V112H248.461L243.664 105.065H243.579V112H241.735V101.818H243.385L248.178 108.759H248.268V101.818H250.102ZM255.503 112.149C254.758 112.149 254.111 111.985 253.564 111.657C253.017 111.329 252.593 110.87 252.292 110.28C251.993 109.69 251.844 109 251.844 108.212C251.844 107.423 251.993 106.732 252.292 106.138C252.593 105.545 253.017 105.085 253.564 104.756C254.111 104.428 254.758 104.264 255.503 104.264C256.249 104.264 256.895 104.428 257.442 104.756C257.989 105.085 258.412 105.545 258.71 106.138C259.012 106.732 259.162 107.423 259.162 108.212C259.162 109 259.012 109.69 258.71 110.28C258.412 110.87 257.989 111.329 257.442 111.657C256.895 111.985 256.249 112.149 255.503 112.149ZM255.513 110.707C255.918 110.707 256.256 110.596 256.527 110.374C256.799 110.149 257.001 109.847 257.134 109.469C257.27 109.092 257.338 108.671 257.338 108.207C257.338 107.739 257.27 107.317 257.134 106.939C257.001 106.558 256.799 106.254 256.527 106.029C256.256 105.804 255.918 105.691 255.513 105.691C255.099 105.691 254.754 105.804 254.479 106.029C254.207 106.254 254.003 106.558 253.868 106.939C253.735 107.317 253.669 107.739 253.669 108.207C253.669 108.671 253.735 109.092 253.868 109.469C254.003 109.847 254.207 110.149 254.479 110.374C254.754 110.596 255.099 110.707 255.513 110.707ZM267.391 104.364L264.672 112H262.683L259.964 104.364H261.883L263.638 110.036H263.717L265.477 104.364H267.391ZM276.511 101.818V112H274.666V103.613H274.607L272.225 105.134V103.444L274.756 101.818H276.511ZM282.999 112.194C282.181 112.194 281.478 111.987 280.891 111.572C280.308 111.155 279.859 110.553 279.544 109.768C279.233 108.979 279.077 108.029 279.077 106.919C279.08 105.809 279.238 104.864 279.549 104.085C279.864 103.303 280.313 102.706 280.896 102.295C281.483 101.884 282.184 101.679 282.999 101.679C283.815 101.679 284.516 101.884 285.102 102.295C285.689 102.706 286.138 103.303 286.45 104.085C286.764 104.867 286.922 105.812 286.922 106.919C286.922 108.033 286.764 108.984 286.45 109.773C286.138 110.558 285.689 111.158 285.102 111.572C284.519 111.987 283.818 112.194 282.999 112.194ZM282.999 110.638C283.636 110.638 284.138 110.325 284.506 109.698C284.877 109.068 285.063 108.142 285.063 106.919C285.063 106.11 284.978 105.431 284.809 104.881C284.64 104.33 284.401 103.916 284.093 103.638C283.785 103.356 283.42 103.215 282.999 103.215C282.366 103.215 281.866 103.53 281.498 104.16C281.13 104.786 280.944 105.706 280.941 106.919C280.938 107.731 281.019 108.414 281.185 108.967C281.354 109.521 281.592 109.938 281.901 110.22C282.209 110.499 282.575 110.638 282.999 110.638Z" fill="#0B57D0"/>
<rect x="328.5" y="0.5" width="315" height="145" rx="23.5" fill="white"/>
<rect x="328.5" y="0.5" width="315" height="145" rx="23.5" stroke="#EDEDF0"/>
<path d="M361.575 32.1293H360.024C359.964 31.7978 359.853 31.5062 359.691 31.2543C359.529 31.0024 359.33 30.7886 359.094 30.6129C358.859 30.4373 358.596 30.3047 358.304 30.2152C358.016 30.1257 357.709 30.081 357.384 30.081C356.798 30.081 356.272 30.2285 355.808 30.5234C355.348 30.8184 354.983 31.2509 354.714 31.821C354.449 32.3911 354.317 33.0871 354.317 33.9091C354.317 34.7377 354.449 35.437 354.714 36.0071C354.983 36.5772 355.349 37.008 355.813 37.2997C356.277 37.5914 356.799 37.7372 357.379 37.7372C357.701 37.7372 358.006 37.6941 358.294 37.608C358.586 37.5185 358.849 37.3875 359.085 37.2152C359.32 37.0429 359.519 36.8324 359.681 36.5838C359.847 36.3319 359.961 36.0436 360.024 35.7188L361.575 35.7237C361.492 36.2242 361.332 36.6849 361.093 37.1058C360.858 37.5234 360.554 37.8847 360.183 38.1896C359.815 38.4912 359.394 38.7249 358.92 38.8906C358.446 39.0563 357.929 39.1392 357.369 39.1392C356.488 39.1392 355.702 38.9304 355.013 38.5128C354.323 38.0919 353.78 37.4903 353.382 36.7081C352.988 35.9259 352.79 34.9929 352.79 33.9091C352.79 32.822 352.989 31.889 353.387 31.1101C353.785 30.3279 354.328 29.728 355.018 29.3104C355.707 28.8894 356.491 28.679 357.369 28.679C357.91 28.679 358.413 28.7569 358.881 28.9126C359.351 29.0651 359.774 29.2905 360.148 29.5888C360.523 29.8838 360.833 30.245 361.078 30.6726C361.323 31.0968 361.489 31.5824 361.575 32.1293ZM370.101 28.8182H371.642V35.5149C371.642 36.2275 371.475 36.8589 371.14 37.4091C370.805 37.956 370.335 38.3868 369.728 38.7017C369.122 39.0133 368.411 39.169 367.595 39.169C366.783 39.169 366.074 39.0133 365.468 38.7017C364.861 38.3868 364.39 37.956 364.056 37.4091C363.721 36.8589 363.554 36.2275 363.554 35.5149V28.8182H365.09V35.3906C365.09 35.8513 365.191 36.2607 365.393 36.6186C365.599 36.9766 365.889 37.2583 366.263 37.4638C366.638 37.666 367.082 37.767 367.595 37.767C368.112 37.767 368.558 37.666 368.933 37.4638C369.311 37.2583 369.599 36.9766 369.798 36.6186C370 36.2607 370.101 35.8513 370.101 35.3906V28.8182ZM377.861 39V28.8182H379.347V32.6016H379.437C379.523 32.4425 379.647 32.2585 379.81 32.0497C379.972 31.8409 380.198 31.6586 380.486 31.5028C380.774 31.3438 381.155 31.2642 381.629 31.2642C382.246 31.2642 382.796 31.42 383.28 31.7315C383.764 32.0431 384.143 32.4922 384.418 33.0788C384.697 33.6655 384.836 34.3714 384.836 35.1967C384.836 36.022 384.698 36.7296 384.423 37.3196C384.148 37.9062 383.77 38.3587 383.29 38.6768C382.809 38.9917 382.261 39.1491 381.644 39.1491C381.18 39.1491 380.801 39.0713 380.506 38.9155C380.214 38.7597 379.985 38.5774 379.82 38.3686C379.654 38.1598 379.526 37.9742 379.437 37.8118H379.313V39H377.861ZM379.318 35.1818C379.318 35.7187 379.395 36.1894 379.551 36.5938C379.707 36.9981 379.932 37.3146 380.227 37.5433C380.522 37.7687 380.884 37.8814 381.311 37.8814C381.755 37.8814 382.126 37.7637 382.425 37.5284C382.723 37.2898 382.948 36.9666 383.101 36.5589C383.257 36.1513 383.335 35.6922 383.335 35.1818C383.335 34.678 383.258 34.2256 383.106 33.8246C382.957 33.4235 382.731 33.107 382.43 32.875C382.131 32.643 381.759 32.527 381.311 32.527C380.88 32.527 380.516 32.638 380.217 32.8601C379.922 33.0821 379.699 33.392 379.546 33.7898C379.394 34.1875 379.318 34.6515 379.318 35.1818ZM388.868 39.169C388.384 39.169 387.946 39.0795 387.555 38.9006C387.164 38.7183 386.854 38.4548 386.625 38.1101C386.4 37.7654 386.287 37.3428 386.287 36.8423C386.287 36.4115 386.37 36.0568 386.536 35.7784C386.702 35.5 386.925 35.2796 387.207 35.1172C387.489 34.9548 387.804 34.8321 388.152 34.7493C388.5 34.6664 388.854 34.6035 389.216 34.5604C389.673 34.5073 390.044 34.4643 390.329 34.4311C390.614 34.3946 390.821 34.3366 390.951 34.2571C391.08 34.1776 391.145 34.0483 391.145 33.8693V33.8345C391.145 33.4003 391.022 33.0639 390.777 32.8253C390.535 32.5866 390.173 32.4673 389.693 32.4673C389.192 32.4673 388.798 32.5784 388.51 32.8004C388.225 33.0192 388.027 33.2628 387.918 33.5312L386.521 33.2131C386.687 32.7491 386.929 32.3745 387.247 32.0895C387.568 31.8011 387.938 31.5923 388.355 31.4631C388.773 31.3305 389.212 31.2642 389.673 31.2642C389.978 31.2642 390.301 31.3007 390.642 31.3736C390.987 31.4432 391.309 31.5724 391.607 31.7614C391.908 31.9503 392.155 32.2204 392.348 32.5717C392.54 32.9197 392.636 33.3722 392.636 33.929V39H391.184V37.956H391.125C391.029 38.1482 390.884 38.3371 390.692 38.5227C390.5 38.7083 390.253 38.8625 389.951 38.9851C389.65 39.1077 389.288 39.169 388.868 39.169ZM389.191 37.9759C389.602 37.9759 389.953 37.8946 390.245 37.7322C390.54 37.5698 390.763 37.3577 390.916 37.0959C391.072 36.8307 391.149 36.5473 391.149 36.2457V35.2614C391.096 35.3144 390.994 35.3641 390.841 35.4105C390.692 35.4536 390.521 35.4917 390.329 35.5249C390.137 35.5547 389.95 35.5829 389.767 35.6094C389.585 35.6326 389.433 35.6525 389.31 35.669C389.022 35.7055 388.758 35.7668 388.52 35.853C388.284 35.9392 388.095 36.0634 387.953 36.2259C387.814 36.3849 387.744 36.5971 387.744 36.8622C387.744 37.2301 387.88 37.5085 388.152 37.6974C388.423 37.883 388.77 37.9759 389.191 37.9759ZM396.242 28.8182V39H394.756V28.8182H396.242ZM400.605 39.169C400.121 39.169 399.683 39.0795 399.292 38.9006C398.901 38.7183 398.591 38.4548 398.362 38.1101C398.137 37.7654 398.024 37.3428 398.024 36.8423C398.024 36.4115 398.107 36.0568 398.273 35.7784C398.439 35.5 398.662 35.2796 398.944 35.1172C399.226 34.9548 399.541 34.8321 399.889 34.7493C400.237 34.6664 400.591 34.6035 400.953 34.5604C401.41 34.5073 401.781 34.4643 402.066 34.4311C402.351 34.3946 402.558 34.3366 402.688 34.2571C402.817 34.1776 402.882 34.0483 402.882 33.8693V33.8345C402.882 33.4003 402.759 33.0639 402.514 32.8253C402.272 32.5866 401.91 32.4673 401.43 32.4673C400.929 32.4673 400.535 32.5784 400.247 32.8004C399.962 33.0192 399.764 33.2628 399.655 33.5312L398.258 33.2131C398.424 32.7491 398.666 32.3745 398.984 32.0895C399.305 31.8011 399.675 31.5923 400.092 31.4631C400.51 31.3305 400.949 31.2642 401.41 31.2642C401.715 31.2642 402.038 31.3007 402.379 31.3736C402.724 31.4432 403.046 31.5724 403.344 31.7614C403.646 31.9503 403.892 32.2204 404.085 32.5717C404.277 32.9197 404.373 33.3722 404.373 33.929V39H402.921V37.956H402.862C402.766 38.1482 402.621 38.3371 402.429 38.5227C402.237 38.7083 401.99 38.8625 401.688 38.9851C401.387 39.1077 401.025 39.169 400.605 39.169ZM400.928 37.9759C401.339 37.9759 401.69 37.8946 401.982 37.7322C402.277 37.5698 402.5 37.3577 402.653 37.0959C402.809 36.8307 402.887 36.5473 402.887 36.2457V35.2614C402.833 35.3144 402.731 35.3641 402.578 35.4105C402.429 35.4536 402.258 35.4917 402.066 35.5249C401.874 35.5547 401.687 35.5829 401.504 35.6094C401.322 35.6326 401.17 35.6525 401.047 35.669C400.759 35.7055 400.495 35.7668 400.257 35.853C400.021 35.9392 399.832 36.0634 399.69 36.2259C399.551 36.3849 399.481 36.5971 399.481 36.8622C399.481 37.2301 399.617 37.5085 399.889 37.6974C400.16 37.883 400.507 37.9759 400.928 37.9759ZM407.979 34.4659V39H406.493V31.3636H407.92V32.6065H408.014C408.19 32.2022 408.465 31.8774 408.84 31.6321C409.217 31.3868 409.693 31.2642 410.266 31.2642C410.787 31.2642 411.242 31.3736 411.634 31.5923C412.025 31.8078 412.328 32.1293 412.543 32.5568C412.759 32.9844 412.867 33.513 412.867 34.1428V39H411.38V34.3217C411.38 33.7682 411.236 33.3357 410.948 33.0241C410.659 32.7093 410.263 32.5518 409.759 32.5518C409.415 32.5518 409.108 32.6264 408.84 32.7756C408.574 32.9247 408.364 33.1435 408.208 33.4318C408.056 33.7169 407.979 34.0616 407.979 34.4659ZM418.217 39.1541C417.478 39.1541 416.841 38.9867 416.308 38.652C415.777 38.3139 415.37 37.8482 415.085 37.255C414.8 36.6617 414.657 35.9822 414.657 35.2166C414.657 34.4411 414.803 33.7566 415.095 33.1634C415.386 32.5668 415.797 32.1011 416.328 31.7663C416.858 31.4316 417.483 31.2642 418.202 31.2642C418.782 31.2642 419.299 31.3719 419.753 31.5874C420.207 31.7995 420.573 32.0978 420.852 32.4822C421.133 32.8667 421.301 33.3158 421.354 33.8295H419.907C419.828 33.4716 419.645 33.1634 419.36 32.9048C419.079 32.6463 418.701 32.517 418.227 32.517C417.812 32.517 417.449 32.6264 417.138 32.8452C416.83 33.0606 416.589 33.3688 416.417 33.7699C416.245 34.1676 416.159 34.6383 416.159 35.1818C416.159 35.7386 416.243 36.2192 416.412 36.6236C416.581 37.0279 416.82 37.3411 417.128 37.5632C417.44 37.7853 417.806 37.8963 418.227 37.8963C418.508 37.8963 418.764 37.8449 418.992 37.7422C419.224 37.6361 419.418 37.4853 419.574 37.2898C419.733 37.0942 419.844 36.8589 419.907 36.5838H421.354C421.301 37.0777 421.14 37.5185 420.872 37.9062C420.603 38.294 420.244 38.599 419.793 38.821C419.345 39.0431 418.82 39.1541 418.217 39.1541ZM426.375 39.1541C425.622 39.1541 424.974 38.9934 424.431 38.6719C423.891 38.3471 423.473 37.8913 423.178 37.3047C422.886 36.7147 422.74 36.0237 422.74 35.2315C422.74 34.4493 422.886 33.7599 423.178 33.1634C423.473 32.5668 423.884 32.1011 424.411 31.7663C424.941 31.4316 425.561 31.2642 426.27 31.2642C426.701 31.2642 427.119 31.3355 427.523 31.478C427.927 31.6205 428.29 31.8442 428.612 32.1491C428.933 32.4541 429.187 32.8501 429.373 33.3374C429.558 33.8213 429.651 34.4096 429.651 35.1023V35.6293H423.581V34.5156H428.194C428.194 34.1245 428.115 33.7782 427.956 33.4766C427.797 33.1716 427.573 32.9313 427.285 32.7557C426.999 32.58 426.665 32.4922 426.28 32.4922C425.863 32.4922 425.498 32.5949 425.186 32.8004C424.878 33.0026 424.64 33.2678 424.471 33.5959C424.305 33.9207 424.222 34.2737 424.222 34.6548V35.5249C424.222 36.0353 424.311 36.4695 424.49 36.8274C424.673 37.1854 424.926 37.4588 425.251 37.6477C425.576 37.8333 425.955 37.9261 426.39 37.9261C426.671 37.9261 426.928 37.8864 427.16 37.8068C427.392 37.724 427.593 37.6013 427.762 37.4389C427.931 37.2765 428.06 37.076 428.15 36.8374L429.557 37.0909C429.444 37.5052 429.242 37.8681 428.95 38.1797C428.662 38.4879 428.299 38.7282 427.861 38.9006C427.427 39.0696 426.932 39.1541 426.375 39.1541Z" fill="#AEAEB2"/>
<path d="M354.19 69L361.614 54.3068V54.1875H352.997V51.5455H364.886V54.2472L357.472 69H354.19ZM373.714 69.3324C372.31 69.3324 371.106 68.9773 370.1 68.267C369.1 67.5511 368.33 66.5199 367.79 65.1733C367.256 63.821 366.989 62.1932 366.989 60.2898C366.995 58.3864 367.265 56.767 367.799 55.4318C368.339 54.0909 369.109 53.0682 370.109 52.3636C371.114 51.6591 372.316 51.3068 373.714 51.3068C375.112 51.3068 376.313 51.6591 377.319 52.3636C378.325 53.0682 379.094 54.0909 379.629 55.4318C380.168 56.7727 380.438 58.392 380.438 60.2898C380.438 62.1989 380.168 63.8295 379.629 65.1818C379.094 66.5284 378.325 67.5568 377.319 68.267C376.319 68.9773 375.117 69.3324 373.714 69.3324ZM373.714 66.6648C374.805 66.6648 375.665 66.1278 376.296 65.054C376.933 63.9744 377.251 62.3864 377.251 60.2898C377.251 58.9034 377.106 57.7386 376.816 56.7955C376.526 55.8523 376.117 55.142 375.589 54.6648C375.06 54.1818 374.435 53.9403 373.714 53.9403C372.629 53.9403 371.771 54.4801 371.14 55.5597C370.509 56.6335 370.191 58.2102 370.185 60.2898C370.18 61.6818 370.319 62.8523 370.603 63.8011C370.893 64.75 371.302 65.4659 371.83 65.9489C372.359 66.4261 372.987 66.6648 373.714 66.6648ZM389.722 69.3324C388.318 69.3324 387.114 68.9773 386.108 68.267C385.108 67.5511 384.338 66.5199 383.798 65.1733C383.264 63.821 382.997 62.1932 382.997 60.2898C383.003 58.3864 383.273 56.767 383.807 55.4318C384.347 54.0909 385.116 53.0682 386.116 52.3636C387.122 51.6591 388.324 51.3068 389.722 51.3068C391.119 51.3068 392.321 51.6591 393.327 52.3636C394.332 53.0682 395.102 54.0909 395.636 55.4318C396.176 56.7727 396.446 58.392 396.446 60.2898C396.446 62.1989 396.176 63.8295 395.636 65.1818C395.102 66.5284 394.332 67.5568 393.327 68.267C392.327 68.9773 391.125 69.3324 389.722 69.3324ZM389.722 66.6648C390.813 66.6648 391.673 66.1278 392.304 65.054C392.94 63.9744 393.259 62.3864 393.259 60.2898C393.259 58.9034 393.114 57.7386 392.824 56.7955C392.534 55.8523 392.125 55.142 391.597 54.6648C391.068 54.1818 390.443 53.9403 389.722 53.9403C388.636 53.9403 387.778 54.4801 387.148 55.5597C386.517 56.6335 386.199 58.2102 386.193 60.2898C386.188 61.6818 386.327 62.8523 386.611 63.8011C386.901 64.75 387.31 65.4659 387.838 65.9489C388.366 66.4261 388.994 66.6648 389.722 66.6648ZM411.683 69.3324C410.279 69.3324 409.075 68.9773 408.069 68.267C407.069 67.5511 406.299 66.5199 405.759 65.1733C405.225 63.821 404.958 62.1932 404.958 60.2898C404.964 58.3864 405.234 56.767 405.768 55.4318C406.308 54.0909 407.077 53.0682 408.077 52.3636C409.083 51.6591 410.285 51.3068 411.683 51.3068C413.08 51.3068 414.282 51.6591 415.288 52.3636C416.293 53.0682 417.063 54.0909 417.597 55.4318C418.137 56.7727 418.407 58.392 418.407 60.2898C418.407 62.1989 418.137 63.8295 417.597 65.1818C417.063 66.5284 416.293 67.5568 415.288 68.267C414.288 68.9773 413.086 69.3324 411.683 69.3324ZM411.683 66.6648C412.773 66.6648 413.634 66.1278 414.265 65.054C414.901 63.9744 415.219 62.3864 415.219 60.2898C415.219 58.9034 415.075 57.7386 414.785 56.7955C414.495 55.8523 414.086 55.142 413.558 54.6648C413.029 54.1818 412.404 53.9403 411.683 53.9403C410.597 53.9403 409.739 54.4801 409.109 55.5597C408.478 56.6335 408.16 58.2102 408.154 60.2898C408.148 61.6818 408.288 62.8523 408.572 63.8011C408.862 64.75 409.271 65.4659 409.799 65.9489C410.327 66.4261 410.955 66.6648 411.683 66.6648ZM427.69 69.3324C426.287 69.3324 425.082 68.9773 424.077 68.267C423.077 67.5511 422.307 66.5199 421.767 65.1733C421.233 63.821 420.966 62.1932 420.966 60.2898C420.972 58.3864 421.241 56.767 421.776 55.4318C422.315 54.0909 423.085 53.0682 424.085 52.3636C425.091 51.6591 426.293 51.3068 427.69 51.3068C429.088 51.3068 430.29 51.6591 431.295 52.3636C432.301 53.0682 433.071 54.0909 433.605 55.4318C434.145 56.7727 434.415 58.392 434.415 60.2898C434.415 62.1989 434.145 63.8295 433.605 65.1818C433.071 66.5284 432.301 67.5568 431.295 68.267C430.295 68.9773 429.094 69.3324 427.69 69.3324ZM427.69 66.6648C428.781 66.6648 429.642 66.1278 430.273 65.054C430.909 63.9744 431.227 62.3864 431.227 60.2898C431.227 58.9034 431.082 57.7386 430.793 56.7955C430.503 55.8523 430.094 55.142 429.565 54.6648C429.037 54.1818 428.412 53.9403 427.69 53.9403C426.605 53.9403 425.747 54.4801 425.116 55.5597C424.486 56.6335 424.168 58.2102 424.162 60.2898C424.156 61.6818 424.295 62.8523 424.58 63.8011C424.869 64.75 425.278 65.4659 425.807 65.9489C426.335 66.4261 426.963 66.6648 427.69 66.6648ZM443.698 69.3324C442.295 69.3324 441.09 68.9773 440.085 68.267C439.085 67.5511 438.315 66.5199 437.775 65.1733C437.241 63.821 436.974 62.1932 436.974 60.2898C436.979 58.3864 437.249 56.767 437.783 55.4318C438.323 54.0909 439.093 53.0682 440.093 52.3636C441.099 51.6591 442.3 51.3068 443.698 51.3068C445.096 51.3068 446.298 51.6591 447.303 52.3636C448.309 53.0682 449.079 54.0909 449.613 55.4318C450.153 56.7727 450.423 58.392 450.423 60.2898C450.423 62.1989 450.153 63.8295 449.613 65.1818C449.079 66.5284 448.309 67.5568 447.303 68.267C446.303 68.9773 445.102 69.3324 443.698 69.3324ZM443.698 66.6648C444.789 66.6648 445.65 66.1278 446.281 65.054C446.917 63.9744 447.235 62.3864 447.235 60.2898C447.235 58.9034 447.09 57.7386 446.8 56.7955C446.511 55.8523 446.102 55.142 445.573 54.6648C445.045 54.1818 444.42 53.9403 443.698 53.9403C442.613 53.9403 441.755 54.4801 441.124 55.5597C440.494 56.6335 440.175 58.2102 440.17 60.2898C440.164 61.6818 440.303 62.8523 440.587 63.8011C440.877 64.75 441.286 65.4659 441.815 65.9489C442.343 66.4261 442.971 66.6648 443.698 66.6648ZM465.659 69.3324C464.256 69.3324 463.051 68.9773 462.045 68.267C461.045 67.5511 460.276 66.5199 459.736 65.1733C459.202 63.821 458.935 62.1932 458.935 60.2898C458.94 58.3864 459.21 56.767 459.744 55.4318C460.284 54.0909 461.054 53.0682 462.054 52.3636C463.06 51.6591 464.261 51.3068 465.659 51.3068C467.057 51.3068 468.259 51.6591 469.264 52.3636C470.27 53.0682 471.04 54.0909 471.574 55.4318C472.114 56.7727 472.384 58.392 472.384 60.2898C472.384 62.1989 472.114 63.8295 471.574 65.1818C471.04 66.5284 470.27 67.5568 469.264 68.267C468.264 68.9773 467.063 69.3324 465.659 69.3324ZM465.659 66.6648C466.75 66.6648 467.611 66.1278 468.241 65.054C468.878 63.9744 469.196 62.3864 469.196 60.2898C469.196 58.9034 469.051 57.7386 468.761 56.7955C468.472 55.8523 468.063 55.142 467.534 54.6648C467.006 54.1818 466.381 53.9403 465.659 53.9403C464.574 53.9403 463.716 54.4801 463.085 55.5597C462.455 56.6335 462.136 58.2102 462.131 60.2898C462.125 61.6818 462.264 62.8523 462.548 63.8011C462.838 64.75 463.247 65.4659 463.776 65.9489C464.304 66.4261 464.932 66.6648 465.659 66.6648ZM481.667 69.3324C480.263 69.3324 479.059 68.9773 478.053 68.267C477.053 67.5511 476.283 66.5199 475.744 65.1733C475.21 63.821 474.942 62.1932 474.942 60.2898C474.948 58.3864 475.218 56.767 475.752 55.4318C476.292 54.0909 477.062 53.0682 478.062 52.3636C479.067 51.6591 480.269 51.3068 481.667 51.3068C483.065 51.3068 484.266 51.6591 485.272 52.3636C486.278 53.0682 487.048 54.0909 487.582 55.4318C488.121 56.7727 488.391 58.392 488.391 60.2898C488.391 62.1989 488.121 63.8295 487.582 65.1818C487.048 66.5284 486.278 67.5568 485.272 68.267C484.272 68.9773 483.07 69.3324 481.667 69.3324ZM481.667 66.6648C482.758 66.6648 483.619 66.1278 484.249 65.054C484.886 63.9744 485.204 62.3864 485.204 60.2898C485.204 58.9034 485.059 57.7386 484.769 56.7955C484.479 55.8523 484.07 55.142 483.542 54.6648C483.013 54.1818 482.388 53.9403 481.667 53.9403C480.582 53.9403 479.724 54.4801 479.093 55.5597C478.462 56.6335 478.144 58.2102 478.138 60.2898C478.133 61.6818 478.272 62.8523 478.556 63.8011C478.846 64.75 479.255 65.4659 479.783 65.9489C480.312 66.4261 480.94 66.6648 481.667 66.6648ZM497.675 69.3324C496.271 69.3324 495.067 68.9773 494.061 68.267C493.061 67.5511 492.291 66.5199 491.751 65.1733C491.217 63.821 490.95 62.1932 490.95 60.2898C490.956 58.3864 491.226 56.767 491.76 55.4318C492.3 54.0909 493.07 53.0682 494.07 52.3636C495.075 51.6591 496.277 51.3068 497.675 51.3068C499.072 51.3068 500.274 51.6591 501.28 52.3636C502.286 53.0682 503.055 54.0909 503.589 55.4318C504.129 56.7727 504.399 58.392 504.399 60.2898C504.399 62.1989 504.129 63.8295 503.589 65.1818C503.055 66.5284 502.286 67.5568 501.28 68.267C500.28 68.9773 499.078 69.3324 497.675 69.3324ZM497.675 66.6648C498.766 66.6648 499.626 66.1278 500.257 65.054C500.893 63.9744 501.212 62.3864 501.212 60.2898C501.212 58.9034 501.067 57.7386 500.777 56.7955C500.487 55.8523 500.078 55.142 499.55 54.6648C499.021 54.1818 498.396 53.9403 497.675 53.9403C496.589 53.9403 495.732 54.4801 495.101 55.5597C494.47 56.6335 494.152 58.2102 494.146 60.2898C494.141 61.6818 494.28 62.8523 494.564 63.8011C494.854 64.75 495.263 65.4659 495.791 65.9489C496.32 66.4261 496.947 66.6648 497.675 66.6648Z" fill="#1E1E1F"/>
<rect x="550" y="24" width="70" height="36" rx="12" fill="#EBF3FF"/>
<path d="M565.304 47V38.348H562.406V37.2H569.616V38.348H566.704V47H565.304ZM572.926 47.168C572.263 47.168 571.666 47.014 571.134 46.706C570.611 46.398 570.196 45.9687 569.888 45.418C569.589 44.858 569.44 44.214 569.44 43.486C569.44 42.7393 569.594 42.0907 569.902 41.54C570.21 40.98 570.63 40.546 571.162 40.238C571.694 39.93 572.291 39.776 572.954 39.776C573.626 39.776 574.223 39.93 574.746 40.238C575.269 40.546 575.679 40.9753 575.978 41.526C576.286 42.0767 576.44 42.7253 576.44 43.472C576.44 44.2187 576.286 44.8673 575.978 45.418C575.679 45.9687 575.264 46.398 574.732 46.706C574.2 47.014 573.598 47.168 572.926 47.168ZM572.926 45.964C573.309 45.964 573.654 45.8707 573.962 45.684C574.279 45.4973 574.531 45.222 574.718 44.858C574.914 44.4847 575.012 44.0227 575.012 43.472C575.012 42.9213 574.919 42.464 574.732 42.1C574.545 41.7267 574.293 41.4467 573.976 41.26C573.668 41.0733 573.327 40.98 572.954 40.98C572.581 40.98 572.235 41.0733 571.918 41.26C571.601 41.4467 571.344 41.7267 571.148 42.1C570.961 42.464 570.868 42.9213 570.868 43.472C570.868 44.0227 570.961 44.4847 571.148 44.858C571.344 45.222 571.596 45.4973 571.904 45.684C572.221 45.8707 572.562 45.964 572.926 45.964ZM578.087 50.08V39.944H579.347L579.487 41.036C579.636 40.8213 579.823 40.6207 580.047 40.434C580.271 40.238 580.537 40.0793 580.845 39.958C581.162 39.8367 581.531 39.776 581.951 39.776C582.623 39.776 583.211 39.9393 583.715 40.266C584.228 40.5927 584.625 41.036 584.905 41.596C585.194 42.1467 585.339 42.7767 585.339 43.486C585.339 44.1953 585.194 44.83 584.905 45.39C584.615 45.9407 584.214 46.3747 583.701 46.692C583.197 47.0093 582.609 47.168 581.937 47.168C581.386 47.168 580.901 47.0607 580.481 46.846C580.061 46.622 579.729 46.314 579.487 45.922V50.08H578.087ZM581.713 45.95C582.142 45.95 582.52 45.8473 582.847 45.642C583.183 45.4367 583.444 45.1473 583.631 44.774C583.827 44.4007 583.925 43.9667 583.925 43.472C583.925 42.9773 583.827 42.548 583.631 42.184C583.444 41.8107 583.183 41.5213 582.847 41.316C582.52 41.1013 582.142 40.994 581.713 40.994C581.274 40.994 580.887 41.1013 580.551 41.316C580.224 41.5213 579.967 41.8107 579.781 42.184C579.594 42.548 579.501 42.9773 579.501 43.472C579.501 43.9667 579.594 44.4007 579.781 44.774C579.967 45.1473 580.224 45.4367 580.551 45.642C580.887 45.8473 581.274 45.95 581.713 45.95ZM594.238 47.168C593.547 47.168 592.922 47.0327 592.362 46.762C591.802 46.482 591.354 46.062 591.018 45.502C590.691 44.9327 590.528 44.2093 590.528 43.332V37.2H591.928V43.346C591.928 43.934 592.026 44.4193 592.222 44.802C592.418 45.1753 592.688 45.4553 593.034 45.642C593.388 45.8193 593.799 45.908 594.266 45.908C594.742 45.908 595.152 45.8193 595.498 45.642C595.843 45.4553 596.109 45.1753 596.296 44.802C596.492 44.4193 596.59 43.934 596.59 43.346V37.2H597.99V43.332C597.99 44.2093 597.822 44.9327 597.486 45.502C597.15 46.062 596.697 46.482 596.128 46.762C595.558 47.0327 594.928 47.168 594.238 47.168ZM599.866 50.08V39.944H601.126L601.266 41.036C601.415 40.8213 601.602 40.6207 601.826 40.434C602.05 40.238 602.316 40.0793 602.624 39.958C602.941 39.8367 603.31 39.776 603.73 39.776C604.402 39.776 604.99 39.9393 605.494 40.266C606.007 40.5927 606.404 41.036 606.684 41.596C606.973 42.1467 607.118 42.7767 607.118 43.486C607.118 44.1953 606.973 44.83 606.684 45.39C606.395 45.9407 605.993 46.3747 605.48 46.692C604.976 47.0093 604.388 47.168 603.716 47.168C603.165 47.168 602.68 47.0607 602.26 46.846C601.84 46.622 601.509 46.314 601.266 45.922V50.08H599.866ZM603.492 45.95C603.921 45.95 604.299 45.8473 604.626 45.642C604.962 45.4367 605.223 45.1473 605.41 44.774C605.606 44.4007 605.704 43.9667 605.704 43.472C605.704 42.9773 605.606 42.548 605.41 42.184C605.223 41.8107 604.962 41.5213 604.626 41.316C604.299 41.1013 603.921 40.994 603.492 40.994C603.053 40.994 602.666 41.1013 602.33 41.316C602.003 41.5213 601.747 41.8107 601.56 42.184C601.373 42.548 601.28 42.9773 601.28 43.472C601.28 43.9667 601.373 44.4007 601.56 44.774C601.747 45.1473 602.003 45.4367 602.33 45.642C602.666 45.8473 603.053 45.95 603.492 45.95Z" fill="#0B57D0"/>
<path d="M353.134 105L356.943 97.4659V97.402H352.537V96.2727H358.307V97.4403L354.51 105H353.134ZM362.76 105.145C362.086 105.142 361.511 104.964 361.034 104.612C360.556 104.26 360.191 103.747 359.939 103.074C359.686 102.401 359.559 101.589 359.559 100.641C359.559 99.6946 359.686 98.8864 359.939 98.2159C360.194 97.5455 360.561 97.0341 361.038 96.6818C361.518 96.3295 362.092 96.1534 362.76 96.1534C363.427 96.1534 364 96.331 364.477 96.6861C364.954 97.0384 365.319 97.5497 365.572 98.2202C365.828 98.8878 365.956 99.6946 365.956 100.641C365.956 101.592 365.829 102.405 365.576 103.078C365.323 103.749 364.958 104.261 364.481 104.616C364.004 104.969 363.43 105.145 362.76 105.145ZM362.76 104.007C363.35 104.007 363.812 103.719 364.145 103.142C364.48 102.565 364.647 101.732 364.647 100.641C364.647 99.9162 364.571 99.304 364.417 98.804C364.267 98.3011 364.049 97.9205 363.765 97.6619C363.484 97.4006 363.149 97.2699 362.76 97.2699C362.171 97.2699 361.71 97.5597 361.375 98.1392C361.039 98.7187 360.87 99.5526 360.868 100.641C360.868 101.368 360.943 101.983 361.093 102.486C361.247 102.986 361.464 103.365 361.745 103.624C362.027 103.879 362.365 104.007 362.76 104.007ZM370.626 105.145C369.952 105.142 369.377 104.964 368.9 104.612C368.423 104.26 368.057 103.747 367.805 103.074C367.552 102.401 367.425 101.589 367.425 100.641C367.425 99.6946 367.552 98.8864 367.805 98.2159C368.06 97.5455 368.427 97.0341 368.904 96.6818C369.384 96.3295 369.958 96.1534 370.626 96.1534C371.293 96.1534 371.866 96.331 372.343 96.6861C372.82 97.0384 373.185 97.5497 373.438 98.2202C373.694 98.8878 373.822 99.6946 373.822 100.641C373.822 101.592 373.695 102.405 373.442 103.078C373.19 103.749 372.825 104.261 372.347 104.616C371.87 104.969 371.296 105.145 370.626 105.145ZM370.626 104.007C371.217 104.007 371.678 103.719 372.011 103.142C372.346 102.565 372.513 101.732 372.513 100.641C372.513 99.9162 372.437 99.304 372.283 98.804C372.133 98.3011 371.915 97.9205 371.631 97.6619C371.35 97.4006 371.015 97.2699 370.626 97.2699C370.038 97.2699 369.576 97.5597 369.241 98.1392C368.905 98.7187 368.736 99.5526 368.734 100.641C368.734 101.368 368.809 101.983 368.959 102.486C369.113 102.986 369.33 103.365 369.611 103.624C369.893 103.879 370.231 104.007 370.626 104.007ZM375.573 96.2727H377.171L379.949 103.057H380.051L382.83 96.2727H384.428V105H383.175V98.6847H383.094L380.52 104.987H379.48L376.907 98.6804H376.826V105H375.573V96.2727ZM389.684 95.8636L386.871 106.312H385.734L388.546 95.8636H389.684ZM391.163 105L394.973 97.4659V97.402H390.567V96.2727H396.337V97.4403L392.54 105H391.163ZM400.789 105.145C400.116 105.142 399.541 104.964 399.063 104.612C398.586 104.26 398.221 103.747 397.968 103.074C397.715 102.401 397.589 101.589 397.589 100.641C397.589 99.6946 397.715 98.8864 397.968 98.2159C398.224 97.5455 398.59 97.0341 399.068 96.6818C399.548 96.3295 400.122 96.1534 400.789 96.1534C401.457 96.1534 402.029 96.331 402.507 96.6861C402.984 97.0384 403.349 97.5497 403.602 98.2202C403.857 98.8878 403.985 99.6946 403.985 100.641C403.985 101.592 403.859 102.405 403.606 103.078C403.353 103.749 402.988 104.261 402.511 104.616C402.034 104.969 401.46 105.145 400.789 105.145ZM400.789 104.007C401.38 104.007 401.842 103.719 402.174 103.142C402.509 102.565 402.677 101.732 402.677 100.641C402.677 99.9162 402.6 99.304 402.447 98.804C402.296 98.3011 402.079 97.9205 401.795 97.6619C401.514 97.4006 401.178 97.2699 400.789 97.2699C400.201 97.2699 399.74 97.5597 399.404 98.1392C399.069 98.7187 398.9 99.5526 398.897 100.641C398.897 101.368 398.972 101.983 399.123 102.486C399.276 102.986 399.494 103.365 399.775 103.624C400.056 103.879 400.394 104.007 400.789 104.007ZM408.655 105.145C407.982 105.142 407.407 104.964 406.929 104.612C406.452 104.26 406.087 103.747 405.834 103.074C405.581 102.401 405.455 101.589 405.455 100.641C405.455 99.6946 405.581 98.8864 405.834 98.2159C406.09 97.5455 406.456 97.0341 406.934 96.6818C407.414 96.3295 407.988 96.1534 408.655 96.1534C409.323 96.1534 409.895 96.331 410.373 96.6861C410.85 97.0384 411.215 97.5497 411.468 98.2202C411.724 98.8878 411.851 99.6946 411.851 100.641C411.851 101.592 411.725 102.405 411.472 103.078C411.219 103.749 410.854 104.261 410.377 104.616C409.9 104.969 409.326 105.145 408.655 105.145ZM408.655 104.007C409.246 104.007 409.708 103.719 410.04 103.142C410.376 102.565 410.543 101.732 410.543 100.641C410.543 99.9162 410.466 99.304 410.313 98.804C410.162 98.3011 409.945 97.9205 409.661 97.6619C409.38 97.4006 409.045 97.2699 408.655 97.2699C408.067 97.2699 407.606 97.5597 407.27 98.1392C406.935 98.7187 406.766 99.5526 406.763 100.641C406.763 101.368 406.839 101.983 406.989 102.486C407.143 102.986 407.36 103.365 407.641 103.624C407.922 103.879 408.26 104.007 408.655 104.007ZM413.602 96.2727H415.2L417.979 103.057H418.081L420.86 96.2727H422.458V105H421.205V98.6847H421.124L418.55 104.987H417.51L414.936 98.6804H414.855V105H413.602V96.2727Z" fill="#85B4FF"/>
<path d="M459.656 103.295V102.23L463.428 96.2727H464.267V97.8409H463.734L461.037 102.111V102.179H466.206V103.295H459.656ZM463.794 105V102.972L463.803 102.486V96.2727H465.051V105H463.794ZM470.849 105.145C470.176 105.142 469.601 104.964 469.124 104.612C468.646 104.26 468.281 103.747 468.028 103.074C467.776 102.401 467.649 101.589 467.649 100.641C467.649 99.6946 467.776 98.8864 468.028 98.2159C468.284 97.5455 468.651 97.0341 469.128 96.6818C469.608 96.3295 470.182 96.1534 470.849 96.1534C471.517 96.1534 472.089 96.331 472.567 96.6861C473.044 97.0384 473.409 97.5497 473.662 98.2202C473.918 98.8878 474.045 99.6946 474.045 100.641C474.045 101.592 473.919 102.405 473.666 103.078C473.413 103.749 473.048 104.261 472.571 104.616C472.094 104.969 471.52 105.145 470.849 105.145ZM470.849 104.007C471.44 104.007 471.902 103.719 472.234 103.142C472.57 102.565 472.737 101.732 472.737 100.641C472.737 99.9162 472.66 99.304 472.507 98.804C472.357 98.3011 472.139 97.9205 471.855 97.6619C471.574 97.4006 471.239 97.2699 470.849 97.2699C470.261 97.2699 469.8 97.5597 469.464 98.1392C469.129 98.7187 468.96 99.5526 468.957 100.641C468.957 101.368 469.033 101.983 469.183 102.486C469.337 102.986 469.554 103.365 469.835 103.624C470.116 103.879 470.455 104.007 470.849 104.007ZM478.715 105.145C478.042 105.142 477.467 104.964 476.99 104.612C476.512 104.26 476.147 103.747 475.894 103.074C475.642 102.401 475.515 101.589 475.515 100.641C475.515 99.6946 475.642 98.8864 475.894 98.2159C476.15 97.5455 476.517 97.0341 476.994 96.6818C477.474 96.3295 478.048 96.1534 478.715 96.1534C479.383 96.1534 479.956 96.331 480.433 96.6861C480.91 97.0384 481.275 97.5497 481.528 98.2202C481.784 98.8878 481.912 99.6946 481.912 100.641C481.912 101.592 481.785 102.405 481.532 103.078C481.279 103.749 480.914 104.261 480.437 104.616C479.96 104.969 479.386 105.145 478.715 105.145ZM478.715 104.007C479.306 104.007 479.768 103.719 480.1 103.142C480.436 102.565 480.603 101.732 480.603 100.641C480.603 99.9162 480.527 99.304 480.373 98.804C480.223 98.3011 480.005 97.9205 479.721 97.6619C479.44 97.4006 479.105 97.2699 478.715 97.2699C478.127 97.2699 477.666 97.5597 477.331 98.1392C476.995 98.7187 476.826 99.5526 476.823 100.641C476.823 101.368 476.899 101.983 477.049 102.486C477.203 102.986 477.42 103.365 477.701 103.624C477.983 103.879 478.321 104.007 478.715 104.007ZM483.663 96.2727H485.261L488.039 103.057H488.141L490.92 96.2727H492.518V105H491.265V98.6847H491.184L488.61 104.987H487.57L484.996 98.6804H484.915V105H483.663V96.2727ZM497.774 95.8636L494.961 106.312H493.823L496.636 95.8636H497.774ZM498.776 103.295V102.23L502.547 96.2727H503.387V97.8409H502.854L500.156 102.111V102.179H505.325V103.295H498.776ZM502.914 105V102.972L502.922 102.486V96.2727H504.171V105H502.914ZM509.969 105.145C509.296 105.142 508.72 104.964 508.243 104.612C507.766 104.26 507.401 103.747 507.148 103.074C506.895 102.401 506.769 101.589 506.769 100.641C506.769 99.6946 506.895 98.8864 507.148 98.2159C507.404 97.5455 507.77 97.0341 508.247 96.6818C508.727 96.3295 509.301 96.1534 509.969 96.1534C510.637 96.1534 511.209 96.331 511.686 96.6861C512.164 97.0384 512.529 97.5497 512.781 98.2202C513.037 98.8878 513.165 99.6946 513.165 100.641C513.165 101.592 513.039 102.405 512.786 103.078C512.533 103.749 512.168 104.261 511.691 104.616C511.213 104.969 510.639 105.145 509.969 105.145ZM509.969 104.007C510.56 104.007 511.021 103.719 511.354 103.142C511.689 102.565 511.857 101.732 511.857 100.641C511.857 99.9162 511.78 99.304 511.627 98.804C511.476 98.3011 511.259 97.9205 510.975 97.6619C510.693 97.4006 510.358 97.2699 509.969 97.2699C509.381 97.2699 508.919 97.5597 508.584 98.1392C508.249 98.7187 508.08 99.5526 508.077 100.641C508.077 101.368 508.152 101.983 508.303 102.486C508.456 102.986 508.673 103.365 508.955 103.624C509.236 103.879 509.574 104.007 509.969 104.007ZM517.835 105.145C517.162 105.142 516.586 104.964 516.109 104.612C515.632 104.26 515.267 103.747 515.014 103.074C514.761 102.401 514.635 101.589 514.635 100.641C514.635 99.6946 514.761 98.8864 515.014 98.2159C515.27 97.5455 515.636 97.0341 516.113 96.6818C516.594 96.3295 517.167 96.1534 517.835 96.1534C518.503 96.1534 519.075 96.331 519.552 96.6861C520.03 97.0384 520.395 97.5497 520.648 98.2202C520.903 98.8878 521.031 99.6946 521.031 100.641C521.031 101.592 520.905 102.405 520.652 103.078C520.399 103.749 520.034 104.261 519.557 104.616C519.079 104.969 518.505 105.145 517.835 105.145ZM517.835 104.007C518.426 104.007 518.888 103.719 519.22 103.142C519.555 102.565 519.723 101.732 519.723 100.641C519.723 99.9162 519.646 99.304 519.493 98.804C519.342 98.3011 519.125 97.9205 518.841 97.6619C518.559 97.4006 518.224 97.2699 517.835 97.2699C517.247 97.2699 516.785 97.5597 516.45 98.1392C516.115 98.7187 515.946 99.5526 515.943 100.641C515.943 101.368 516.018 101.983 516.169 102.486C516.322 102.986 516.54 103.365 516.821 103.624C517.102 103.879 517.44 104.007 517.835 104.007ZM522.782 96.2727H524.38L527.159 103.057H527.261L530.039 96.2727H531.637V105H530.384V98.6847H530.303L527.73 104.987H526.69L524.116 98.6804H524.035V105H522.782V96.2727Z" fill="white"/>
<g clip-path="url(#clip0_987_12050)">
<rect x="352" y="114" width="181" height="8" rx="4" fill="#D6E6FF"/>
<rect x="352" y="114" width="181" height="8" rx="4" fill="#2772F5"/>
</g>
<path d="M566.044 112.744C565.813 114.919 564.581 116.957 562.541 118.134C559.154 120.09 554.821 118.929 552.865 115.541L552.657 115.18M551.955 111.256C552.187 109.081 553.419 107.043 555.458 105.865C558.846 103.909 563.178 105.07 565.134 108.458L565.343 108.819M551.911 117.055L552.521 114.778L554.798 115.388M563.202 108.611L565.479 109.221L566.089 106.945M559 108.25V112L561.083 113.25" stroke="#2772F5" stroke-width="1.6" stroke-linecap="round" stroke-linejoin="round"/>
<path d="M582.371 106.818V117H580.731L575.933 110.065H575.849V117H574.004V106.818H575.655L580.447 113.759H580.537V106.818H582.371ZM587.773 117.149C587.027 117.149 586.381 116.985 585.834 116.657C585.287 116.329 584.863 115.87 584.561 115.28C584.263 114.69 584.114 114 584.114 113.212C584.114 112.423 584.263 111.732 584.561 111.138C584.863 110.545 585.287 110.085 585.834 109.756C586.381 109.428 587.027 109.264 587.773 109.264C588.518 109.264 589.165 109.428 589.712 109.756C590.258 110.085 590.681 110.545 590.979 111.138C591.281 111.732 591.432 112.423 591.432 113.212C591.432 114 591.281 114.69 590.979 115.28C590.681 115.87 590.258 116.329 589.712 116.657C589.165 116.985 588.518 117.149 587.773 117.149ZM587.783 115.707C588.187 115.707 588.525 115.596 588.797 115.374C589.069 115.149 589.271 114.847 589.403 114.469C589.539 114.092 589.607 113.671 589.607 113.207C589.607 112.739 589.539 112.317 589.403 111.939C589.271 111.558 589.069 111.254 588.797 111.029C588.525 110.804 588.187 110.691 587.783 110.691C587.368 110.691 587.024 110.804 586.748 111.029C586.477 111.254 586.273 111.558 586.137 111.939C586.004 112.317 585.938 112.739 585.938 113.207C585.938 113.671 586.004 114.092 586.137 114.469C586.273 114.847 586.477 115.149 586.748 115.374C587.024 115.596 587.368 115.707 587.783 115.707ZM599.661 109.364L596.941 117H594.952L592.233 109.364H594.152L595.907 115.036H595.986L597.746 109.364H599.661ZM608.78 106.818V117H606.936V108.613H606.876L604.494 110.134V108.444L607.025 106.818H608.78ZM615.269 117.194C614.45 117.194 613.747 116.987 613.161 116.572C612.577 116.155 612.128 115.553 611.813 114.768C611.502 113.979 611.346 113.029 611.346 111.919C611.349 110.809 611.507 109.864 611.818 109.085C612.133 108.303 612.582 107.706 613.166 107.295C613.752 106.884 614.453 106.679 615.269 106.679C616.084 106.679 616.785 106.884 617.372 107.295C617.958 107.706 618.407 108.303 618.719 109.085C619.034 109.867 619.191 110.812 619.191 111.919C619.191 113.033 619.034 113.984 618.719 114.773C618.407 115.558 617.958 116.158 617.372 116.572C616.788 116.987 616.087 117.194 615.269 117.194ZM615.269 115.638C615.905 115.638 616.407 115.325 616.775 114.698C617.146 114.068 617.332 113.142 617.332 111.919C617.332 111.11 617.247 110.431 617.078 109.881C616.909 109.33 616.671 108.916 616.362 108.638C616.054 108.356 615.69 108.215 615.269 108.215C614.636 108.215 614.135 108.53 613.767 109.16C613.399 109.786 613.214 110.706 613.21 111.919C613.207 112.731 613.288 113.414 613.454 113.967C613.623 114.521 613.862 114.938 614.17 115.22C614.478 115.499 614.844 115.638 615.269 115.638Z" fill="#0B57D0"/>
<rect x="660.5" y="0.5" width="311" height="147" rx="23.5" fill="white"/>
<rect x="660.5" y="0.5" width="311" height="147" rx="23.5" stroke="#EDEDF0"/>
<path d="M685.119 39V28.8182H688.748C689.537 28.8182 690.191 28.9541 690.712 29.2259C691.235 29.4976 691.626 29.8738 691.885 30.3544C692.143 30.8317 692.273 31.3835 692.273 32.0099C692.273 32.633 692.142 33.1816 691.88 33.6555C691.621 34.1262 691.23 34.4924 690.707 34.7543C690.186 35.0161 689.532 35.147 688.743 35.147H685.994V33.8246H688.604C689.101 33.8246 689.505 33.7533 689.817 33.6108C690.132 33.4683 690.362 33.2611 690.508 32.9893C690.654 32.7176 690.727 32.3911 690.727 32.0099C690.727 31.6255 690.652 31.2924 690.503 31.0107C690.357 30.7289 690.127 30.5135 689.812 30.3643C689.5 30.2119 689.091 30.1357 688.584 30.1357H686.655V39H685.119ZM690.145 34.4062L692.661 39H690.911L688.445 34.4062H690.145ZM696.385 39.169C695.901 39.169 695.464 39.0795 695.073 38.9006C694.681 38.7183 694.372 38.4548 694.143 38.1101C693.917 37.7654 693.805 37.3428 693.805 36.8423C693.805 36.4115 693.888 36.0568 694.053 35.7784C694.219 35.5 694.443 35.2796 694.725 35.1172C695.006 34.9548 695.321 34.8321 695.669 34.7493C696.017 34.6664 696.372 34.6035 696.733 34.5604C697.19 34.5073 697.562 34.4643 697.847 34.4311C698.132 34.3946 698.339 34.3366 698.468 34.2571C698.597 34.1776 698.662 34.0483 698.662 33.8693V33.8345C698.662 33.4003 698.539 33.0639 698.294 32.8253C698.052 32.5866 697.691 32.4673 697.21 32.4673C696.71 32.4673 696.315 32.5784 696.027 32.8004C695.742 33.0192 695.545 33.2628 695.435 33.5312L694.038 33.2131C694.204 32.7491 694.446 32.3745 694.764 32.0895C695.086 31.8011 695.455 31.5923 695.873 31.4631C696.291 31.3305 696.73 31.2642 697.19 31.2642C697.495 31.2642 697.819 31.3007 698.16 31.3736C698.505 31.4432 698.826 31.5724 699.124 31.7614C699.426 31.9503 699.673 32.2204 699.865 32.5717C700.057 32.9197 700.153 33.3722 700.153 33.929V39H698.702V37.956H698.642C698.546 38.1482 698.402 38.3371 698.21 38.5227C698.017 38.7083 697.77 38.8625 697.469 38.9851C697.167 39.1077 696.806 39.169 696.385 39.169ZM696.708 37.9759C697.119 37.9759 697.47 37.8946 697.762 37.7322C698.057 37.5698 698.281 37.3577 698.433 37.0959C698.589 36.8307 698.667 36.5473 698.667 36.2457V35.2614C698.614 35.3144 698.511 35.3641 698.359 35.4105C698.21 35.4536 698.039 35.4917 697.847 35.5249C697.654 35.5547 697.467 35.5829 697.285 35.6094C697.103 35.6326 696.95 35.6525 696.828 35.669C696.539 35.7055 696.276 35.7668 696.037 35.853C695.802 35.9392 695.613 36.0634 695.47 36.2259C695.331 36.3849 695.261 36.5971 695.261 36.8622C695.261 37.2301 695.397 37.5085 695.669 37.6974C695.941 37.883 696.287 37.9759 696.708 37.9759ZM705.838 31.3636V32.5568H701.667V31.3636H705.838ZM702.786 29.5341H704.272V36.7578C704.272 37.0462 704.315 37.2633 704.401 37.4091C704.487 37.5516 704.598 37.6494 704.734 37.7024C704.874 37.7521 705.024 37.777 705.187 37.777C705.306 37.777 705.411 37.7687 705.5 37.7521C705.589 37.7356 705.659 37.7223 705.709 37.7124L705.977 38.9403C705.891 38.9735 705.768 39.0066 705.609 39.0398C705.45 39.0762 705.251 39.0961 705.013 39.0994C704.622 39.1061 704.257 39.0365 703.919 38.8906C703.581 38.7448 703.308 38.5194 703.099 38.2145C702.89 37.9096 702.786 37.5268 702.786 37.0661V29.5341ZM710.832 39.1541C710.079 39.1541 709.431 38.9934 708.888 38.6719C708.347 38.3471 707.93 37.8913 707.635 37.3047C707.343 36.7147 707.197 36.0237 707.197 35.2315C707.197 34.4493 707.343 33.7599 707.635 33.1634C707.93 32.5668 708.341 32.1011 708.868 31.7663C709.398 31.4316 710.018 31.2642 710.727 31.2642C711.158 31.2642 711.576 31.3355 711.98 31.478C712.384 31.6205 712.747 31.8442 713.069 32.1491C713.39 32.4541 713.644 32.8501 713.829 33.3374C714.015 33.8213 714.108 34.4096 714.108 35.1023V35.6293H708.038V34.5156H712.651C712.651 34.1245 712.572 33.7782 712.413 33.4766C712.253 33.1716 712.03 32.9313 711.741 32.7557C711.456 32.58 711.122 32.4922 710.737 32.4922C710.32 32.4922 709.955 32.5949 709.643 32.8004C709.335 33.0026 709.096 33.2678 708.927 33.5959C708.762 33.9207 708.679 34.2737 708.679 34.6548V35.5249C708.679 36.0353 708.768 36.4695 708.947 36.8274C709.13 37.1854 709.383 37.4588 709.708 37.6477C710.033 37.8333 710.412 37.9261 710.846 37.9261C711.128 37.9261 711.385 37.8864 711.617 37.8068C711.849 37.724 712.05 37.6013 712.219 37.4389C712.388 37.2765 712.517 37.076 712.606 36.8374L714.013 37.0909C713.901 37.5052 713.699 37.8681 713.407 38.1797C713.119 38.4879 712.756 38.7282 712.318 38.9006C711.884 39.0696 711.388 39.1541 710.832 39.1541ZM721.229 28.8182V39H719.742V28.8182H721.229ZM723.369 39V31.3636H724.855V39H723.369ZM724.119 30.1854C723.861 30.1854 723.639 30.0992 723.453 29.9268C723.271 29.7512 723.18 29.5424 723.18 29.3004C723.18 29.0552 723.271 28.8464 723.453 28.674C723.639 28.4983 723.861 28.4105 724.119 28.4105C724.378 28.4105 724.598 28.4983 724.781 28.674C724.966 28.8464 725.059 29.0552 725.059 29.3004C725.059 29.5424 724.966 29.7512 724.781 29.9268C724.598 30.0992 724.378 30.1854 724.119 30.1854ZM726.995 39V31.3636H728.422V32.6065H728.516C728.675 32.1856 728.935 31.8575 729.297 31.6222C729.658 31.3835 730.091 31.2642 730.594 31.2642C731.105 31.2642 731.532 31.3835 731.877 31.6222C732.225 31.8608 732.482 32.1889 732.648 32.6065H732.727C732.909 32.1989 733.199 31.8741 733.597 31.6321C733.995 31.3868 734.469 31.2642 735.019 31.2642C735.712 31.2642 736.277 31.4813 736.714 31.9155C737.155 32.3497 737.376 33.0043 737.376 33.8793V39H735.889V34.0185C735.889 33.5014 735.748 33.1269 735.467 32.8949C735.185 32.6629 734.848 32.5469 734.457 32.5469C733.973 32.5469 733.597 32.696 733.329 32.9943C733.06 33.2893 732.926 33.6688 732.926 34.1328V39H731.444V33.924C731.444 33.5097 731.315 33.1766 731.057 32.9247C730.798 32.6728 730.462 32.5469 730.047 32.5469C729.766 32.5469 729.506 32.6214 729.267 32.7706C729.032 32.9164 728.841 33.1203 728.695 33.3821C728.553 33.6439 728.481 33.9472 728.481 34.2919V39H726.995ZM739.508 39V31.3636H740.994V39H739.508ZM740.259 30.1854C740 30.1854 739.778 30.0992 739.592 29.9268C739.41 29.7512 739.319 29.5424 739.319 29.3004C739.319 29.0552 739.41 28.8464 739.592 28.674C739.778 28.4983 740 28.4105 740.259 28.4105C740.517 28.4105 740.738 28.4983 740.92 28.674C741.105 28.8464 741.198 29.0552 741.198 29.3004C741.198 29.5424 741.105 29.7512 740.92 29.9268C740.738 30.0992 740.517 30.1854 740.259 30.1854ZM746.699 31.3636V32.5568H742.528V31.3636H746.699ZM743.646 29.5341H745.133V36.7578C745.133 37.0462 745.176 37.2633 745.262 37.4091C745.348 37.5516 745.459 37.6494 745.595 37.7024C745.734 37.7521 745.885 37.777 746.048 37.777C746.167 37.777 746.271 37.7687 746.361 37.7521C746.45 37.7356 746.52 37.7223 746.57 37.7124L746.838 38.9403C746.752 38.9735 746.629 39.0066 746.47 39.0398C746.311 39.0762 746.112 39.0961 745.874 39.0994C745.483 39.1061 745.118 39.0365 744.78 38.8906C744.442 38.7448 744.168 38.5194 743.96 38.2145C743.751 37.9096 743.646 37.5268 743.646 37.0661V29.5341Z" fill="#AEAEB2"/>
<path d="M691.943 69.2386C691.108 69.233 690.293 69.0881 689.497 68.804C688.702 68.5142 687.986 68.0455 687.349 67.3977C686.713 66.7443 686.207 65.8778 685.832 64.7983C685.457 63.7131 685.273 62.3693 685.278 60.767C685.278 59.2727 685.438 57.9403 685.756 56.7699C686.074 55.5994 686.531 54.6108 687.128 53.804C687.724 52.9915 688.443 52.3722 689.284 51.946C690.131 51.5199 691.077 51.3068 692.122 51.3068C693.219 51.3068 694.19 51.5227 695.037 51.9545C695.889 52.3864 696.577 52.9773 697.099 53.7273C697.622 54.4716 697.946 55.3125 698.071 56.25H694.96C694.801 55.5795 694.474 55.0455 693.98 54.6477C693.491 54.2443 692.872 54.0426 692.122 54.0426C690.912 54.0426 689.98 54.5682 689.327 55.6193C688.679 56.6705 688.352 58.1136 688.347 59.9489H688.466C688.744 59.4489 689.105 59.0199 689.548 58.6619C689.991 58.304 690.491 58.0284 691.048 57.8352C691.611 57.6364 692.205 57.5369 692.83 57.5369C693.852 57.5369 694.77 57.7812 695.582 58.2699C696.401 58.7585 697.048 59.4318 697.526 60.2898C698.003 61.142 698.239 62.1193 698.233 63.2216C698.239 64.3693 697.977 65.4006 697.449 66.3153C696.92 67.2244 696.185 67.9403 695.241 68.4631C694.298 68.9858 693.199 69.2443 691.943 69.2386ZM691.926 66.6818C692.545 66.6818 693.099 66.5312 693.588 66.2301C694.077 65.929 694.463 65.5227 694.747 65.0114C695.031 64.5 695.17 63.9261 695.165 63.2898C695.17 62.6648 695.034 62.0994 694.756 61.5938C694.483 61.0881 694.105 60.6875 693.622 60.392C693.139 60.0966 692.588 59.9489 691.969 59.9489C691.509 59.9489 691.08 60.0369 690.682 60.2131C690.284 60.3892 689.938 60.6335 689.642 60.946C689.347 61.2528 689.114 61.6108 688.943 62.0199C688.778 62.4233 688.693 62.8551 688.688 63.3153C688.693 63.9233 688.835 64.483 689.114 64.9943C689.392 65.5057 689.776 65.9148 690.264 66.2216C690.753 66.5284 691.307 66.6818 691.926 66.6818ZM707.565 69.3324C706.162 69.3324 704.957 68.9773 703.952 68.267C702.952 67.5511 702.182 66.5199 701.642 65.1733C701.108 63.821 700.841 62.1932 700.841 60.2898C700.847 58.3864 701.116 56.767 701.651 55.4318C702.19 54.0909 702.96 53.0682 703.96 52.3636C704.966 51.6591 706.168 51.3068 707.565 51.3068C708.963 51.3068 710.165 51.6591 711.17 52.3636C712.176 53.0682 712.946 54.0909 713.48 55.4318C714.02 56.7727 714.29 58.392 714.29 60.2898C714.29 62.1989 714.02 63.8295 713.48 65.1818C712.946 66.5284 712.176 67.5568 711.17 68.267C710.17 68.9773 708.969 69.3324 707.565 69.3324ZM707.565 66.6648C708.656 66.6648 709.517 66.1278 710.148 65.054C710.784 63.9744 711.102 62.3864 711.102 60.2898C711.102 58.9034 710.957 57.7386 710.668 56.7955C710.378 55.8523 709.969 55.142 709.44 54.6648C708.912 54.1818 708.287 53.9403 707.565 53.9403C706.48 53.9403 705.622 54.4801 704.991 55.5597C704.361 56.6335 704.043 58.2102 704.037 60.2898C704.031 61.6818 704.17 62.8523 704.455 63.8011C704.744 64.75 705.153 65.4659 705.682 65.9489C706.21 66.4261 706.838 66.6648 707.565 66.6648ZM723.573 69.3324C722.17 69.3324 720.965 68.9773 719.96 68.267C718.96 67.5511 718.19 66.5199 717.65 65.1733C717.116 63.821 716.849 62.1932 716.849 60.2898C716.854 58.3864 717.124 56.767 717.658 55.4318C718.198 54.0909 718.968 53.0682 719.968 52.3636C720.974 51.6591 722.175 51.3068 723.573 51.3068C724.971 51.3068 726.173 51.6591 727.178 52.3636C728.184 53.0682 728.954 54.0909 729.488 55.4318C730.028 56.7727 730.298 58.392 730.298 60.2898C730.298 62.1989 730.028 63.8295 729.488 65.1818C728.954 66.5284 728.184 67.5568 727.178 68.267C726.178 68.9773 724.977 69.3324 723.573 69.3324ZM723.573 66.6648C724.664 66.6648 725.525 66.1278 726.156 65.054C726.792 63.9744 727.11 62.3864 727.11 60.2898C727.11 58.9034 726.965 57.7386 726.675 56.7955C726.386 55.8523 725.977 55.142 725.448 54.6648C724.92 54.1818 724.295 53.9403 723.573 53.9403C722.488 53.9403 721.63 54.4801 720.999 55.5597C720.369 56.6335 720.05 58.2102 720.045 60.2898C720.039 61.6818 720.178 62.8523 720.462 63.8011C720.752 64.75 721.161 65.4659 721.69 65.9489C722.218 66.4261 722.846 66.6648 723.573 66.6648ZM738.679 69V57.3636H743.043C743.937 57.3636 744.687 57.5189 745.293 57.8295C745.902 58.1402 746.363 58.5758 746.673 59.1364C746.988 59.6932 747.145 60.3428 747.145 61.0852C747.145 61.8314 746.986 62.4792 746.668 63.0284C746.353 63.5739 745.889 63.9962 745.276 64.2955C744.662 64.5909 743.908 64.7386 743.014 64.7386H739.906V62.9886H742.73C743.253 62.9886 743.681 62.9167 744.014 62.7727C744.348 62.625 744.594 62.411 744.753 62.1307C744.916 61.8466 744.997 61.4981 744.997 61.0852C744.997 60.6723 744.916 60.3201 744.753 60.0284C744.59 59.733 744.342 59.5095 744.009 59.358C743.675 59.2027 743.245 59.125 742.719 59.125H740.787V69H738.679ZM744.69 63.7273L747.571 69H745.219L742.389 63.7273H744.69ZM749.085 69V57.3636H753.449C754.343 57.3636 755.093 57.5303 755.699 57.8636C756.309 58.197 756.769 58.6553 757.08 59.2386C757.394 59.8182 757.551 60.4773 757.551 61.2159C757.551 61.9621 757.394 62.625 757.08 63.2045C756.765 63.7841 756.301 64.2405 755.688 64.5739C755.074 64.9034 754.318 65.0682 753.42 65.0682H750.528V63.3352H753.136C753.659 63.3352 754.087 63.2443 754.42 63.0625C754.754 62.8807 755 62.6307 755.159 62.3125C755.322 61.9943 755.403 61.6288 755.403 61.2159C755.403 60.803 755.322 60.4394 755.159 60.125C755 59.8106 754.752 59.5663 754.415 59.392C754.081 59.214 753.652 59.125 753.125 59.125H751.193V69H749.085ZM765.706 60.5625C765.653 60.0663 765.429 59.6799 765.036 59.4034C764.645 59.1269 764.138 58.9886 763.513 58.9886C763.073 58.9886 762.696 59.0549 762.382 59.1875C762.068 59.3201 761.827 59.5 761.661 59.7273C761.494 59.9545 761.409 60.214 761.405 60.5057C761.405 60.7481 761.46 60.9583 761.57 61.1364C761.683 61.3144 761.837 61.4659 762.03 61.5909C762.223 61.7121 762.437 61.8144 762.672 61.8977C762.907 61.9811 763.143 62.0511 763.382 62.108L764.473 62.3807C764.912 62.483 765.335 62.6212 765.74 62.7955C766.149 62.9697 766.515 63.1894 766.837 63.4545C767.162 63.7197 767.42 64.0398 767.609 64.4148C767.799 64.7898 767.893 65.2292 767.893 65.733C767.893 66.4148 767.719 67.0152 767.371 67.5341C767.022 68.0492 766.518 68.4527 765.859 68.7443C765.204 69.0322 764.411 69.1761 763.479 69.1761C762.573 69.1761 761.787 69.036 761.121 68.7557C760.458 68.4754 759.939 68.0663 759.564 67.5284C759.193 66.9905 758.992 66.3352 758.962 65.5625H761.036C761.066 65.9678 761.191 66.3049 761.411 66.5739C761.63 66.8428 761.916 67.0436 762.268 67.1761C762.625 67.3087 763.022 67.375 763.462 67.375C763.92 67.375 764.321 67.3068 764.666 67.1705C765.015 67.0303 765.287 66.8371 765.484 66.5909C765.681 66.3409 765.782 66.0492 765.786 65.7159C765.782 65.4129 765.693 65.1629 765.518 64.9659C765.344 64.7652 765.1 64.5985 764.786 64.4659C764.475 64.3295 764.111 64.2083 763.695 64.1023L762.371 63.7614C761.412 63.5152 760.655 63.142 760.098 62.642C759.545 62.1383 759.268 61.4697 759.268 60.6364C759.268 59.9508 759.454 59.3504 759.825 58.8352C760.2 58.3201 760.71 57.9205 761.354 57.6364C761.998 57.3485 762.727 57.2045 763.541 57.2045C764.367 57.2045 765.09 57.3485 765.712 57.6364C766.337 57.9205 766.827 58.3163 767.183 58.8239C767.539 59.3277 767.723 59.9072 767.734 60.5625H765.706Z" fill="#1E1E1F"/>
<rect x="684" y="92" width="8" height="32" rx="4" fill="#2772F5"/>
<g clip-path="url(#clip1_987_12050)">
<rect x="696" y="92" width="8" height="32" rx="4" fill="#C2DAFF"/>
<rect x="696" y="92" width="8" height="32" rx="4" fill="#2772F5"/>
</g>
<rect x="708" y="92" width="8" height="32" rx="4" fill="#2772F5"/>
<rect x="720" y="92" width="8" height="32" rx="4" fill="#2772F5"/>
<rect x="732" y="92" width="8" height="32" rx="4" fill="#2772F5"/>
<rect x="744" y="92" width="8" height="32" rx="4" fill="#2772F5"/>
<rect x="756" y="92" width="8" height="32" rx="4" fill="#2772F5"/>
<rect x="768" y="92" width="8" height="32" rx="4" fill="#2772F5"/>
<rect x="780" y="92" width="8" height="32" rx="4" fill="#2772F5"/>
<rect x="792" y="92" width="8" height="32" rx="4" fill="#2772F5"/>
<rect x="804" y="92" width="8" height="32" rx="4" fill="#2772F5"/>
<rect x="816" y="92" width="8" height="32" rx="4" fill="#2772F5"/>
<rect x="828" y="92" width="8" height="32" rx="4" fill="#2772F5"/>
<rect x="840" y="92" width="8" height="32" rx="4" fill="#2772F5"/>
<rect x="852" y="92" width="8" height="32" rx="4" fill="#2772F5"/>
<rect x="864" y="92" width="8" height="32" rx="4" fill="#2772F5"/>
<rect x="876" y="92" width="8" height="32" rx="4" fill="#2772F5"/>
<rect x="888" y="92" width="8" height="32" rx="4" fill="#2772F5"/>
<rect x="900" y="92" width="8" height="32" rx="4" fill="#2772F5"/>
<rect x="912" y="92" width="8" height="32" rx="4" fill="#2772F5"/>
<rect x="924" y="92" width="8" height="32" rx="4" fill="#2772F5"/>
<rect x="936" y="92" width="8" height="32" rx="4" fill="#2772F5"/>
<defs>
<clipPath id="clip0_987_12050">
<rect x="352" y="114" width="181" height="8" rx="4" fill="white"/>
</clipPath>
<clipPath id="clip1_987_12050">
<rect x="696" y="92" width="8" height="32" rx="4" fill="white"/>
</clipPath>
</defs>
</svg>
