<svg width="972" height="146" viewBox="0 0 972 146" fill="none" xmlns="http://www.w3.org/2000/svg">
<rect x="0.5" y="0.5" width="311" height="145" rx="23.5" fill="white"/>
<rect x="0.5" y="0.5" width="311" height="145" rx="23.5" stroke="#EDEDF0"/>
<path d="M25.1186 39V28.8182H28.7479C29.54 28.8182 30.1963 28.9624 30.7166 29.2507C31.237 29.5391 31.6264 29.9335 31.8849 30.4339C32.1435 30.9311 32.2727 31.4912 32.2727 32.1143C32.2727 32.7408 32.1418 33.3042 31.88 33.8047C31.6214 34.3018 31.2304 34.6963 30.7067 34.9879C30.1863 35.2763 29.5317 35.4205 28.7429 35.4205H26.2472V34.1179H28.6037C29.1042 34.1179 29.5102 34.0317 29.8217 33.8594C30.1333 33.6837 30.362 33.4451 30.5078 33.1435C30.6536 32.8419 30.7266 32.4988 30.7266 32.1143C30.7266 31.7299 30.6536 31.3885 30.5078 31.0902C30.362 30.7919 30.1316 30.5582 29.8168 30.3892C29.5052 30.2202 29.0942 30.1357 28.5838 30.1357H26.6548V39H25.1186ZM35.5809 28.8182V39H34.0944V28.8182H35.5809ZM39.943 39.169C39.4591 39.169 39.0216 39.0795 38.6305 38.9006C38.2394 38.7183 37.9295 38.4548 37.7008 38.1101C37.4754 37.7654 37.3627 37.3428 37.3627 36.8423C37.3627 36.4115 37.4456 36.0568 37.6113 35.7784C37.777 35.5 38.0008 35.2796 38.2825 35.1172C38.5642 34.9548 38.8791 34.8321 39.2271 34.7493C39.5751 34.6664 39.9297 34.6035 40.291 34.5604C40.7484 34.5073 41.1196 34.4643 41.4046 34.4311C41.6897 34.3946 41.8968 34.3366 42.0261 34.2571C42.1554 34.1776 42.22 34.0483 42.22 33.8693V33.8345C42.22 33.4003 42.0974 33.0639 41.8521 32.8253C41.6101 32.5866 41.2489 32.4673 40.7683 32.4673C40.2678 32.4673 39.8734 32.5784 39.585 32.8004C39.3 33.0192 39.1028 33.2628 38.9934 33.5312L37.5964 33.2131C37.7621 32.7491 38.0041 32.3745 38.3223 32.0895C38.6438 31.8011 39.0133 31.5923 39.4309 31.4631C39.8485 31.3305 40.2877 31.2642 40.7484 31.2642C41.0533 31.2642 41.3765 31.3007 41.7179 31.3736C42.0626 31.4432 42.384 31.5724 42.6823 31.7614C42.984 31.9503 43.2309 32.2204 43.4231 32.5717C43.6153 32.9197 43.7115 33.3722 43.7115 33.929V39H42.2598V37.956H42.2001C42.104 38.1482 41.9598 38.3371 41.7676 38.5227C41.5753 38.7083 41.3284 38.8625 41.0268 38.9851C40.7252 39.1077 40.3639 39.169 39.943 39.169ZM40.2662 37.9759C40.6771 37.9759 41.0285 37.8946 41.3201 37.7322C41.6151 37.5698 41.8388 37.3577 41.9913 37.0959C42.1471 36.8307 42.225 36.5473 42.225 36.2457V35.2614C42.1719 35.3144 42.0692 35.3641 41.9167 35.4105C41.7676 35.4536 41.5969 35.4917 41.4046 35.5249C41.2124 35.5547 41.0251 35.5829 40.8429 35.6094C40.6606 35.6326 40.5081 35.6525 40.3855 35.669C40.0971 35.7055 39.8336 35.7668 39.595 35.853C39.3597 35.9392 39.1707 36.0634 39.0282 36.2259C38.889 36.3849 38.8194 36.5971 38.8194 36.8622C38.8194 37.2301 38.9553 37.5085 39.2271 37.6974C39.4989 37.883 39.8452 37.9759 40.2662 37.9759ZM47.3179 34.4659V39H45.8314V31.3636H47.2582V32.6065H47.3527C47.5284 32.2022 47.8035 31.8774 48.178 31.6321C48.5558 31.3868 49.0314 31.2642 49.6048 31.2642C50.1252 31.2642 50.5809 31.3736 50.972 31.5923C51.3631 31.8078 51.6664 32.1293 51.8818 32.5568C52.0973 32.9844 52.205 33.513 52.205 34.1428V39H50.7185V34.3217C50.7185 33.7682 50.5743 33.3357 50.2859 33.0241C49.9976 32.7093 49.6015 32.5518 49.0977 32.5518C48.753 32.5518 48.4465 32.6264 48.178 32.7756C47.9128 32.9247 47.7024 33.1435 47.5466 33.4318C47.3941 33.7169 47.3179 34.0616 47.3179 34.4659Z" fill="#AEAEB2"/>
<path d="M34.9858 56.5653C34.9176 55.8778 34.625 55.3437 34.108 54.9631C33.5909 54.5824 32.8892 54.392 32.0028 54.392C31.4006 54.392 30.892 54.4773 30.4773 54.6477C30.0625 54.8125 29.7443 55.0426 29.5227 55.3381C29.3068 55.6335 29.1989 55.9688 29.1989 56.3438C29.1875 56.6562 29.2528 56.929 29.3949 57.1619C29.5426 57.3949 29.7443 57.5966 30 57.767C30.2557 57.9318 30.5511 58.0767 30.8864 58.2017C31.2216 58.321 31.5795 58.4233 31.9602 58.5085L33.5284 58.8835C34.2898 59.054 34.9886 59.2812 35.625 59.5653C36.2614 59.8494 36.8125 60.1989 37.2784 60.6136C37.7443 61.0284 38.1051 61.517 38.3608 62.0795C38.6222 62.642 38.7557 63.2869 38.7614 64.0142C38.7557 65.0824 38.483 66.0085 37.9432 66.7926C37.4091 67.571 36.6364 68.1761 35.625 68.608C34.6193 69.0341 33.4063 69.2472 31.9858 69.2472C30.5767 69.2472 29.3494 69.0312 28.304 68.5994C27.2642 68.1676 26.4517 67.5284 25.8665 66.6818C25.2869 65.8295 24.983 64.7756 24.9545 63.5199H28.5256C28.5653 64.1051 28.733 64.5937 29.0284 64.9858C29.3295 65.3722 29.7301 65.6648 30.2301 65.8636C30.7358 66.0568 31.3068 66.1534 31.9432 66.1534C32.5682 66.1534 33.1108 66.0625 33.571 65.8807C34.0369 65.6989 34.3977 65.446 34.6534 65.1222C34.9091 64.7983 35.0369 64.4261 35.0369 64.0057C35.0369 63.6136 34.9205 63.2841 34.6875 63.017C34.4602 62.75 34.125 62.5227 33.6818 62.3352C33.2443 62.1477 32.7074 61.9773 32.071 61.8239L30.1705 61.3466C28.6989 60.9886 27.5369 60.429 26.6847 59.6676C25.8324 58.9062 25.4091 57.8807 25.4148 56.5909C25.4091 55.5341 25.6903 54.6108 26.2585 53.821C26.8324 53.0312 27.6193 52.4148 28.6193 51.9716C29.6193 51.5284 30.7557 51.3068 32.0284 51.3068C33.3239 51.3068 34.4545 51.5284 35.4205 51.9716C36.392 52.4148 37.1477 53.0312 37.6875 53.821C38.2273 54.6108 38.5057 55.5256 38.5227 56.5653H34.9858ZM48.1385 55.9091V58.6364H40.255V55.9091H48.1385ZM42.0447 52.7727H45.6754V64.9773C45.6754 65.3125 45.7266 65.5739 45.8288 65.7614C45.9311 65.9432 46.0732 66.071 46.255 66.1449C46.4425 66.2187 46.6584 66.2557 46.9027 66.2557C47.0732 66.2557 47.2436 66.2415 47.4141 66.2131C47.5845 66.179 47.7152 66.1534 47.8061 66.1364L48.3771 68.8381C48.1953 68.8949 47.9396 68.9602 47.6101 69.0341C47.2805 69.1136 46.88 69.1619 46.4084 69.179C45.5334 69.2131 44.7663 69.0966 44.1072 68.8295C43.4538 68.5625 42.9453 68.1477 42.5817 67.5852C42.218 67.0227 42.0391 66.3125 42.0447 65.4545V52.7727ZM54.2365 69.2472C53.4013 69.2472 52.657 69.1023 52.0036 68.8125C51.3501 68.517 50.8331 68.0824 50.4524 67.5085C50.0774 66.929 49.8899 66.2074 49.8899 65.3438C49.8899 64.6165 50.0234 64.0057 50.2905 63.5114C50.5575 63.017 50.9212 62.6193 51.3814 62.3182C51.8416 62.017 52.3643 61.7898 52.9496 61.6364C53.5405 61.483 54.1598 61.375 54.8075 61.3125C55.5689 61.233 56.1825 61.1591 56.6484 61.0909C57.1143 61.017 57.4524 60.9091 57.6626 60.767C57.8729 60.625 57.978 60.4148 57.978 60.1364V60.0852C57.978 59.5455 57.8075 59.1278 57.4666 58.8324C57.1314 58.5369 56.6541 58.3892 56.0348 58.3892C55.3814 58.3892 54.8615 58.5341 54.4751 58.8239C54.0888 59.108 53.8331 59.4659 53.7081 59.8977L50.3501 59.625C50.5206 58.8295 50.8558 58.142 51.3558 57.5625C51.8558 56.9773 52.5007 56.5284 53.2905 56.2159C54.0859 55.8977 55.0064 55.7386 56.0518 55.7386C56.7791 55.7386 57.4751 55.8239 58.1399 55.9943C58.8104 56.1648 59.4041 56.429 59.9212 56.7869C60.4439 57.1449 60.8558 57.6051 61.157 58.1676C61.4581 58.7244 61.6087 59.392 61.6087 60.1705V69H58.1655V67.1847H58.0632C57.853 67.5938 57.5717 67.9545 57.2195 68.267C56.8672 68.5739 56.4439 68.8153 55.9496 68.9915C55.4553 69.1619 54.8842 69.2472 54.2365 69.2472ZM55.2763 66.7415C55.8104 66.7415 56.282 66.6364 56.6911 66.4261C57.1001 66.2102 57.4212 65.9205 57.6541 65.5568C57.8871 65.1932 58.0036 64.7812 58.0036 64.321V62.9318C57.8899 63.0057 57.7337 63.0739 57.5348 63.1364C57.3416 63.1932 57.1229 63.2472 56.8786 63.2983C56.6342 63.3437 56.3899 63.3864 56.1456 63.4261C55.9013 63.4602 55.6797 63.4915 55.4808 63.5199C55.0547 63.5824 54.6825 63.6818 54.3643 63.8182C54.0462 63.9545 53.799 64.1392 53.6229 64.3722C53.4467 64.5994 53.3587 64.8835 53.3587 65.2244C53.3587 65.7188 53.5376 66.0966 53.8956 66.358C54.2592 66.6136 54.7195 66.7415 55.2763 66.7415ZM64.4254 69V55.9091H67.9453V58.1932H68.0817C68.3203 57.3807 68.7209 56.767 69.2834 56.3523C69.8459 55.9318 70.4936 55.7216 71.2266 55.7216C71.4084 55.7216 71.6044 55.733 71.8146 55.7557C72.0249 55.7784 72.2095 55.8097 72.3686 55.8494V59.071C72.1982 59.0199 71.9624 58.9744 71.6612 58.9347C71.3601 58.8949 71.0845 58.875 70.8345 58.875C70.3004 58.875 69.8232 58.9915 69.4027 59.2244C68.9879 59.4517 68.6584 59.7699 68.4141 60.179C68.1754 60.5881 68.0561 61.0597 68.0561 61.5938V69H64.4254ZM81.8651 55.9091V58.6364H73.9815V55.9091H81.8651ZM75.7713 52.7727H79.402V64.9773C79.402 65.3125 79.4531 65.5739 79.5554 65.7614C79.6577 65.9432 79.7997 66.071 79.9815 66.1449C80.169 66.2187 80.3849 66.2557 80.6293 66.2557C80.7997 66.2557 80.9702 66.2415 81.1406 66.2131C81.3111 66.179 81.4418 66.1534 81.5327 66.1364L82.1037 68.8381C81.9219 68.8949 81.6662 68.9602 81.3366 69.0341C81.0071 69.1136 80.6065 69.1619 80.1349 69.179C79.2599 69.2131 78.4929 69.0966 77.8338 68.8295C77.1804 68.5625 76.6719 68.1477 76.3082 67.5852C75.9446 67.0227 75.7656 66.3125 75.7713 65.4545V52.7727ZM90.0554 69.2557C88.7088 69.2557 87.5497 68.983 86.5781 68.4375C85.6122 67.8864 84.8679 67.108 84.3452 66.1023C83.8224 65.0909 83.5611 63.8949 83.5611 62.5142C83.5611 61.1676 83.8224 59.9858 84.3452 58.9688C84.8679 57.9517 85.6037 57.1591 86.5526 56.5909C87.5071 56.0227 88.6264 55.7386 89.9105 55.7386C90.7741 55.7386 91.5781 55.8778 92.3224 56.1562C93.0724 56.429 93.7259 56.8409 94.2827 57.392C94.8452 57.9432 95.2827 58.6364 95.5952 59.4716C95.9077 60.3011 96.0639 61.2727 96.0639 62.3864V63.3835H85.0099V61.1335H92.6463C92.6463 60.6108 92.5327 60.1477 92.3054 59.7443C92.0781 59.3409 91.7628 59.0256 91.3594 58.7983C90.9616 58.5653 90.4986 58.4489 89.9702 58.4489C89.419 58.4489 88.9304 58.5767 88.5043 58.8324C88.0838 59.0824 87.7543 59.4205 87.5156 59.8466C87.277 60.267 87.1548 60.7358 87.1491 61.2528V63.392C87.1491 64.0398 87.2685 64.5994 87.5071 65.071C87.7514 65.5426 88.0952 65.9062 88.5384 66.1619C88.9815 66.4176 89.5071 66.5455 90.1151 66.5455C90.5185 66.5455 90.8878 66.4886 91.223 66.375C91.5582 66.2614 91.8452 66.0909 92.0838 65.8636C92.3224 65.6364 92.5043 65.358 92.6293 65.0284L95.9872 65.25C95.8168 66.0568 95.4673 66.7614 94.9389 67.3636C94.4162 67.9602 93.7401 68.4261 92.9105 68.7614C92.0866 69.0909 91.1349 69.2557 90.0554 69.2557ZM98.4332 69V55.9091H101.953V58.1932H102.089C102.328 57.3807 102.729 56.767 103.291 56.3523C103.854 55.9318 104.501 55.7216 105.234 55.7216C105.416 55.7216 105.612 55.733 105.822 55.7557C106.033 55.7784 106.217 55.8097 106.376 55.8494V59.071C106.206 59.0199 105.97 58.9744 105.669 58.9347C105.368 58.8949 105.092 58.875 104.842 58.875C104.308 58.875 103.831 58.9915 103.411 59.2244C102.996 59.4517 102.666 59.7699 102.422 60.179C102.183 60.5881 102.064 61.0597 102.064 61.5938V69H98.4332Z" fill="#1E1E1F"/>
<rect x="24" y="98" width="63" height="24" rx="12" fill="#EDEEF0"/>
<path d="M35.636 114.144C35.092 114.144 34.624 114.04 34.232 113.832C33.848 113.616 33.544 113.336 33.32 112.992C33.104 112.64 32.968 112.26 32.912 111.852H34.028C34.108 112.26 34.288 112.576 34.568 112.8C34.856 113.016 35.216 113.124 35.648 113.124C36.048 113.124 36.396 113.008 36.692 112.776C36.996 112.536 37.236 112.176 37.412 111.696C37.596 111.208 37.704 110.596 37.736 109.86C37.736 109.828 37.736 109.796 37.736 109.764C37.736 109.732 37.736 109.7 37.736 109.668C37.616 109.908 37.444 110.128 37.22 110.328C37.004 110.528 36.744 110.688 36.44 110.808C36.136 110.928 35.804 110.988 35.444 110.988C34.98 110.988 34.54 110.88 34.124 110.664C33.716 110.44 33.384 110.124 33.128 109.716C32.88 109.308 32.756 108.832 32.756 108.288C32.756 107.8 32.872 107.34 33.104 106.908C33.344 106.476 33.676 106.128 34.1 105.864C34.532 105.592 35.04 105.456 35.624 105.456C36.232 105.456 36.744 105.572 37.16 105.804C37.584 106.028 37.92 106.332 38.168 106.716C38.424 107.1 38.608 107.532 38.72 108.012C38.832 108.492 38.888 108.984 38.888 109.488C38.888 110.408 38.76 111.22 38.504 111.924C38.248 112.62 37.876 113.164 37.388 113.556C36.908 113.948 36.324 114.144 35.636 114.144ZM35.708 109.968C36.044 109.968 36.348 109.892 36.62 109.74C36.892 109.588 37.104 109.38 37.256 109.116C37.416 108.852 37.496 108.556 37.496 108.228C37.496 107.884 37.416 107.584 37.256 107.328C37.104 107.064 36.892 106.86 36.62 106.716C36.348 106.572 36.04 106.5 35.696 106.5C35.368 106.5 35.068 106.576 34.796 106.728C34.532 106.872 34.324 107.076 34.172 107.34C34.02 107.596 33.944 107.896 33.944 108.24C33.944 108.584 34.02 108.888 34.172 109.152C34.324 109.408 34.532 109.608 34.796 109.752C35.068 109.896 35.372 109.968 35.708 109.968ZM43.7469 114.144C43.0189 114.144 42.3909 113.964 41.8629 113.604C41.3429 113.236 40.9429 112.728 40.6629 112.08C40.3829 111.424 40.2429 110.664 40.2429 109.8C40.2429 108.936 40.3829 108.18 40.6629 107.532C40.9429 106.876 41.3429 106.368 41.8629 106.008C42.3909 105.64 43.0189 105.456 43.7469 105.456C44.4829 105.456 45.1069 105.64 45.6189 106.008C46.1389 106.368 46.5389 106.876 46.8189 107.532C47.1069 108.18 47.2509 108.936 47.2509 109.8C47.2509 110.664 47.1069 111.424 46.8189 112.08C46.5389 112.728 46.1389 113.236 45.6189 113.604C45.1069 113.964 44.4829 114.144 43.7469 114.144ZM43.7469 113.076C44.1869 113.076 44.5749 112.944 44.9109 112.68C45.2549 112.416 45.5229 112.04 45.7149 111.552C45.9149 111.064 46.0149 110.48 46.0149 109.8C46.0149 109.112 45.9149 108.528 45.7149 108.048C45.5229 107.56 45.2549 107.188 44.9109 106.932C44.5749 106.668 44.1869 106.536 43.7469 106.536C43.3069 106.536 42.9149 106.668 42.5709 106.932C42.2269 107.188 41.9549 107.56 41.7549 108.048C41.5629 108.528 41.4669 109.112 41.4669 109.8C41.4669 110.48 41.5629 111.064 41.7549 111.552C41.9549 112.04 42.2269 112.416 42.5709 112.68C42.9149 112.944 43.3069 113.076 43.7469 113.076ZM48.8194 114V105.6H50.2354L53.0314 111.288L55.8154 105.6H57.2314V114H56.0314V107.712L53.4874 112.848H52.5634L50.0194 107.736V114H48.8194ZM65.9965 114.144C65.1805 114.144 64.4765 113.964 63.8845 113.604C63.2925 113.236 62.8365 112.728 62.5165 112.08C62.1965 111.424 62.0365 110.664 62.0365 109.8C62.0365 108.944 62.1965 108.188 62.5165 107.532C62.8365 106.876 63.2925 106.368 63.8845 106.008C64.4765 105.64 65.1805 105.456 65.9965 105.456C66.9725 105.456 67.7645 105.692 68.3725 106.164C68.9805 106.636 69.3685 107.3 69.5365 108.156H68.2285C68.1005 107.66 67.8525 107.264 67.4845 106.968C67.1165 106.672 66.6165 106.524 65.9845 106.524C65.4325 106.524 64.9485 106.656 64.5325 106.92C64.1245 107.184 63.8085 107.56 63.5845 108.048C63.3685 108.536 63.2605 109.12 63.2605 109.8C63.2605 110.48 63.3685 111.068 63.5845 111.564C63.8085 112.052 64.1245 112.428 64.5325 112.692C64.9485 112.948 65.4325 113.076 65.9845 113.076C66.6165 113.076 67.1165 112.936 67.4845 112.656C67.8525 112.368 68.1005 111.98 68.2285 111.492H69.5365C69.3685 112.324 68.9805 112.976 68.3725 113.448C67.7645 113.912 66.9725 114.144 65.9965 114.144ZM74.2009 114.144C73.6089 114.144 73.0729 114.028 72.5929 113.796C72.1129 113.556 71.7289 113.196 71.4409 112.716C71.1609 112.228 71.0209 111.608 71.0209 110.856V105.6H72.2209V110.868C72.2209 111.372 72.3049 111.788 72.4729 112.116C72.6409 112.436 72.8729 112.676 73.1689 112.836C73.4729 112.988 73.8249 113.064 74.2249 113.064C74.6329 113.064 74.9809 112.988 75.2689 112.836C75.5649 112.676 75.7929 112.436 75.9529 112.116C76.1209 111.788 76.2049 111.372 76.2049 110.868V105.6H77.4049V110.856C77.4049 111.608 77.2609 112.228 76.9729 112.716C76.6849 113.196 76.2969 113.556 75.8089 113.796C75.3289 114.028 74.7929 114.144 74.2009 114.144Z" fill="#1E1E1F"/>
<rect x="94" y="98" width="64" height="24" rx="12" fill="#EDEEF0"/>
<path d="M102.72 114V113.136C103.288 112.704 103.824 112.268 104.328 111.828C104.84 111.388 105.296 110.952 105.696 110.52C106.096 110.08 106.408 109.652 106.632 109.236C106.864 108.812 106.98 108.408 106.98 108.024C106.98 107.752 106.928 107.5 106.824 107.268C106.728 107.036 106.572 106.848 106.356 106.704C106.148 106.552 105.864 106.476 105.504 106.476C105.152 106.476 104.86 106.552 104.628 106.704C104.396 106.856 104.22 107.06 104.1 107.316C103.988 107.564 103.932 107.84 103.932 108.144H102.768C102.776 107.568 102.9 107.08 103.14 106.68C103.38 106.28 103.708 105.976 104.124 105.768C104.54 105.56 105.008 105.456 105.528 105.456C106.064 105.456 106.528 105.556 106.92 105.756C107.312 105.948 107.62 106.232 107.844 106.608C108.068 106.984 108.18 107.436 108.18 107.964C108.18 108.348 108.1 108.732 107.94 109.116C107.788 109.492 107.58 109.86 107.316 110.22C107.052 110.58 106.756 110.928 106.428 111.264C106.108 111.592 105.776 111.904 105.432 112.2C105.088 112.496 104.76 112.764 104.448 113.004H108.432V114H102.72ZM112.86 114.144C112.276 114.144 111.772 114.04 111.348 113.832C110.924 113.624 110.592 113.344 110.352 112.992C110.112 112.632 109.964 112.224 109.908 111.768H111.084C111.164 112.16 111.356 112.484 111.66 112.74C111.972 112.996 112.376 113.124 112.872 113.124C113.232 113.124 113.54 113.04 113.796 112.872C114.06 112.696 114.26 112.46 114.396 112.164C114.54 111.868 114.612 111.54 114.612 111.18C114.612 110.804 114.54 110.476 114.396 110.196C114.26 109.908 114.064 109.688 113.808 109.536C113.552 109.376 113.252 109.296 112.908 109.296C112.492 109.296 112.136 109.384 111.84 109.56C111.552 109.736 111.336 109.956 111.192 110.22H110.028L110.7 105.6H115.248V106.644H111.612L111.192 109.02C111.384 108.804 111.64 108.632 111.96 108.504C112.288 108.368 112.66 108.3 113.076 108.3C113.5 108.3 113.876 108.376 114.204 108.528C114.54 108.672 114.824 108.876 115.056 109.14C115.288 109.404 115.464 109.708 115.584 110.052C115.712 110.396 115.776 110.764 115.776 111.156C115.776 111.572 115.708 111.964 115.572 112.332C115.436 112.692 115.24 113.008 114.984 113.28C114.736 113.552 114.432 113.764 114.072 113.916C113.712 114.068 113.308 114.144 112.86 114.144ZM120.664 114.144C119.936 114.144 119.308 113.964 118.78 113.604C118.26 113.236 117.86 112.728 117.58 112.08C117.3 111.424 117.16 110.664 117.16 109.8C117.16 108.936 117.3 108.18 117.58 107.532C117.86 106.876 118.26 106.368 118.78 106.008C119.308 105.64 119.936 105.456 120.664 105.456C121.4 105.456 122.024 105.64 122.536 106.008C123.056 106.368 123.456 106.876 123.736 107.532C124.024 108.18 124.168 108.936 124.168 109.8C124.168 110.664 124.024 111.424 123.736 112.08C123.456 112.728 123.056 113.236 122.536 113.604C122.024 113.964 121.4 114.144 120.664 114.144ZM120.664 113.076C121.104 113.076 121.492 112.944 121.828 112.68C122.172 112.416 122.44 112.04 122.632 111.552C122.832 111.064 122.932 110.48 122.932 109.8C122.932 109.112 122.832 108.528 122.632 108.048C122.44 107.56 122.172 107.188 121.828 106.932C121.492 106.668 121.104 106.536 120.664 106.536C120.224 106.536 119.832 106.668 119.488 106.932C119.144 107.188 118.872 107.56 118.672 108.048C118.48 108.528 118.384 109.112 118.384 109.8C118.384 110.48 118.48 111.064 118.672 111.552C118.872 112.04 119.144 112.416 119.488 112.68C119.832 112.944 120.224 113.076 120.664 113.076ZM128.95 114V105.6H131.794C132.458 105.6 133.002 105.712 133.426 105.936C133.85 106.16 134.162 106.46 134.362 106.836C134.57 107.204 134.674 107.624 134.674 108.096C134.674 108.544 134.57 108.96 134.362 109.344C134.162 109.72 133.846 110.024 133.414 110.256C132.982 110.48 132.43 110.592 131.758 110.592H130.15V114H128.95ZM133.366 114L131.554 110.268H132.874L134.758 114H133.366ZM130.15 109.68H131.722C132.314 109.68 132.746 109.536 133.018 109.248C133.298 108.952 133.438 108.576 133.438 108.12C133.438 107.656 133.302 107.288 133.03 107.016C132.758 106.744 132.318 106.608 131.71 106.608H130.15V109.68ZM136.371 114V105.6H139.227C139.899 105.6 140.451 105.712 140.883 105.936C141.323 106.16 141.647 106.464 141.855 106.848C142.063 107.224 142.167 107.656 142.167 108.144C142.167 108.608 142.063 109.032 141.855 109.416C141.647 109.8 141.327 110.108 140.895 110.34C140.463 110.564 139.907 110.676 139.227 110.676H137.571V114H136.371ZM137.571 109.68H139.179C139.819 109.68 140.271 109.54 140.535 109.26C140.807 108.98 140.943 108.608 140.943 108.144C140.943 107.656 140.807 107.276 140.535 107.004C140.271 106.732 139.819 106.596 139.179 106.596H137.571V109.68ZM146.352 114.144C145.744 114.144 145.208 114.036 144.744 113.82C144.28 113.596 143.92 113.284 143.664 112.884C143.408 112.484 143.276 112.016 143.268 111.48H144.54C144.54 111.784 144.608 112.064 144.744 112.32C144.888 112.568 145.092 112.768 145.356 112.92C145.628 113.064 145.96 113.136 146.352 113.136C146.688 113.136 146.976 113.08 147.216 112.968C147.464 112.856 147.652 112.704 147.78 112.512C147.908 112.312 147.972 112.084 147.972 111.828C147.972 111.54 147.908 111.304 147.78 111.12C147.652 110.928 147.472 110.768 147.24 110.64C147.016 110.512 146.756 110.4 146.46 110.304C146.172 110.208 145.86 110.104 145.524 109.992C144.844 109.768 144.34 109.484 144.012 109.14C143.692 108.796 143.532 108.348 143.532 107.796C143.532 107.324 143.64 106.916 143.856 106.572C144.08 106.22 144.396 105.948 144.804 105.756C145.212 105.556 145.688 105.456 146.232 105.456C146.784 105.456 147.26 105.556 147.66 105.756C148.068 105.956 148.388 106.232 148.62 106.584C148.852 106.936 148.972 107.348 148.98 107.82H147.708C147.708 107.604 147.648 107.392 147.528 107.184C147.416 106.976 147.248 106.808 147.024 106.68C146.808 106.544 146.536 106.476 146.208 106.476C145.928 106.468 145.68 106.512 145.464 106.608C145.248 106.704 145.08 106.844 144.96 107.028C144.84 107.212 144.78 107.432 144.78 107.688C144.78 107.944 144.836 108.152 144.948 108.312C145.06 108.464 145.216 108.596 145.416 108.708C145.624 108.82 145.868 108.924 146.148 109.02C146.428 109.108 146.736 109.208 147.072 109.32C147.48 109.456 147.848 109.624 148.176 109.824C148.504 110.016 148.76 110.268 148.944 110.58C149.136 110.884 149.232 111.276 149.232 111.756C149.232 112.172 149.124 112.56 148.908 112.92C148.692 113.28 148.372 113.576 147.948 113.808C147.524 114.032 146.992 114.144 146.352 114.144Z" fill="#1E1E1F"/>
<path d="M212.423 104.818H214.267V111.47C214.267 112.199 214.095 112.841 213.75 113.394C213.409 113.948 212.928 114.38 212.308 114.692C211.688 115 210.964 115.154 210.136 115.154C209.304 115.154 208.578 115 207.958 114.692C207.338 114.38 206.858 113.948 206.516 113.394C206.175 112.841 206.004 112.199 206.004 111.47V104.818H207.849V111.316C207.849 111.74 207.942 112.118 208.127 112.45C208.316 112.781 208.581 113.041 208.923 113.23C209.264 113.416 209.668 113.509 210.136 113.509C210.603 113.509 211.007 113.416 211.349 113.23C211.693 113.041 211.959 112.781 212.144 112.45C212.33 112.118 212.423 111.74 212.423 111.316V104.818ZM218.132 110.526V115H216.332V107.364H218.052V108.661H218.142C218.318 108.234 218.598 107.894 218.982 107.642C219.37 107.39 219.849 107.264 220.419 107.264C220.946 107.264 221.405 107.377 221.796 107.602C222.19 107.828 222.495 108.154 222.711 108.582C222.93 109.009 223.037 109.528 223.034 110.138V115H221.234V110.416C221.234 109.906 221.102 109.506 220.837 109.218C220.575 108.93 220.212 108.786 219.748 108.786C219.433 108.786 219.153 108.855 218.908 108.994C218.666 109.13 218.475 109.327 218.336 109.586C218.2 109.844 218.132 110.158 218.132 110.526ZM228.817 107.364V108.756H224.427V107.364H228.817ZM225.511 105.534H227.31V112.703C227.31 112.945 227.347 113.131 227.42 113.26C227.496 113.386 227.595 113.472 227.718 113.518C227.841 113.565 227.977 113.588 228.126 113.588C228.238 113.588 228.341 113.58 228.434 113.563C228.53 113.547 228.603 113.532 228.653 113.518L228.956 114.925C228.86 114.959 228.722 114.995 228.543 115.035C228.368 115.075 228.152 115.098 227.897 115.104C227.446 115.118 227.04 115.05 226.679 114.901C226.318 114.748 226.031 114.513 225.819 114.195C225.61 113.876 225.507 113.479 225.511 113.001V105.534ZM230.462 115V107.364H232.262V115H230.462ZM231.367 106.28C231.082 106.28 230.836 106.185 230.631 105.996C230.425 105.804 230.323 105.574 230.323 105.305C230.323 105.034 230.425 104.803 230.631 104.614C230.836 104.422 231.082 104.326 231.367 104.326C231.655 104.326 231.9 104.422 232.103 104.614C232.308 104.803 232.411 105.034 232.411 105.305C232.411 105.574 232.308 105.804 232.103 105.996C231.9 106.185 231.655 106.28 231.367 106.28ZM236.052 104.818V115H234.252V104.818H236.052ZM250.102 104.818V115H248.461L243.664 108.065H243.579V115H241.735V104.818H243.385L248.178 111.759H248.268V104.818H250.102ZM255.503 115.149C254.758 115.149 254.111 114.985 253.564 114.657C253.017 114.329 252.593 113.87 252.292 113.28C251.993 112.69 251.844 112 251.844 111.212C251.844 110.423 251.993 109.732 252.292 109.138C252.593 108.545 253.017 108.085 253.564 107.756C254.111 107.428 254.758 107.264 255.503 107.264C256.249 107.264 256.895 107.428 257.442 107.756C257.989 108.085 258.412 108.545 258.71 109.138C259.012 109.732 259.162 110.423 259.162 111.212C259.162 112 259.012 112.69 258.71 113.28C258.412 113.87 257.989 114.329 257.442 114.657C256.895 114.985 256.249 115.149 255.503 115.149ZM255.513 113.707C255.918 113.707 256.256 113.596 256.527 113.374C256.799 113.149 257.001 112.847 257.134 112.469C257.27 112.092 257.338 111.671 257.338 111.207C257.338 110.739 257.27 110.317 257.134 109.939C257.001 109.558 256.799 109.254 256.527 109.029C256.256 108.804 255.918 108.691 255.513 108.691C255.099 108.691 254.754 108.804 254.479 109.029C254.207 109.254 254.003 109.558 253.868 109.939C253.735 110.317 253.669 110.739 253.669 111.207C253.669 111.671 253.735 112.092 253.868 112.469C254.003 112.847 254.207 113.149 254.479 113.374C254.754 113.596 255.099 113.707 255.513 113.707ZM267.391 107.364L264.672 115H262.683L259.964 107.364H261.883L263.638 113.036H263.717L265.477 107.364H267.391ZM276.511 104.818V115H274.666V106.613H274.607L272.225 108.134V106.444L274.756 104.818H276.511ZM282.999 115.194C282.181 115.194 281.478 114.987 280.891 114.572C280.308 114.155 279.859 113.553 279.544 112.768C279.233 111.979 279.077 111.029 279.077 109.919C279.08 108.809 279.238 107.864 279.549 107.085C279.864 106.303 280.313 105.706 280.896 105.295C281.483 104.884 282.184 104.679 282.999 104.679C283.815 104.679 284.516 104.884 285.102 105.295C285.689 105.706 286.138 106.303 286.45 107.085C286.764 107.867 286.922 108.812 286.922 109.919C286.922 111.033 286.764 111.984 286.45 112.773C286.138 113.558 285.689 114.158 285.102 114.572C284.519 114.987 283.818 115.194 282.999 115.194ZM282.999 113.638C283.636 113.638 284.138 113.325 284.506 112.698C284.877 112.068 285.063 111.142 285.063 109.919C285.063 109.11 284.978 108.431 284.809 107.881C284.64 107.33 284.401 106.916 284.093 106.638C283.785 106.356 283.42 106.215 282.999 106.215C282.366 106.215 281.866 106.53 281.498 107.16C281.13 107.786 280.944 108.706 280.941 109.919C280.938 110.731 281.019 111.414 281.185 111.967C281.354 112.521 281.592 112.938 281.901 113.22C282.209 113.499 282.575 113.638 282.999 113.638Z" fill="#0B57D0"/>
<rect x="328.5" y="0.5" width="315" height="145" rx="23.5" fill="white"/>
<rect x="328.5" y="0.5" width="315" height="145" rx="23.5" stroke="#EDEDF0"/>
<path d="M361.575 32.1293H360.024C359.964 31.7978 359.853 31.5062 359.691 31.2543C359.529 31.0024 359.33 30.7886 359.094 30.6129C358.859 30.4373 358.596 30.3047 358.304 30.2152C358.016 30.1257 357.709 30.081 357.384 30.081C356.798 30.081 356.272 30.2285 355.808 30.5234C355.348 30.8184 354.983 31.2509 354.714 31.821C354.449 32.3911 354.317 33.0871 354.317 33.9091C354.317 34.7377 354.449 35.437 354.714 36.0071C354.983 36.5772 355.349 37.008 355.813 37.2997C356.277 37.5914 356.799 37.7372 357.379 37.7372C357.701 37.7372 358.006 37.6941 358.294 37.608C358.586 37.5185 358.849 37.3875 359.085 37.2152C359.32 37.0429 359.519 36.8324 359.681 36.5838C359.847 36.3319 359.961 36.0436 360.024 35.7188L361.575 35.7237C361.492 36.2242 361.332 36.6849 361.093 37.1058C360.858 37.5234 360.554 37.8847 360.183 38.1896C359.815 38.4912 359.394 38.7249 358.92 38.8906C358.446 39.0563 357.929 39.1392 357.369 39.1392C356.488 39.1392 355.702 38.9304 355.013 38.5128C354.323 38.0919 353.78 37.4903 353.382 36.7081C352.988 35.9259 352.79 34.9929 352.79 33.9091C352.79 32.822 352.989 31.889 353.387 31.1101C353.785 30.3279 354.328 29.728 355.018 29.3104C355.707 28.8894 356.491 28.679 357.369 28.679C357.91 28.679 358.413 28.7569 358.881 28.9126C359.351 29.0651 359.774 29.2905 360.148 29.5888C360.523 29.8838 360.833 30.245 361.078 30.6726C361.323 31.0968 361.489 31.5824 361.575 32.1293ZM370.101 28.8182H371.642V35.5149C371.642 36.2275 371.475 36.8589 371.14 37.4091C370.805 37.956 370.335 38.3868 369.728 38.7017C369.122 39.0133 368.411 39.169 367.595 39.169C366.783 39.169 366.074 39.0133 365.468 38.7017C364.861 38.3868 364.39 37.956 364.056 37.4091C363.721 36.8589 363.554 36.2275 363.554 35.5149V28.8182H365.09V35.3906C365.09 35.8513 365.191 36.2607 365.393 36.6186C365.599 36.9766 365.889 37.2583 366.263 37.4638C366.638 37.666 367.082 37.767 367.595 37.767C368.112 37.767 368.558 37.666 368.933 37.4638C369.311 37.2583 369.599 36.9766 369.798 36.6186C370 36.2607 370.101 35.8513 370.101 35.3906V28.8182ZM377.861 39V28.8182H379.347V32.6016H379.437C379.523 32.4425 379.647 32.2585 379.81 32.0497C379.972 31.8409 380.198 31.6586 380.486 31.5028C380.774 31.3438 381.155 31.2642 381.629 31.2642C382.246 31.2642 382.796 31.42 383.28 31.7315C383.764 32.0431 384.143 32.4922 384.418 33.0788C384.697 33.6655 384.836 34.3714 384.836 35.1967C384.836 36.022 384.698 36.7296 384.423 37.3196C384.148 37.9062 383.77 38.3587 383.29 38.6768C382.809 38.9917 382.261 39.1491 381.644 39.1491C381.18 39.1491 380.801 39.0713 380.506 38.9155C380.214 38.7597 379.985 38.5774 379.82 38.3686C379.654 38.1598 379.526 37.9742 379.437 37.8118H379.313V39H377.861ZM379.318 35.1818C379.318 35.7187 379.395 36.1894 379.551 36.5938C379.707 36.9981 379.932 37.3146 380.227 37.5433C380.522 37.7687 380.884 37.8814 381.311 37.8814C381.755 37.8814 382.126 37.7637 382.425 37.5284C382.723 37.2898 382.948 36.9666 383.101 36.5589C383.257 36.1513 383.335 35.6922 383.335 35.1818C383.335 34.678 383.258 34.2256 383.106 33.8246C382.957 33.4235 382.731 33.107 382.43 32.875C382.131 32.643 381.759 32.527 381.311 32.527C380.88 32.527 380.516 32.638 380.217 32.8601C379.922 33.0821 379.699 33.392 379.546 33.7898C379.394 34.1875 379.318 34.6515 379.318 35.1818ZM388.868 39.169C388.384 39.169 387.946 39.0795 387.555 38.9006C387.164 38.7183 386.854 38.4548 386.625 38.1101C386.4 37.7654 386.287 37.3428 386.287 36.8423C386.287 36.4115 386.37 36.0568 386.536 35.7784C386.702 35.5 386.925 35.2796 387.207 35.1172C387.489 34.9548 387.804 34.8321 388.152 34.7493C388.5 34.6664 388.854 34.6035 389.216 34.5604C389.673 34.5073 390.044 34.4643 390.329 34.4311C390.614 34.3946 390.821 34.3366 390.951 34.2571C391.08 34.1776 391.145 34.0483 391.145 33.8693V33.8345C391.145 33.4003 391.022 33.0639 390.777 32.8253C390.535 32.5866 390.173 32.4673 389.693 32.4673C389.192 32.4673 388.798 32.5784 388.51 32.8004C388.225 33.0192 388.027 33.2628 387.918 33.5312L386.521 33.2131C386.687 32.7491 386.929 32.3745 387.247 32.0895C387.568 31.8011 387.938 31.5923 388.355 31.4631C388.773 31.3305 389.212 31.2642 389.673 31.2642C389.978 31.2642 390.301 31.3007 390.642 31.3736C390.987 31.4432 391.309 31.5724 391.607 31.7614C391.908 31.9503 392.155 32.2204 392.348 32.5717C392.54 32.9197 392.636 33.3722 392.636 33.929V39H391.184V37.956H391.125C391.029 38.1482 390.884 38.3371 390.692 38.5227C390.5 38.7083 390.253 38.8625 389.951 38.9851C389.65 39.1077 389.288 39.169 388.868 39.169ZM389.191 37.9759C389.602 37.9759 389.953 37.8946 390.245 37.7322C390.54 37.5698 390.763 37.3577 390.916 37.0959C391.072 36.8307 391.149 36.5473 391.149 36.2457V35.2614C391.096 35.3144 390.994 35.3641 390.841 35.4105C390.692 35.4536 390.521 35.4917 390.329 35.5249C390.137 35.5547 389.95 35.5829 389.767 35.6094C389.585 35.6326 389.433 35.6525 389.31 35.669C389.022 35.7055 388.758 35.7668 388.52 35.853C388.284 35.9392 388.095 36.0634 387.953 36.2259C387.814 36.3849 387.744 36.5971 387.744 36.8622C387.744 37.2301 387.88 37.5085 388.152 37.6974C388.423 37.883 388.77 37.9759 389.191 37.9759ZM396.242 28.8182V39H394.756V28.8182H396.242ZM400.605 39.169C400.121 39.169 399.683 39.0795 399.292 38.9006C398.901 38.7183 398.591 38.4548 398.362 38.1101C398.137 37.7654 398.024 37.3428 398.024 36.8423C398.024 36.4115 398.107 36.0568 398.273 35.7784C398.439 35.5 398.662 35.2796 398.944 35.1172C399.226 34.9548 399.541 34.8321 399.889 34.7493C400.237 34.6664 400.591 34.6035 400.953 34.5604C401.41 34.5073 401.781 34.4643 402.066 34.4311C402.351 34.3946 402.558 34.3366 402.688 34.2571C402.817 34.1776 402.882 34.0483 402.882 33.8693V33.8345C402.882 33.4003 402.759 33.0639 402.514 32.8253C402.272 32.5866 401.91 32.4673 401.43 32.4673C400.929 32.4673 400.535 32.5784 400.247 32.8004C399.962 33.0192 399.764 33.2628 399.655 33.5312L398.258 33.2131C398.424 32.7491 398.666 32.3745 398.984 32.0895C399.305 31.8011 399.675 31.5923 400.092 31.4631C400.51 31.3305 400.949 31.2642 401.41 31.2642C401.715 31.2642 402.038 31.3007 402.379 31.3736C402.724 31.4432 403.046 31.5724 403.344 31.7614C403.646 31.9503 403.892 32.2204 404.085 32.5717C404.277 32.9197 404.373 33.3722 404.373 33.929V39H402.921V37.956H402.862C402.766 38.1482 402.621 38.3371 402.429 38.5227C402.237 38.7083 401.99 38.8625 401.688 38.9851C401.387 39.1077 401.025 39.169 400.605 39.169ZM400.928 37.9759C401.339 37.9759 401.69 37.8946 401.982 37.7322C402.277 37.5698 402.5 37.3577 402.653 37.0959C402.809 36.8307 402.887 36.5473 402.887 36.2457V35.2614C402.833 35.3144 402.731 35.3641 402.578 35.4105C402.429 35.4536 402.258 35.4917 402.066 35.5249C401.874 35.5547 401.687 35.5829 401.504 35.6094C401.322 35.6326 401.17 35.6525 401.047 35.669C400.759 35.7055 400.495 35.7668 400.257 35.853C400.021 35.9392 399.832 36.0634 399.69 36.2259C399.551 36.3849 399.481 36.5971 399.481 36.8622C399.481 37.2301 399.617 37.5085 399.889 37.6974C400.16 37.883 400.507 37.9759 400.928 37.9759ZM407.979 34.4659V39H406.493V31.3636H407.92V32.6065H408.014C408.19 32.2022 408.465 31.8774 408.84 31.6321C409.217 31.3868 409.693 31.2642 410.266 31.2642C410.787 31.2642 411.242 31.3736 411.634 31.5923C412.025 31.8078 412.328 32.1293 412.543 32.5568C412.759 32.9844 412.867 33.513 412.867 34.1428V39H411.38V34.3217C411.38 33.7682 411.236 33.3357 410.948 33.0241C410.659 32.7093 410.263 32.5518 409.759 32.5518C409.415 32.5518 409.108 32.6264 408.84 32.7756C408.574 32.9247 408.364 33.1435 408.208 33.4318C408.056 33.7169 407.979 34.0616 407.979 34.4659ZM418.217 39.1541C417.478 39.1541 416.841 38.9867 416.308 38.652C415.777 38.3139 415.37 37.8482 415.085 37.255C414.8 36.6617 414.657 35.9822 414.657 35.2166C414.657 34.4411 414.803 33.7566 415.095 33.1634C415.386 32.5668 415.797 32.1011 416.328 31.7663C416.858 31.4316 417.483 31.2642 418.202 31.2642C418.782 31.2642 419.299 31.3719 419.753 31.5874C420.207 31.7995 420.573 32.0978 420.852 32.4822C421.133 32.8667 421.301 33.3158 421.354 33.8295H419.907C419.828 33.4716 419.645 33.1634 419.36 32.9048C419.079 32.6463 418.701 32.517 418.227 32.517C417.812 32.517 417.449 32.6264 417.138 32.8452C416.83 33.0606 416.589 33.3688 416.417 33.7699C416.245 34.1676 416.159 34.6383 416.159 35.1818C416.159 35.7386 416.243 36.2192 416.412 36.6236C416.581 37.0279 416.82 37.3411 417.128 37.5632C417.44 37.7853 417.806 37.8963 418.227 37.8963C418.508 37.8963 418.764 37.8449 418.992 37.7422C419.224 37.6361 419.418 37.4853 419.574 37.2898C419.733 37.0942 419.844 36.8589 419.907 36.5838H421.354C421.301 37.0777 421.14 37.5185 420.872 37.9062C420.603 38.294 420.244 38.599 419.793 38.821C419.345 39.0431 418.82 39.1541 418.217 39.1541ZM426.375 39.1541C425.622 39.1541 424.974 38.9934 424.431 38.6719C423.891 38.3471 423.473 37.8913 423.178 37.3047C422.886 36.7147 422.74 36.0237 422.74 35.2315C422.74 34.4493 422.886 33.7599 423.178 33.1634C423.473 32.5668 423.884 32.1011 424.411 31.7663C424.941 31.4316 425.561 31.2642 426.27 31.2642C426.701 31.2642 427.119 31.3355 427.523 31.478C427.927 31.6205 428.29 31.8442 428.612 32.1491C428.933 32.4541 429.187 32.8501 429.373 33.3374C429.558 33.8213 429.651 34.4096 429.651 35.1023V35.6293H423.581V34.5156H428.194C428.194 34.1245 428.115 33.7782 427.956 33.4766C427.797 33.1716 427.573 32.9313 427.285 32.7557C426.999 32.58 426.665 32.4922 426.28 32.4922C425.863 32.4922 425.498 32.5949 425.186 32.8004C424.878 33.0026 424.64 33.2678 424.471 33.5959C424.305 33.9207 424.222 34.2737 424.222 34.6548V35.5249C424.222 36.0353 424.311 36.4695 424.49 36.8274C424.673 37.1854 424.926 37.4588 425.251 37.6477C425.576 37.8333 425.955 37.9261 426.39 37.9261C426.671 37.9261 426.928 37.8864 427.16 37.8068C427.392 37.724 427.593 37.6013 427.762 37.4389C427.931 37.2765 428.06 37.076 428.15 36.8374L429.557 37.0909C429.444 37.5052 429.242 37.8681 428.95 38.1797C428.662 38.4879 428.299 38.7282 427.861 38.9006C427.427 39.0696 426.932 39.1541 426.375 39.1541Z" fill="#AEAEB2"/>
<path d="M353.236 65.7614V63.2472L360.642 51.5455H362.739V55.125H361.46L356.474 63.0256V63.1619H366.812V65.7614H353.236ZM361.562 69V64.9943L361.597 63.8693V51.5455H364.58V69H361.562ZM370.175 69L377.598 54.3068V54.1875H368.982V51.5455H380.871V54.2472L373.456 69H370.175ZM389.259 65.7614V63.2472L396.665 51.5455H398.762V55.125H397.484L392.498 63.0256V63.1619H402.836V65.7614H389.259ZM397.586 69V64.9943L397.62 63.8693V51.5455H400.603V69H397.586ZM411.951 69.2386C411.116 69.233 410.3 69.0881 409.505 68.804C408.71 68.5142 407.994 68.0455 407.357 67.3977C406.721 66.7443 406.215 65.8778 405.84 64.7983C405.465 63.7131 405.281 62.3693 405.286 60.767C405.286 59.2727 405.445 57.9403 405.763 56.7699C406.082 55.5994 406.539 54.6108 407.136 53.804C407.732 52.9915 408.451 52.3722 409.292 51.946C410.138 51.5199 411.085 51.3068 412.13 51.3068C413.227 51.3068 414.198 51.5227 415.045 51.9545C415.897 52.3864 416.585 52.9773 417.107 53.7273C417.63 54.4716 417.954 55.3125 418.079 56.25H414.968C414.809 55.5795 414.482 55.0455 413.988 54.6477C413.499 54.2443 412.88 54.0426 412.13 54.0426C410.92 54.0426 409.988 54.5682 409.335 55.6193C408.687 56.6705 408.36 58.1136 408.354 59.9489H408.474C408.752 59.4489 409.113 59.0199 409.556 58.6619C409.999 58.304 410.499 58.0284 411.056 57.8352C411.619 57.6364 412.212 57.5369 412.837 57.5369C413.86 57.5369 414.778 57.7812 415.59 58.2699C416.408 58.7585 417.056 59.4318 417.533 60.2898C418.011 61.142 418.246 62.1193 418.241 63.2216C418.246 64.3693 417.985 65.4006 417.457 66.3153C416.928 67.2244 416.192 67.9403 415.249 68.4631C414.306 68.9858 413.207 69.2443 411.951 69.2386ZM411.934 66.6818C412.553 66.6818 413.107 66.5312 413.596 66.2301C414.085 65.929 414.471 65.5227 414.755 65.0114C415.039 64.5 415.178 63.9261 415.173 63.2898C415.178 62.6648 415.042 62.0994 414.763 61.5938C414.491 61.0881 414.113 60.6875 413.63 60.392C413.147 60.0966 412.596 59.9489 411.977 59.9489C411.516 59.9489 411.087 60.0369 410.69 60.2131C410.292 60.3892 409.945 60.6335 409.65 60.946C409.354 61.2528 409.121 61.6108 408.951 62.0199C408.786 62.4233 408.701 62.8551 408.695 63.3153C408.701 63.9233 408.843 64.483 409.121 64.9943C409.4 65.5057 409.783 65.9148 410.272 66.2216C410.761 66.5284 411.315 66.6818 411.934 66.6818ZM427.19 69.2386C426.053 69.2386 425.036 69.0256 424.138 68.5994C423.241 68.1676 422.528 67.5767 421.999 66.8267C421.477 66.0767 421.198 65.2187 421.164 64.2528H424.232C424.289 64.9687 424.599 65.554 425.161 66.0085C425.724 66.4574 426.4 66.6818 427.19 66.6818C427.809 66.6818 428.36 66.5398 428.843 66.2557C429.326 65.9716 429.707 65.5767 429.985 65.071C430.263 64.5653 430.4 63.9886 430.394 63.3409C430.4 62.6818 430.261 62.0966 429.977 61.5852C429.692 61.0739 429.303 60.6733 428.809 60.3835C428.315 60.0881 427.746 59.9403 427.104 59.9403C426.582 59.9347 426.067 60.0312 425.562 60.2301C425.056 60.429 424.656 60.6903 424.36 61.0142L421.505 60.5455L422.417 51.5455H432.542V54.1875H425.033L424.531 58.8153H424.633C424.957 58.4347 425.414 58.1193 426.005 57.8693C426.596 57.6136 427.244 57.4858 427.948 57.4858C429.005 57.4858 429.948 57.7358 430.778 58.2358C431.607 58.7301 432.261 59.4119 432.738 60.2812C433.215 61.1506 433.454 62.1449 433.454 63.2642C433.454 64.4176 433.187 65.446 432.653 66.3494C432.124 67.2472 431.388 67.9545 430.445 68.4716C429.508 68.983 428.423 69.2386 427.19 69.2386ZM448.467 69.2386C447.2 69.2386 446.075 69.0256 445.092 68.5994C444.114 68.1733 443.347 67.5909 442.79 66.8523C442.239 66.108 441.967 65.2642 441.972 64.321C441.967 63.5881 442.126 62.9148 442.45 62.3011C442.773 61.6875 443.211 61.1761 443.762 60.767C444.319 60.3523 444.938 60.0881 445.62 59.9744V59.8551C444.722 59.6562 443.995 59.1989 443.438 58.483C442.887 57.7614 442.614 56.929 442.62 55.9858C442.614 55.0881 442.864 54.2869 443.37 53.5824C443.876 52.8778 444.569 52.3239 445.45 51.9205C446.33 51.5114 447.336 51.3068 448.467 51.3068C449.586 51.3068 450.583 51.5114 451.458 51.9205C452.339 52.3239 453.032 52.8778 453.538 53.5824C454.049 54.2869 454.305 55.0881 454.305 55.9858C454.305 56.929 454.023 57.7614 453.461 58.483C452.904 59.1989 452.185 59.6562 451.305 59.8551V59.9744C451.987 60.0881 452.6 60.3523 453.146 60.767C453.697 61.1761 454.134 61.6875 454.458 62.3011C454.788 62.9148 454.952 63.5881 454.952 64.321C454.952 65.2642 454.674 66.108 454.117 66.8523C453.56 67.5909 452.793 68.1733 451.816 68.5994C450.844 69.0256 449.728 69.2386 448.467 69.2386ZM448.467 66.8011C449.12 66.8011 449.688 66.6903 450.171 66.4688C450.654 66.2415 451.029 65.9233 451.296 65.5142C451.563 65.1051 451.7 64.6335 451.705 64.0994C451.7 63.5426 451.555 63.0511 451.271 62.625C450.992 62.1932 450.609 61.8551 450.12 61.6108C449.637 61.3665 449.086 61.2443 448.467 61.2443C447.842 61.2443 447.285 61.3665 446.796 61.6108C446.308 61.8551 445.921 62.1932 445.637 62.625C445.359 63.0511 445.222 63.5426 445.228 64.0994C445.222 64.6335 445.353 65.1051 445.62 65.5142C445.887 65.9176 446.262 66.233 446.745 66.4602C447.234 66.6875 447.808 66.8011 448.467 66.8011ZM448.467 58.8494C449.001 58.8494 449.472 58.7415 449.881 58.5256C450.296 58.3097 450.623 58.0085 450.862 57.6222C451.1 57.2358 451.222 56.7898 451.228 56.2841C451.222 55.7841 451.103 55.3466 450.87 54.9716C450.637 54.5909 450.313 54.2983 449.898 54.0938C449.484 53.8835 449.006 53.7784 448.467 53.7784C447.915 53.7784 447.43 53.8835 447.009 54.0938C446.594 54.2983 446.271 54.5909 446.038 54.9716C445.81 55.3466 445.7 55.7841 445.705 56.2841C445.7 56.7898 445.813 57.2358 446.046 57.6222C446.285 58.0028 446.612 58.304 447.026 58.5256C447.447 58.7415 447.927 58.8494 448.467 58.8494ZM463.814 51.3068C464.649 51.3125 465.462 51.4602 466.251 51.75C467.047 52.0341 467.763 52.5 468.399 53.1477C469.036 53.7898 469.541 54.6506 469.916 55.7301C470.291 56.8097 470.479 58.1449 470.479 59.7358C470.484 61.2358 470.325 62.5767 470.001 63.7585C469.683 64.9347 469.226 65.929 468.629 66.7415C468.033 67.554 467.314 68.1733 466.473 68.5994C465.632 69.0256 464.686 69.2386 463.635 69.2386C462.533 69.2386 461.555 69.0227 460.703 68.5909C459.857 68.1591 459.172 67.5682 458.649 66.8182C458.126 66.0682 457.805 65.2102 457.686 64.2443H460.797C460.956 64.9375 461.28 65.4886 461.768 65.8977C462.263 66.3011 462.885 66.5028 463.635 66.5028C464.845 66.5028 465.777 65.9773 466.43 64.9261C467.084 63.875 467.411 62.4148 467.411 60.5455H467.291C467.013 61.0455 466.652 61.4773 466.209 61.8409C465.766 62.1989 465.263 62.4744 464.7 62.6676C464.143 62.8608 463.553 62.9574 462.928 62.9574C461.905 62.9574 460.984 62.7131 460.166 62.2244C459.354 61.7358 458.709 61.0653 458.232 60.2131C457.76 59.3608 457.521 58.3864 457.516 57.2898C457.516 56.1534 457.777 55.1335 458.3 54.2301C458.828 53.321 459.564 52.6051 460.507 52.0824C461.45 51.554 462.553 51.2955 463.814 51.3068ZM463.822 53.8636C463.209 53.8636 462.655 54.0142 462.161 54.3153C461.672 54.6108 461.286 55.0142 461.001 55.5256C460.723 56.0312 460.584 56.5966 460.584 57.2216C460.589 57.8409 460.729 58.4034 461.001 58.9091C461.28 59.4148 461.658 59.8153 462.135 60.1108C462.618 60.4062 463.169 60.554 463.788 60.554C464.249 60.554 464.678 60.4659 465.075 60.2898C465.473 60.1136 465.82 59.8693 466.115 59.5568C466.416 59.2386 466.649 58.8778 466.814 58.4744C466.984 58.071 467.067 57.6449 467.061 57.196C467.061 56.5994 466.919 56.0483 466.635 55.5426C466.357 55.0369 465.973 54.6307 465.484 54.3239C465.001 54.017 464.447 53.8636 463.822 53.8636ZM479.581 69.2386C478.354 69.2386 477.263 69.0284 476.308 68.608C475.359 68.1875 474.609 67.6023 474.058 66.8523C473.507 66.1023 473.214 65.2358 473.18 64.2528H476.385C476.413 64.7244 476.57 65.1364 476.854 65.4886C477.138 65.8352 477.516 66.1051 477.987 66.2983C478.459 66.4915 478.987 66.5881 479.572 66.5881C480.197 66.5881 480.751 66.4801 481.234 66.2642C481.717 66.0426 482.095 65.7358 482.368 65.3438C482.641 64.9517 482.774 64.5 482.768 63.9886C482.774 63.4602 482.638 62.9943 482.359 62.5909C482.081 62.1875 481.678 61.8722 481.149 61.6449C480.626 61.4176 479.996 61.304 479.257 61.304H477.714V58.8665H479.257C479.865 58.8665 480.396 58.7614 480.851 58.5511C481.311 58.3409 481.672 58.0455 481.933 57.6648C482.195 57.2784 482.322 56.8324 482.317 56.3267C482.322 55.8324 482.212 55.4034 481.984 55.0398C481.763 54.6705 481.447 54.3835 481.038 54.179C480.635 53.9744 480.161 53.8722 479.615 53.8722C479.081 53.8722 478.587 53.9687 478.132 54.1619C477.678 54.3551 477.311 54.6307 477.033 54.9886C476.754 55.3409 476.607 55.7614 476.589 56.25H473.547C473.57 55.2727 473.851 54.4148 474.391 53.6761C474.936 52.9318 475.663 52.3523 476.572 51.9375C477.482 51.517 478.501 51.3068 479.632 51.3068C480.797 51.3068 481.808 51.5256 482.666 51.9631C483.53 52.3949 484.197 52.9773 484.669 53.7102C485.141 54.4432 485.376 55.2528 485.376 56.1392C485.382 57.1222 485.092 57.946 484.507 58.6108C483.928 59.2756 483.166 59.7102 482.223 59.9148V60.0511C483.45 60.2216 484.391 60.6761 485.044 61.4148C485.703 62.1477 486.03 63.0597 486.024 64.1506C486.024 65.1278 485.746 66.0028 485.189 66.7756C484.638 67.5426 483.876 68.1449 482.905 68.5824C481.939 69.0199 480.831 69.2386 479.581 69.2386Z" fill="#1E1E1F"/>
<rect x="550" y="24" width="70" height="36" rx="12" fill="#EBF3FF"/>
<path d="M565.304 47V38.348H562.406V37.2H569.616V38.348H566.704V47H565.304ZM572.926 47.168C572.263 47.168 571.666 47.014 571.134 46.706C570.611 46.398 570.196 45.9687 569.888 45.418C569.589 44.858 569.44 44.214 569.44 43.486C569.44 42.7393 569.594 42.0907 569.902 41.54C570.21 40.98 570.63 40.546 571.162 40.238C571.694 39.93 572.291 39.776 572.954 39.776C573.626 39.776 574.223 39.93 574.746 40.238C575.269 40.546 575.679 40.9753 575.978 41.526C576.286 42.0767 576.44 42.7253 576.44 43.472C576.44 44.2187 576.286 44.8673 575.978 45.418C575.679 45.9687 575.264 46.398 574.732 46.706C574.2 47.014 573.598 47.168 572.926 47.168ZM572.926 45.964C573.309 45.964 573.654 45.8707 573.962 45.684C574.279 45.4973 574.531 45.222 574.718 44.858C574.914 44.4847 575.012 44.0227 575.012 43.472C575.012 42.9213 574.919 42.464 574.732 42.1C574.545 41.7267 574.293 41.4467 573.976 41.26C573.668 41.0733 573.327 40.98 572.954 40.98C572.581 40.98 572.235 41.0733 571.918 41.26C571.601 41.4467 571.344 41.7267 571.148 42.1C570.961 42.464 570.868 42.9213 570.868 43.472C570.868 44.0227 570.961 44.4847 571.148 44.858C571.344 45.222 571.596 45.4973 571.904 45.684C572.221 45.8707 572.562 45.964 572.926 45.964ZM578.087 50.08V39.944H579.347L579.487 41.036C579.636 40.8213 579.823 40.6207 580.047 40.434C580.271 40.238 580.537 40.0793 580.845 39.958C581.162 39.8367 581.531 39.776 581.951 39.776C582.623 39.776 583.211 39.9393 583.715 40.266C584.228 40.5927 584.625 41.036 584.905 41.596C585.194 42.1467 585.339 42.7767 585.339 43.486C585.339 44.1953 585.194 44.83 584.905 45.39C584.615 45.9407 584.214 46.3747 583.701 46.692C583.197 47.0093 582.609 47.168 581.937 47.168C581.386 47.168 580.901 47.0607 580.481 46.846C580.061 46.622 579.729 46.314 579.487 45.922V50.08H578.087ZM581.713 45.95C582.142 45.95 582.52 45.8473 582.847 45.642C583.183 45.4367 583.444 45.1473 583.631 44.774C583.827 44.4007 583.925 43.9667 583.925 43.472C583.925 42.9773 583.827 42.548 583.631 42.184C583.444 41.8107 583.183 41.5213 582.847 41.316C582.52 41.1013 582.142 40.994 581.713 40.994C581.274 40.994 580.887 41.1013 580.551 41.316C580.224 41.5213 579.967 41.8107 579.781 42.184C579.594 42.548 579.501 42.9773 579.501 43.472C579.501 43.9667 579.594 44.4007 579.781 44.774C579.967 45.1473 580.224 45.4367 580.551 45.642C580.887 45.8473 581.274 45.95 581.713 45.95ZM594.238 47.168C593.547 47.168 592.922 47.0327 592.362 46.762C591.802 46.482 591.354 46.062 591.018 45.502C590.691 44.9327 590.528 44.2093 590.528 43.332V37.2H591.928V43.346C591.928 43.934 592.026 44.4193 592.222 44.802C592.418 45.1753 592.688 45.4553 593.034 45.642C593.388 45.8193 593.799 45.908 594.266 45.908C594.742 45.908 595.152 45.8193 595.498 45.642C595.843 45.4553 596.109 45.1753 596.296 44.802C596.492 44.4193 596.59 43.934 596.59 43.346V37.2H597.99V43.332C597.99 44.2093 597.822 44.9327 597.486 45.502C597.15 46.062 596.697 46.482 596.128 46.762C595.558 47.0327 594.928 47.168 594.238 47.168ZM599.866 50.08V39.944H601.126L601.266 41.036C601.415 40.8213 601.602 40.6207 601.826 40.434C602.05 40.238 602.316 40.0793 602.624 39.958C602.941 39.8367 603.31 39.776 603.73 39.776C604.402 39.776 604.99 39.9393 605.494 40.266C606.007 40.5927 606.404 41.036 606.684 41.596C606.973 42.1467 607.118 42.7767 607.118 43.486C607.118 44.1953 606.973 44.83 606.684 45.39C606.395 45.9407 605.993 46.3747 605.48 46.692C604.976 47.0093 604.388 47.168 603.716 47.168C603.165 47.168 602.68 47.0607 602.26 46.846C601.84 46.622 601.509 46.314 601.266 45.922V50.08H599.866ZM603.492 45.95C603.921 45.95 604.299 45.8473 604.626 45.642C604.962 45.4367 605.223 45.1473 605.41 44.774C605.606 44.4007 605.704 43.9667 605.704 43.472C605.704 42.9773 605.606 42.548 605.41 42.184C605.223 41.8107 604.962 41.5213 604.626 41.316C604.299 41.1013 603.921 40.994 603.492 40.994C603.053 40.994 602.666 41.1013 602.33 41.316C602.003 41.5213 601.747 41.8107 601.56 42.184C601.373 42.548 601.28 42.9773 601.28 43.472C601.28 43.9667 601.373 44.4007 601.56 44.774C601.747 45.1473 602.003 45.4367 602.33 45.642C602.666 45.8473 603.053 45.95 603.492 45.95Z" fill="#0B57D0"/>
<path d="M355.878 105.145C355.205 105.142 354.629 104.964 354.152 104.612C353.675 104.26 353.31 103.747 353.057 103.074C352.804 102.401 352.678 101.589 352.678 100.641C352.678 99.6946 352.804 98.8864 353.057 98.2159C353.313 97.5455 353.679 97.0341 354.156 96.6818C354.636 96.3295 355.21 96.1534 355.878 96.1534C356.545 96.1534 357.118 96.331 357.595 96.6861C358.072 97.0384 358.438 97.5497 358.69 98.2202C358.946 98.8878 359.074 99.6946 359.074 100.641C359.074 101.592 358.947 102.405 358.695 103.078C358.442 103.749 358.077 104.261 357.599 104.616C357.122 104.969 356.548 105.145 355.878 105.145ZM355.878 104.007C356.469 104.007 356.93 103.719 357.263 103.142C357.598 102.565 357.766 101.732 357.766 100.641C357.766 99.9162 357.689 99.304 357.536 98.804C357.385 98.3011 357.168 97.9205 356.884 97.6619C356.602 97.4006 356.267 97.2699 355.878 97.2699C355.29 97.2699 354.828 97.5597 354.493 98.1392C354.158 98.7187 353.989 99.5526 353.986 100.641C353.986 101.368 354.061 101.983 354.212 102.486C354.365 102.986 354.582 103.365 354.864 103.624C355.145 103.879 355.483 104.007 355.878 104.007Z" fill="#2772F5"/>
<path d="M509.741 96.1534C510.131 96.1562 510.514 96.2273 510.892 96.3665C511.27 96.5057 511.611 96.733 511.915 97.0483C512.222 97.3636 512.466 97.7898 512.648 98.3267C512.832 98.8608 512.926 99.5256 512.929 100.321C512.929 101.085 512.852 101.766 512.699 102.362C512.545 102.956 512.325 103.457 512.038 103.866C511.754 104.276 511.409 104.587 511.003 104.8C510.597 105.013 510.139 105.119 509.631 105.119C509.111 105.119 508.649 105.017 508.246 104.812C507.842 104.608 507.514 104.325 507.261 103.964C507.009 103.601 506.851 103.183 506.788 102.712H508.088C508.173 103.087 508.347 103.391 508.608 103.624C508.872 103.854 509.213 103.969 509.631 103.969C510.27 103.969 510.768 103.69 511.126 103.134C511.484 102.574 511.665 101.793 511.668 100.79H511.599C511.452 101.034 511.267 101.244 511.045 101.42C510.827 101.597 510.581 101.733 510.308 101.83C510.036 101.926 509.744 101.974 509.435 101.974C508.932 101.974 508.474 101.851 508.062 101.604C507.651 101.357 507.322 101.017 507.078 100.585C506.834 100.153 506.712 99.6605 506.712 99.1065C506.712 98.5554 506.837 98.0554 507.087 97.6065C507.339 97.1577 507.692 96.8026 508.143 96.5412C508.598 96.277 509.131 96.1477 509.741 96.1534ZM509.746 97.2614C509.413 97.2614 509.114 97.3437 508.847 97.5085C508.582 97.6705 508.374 97.8906 508.22 98.169C508.067 98.4446 507.99 98.7514 507.99 99.0895C507.99 99.4276 508.064 99.7344 508.212 100.01C508.362 100.283 508.567 100.5 508.825 100.662C509.087 100.821 509.385 100.901 509.72 100.901C509.97 100.901 510.203 100.852 510.419 100.756C510.635 100.659 510.824 100.526 510.986 100.355C511.148 100.182 511.274 99.9858 511.365 99.767C511.456 99.5483 511.501 99.3182 511.501 99.0767C511.501 98.7557 511.425 98.4574 511.271 98.1818C511.121 97.9062 510.913 97.6847 510.649 97.517C510.385 97.3466 510.084 97.2614 509.746 97.2614ZM517.627 105.145C516.953 105.142 516.378 104.964 515.901 104.612C515.424 104.26 515.059 103.747 514.806 103.074C514.553 102.401 514.426 101.589 514.426 100.641C514.426 99.6946 514.553 98.8864 514.806 98.2159C515.061 97.5455 515.428 97.0341 515.905 96.6818C516.385 96.3295 516.959 96.1534 517.627 96.1534C518.294 96.1534 518.867 96.331 519.344 96.6861C519.821 97.0384 520.186 97.5497 520.439 98.2202C520.695 98.8878 520.823 99.6946 520.823 100.641C520.823 101.592 520.696 102.405 520.444 103.078C520.191 103.749 519.826 104.261 519.348 104.616C518.871 104.969 518.297 105.145 517.627 105.145ZM517.627 104.007C518.218 104.007 518.679 103.719 519.012 103.142C519.347 102.565 519.515 101.732 519.515 100.641C519.515 99.9162 519.438 99.304 519.284 98.804C519.134 98.3011 518.917 97.9205 518.632 97.6619C518.351 97.4006 518.016 97.2699 517.627 97.2699C517.039 97.2699 516.577 97.5597 516.242 98.1392C515.907 98.7187 515.738 99.5526 515.735 100.641C515.735 101.368 515.81 101.983 515.961 102.486C516.114 102.986 516.331 103.365 516.613 103.624C516.894 103.879 517.232 104.007 517.627 104.007ZM522.574 96.2727H524.172L526.95 103.057H527.052L529.831 96.2727H531.429V105H530.176V98.6847H530.095L527.521 104.987H526.481L523.908 98.6804H523.827V105H522.574V96.2727Z" fill="#85B4FF"/>
<rect x="352" y="114" width="181" height="8" rx="4" fill="#D6E6FF"/>
<rect x="352" y="114" width="114.531" height="8" rx="4" fill="#2772F5"/>
<path d="M566.044 112.744C565.813 114.919 564.581 116.957 562.541 118.134C559.154 120.09 554.821 118.929 552.865 115.541L552.657 115.18M551.955 111.256C552.187 109.081 553.419 107.043 555.458 105.865C558.846 103.909 563.178 105.07 565.134 108.458L565.343 108.819M551.911 117.055L552.521 114.778L554.798 115.388M563.202 108.611L565.479 109.221L566.089 106.945M559 108.25V112L561.083 113.25" stroke="#2772F5" stroke-width="1.6" stroke-linecap="round" stroke-linejoin="round"/>
<path d="M582.371 106.818V117H580.731L575.933 110.065H575.849V117H574.004V106.818H575.655L580.447 113.759H580.537V106.818H582.371ZM587.773 117.149C587.027 117.149 586.381 116.985 585.834 116.657C585.287 116.329 584.863 115.87 584.561 115.28C584.263 114.69 584.114 114 584.114 113.212C584.114 112.423 584.263 111.732 584.561 111.138C584.863 110.545 585.287 110.085 585.834 109.756C586.381 109.428 587.027 109.264 587.773 109.264C588.518 109.264 589.165 109.428 589.712 109.756C590.258 110.085 590.681 110.545 590.979 111.138C591.281 111.732 591.432 112.423 591.432 113.212C591.432 114 591.281 114.69 590.979 115.28C590.681 115.87 590.258 116.329 589.712 116.657C589.165 116.985 588.518 117.149 587.773 117.149ZM587.783 115.707C588.187 115.707 588.525 115.596 588.797 115.374C589.069 115.149 589.271 114.847 589.403 114.469C589.539 114.092 589.607 113.671 589.607 113.207C589.607 112.739 589.539 112.317 589.403 111.939C589.271 111.558 589.069 111.254 588.797 111.029C588.525 110.804 588.187 110.691 587.783 110.691C587.368 110.691 587.024 110.804 586.748 111.029C586.477 111.254 586.273 111.558 586.137 111.939C586.004 112.317 585.938 112.739 585.938 113.207C585.938 113.671 586.004 114.092 586.137 114.469C586.273 114.847 586.477 115.149 586.748 115.374C587.024 115.596 587.368 115.707 587.783 115.707ZM599.661 109.364L596.941 117H594.952L592.233 109.364H594.152L595.907 115.036H595.986L597.746 109.364H599.661ZM608.78 106.818V117H606.936V108.613H606.876L604.494 110.134V108.444L607.025 106.818H608.78ZM615.269 117.194C614.45 117.194 613.747 116.987 613.161 116.572C612.577 116.155 612.128 115.553 611.813 114.768C611.502 113.979 611.346 113.029 611.346 111.919C611.349 110.809 611.507 109.864 611.818 109.085C612.133 108.303 612.582 107.706 613.166 107.295C613.752 106.884 614.453 106.679 615.269 106.679C616.084 106.679 616.785 106.884 617.372 107.295C617.958 107.706 618.407 108.303 618.719 109.085C619.034 109.867 619.191 110.812 619.191 111.919C619.191 113.033 619.034 113.984 618.719 114.773C618.407 115.558 617.958 116.158 617.372 116.572C616.788 116.987 616.087 117.194 615.269 117.194ZM615.269 115.638C615.905 115.638 616.407 115.325 616.775 114.698C617.146 114.068 617.332 113.142 617.332 111.919C617.332 111.11 617.247 110.431 617.078 109.881C616.909 109.33 616.671 108.916 616.362 108.638C616.054 108.356 615.69 108.215 615.269 108.215C614.636 108.215 614.135 108.53 613.767 109.16C613.399 109.786 613.214 110.706 613.21 111.919C613.207 112.731 613.288 113.414 613.454 113.967C613.623 114.521 613.862 114.938 614.17 115.22C614.478 115.499 614.844 115.638 615.269 115.638Z" fill="#0B57D0"/>
<rect x="660.5" y="0.5" width="311" height="145" rx="23.5" fill="white"/>
<rect x="660.5" y="0.5" width="311" height="145" rx="23.5" stroke="#EDEDF0"/>
<path d="M685.119 39V28.8182H688.748C689.537 28.8182 690.191 28.9541 690.712 29.2259C691.235 29.4976 691.626 29.8738 691.885 30.3544C692.143 30.8317 692.273 31.3835 692.273 32.0099C692.273 32.633 692.142 33.1816 691.88 33.6555C691.621 34.1262 691.23 34.4924 690.707 34.7543C690.186 35.0161 689.532 35.147 688.743 35.147H685.994V33.8246H688.604C689.101 33.8246 689.505 33.7533 689.817 33.6108C690.132 33.4683 690.362 33.2611 690.508 32.9893C690.654 32.7176 690.727 32.3911 690.727 32.0099C690.727 31.6255 690.652 31.2924 690.503 31.0107C690.357 30.7289 690.127 30.5135 689.812 30.3643C689.5 30.2119 689.091 30.1357 688.584 30.1357H686.655V39H685.119ZM690.145 34.4062L692.661 39H690.911L688.445 34.4062H690.145ZM696.385 39.169C695.901 39.169 695.464 39.0795 695.073 38.9006C694.681 38.7183 694.372 38.4548 694.143 38.1101C693.917 37.7654 693.805 37.3428 693.805 36.8423C693.805 36.4115 693.888 36.0568 694.053 35.7784C694.219 35.5 694.443 35.2796 694.725 35.1172C695.006 34.9548 695.321 34.8321 695.669 34.7493C696.017 34.6664 696.372 34.6035 696.733 34.5604C697.19 34.5073 697.562 34.4643 697.847 34.4311C698.132 34.3946 698.339 34.3366 698.468 34.2571C698.597 34.1776 698.662 34.0483 698.662 33.8693V33.8345C698.662 33.4003 698.539 33.0639 698.294 32.8253C698.052 32.5866 697.691 32.4673 697.21 32.4673C696.71 32.4673 696.315 32.5784 696.027 32.8004C695.742 33.0192 695.545 33.2628 695.435 33.5312L694.038 33.2131C694.204 32.7491 694.446 32.3745 694.764 32.0895C695.086 31.8011 695.455 31.5923 695.873 31.4631C696.291 31.3305 696.73 31.2642 697.19 31.2642C697.495 31.2642 697.819 31.3007 698.16 31.3736C698.505 31.4432 698.826 31.5724 699.124 31.7614C699.426 31.9503 699.673 32.2204 699.865 32.5717C700.057 32.9197 700.153 33.3722 700.153 33.929V39H698.702V37.956H698.642C698.546 38.1482 698.402 38.3371 698.21 38.5227C698.017 38.7083 697.77 38.8625 697.469 38.9851C697.167 39.1077 696.806 39.169 696.385 39.169ZM696.708 37.9759C697.119 37.9759 697.47 37.8946 697.762 37.7322C698.057 37.5698 698.281 37.3577 698.433 37.0959C698.589 36.8307 698.667 36.5473 698.667 36.2457V35.2614C698.614 35.3144 698.511 35.3641 698.359 35.4105C698.21 35.4536 698.039 35.4917 697.847 35.5249C697.654 35.5547 697.467 35.5829 697.285 35.6094C697.103 35.6326 696.95 35.6525 696.828 35.669C696.539 35.7055 696.276 35.7668 696.037 35.853C695.802 35.9392 695.613 36.0634 695.47 36.2259C695.331 36.3849 695.261 36.5971 695.261 36.8622C695.261 37.2301 695.397 37.5085 695.669 37.6974C695.941 37.883 696.287 37.9759 696.708 37.9759ZM705.838 31.3636V32.5568H701.667V31.3636H705.838ZM702.786 29.5341H704.272V36.7578C704.272 37.0462 704.315 37.2633 704.401 37.4091C704.487 37.5516 704.598 37.6494 704.734 37.7024C704.874 37.7521 705.024 37.777 705.187 37.777C705.306 37.777 705.411 37.7687 705.5 37.7521C705.589 37.7356 705.659 37.7223 705.709 37.7124L705.977 38.9403C705.891 38.9735 705.768 39.0066 705.609 39.0398C705.45 39.0762 705.251 39.0961 705.013 39.0994C704.622 39.1061 704.257 39.0365 703.919 38.8906C703.581 38.7448 703.308 38.5194 703.099 38.2145C702.89 37.9096 702.786 37.5268 702.786 37.0661V29.5341ZM710.832 39.1541C710.079 39.1541 709.431 38.9934 708.888 38.6719C708.347 38.3471 707.93 37.8913 707.635 37.3047C707.343 36.7147 707.197 36.0237 707.197 35.2315C707.197 34.4493 707.343 33.7599 707.635 33.1634C707.93 32.5668 708.341 32.1011 708.868 31.7663C709.398 31.4316 710.018 31.2642 710.727 31.2642C711.158 31.2642 711.576 31.3355 711.98 31.478C712.384 31.6205 712.747 31.8442 713.069 32.1491C713.39 32.4541 713.644 32.8501 713.829 33.3374C714.015 33.8213 714.108 34.4096 714.108 35.1023V35.6293H708.038V34.5156H712.651C712.651 34.1245 712.572 33.7782 712.413 33.4766C712.253 33.1716 712.03 32.9313 711.741 32.7557C711.456 32.58 711.122 32.4922 710.737 32.4922C710.32 32.4922 709.955 32.5949 709.643 32.8004C709.335 33.0026 709.096 33.2678 708.927 33.5959C708.762 33.9207 708.679 34.2737 708.679 34.6548V35.5249C708.679 36.0353 708.768 36.4695 708.947 36.8274C709.13 37.1854 709.383 37.4588 709.708 37.6477C710.033 37.8333 710.412 37.9261 710.846 37.9261C711.128 37.9261 711.385 37.8864 711.617 37.8068C711.849 37.724 712.05 37.6013 712.219 37.4389C712.388 37.2765 712.517 37.076 712.606 36.8374L714.013 37.0909C713.901 37.5052 713.699 37.8681 713.407 38.1797C713.119 38.4879 712.756 38.7282 712.318 38.9006C711.884 39.0696 711.388 39.1541 710.832 39.1541ZM721.229 28.8182V39H719.742V28.8182H721.229ZM723.369 39V31.3636H724.855V39H723.369ZM724.119 30.1854C723.861 30.1854 723.639 30.0992 723.453 29.9268C723.271 29.7512 723.18 29.5424 723.18 29.3004C723.18 29.0552 723.271 28.8464 723.453 28.674C723.639 28.4983 723.861 28.4105 724.119 28.4105C724.378 28.4105 724.598 28.4983 724.781 28.674C724.966 28.8464 725.059 29.0552 725.059 29.3004C725.059 29.5424 724.966 29.7512 724.781 29.9268C724.598 30.0992 724.378 30.1854 724.119 30.1854ZM726.995 39V31.3636H728.422V32.6065H728.516C728.675 32.1856 728.935 31.8575 729.297 31.6222C729.658 31.3835 730.091 31.2642 730.594 31.2642C731.105 31.2642 731.532 31.3835 731.877 31.6222C732.225 31.8608 732.482 32.1889 732.648 32.6065H732.727C732.909 32.1989 733.199 31.8741 733.597 31.6321C733.995 31.3868 734.469 31.2642 735.019 31.2642C735.712 31.2642 736.277 31.4813 736.714 31.9155C737.155 32.3497 737.376 33.0043 737.376 33.8793V39H735.889V34.0185C735.889 33.5014 735.748 33.1269 735.467 32.8949C735.185 32.6629 734.848 32.5469 734.457 32.5469C733.973 32.5469 733.597 32.696 733.329 32.9943C733.06 33.2893 732.926 33.6688 732.926 34.1328V39H731.444V33.924C731.444 33.5097 731.315 33.1766 731.057 32.9247C730.798 32.6728 730.462 32.5469 730.047 32.5469C729.766 32.5469 729.506 32.6214 729.267 32.7706C729.032 32.9164 728.841 33.1203 728.695 33.3821C728.553 33.6439 728.481 33.9472 728.481 34.2919V39H726.995ZM739.508 39V31.3636H740.994V39H739.508ZM740.259 30.1854C740 30.1854 739.778 30.0992 739.592 29.9268C739.41 29.7512 739.319 29.5424 739.319 29.3004C739.319 29.0552 739.41 28.8464 739.592 28.674C739.778 28.4983 740 28.4105 740.259 28.4105C740.517 28.4105 740.738 28.4983 740.92 28.674C741.105 28.8464 741.198 29.0552 741.198 29.3004C741.198 29.5424 741.105 29.7512 740.92 29.9268C740.738 30.0992 740.517 30.1854 740.259 30.1854ZM746.699 31.3636V32.5568H742.528V31.3636H746.699ZM743.646 29.5341H745.133V36.7578C745.133 37.0462 745.176 37.2633 745.262 37.4091C745.348 37.5516 745.459 37.6494 745.595 37.7024C745.734 37.7521 745.885 37.777 746.048 37.777C746.167 37.777 746.271 37.7687 746.361 37.7521C746.45 37.7356 746.52 37.7223 746.57 37.7124L746.838 38.9403C746.752 38.9735 746.629 39.0066 746.47 39.0398C746.311 39.0762 746.112 39.0961 745.874 39.0994C745.483 39.1061 745.118 39.0365 744.78 38.8906C744.442 38.7448 744.168 38.5194 743.96 38.2145C743.751 37.9096 743.646 37.5268 743.646 37.0661V29.5341Z" fill="#AEAEB2"/>
<path d="M685.551 69V66.7159L691.611 60.7756C692.19 60.1903 692.673 59.6705 693.06 59.2159C693.446 58.7614 693.736 58.321 693.929 57.8949C694.122 57.4687 694.219 57.0142 694.219 56.5312C694.219 55.9801 694.094 55.5085 693.844 55.1165C693.594 54.7188 693.25 54.4119 692.812 54.196C692.375 53.9801 691.878 53.8722 691.321 53.8722C690.747 53.8722 690.244 53.9915 689.812 54.2301C689.381 54.4631 689.045 54.7955 688.807 55.2273C688.574 55.6591 688.457 56.1733 688.457 56.7699H685.449C685.449 55.6619 685.702 54.6989 686.207 53.8807C686.713 53.0625 687.409 52.429 688.295 51.9801C689.188 51.5312 690.21 51.3068 691.364 51.3068C692.534 51.3068 693.563 51.5256 694.449 51.9631C695.335 52.4006 696.023 53 696.511 53.7614C697.006 54.5227 697.253 55.392 697.253 56.3693C697.253 57.0227 697.128 57.6648 696.878 58.2955C696.628 58.9261 696.188 59.625 695.557 60.392C694.932 61.1591 694.054 62.0881 692.923 63.179L689.915 66.2386V66.358H697.517V69H685.551ZM706.526 69.2386C705.389 69.2386 704.372 69.0256 703.474 68.5994C702.577 68.1676 701.864 67.5767 701.335 66.8267C700.813 66.0767 700.534 65.2187 700.5 64.2528H703.568C703.625 64.9687 703.935 65.554 704.497 66.0085C705.06 66.4574 705.736 66.6818 706.526 66.6818C707.145 66.6818 707.696 66.5398 708.179 66.2557C708.662 65.9716 709.043 65.5767 709.321 65.071C709.599 64.5653 709.736 63.9886 709.73 63.3409C709.736 62.6818 709.597 62.0966 709.312 61.5852C709.028 61.0739 708.639 60.6733 708.145 60.3835C707.651 60.0881 707.082 59.9403 706.44 59.9403C705.918 59.9347 705.403 60.0312 704.898 60.2301C704.392 60.429 703.991 60.6903 703.696 61.0142L700.841 60.5455L701.753 51.5455H711.878V54.1875H704.369L703.866 58.8153H703.969C704.293 58.4347 704.75 58.1193 705.341 57.8693C705.932 57.6136 706.58 57.4858 707.284 57.4858C708.341 57.4858 709.284 57.7358 710.114 58.2358C710.943 58.7301 711.597 59.4119 712.074 60.2812C712.551 61.1506 712.79 62.1449 712.79 63.2642C712.79 64.4176 712.523 65.446 711.989 66.3494C711.46 67.2472 710.724 67.9545 709.781 68.4716C708.844 68.983 707.759 69.2386 706.526 69.2386ZM722.097 69.3324C720.693 69.3324 719.489 68.9773 718.483 68.267C717.483 67.5511 716.713 66.5199 716.173 65.1733C715.639 63.821 715.372 62.1932 715.372 60.2898C715.378 58.3864 715.648 56.767 716.182 55.4318C716.722 54.0909 717.491 53.0682 718.491 52.3636C719.497 51.6591 720.699 51.3068 722.097 51.3068C723.494 51.3068 724.696 51.6591 725.702 52.3636C726.707 53.0682 727.477 54.0909 728.011 55.4318C728.551 56.7727 728.821 58.392 728.821 60.2898C728.821 62.1989 728.551 63.8295 728.011 65.1818C727.477 66.5284 726.707 67.5568 725.702 68.267C724.702 68.9773 723.5 69.3324 722.097 69.3324ZM722.097 66.6648C723.188 66.6648 724.048 66.1278 724.679 65.054C725.315 63.9744 725.634 62.3864 725.634 60.2898C725.634 58.9034 725.489 57.7386 725.199 56.7955C724.909 55.8523 724.5 55.142 723.972 54.6648C723.443 54.1818 722.818 53.9403 722.097 53.9403C721.011 53.9403 720.153 54.4801 719.523 55.5597C718.892 56.6335 718.574 58.2102 718.568 60.2898C718.563 61.6818 718.702 62.8523 718.986 63.8011C719.276 64.75 719.685 65.4659 720.213 65.9489C720.741 66.4261 721.369 66.6648 722.097 66.6648ZM737.202 69V57.3636H741.566C742.46 57.3636 743.21 57.5189 743.816 57.8295C744.426 58.1402 744.886 58.5758 745.197 59.1364C745.511 59.6932 745.668 60.3428 745.668 61.0852C745.668 61.8314 745.509 62.4792 745.191 63.0284C744.877 63.5739 744.413 63.9962 743.799 64.2955C743.185 64.5909 742.432 64.7386 741.538 64.7386H738.43V62.9886H741.254C741.776 62.9886 742.204 62.9167 742.538 62.7727C742.871 62.625 743.117 62.411 743.276 62.1307C743.439 61.8466 743.521 61.4981 743.521 61.0852C743.521 60.6723 743.439 60.3201 743.276 60.0284C743.113 59.733 742.865 59.5095 742.532 59.358C742.199 59.2027 741.769 59.125 741.242 59.125H739.31V69H737.202ZM743.214 63.7273L746.094 69H743.742L740.913 63.7273H743.214ZM747.609 69V57.3636H751.972C752.866 57.3636 753.616 57.5303 754.222 57.8636C754.832 58.197 755.292 58.6553 755.603 59.2386C755.917 59.8182 756.075 60.4773 756.075 61.2159C756.075 61.9621 755.917 62.625 755.603 63.2045C755.289 63.7841 754.825 64.2405 754.211 64.5739C753.597 64.9034 752.842 65.0682 751.944 65.0682H749.052V63.3352H751.66C752.183 63.3352 752.611 63.2443 752.944 63.0625C753.277 62.8807 753.523 62.6307 753.683 62.3125C753.845 61.9943 753.927 61.6288 753.927 61.2159C753.927 60.803 753.845 60.4394 753.683 60.125C753.523 59.8106 753.275 59.5663 752.938 59.392C752.605 59.214 752.175 59.125 751.648 59.125H749.717V69H747.609ZM764.229 60.5625C764.176 60.0663 763.953 59.6799 763.559 59.4034C763.169 59.1269 762.661 58.9886 762.036 58.9886C761.597 58.9886 761.22 59.0549 760.906 59.1875C760.591 59.3201 760.351 59.5 760.184 59.7273C760.017 59.9545 759.932 60.214 759.928 60.5057C759.928 60.7481 759.983 60.9583 760.093 61.1364C760.207 61.3144 760.36 61.4659 760.553 61.5909C760.746 61.7121 760.96 61.8144 761.195 61.8977C761.43 61.9811 761.667 62.0511 761.906 62.108L762.996 62.3807C763.436 62.483 763.858 62.6212 764.263 62.7955C764.673 62.9697 765.038 63.1894 765.36 63.4545C765.686 63.7197 765.943 64.0398 766.133 64.4148C766.322 64.7898 766.417 65.2292 766.417 65.733C766.417 66.4148 766.243 67.0152 765.894 67.5341C765.546 68.0492 765.042 68.4527 764.383 68.7443C763.728 69.0322 762.934 69.1761 762.002 69.1761C761.097 69.1761 760.311 69.036 759.644 68.7557C758.981 68.4754 758.462 68.0663 758.087 67.5284C757.716 66.9905 757.515 66.3352 757.485 65.5625H759.559C759.589 65.9678 759.714 66.3049 759.934 66.5739C760.154 66.8428 760.44 67.0436 760.792 67.1761C761.148 67.3087 761.546 67.375 761.985 67.375C762.443 67.375 762.845 67.3068 763.19 67.1705C763.538 67.0303 763.811 66.8371 764.008 66.5909C764.205 66.3409 764.305 66.0492 764.309 65.7159C764.305 65.4129 764.216 65.1629 764.042 64.9659C763.868 64.7652 763.623 64.5985 763.309 64.4659C762.998 64.3295 762.635 64.2083 762.218 64.1023L760.894 63.7614C759.936 63.5152 759.178 63.142 758.621 62.642C758.068 62.1383 757.792 61.4697 757.792 60.6364C757.792 59.9508 757.978 59.3504 758.349 58.8352C758.724 58.3201 759.233 57.9205 759.877 57.6364C760.521 57.3485 761.25 57.2045 762.065 57.2045C762.89 57.2045 763.614 57.3485 764.235 57.6364C764.86 57.9205 765.351 58.3163 765.707 58.8239C766.063 59.3277 766.246 59.9072 766.258 60.5625H764.229Z" fill="#1E1E1F"/>
<line x1="684" y1="105.5" x2="944" y2="105.5" stroke="#C2DAFF" stroke-dasharray="2 2"/>
<path d="M684 109C684 106.791 685.791 105 688 105C690.209 105 692 106.791 692 109V118C692 120.209 690.209 122 688 122C685.791 122 684 120.209 684 118V109Z" fill="url(#paint0_linear_295_2224)"/>
<path d="M696 102C696 99.7909 697.791 98 700 98C702.209 98 704 99.7909 704 102V118C704 120.209 702.209 122 700 122C697.791 122 696 120.209 696 118V102Z" fill="url(#paint1_linear_295_2224)"/>
<path d="M708 102C708 99.7909 709.791 98 712 98C714.209 98 716 99.7909 716 102V118C716 120.209 714.209 122 712 122C709.791 122 708 120.209 708 118V102Z" fill="url(#paint2_linear_295_2224)"/>
<path d="M720 109C720 106.791 721.791 105 724 105C726.209 105 728 106.791 728 109V118C728 120.209 726.209 122 724 122C721.791 122 720 120.209 720 118V109Z" fill="url(#paint3_linear_295_2224)"/>
<path d="M732 109C732 106.791 733.791 105 736 105C738.209 105 740 106.791 740 109V118C740 120.209 738.209 122 736 122C733.791 122 732 120.209 732 118V109Z" fill="url(#paint4_linear_295_2224)"/>
<path d="M744 105C744 102.791 745.791 101 748 101C750.209 101 752 102.791 752 105V118C752 120.209 750.209 122 748 122C745.791 122 744 120.209 744 118V105Z" fill="url(#paint5_linear_295_2224)"/>
<path d="M756 96C756 93.7909 757.791 92 760 92C762.209 92 764 93.7909 764 96V118C764 120.209 762.209 122 760 122C757.791 122 756 120.209 756 118V96Z" fill="url(#paint6_linear_295_2224)"/>
<path d="M768 98C768 95.7909 769.791 94 772 94C774.209 94 776 95.7909 776 98V118C776 120.209 774.209 122 772 122C769.791 122 768 120.209 768 118V98Z" fill="url(#paint7_linear_295_2224)"/>
<path d="M780 105C780 102.791 781.791 101 784 101C786.209 101 788 102.791 788 105V118C788 120.209 786.209 122 784 122C781.791 122 780 120.209 780 118V105Z" fill="url(#paint8_linear_295_2224)"/>
<path d="M792 109C792 106.791 793.791 105 796 105C798.209 105 800 106.791 800 109V118C800 120.209 798.209 122 796 122C793.791 122 792 120.209 792 118V109Z" fill="url(#paint9_linear_295_2224)"/>
<path d="M804 109C804 106.791 805.791 105 808 105C810.209 105 812 106.791 812 109V118C812 120.209 810.209 122 808 122C805.791 122 804 120.209 804 118V109Z" fill="url(#paint10_linear_295_2224)"/>
<path d="M816 105C816 102.791 817.791 101 820 101C822.209 101 824 102.791 824 105V118C824 120.209 822.209 122 820 122C817.791 122 816 120.209 816 118V105Z" fill="url(#paint11_linear_295_2224)"/>
<path d="M828 98C828 95.7909 829.791 94 832 94C834.209 94 836 95.7909 836 98V118C836 120.209 834.209 122 832 122C829.791 122 828 120.209 828 118V98Z" fill="url(#paint12_linear_295_2224)"/>
<path d="M840 105C840 102.791 841.791 101 844 101C846.209 101 848 102.791 848 105V118C848 120.209 846.209 122 844 122C841.791 122 840 120.209 840 118V105Z" fill="url(#paint13_linear_295_2224)"/>
<path d="M852 102C852 99.7909 853.791 98 856 98C858.209 98 860 99.7909 860 102V118C860 120.209 858.209 122 856 122C853.791 122 852 120.209 852 118V102Z" fill="url(#paint14_linear_295_2224)"/>
<path d="M864 109C864 106.791 865.791 105 868 105C870.209 105 872 106.791 872 109V118C872 120.209 870.209 122 868 122C865.791 122 864 120.209 864 118V109Z" fill="url(#paint15_linear_295_2224)"/>
<path d="M876 108C876 105.791 877.791 104 880 104C882.209 104 884 105.791 884 108V118C884 120.209 882.209 122 880 122C877.791 122 876 120.209 876 118V108Z" fill="url(#paint16_linear_295_2224)"/>
<path d="M888 109C888 106.791 889.791 105 892 105C894.209 105 896 106.791 896 109V118C896 120.209 894.209 122 892 122C889.791 122 888 120.209 888 118V109Z" fill="url(#paint17_linear_295_2224)"/>
<path d="M900 105C900 102.791 901.791 101 904 101C906.209 101 908 102.791 908 105V118C908 120.209 906.209 122 904 122C901.791 122 900 120.209 900 118V105Z" fill="url(#paint18_linear_295_2224)"/>
<path d="M912 98C912 95.7909 913.791 94 916 94C918.209 94 920 95.7909 920 98V118C920 120.209 918.209 122 916 122C913.791 122 912 120.209 912 118V98Z" fill="url(#paint19_linear_295_2224)"/>
<path d="M924 98C924 95.7909 925.791 94 928 94C930.209 94 932 95.7909 932 98V118C932 120.209 930.209 122 928 122C925.791 122 924 120.209 924 118V98Z" fill="url(#paint20_linear_295_2224)"/>
<path d="M936 109C936 106.791 937.791 105 940 105C942.209 105 944 106.791 944 109V118C944 120.209 942.209 122 940 122C937.791 122 936 120.209 936 118V109Z" fill="url(#paint21_linear_295_2224)"/>
<defs>
<linearGradient id="paint0_linear_295_2224" x1="814" y1="88.5" x2="814" y2="122" gradientUnits="userSpaceOnUse">
<stop offset="0.489483" stop-color="#FF6753"/>
<stop offset="0.489583" stop-color="#2772F5"/>
</linearGradient>
<linearGradient id="paint1_linear_295_2224" x1="814" y1="88.5" x2="814" y2="122" gradientUnits="userSpaceOnUse">
<stop offset="0.489483" stop-color="#FF6753"/>
<stop offset="0.489583" stop-color="#2772F5"/>
</linearGradient>
<linearGradient id="paint2_linear_295_2224" x1="814" y1="88.5" x2="814" y2="122" gradientUnits="userSpaceOnUse">
<stop offset="0.489483" stop-color="#FF6753"/>
<stop offset="0.489583" stop-color="#2772F5"/>
</linearGradient>
<linearGradient id="paint3_linear_295_2224" x1="814" y1="88.5" x2="814" y2="122" gradientUnits="userSpaceOnUse">
<stop offset="0.489483" stop-color="#FF6753"/>
<stop offset="0.489583" stop-color="#2772F5"/>
</linearGradient>
<linearGradient id="paint4_linear_295_2224" x1="814" y1="88.5" x2="814" y2="122" gradientUnits="userSpaceOnUse">
<stop offset="0.489483" stop-color="#FF6753"/>
<stop offset="0.489583" stop-color="#2772F5"/>
</linearGradient>
<linearGradient id="paint5_linear_295_2224" x1="814" y1="88.5" x2="814" y2="122" gradientUnits="userSpaceOnUse">
<stop offset="0.489483" stop-color="#FF6753"/>
<stop offset="0.489583" stop-color="#2772F5"/>
</linearGradient>
<linearGradient id="paint6_linear_295_2224" x1="814" y1="88.5" x2="814" y2="122" gradientUnits="userSpaceOnUse">
<stop offset="0.489483" stop-color="#FF6753"/>
<stop offset="0.489583" stop-color="#2772F5"/>
</linearGradient>
<linearGradient id="paint7_linear_295_2224" x1="814" y1="88.5" x2="814" y2="122" gradientUnits="userSpaceOnUse">
<stop offset="0.489483" stop-color="#FF6753"/>
<stop offset="0.489583" stop-color="#2772F5"/>
</linearGradient>
<linearGradient id="paint8_linear_295_2224" x1="814" y1="88.5" x2="814" y2="122" gradientUnits="userSpaceOnUse">
<stop offset="0.489483" stop-color="#FF6753"/>
<stop offset="0.489583" stop-color="#2772F5"/>
</linearGradient>
<linearGradient id="paint9_linear_295_2224" x1="814" y1="88.5" x2="814" y2="122" gradientUnits="userSpaceOnUse">
<stop offset="0.489483" stop-color="#FF6753"/>
<stop offset="0.489583" stop-color="#2772F5"/>
</linearGradient>
<linearGradient id="paint10_linear_295_2224" x1="814" y1="88.5" x2="814" y2="122" gradientUnits="userSpaceOnUse">
<stop offset="0.489483" stop-color="#FF6753"/>
<stop offset="0.489583" stop-color="#2772F5"/>
</linearGradient>
<linearGradient id="paint11_linear_295_2224" x1="814" y1="88.5" x2="814" y2="122" gradientUnits="userSpaceOnUse">
<stop offset="0.489483" stop-color="#FF6753"/>
<stop offset="0.489583" stop-color="#2772F5"/>
</linearGradient>
<linearGradient id="paint12_linear_295_2224" x1="814" y1="88.5" x2="814" y2="122" gradientUnits="userSpaceOnUse">
<stop offset="0.489483" stop-color="#FF6753"/>
<stop offset="0.489583" stop-color="#2772F5"/>
</linearGradient>
<linearGradient id="paint13_linear_295_2224" x1="814" y1="88.5" x2="814" y2="122" gradientUnits="userSpaceOnUse">
<stop offset="0.489483" stop-color="#FF6753"/>
<stop offset="0.489583" stop-color="#2772F5"/>
</linearGradient>
<linearGradient id="paint14_linear_295_2224" x1="814" y1="88.5" x2="814" y2="122" gradientUnits="userSpaceOnUse">
<stop offset="0.489483" stop-color="#FF6753"/>
<stop offset="0.489583" stop-color="#2772F5"/>
</linearGradient>
<linearGradient id="paint15_linear_295_2224" x1="814" y1="88.5" x2="814" y2="122" gradientUnits="userSpaceOnUse">
<stop offset="0.489483" stop-color="#FF6753"/>
<stop offset="0.489583" stop-color="#2772F5"/>
</linearGradient>
<linearGradient id="paint16_linear_295_2224" x1="814" y1="88.5" x2="814" y2="122" gradientUnits="userSpaceOnUse">
<stop offset="0.489483" stop-color="#FF6753"/>
<stop offset="0.489583" stop-color="#2772F5"/>
</linearGradient>
<linearGradient id="paint17_linear_295_2224" x1="814" y1="88.5" x2="814" y2="122" gradientUnits="userSpaceOnUse">
<stop offset="0.489483" stop-color="#FF6753"/>
<stop offset="0.489583" stop-color="#2772F5"/>
</linearGradient>
<linearGradient id="paint18_linear_295_2224" x1="814" y1="88.5" x2="814" y2="122" gradientUnits="userSpaceOnUse">
<stop offset="0.489483" stop-color="#FF6753"/>
<stop offset="0.489583" stop-color="#2772F5"/>
</linearGradient>
<linearGradient id="paint19_linear_295_2224" x1="814" y1="88.5" x2="814" y2="122" gradientUnits="userSpaceOnUse">
<stop offset="0.489483" stop-color="#FF6753"/>
<stop offset="0.489583" stop-color="#2772F5"/>
</linearGradient>
<linearGradient id="paint20_linear_295_2224" x1="814" y1="88.5" x2="814" y2="122" gradientUnits="userSpaceOnUse">
<stop offset="0.489483" stop-color="#FF6753"/>
<stop offset="0.489583" stop-color="#2772F5"/>
</linearGradient>
<linearGradient id="paint21_linear_295_2224" x1="814" y1="88.5" x2="814" y2="122" gradientUnits="userSpaceOnUse">
<stop offset="0.489483" stop-color="#FF6753"/>
<stop offset="0.489583" stop-color="#2772F5"/>
</linearGradient>
</defs>
</svg>
